<svg width="100%" height="100%" viewBox="0 0 24 24" fill="none" xmlns="http://www.w3.org/2000/svg">
<path fill-rule="evenodd" clip-rule="evenodd" d="M3.50521 3.54972C6.19252 1.25362 9.65298 1.67208 11.9929 3.71697C14.3301 1.6713 17.7537 1.28252 20.4709 3.54095C23.4445 6.01244 23.8016 10.2275 21.5118 13.174C20.7168 14.1971 19.2374 15.6827 17.7545 17.0968C16.255 18.5268 14.6963 19.9357 13.7042 20.821L13.6823 20.8406C13.5197 20.9857 13.3571 21.1308 13.2072 21.2445C13.0387 21.3722 12.8318 21.5037 12.5679 21.5829C12.1958 21.6945 11.7907 21.6945 11.4186 21.5829C11.1547 21.5037 10.9478 21.3722 10.7793 21.2445C10.6295 21.1308 10.4669 20.9858 10.3043 20.8406L10.2823 20.821C9.2902 19.9357 7.73154 18.5268 6.23203 17.0968C4.74915 15.6827 3.26977 14.1971 2.47471 13.174C0.176093 10.2161 0.598423 6.03334 3.50521 3.54972ZM11.9488 8.18378C11.8209 7.80008 11.4745 7.5312 11.071 7.50253C10.6676 7.47386 10.2866 7.69104 10.1057 8.0528L8.88209 10.5H8.50012C7.94784 10.5 7.50012 10.9477 7.50012 11.5C7.50012 12.0523 7.94784 12.5 8.50012 12.5H9.50012C9.87889 12.5 10.2252 12.286 10.3945 11.9472L10.8149 11.1066L12.0514 14.8162C12.1793 15.1999 12.5258 15.4688 12.9292 15.4975C13.3327 15.5262 13.7137 15.309 13.8945 14.9472L15.1182 12.5H15.5001C16.0524 12.5 16.5001 12.0523 16.5001 11.5C16.5001 10.9477 16.0524 10.5 15.5001 10.5H14.5001C14.1213 10.5 13.7751 10.714 13.6057 11.0528L13.1854 11.8935L11.9488 8.18378Z" fill="currentColor"/>
</svg>
