<svg width="100%" height="100%" viewBox="0 0 24 24" fill="none" xmlns="http://www.w3.org/2000/svg">
<path fill-rule="evenodd" clip-rule="evenodd" d="M18.5287 2.00024C20.0252 2.01428 21.1557 3.13021 21.8555 4.42982C22.5817 5.77841 23.0002 7.57282 23.0002 9.50011C23.0002 11.4274 22.5817 13.2218 21.8555 14.5704C21.1543 15.8727 20.0204 16.9906 18.5193 17.0001C16.1193 17.0435 13.4501 16.0982 11.0931 15.6697L11.3673 19.2341C11.4672 20.5309 11.1 21.852 9.55919 21.9817C8.49033 22.0716 7.36037 22.069 6.29469 21.9846C5.02197 21.8838 4.48256 20.7907 4.39878 19.6157L4.02353 14.3622C3.73292 14.2891 3.47445 14.2034 3.23659 14.0866C2.21945 13.5869 1.46197 12.6793 1.15235 11.5892C0.817935 10.4118 0.816178 8.59448 1.15235 7.41089C1.46197 6.32078 2.21945 5.41316 3.23659 4.91353C3.73938 4.66655 4.33427 4.55874 5.13015 4.4145C9.53128 3.61432 17.0001 2.00015 18.5287 2.00024ZM18.573 14.9969L18.101 14.9111C17.7359 14.7539 17.3088 14.3706 16.9058 13.6222C16.3652 12.6183 16.0002 11.1627 16.0002 9.50011C16.0002 7.83755 16.3652 6.38196 16.9058 5.37802C17.2394 4.75838 17.5896 4.38904 17.9075 4.19107C18.0314 4.1139 18.1741 4.07572 18.3177 4.04961C18.4868 4.01886 18.6626 4.00216 18.8245 4.05973C19.2053 4.19508 19.6637 4.57786 20.0946 5.37802C20.6352 6.38196 21.0002 7.83755 21.0002 9.50011C21.0002 11.1627 20.6352 12.6183 20.0946 13.6222C19.5636 14.6082 18.9908 14.9605 18.573 14.9969Z" fill="currentColor"/>
</svg>
