<svg width="100%" height="100%" viewBox="0 0 24 24" fill="none" xmlns="http://www.w3.org/2000/svg">
<path fill-rule="evenodd" clip-rule="evenodd" d="M8.27712 1.00001H15.7234C15.8425 0.999961 15.9848 0.999906 16.1101 1.01015C16.2553 1.02201 16.4633 1.05245 16.6812 1.1635C16.9635 1.30731 17.193 1.53678 17.3368 1.81903C17.4478 2.03697 17.4783 2.24496 17.4901 2.39018C17.5004 2.5155 17.5003 2.65777 17.5003 2.77688V5.22314C17.5003 5.34226 17.5004 5.48452 17.4901 5.60984C17.4783 5.75506 17.4478 5.96305 17.3368 6.181C17.193 6.46324 16.9635 6.69271 16.6812 6.83652C16.4633 6.94757 16.2553 6.97801 16.1101 6.98988C16.0745 6.99279 16.0375 6.99486 16.0001 6.99635V10.5012C16.0001 11.1062 16.0082 11.2253 16.0345 11.3231C16.0649 11.4361 16.1149 11.543 16.1823 11.6388C16.2406 11.7216 16.3269 11.8039 16.7917 12.1913L20.5613 15.3325C20.9131 15.6251 21.2232 15.8829 21.4535 16.2102C21.6557 16.4975 21.8058 16.8181 21.8971 17.1573C22.0011 17.5438 22.0007 17.947 22.0002 18.4046C22.0001 18.7977 22.0004 19.1908 22.0004 19.584C22.0007 19.9646 22.0009 20.2925 21.9427 20.5854C21.706 21.7754 20.7757 22.7057 19.5856 22.9424C19.2927 23.0007 18.9649 23.0004 18.5842 23.0001H5.41645C5.03575 23.0004 4.70791 23.0007 4.41506 22.9424C3.96946 22.8538 3.56029 22.6679 3.2103 22.4076C2.85707 22.145 2.56442 21.8067 2.35505 21.4155C2.21785 21.1591 2.11663 20.8802 2.05798 20.5854C1.99972 20.2925 1.99998 19.9647 2.00029 19.584C2.00029 19.1908 2.00012 18.7977 2.00006 18.4046C1.99959 17.947 1.99917 17.5438 2.10314 17.1573C2.19442 16.8181 2.34457 16.4975 2.54677 16.2102C2.77709 15.8829 3.08712 15.6251 3.43894 15.3325L7.20854 12.1913C7.67335 11.8039 7.75966 11.7216 7.81792 11.6388C7.88531 11.543 7.93537 11.4361 7.96579 11.3231C7.99209 11.2253 8.00013 11.1062 8.00013 10.5012V6.99634C7.96281 6.99485 7.92594 6.99278 7.89043 6.98988C7.74521 6.97801 7.53722 6.94757 7.31927 6.83652C7.03703 6.69271 6.80756 6.46324 6.66375 6.181C6.5527 5.96305 6.52225 5.75506 6.51039 5.60984C6.50015 5.48452 6.5002 5.34227 6.50025 5.22315V2.77687C6.5002 2.65776 6.50015 2.5155 6.51039 2.39018C6.52225 2.24496 6.5527 2.03697 6.66375 1.81903C6.80756 1.53678 7.03703 1.30731 7.31927 1.1635C7.53722 1.05245 7.74521 1.02201 7.89043 1.01015C8.01574 0.999906 8.158 0.999961 8.27712 1.00001ZM18.2382 16.0001H5.76207L8.56133 13.6675C8.91314 13.3749 9.22317 13.1171 9.45349 12.7898C9.65568 12.5025 9.80584 12.1819 9.89711 11.8427C10.0011 11.4562 10.0007 11.053 10.0002 10.5954L10.0001 7.00001H14.0001L14.0001 10.5954C13.9996 11.053 13.9992 11.4562 14.1031 11.8427C14.1944 12.1819 14.3446 12.5025 14.5468 12.7898C14.7771 13.1171 15.0871 13.3749 15.4389 13.6675L18.2382 16.0001Z" fill="currentColor"/>
</svg>
