<svg width="100%" height="100%" viewBox="0 0 24 24" fill="none" xmlns="http://www.w3.org/2000/svg">
<path fill-rule="evenodd" clip-rule="evenodd" d="M8.71945 5.72148C8.57772 5.34107 8.50012 4.92938 8.50012 4.5C8.50012 2.567 10.0671 1 12.0001 1C13.9331 1 15.5001 2.567 15.5001 4.5C15.5001 4.92938 15.4225 5.34106 15.2808 5.72147C15.8667 5.99625 16.4122 6.34658 16.8977 6.76736C18.2223 7.91537 19.0001 9.50571 19.0001 11.2C19.0001 13.3077 19.5204 14.7999 20.1328 15.8357L20.1431 15.853C20.5368 16.5189 20.8444 17.0391 21.0507 17.4125C21.1538 17.5991 21.2445 17.7721 21.3105 17.9203C21.3432 17.9937 21.3793 18.0819 21.4074 18.1756C21.4284 18.2454 21.48 18.4265 21.4585 18.6459C21.4467 18.7664 21.4197 19.0057 21.2804 19.25C21.141 19.4942 20.9488 19.6393 20.8511 19.7108C20.6919 19.8272 20.5325 19.8772 20.4531 19.8991C20.3595 19.9251 20.2685 19.9404 20.193 19.9505C20.0421 19.9707 19.8664 19.981 19.6833 19.9873C19.3183 20 18.8079 20 18.1648 20H15.8741C15.4301 21.7252 13.864 23 12.0001 23C10.1363 23 8.57018 21.7252 8.12614 20H5.83563C5.19249 20 4.68197 20 4.31693 19.9873C4.13383 19.981 3.95814 19.9707 3.80726 19.9505C3.7318 19.9404 3.64079 19.9251 3.54712 19.8991C3.46776 19.8772 3.30841 19.8272 3.14917 19.7108C3.05145 19.6393 2.85922 19.4942 2.71988 19.25C2.58054 19.0057 2.55352 18.7664 2.54174 18.6459C2.52029 18.4265 2.57187 18.2454 2.59284 18.1756C2.62095 18.0819 2.65704 17.9937 2.68975 17.9203C2.75572 17.7721 2.84645 17.5991 2.94956 17.4125C3.15585 17.0391 3.4634 16.519 3.85719 15.853L3.86742 15.8357C4.47987 14.7999 5.00013 13.3077 5.00013 11.2C5.00013 9.50571 5.77792 7.91537 7.10256 6.76736C7.58807 6.34658 8.13355 5.99626 8.71945 5.72148ZM10.5001 4.5C10.5001 3.67157 11.1717 3 12.0001 3C12.8285 3 13.5001 3.67157 13.5001 4.5C13.5001 4.72108 13.4527 4.93048 13.3671 5.11911C12.919 5.04027 12.4612 5 12.0001 5C11.5391 5 11.0813 5.04027 10.6332 5.11912C10.5476 4.93048 10.5001 4.72109 10.5001 4.5ZM12.0001 21C12.7404 21 13.3867 20.5978 13.7326 20H10.2677C10.6135 20.5978 11.2598 21 12.0001 21Z" fill="currentColor"/>
</svg>
