<svg width="100%" height="100%" viewBox="0 0 24 24" fill="none" xmlns="http://www.w3.org/2000/svg">
<path fill-rule="evenodd" clip-rule="evenodd" d="M8.99981 21C8.99981 20.4477 9.44753 20 9.99981 20H13.9998C14.5521 20 14.9998 20.4477 14.9998 21C14.9998 21.5523 14.5521 22 13.9998 22H9.99981C9.44753 22 8.99981 21.5523 8.99981 21Z" fill="currentColor"/>
<path fill-rule="evenodd" clip-rule="evenodd" d="M5.19679 1.80858C5.46819 2.28958 5.29828 2.89952 4.81728 3.17092C3.87051 3.70513 3.28286 4.72298 3.2936 5.81001C3.29906 6.36227 2.85579 6.81438 2.30354 6.81984C1.75128 6.8253 1.29916 6.38204 1.2937 5.82978C1.27575 4.01411 2.25306 2.32136 3.83445 1.42907C4.31545 1.15767 4.92539 1.32758 5.19679 1.80858Z" fill="currentColor"/>
<path fill-rule="evenodd" clip-rule="evenodd" d="M18.7989 1.80859C19.0703 1.32759 19.6802 1.15768 20.1612 1.42908C21.7426 2.32137 22.7199 4.01412 22.702 5.82978C22.6965 6.38204 22.2444 6.82531 21.6921 6.81985C21.1399 6.81439 20.6966 6.36227 20.7021 5.81001C20.7128 4.72299 20.1252 3.70514 19.1784 3.17093C18.6974 2.89953 18.5275 2.28959 18.7989 1.80859Z" fill="currentColor"/>
<path fill-rule="evenodd" clip-rule="evenodd" d="M7.05006 3.05025C8.36282 1.7375 10.1433 1 11.9998 1C13.8563 1 15.6368 1.7375 16.9496 3.05025C18.2623 4.36301 18.9998 6.14349 18.9998 8C18.9998 10.9127 19.7318 12.8439 20.4992 14.0771L20.5111 14.0962C20.8684 14.6704 21.1508 15.1243 21.3412 15.4547C21.4366 15.6202 21.5236 15.7797 21.5879 15.9215C21.6201 15.9922 21.656 16.079 21.6841 16.1733C21.7074 16.2515 21.7518 16.4187 21.7352 16.6223C21.724 16.7591 21.6961 16.9928 21.5619 17.2343C21.4278 17.4758 21.244 17.623 21.1338 17.7047C20.8835 17.8904 20.5961 17.9329 20.5002 17.947L20.4957 17.9477C20.3483 17.9695 20.181 17.9804 20.0123 17.9869C19.677 18 19.2129 18 18.6357 18H5.36396C4.78674 18 4.32259 18 3.98734 17.9869C3.81858 17.9804 3.6513 17.9695 3.5039 17.9477L3.49947 17.947C3.40354 17.9329 3.11611 17.8904 2.86582 17.7047C2.75558 17.623 2.57185 17.4758 2.4377 17.2343C2.30355 16.9928 2.27565 16.7591 2.26446 16.6223C2.24782 16.4187 2.29222 16.2515 2.31552 16.1733C2.34361 16.079 2.37956 15.9922 2.41168 15.9215C2.47605 15.7797 2.56298 15.6202 2.6584 15.4547C2.84883 15.1243 3.13131 14.6703 3.48863 14.0961L3.50043 14.0771C4.2678 12.8439 4.99981 10.9127 4.99981 8C4.99981 6.14348 5.73731 4.36301 7.05006 3.05025Z" fill="currentColor"/>
</svg>
