<svg width="100%" height="100%" viewBox="0 0 24 24" fill="none" xmlns="http://www.w3.org/2000/svg">
<path fill-rule="evenodd" clip-rule="evenodd" d="M8.6042 20.3383C8.96966 19.9242 9.6016 19.8848 10.0157 20.2503C10.5451 20.7176 11.2382 21 11.9998 21C12.7613 21 13.4544 20.7176 13.9839 20.2503C14.3979 19.8848 15.0299 19.9242 15.3953 20.3383C15.7608 20.7523 15.7214 21.3843 15.3073 21.7497C14.4265 22.5272 13.2671 23 11.9998 23C10.7324 23 9.57301 22.5272 8.6922 21.7497C8.27813 21.3843 8.23873 20.7523 8.6042 20.3383Z" fill="currentColor"/>
<path fill-rule="evenodd" clip-rule="evenodd" d="M5.19679 1.80858C5.46819 2.28958 5.29828 2.89952 4.81728 3.17092C3.87051 3.70513 3.28286 4.72298 3.2936 5.81001C3.29906 6.36227 2.85579 6.81438 2.30354 6.81984C1.75128 6.8253 1.29916 6.38204 1.2937 5.82978C1.27575 4.01411 2.25306 2.32136 3.83445 1.42907C4.31545 1.15767 4.92539 1.32758 5.19679 1.80858Z" fill="currentColor"/>
<path fill-rule="evenodd" clip-rule="evenodd" d="M18.7988 1.80859C19.0702 1.32759 19.6801 1.15768 20.1611 1.42908C21.7425 2.32137 22.7198 4.01412 22.7018 5.82978C22.6964 6.38204 22.2443 6.82531 21.692 6.81985C21.1398 6.81439 20.6965 6.36227 20.7019 5.81001C20.7127 4.72299 20.125 3.70514 19.1783 3.17093C18.6973 2.89953 18.5274 2.28959 18.7988 1.80859Z" fill="currentColor"/>
<path fill-rule="evenodd" clip-rule="evenodd" d="M7.05001 3.05025C8.36277 1.7375 10.1432 1 11.9998 1C13.8563 1 15.6368 1.7375 16.9495 3.05025C18.2623 4.36301 18.9998 6.14349 18.9998 8C18.9998 10.9127 19.7318 12.8439 20.4991 14.0771L20.511 14.0962C20.8683 14.6704 21.1508 15.1243 21.3412 15.4547C21.4366 15.6202 21.5235 15.7797 21.5879 15.9215C21.62 15.9922 21.656 16.079 21.684 16.1733C21.7074 16.2515 21.7518 16.4187 21.7351 16.6223C21.7239 16.7591 21.696 16.9928 21.5619 17.2343C21.4277 17.4758 21.244 17.623 21.1338 17.7047C20.8835 17.8904 20.596 17.9329 20.5001 17.947L20.4957 17.9477C20.3483 17.9695 20.181 17.9804 20.0122 17.9869C19.677 18 19.2128 18 18.6356 18H5.36391C4.78669 18 4.32254 18 3.98729 17.9869C3.81853 17.9804 3.65126 17.9695 3.50385 17.9477L3.49942 17.947C3.40349 17.9329 3.11606 17.8904 2.86577 17.7047C2.75553 17.623 2.5718 17.4758 2.43765 17.2343C2.3035 16.9928 2.2756 16.7591 2.26441 16.6223C2.24777 16.4187 2.29217 16.2515 2.31547 16.1733C2.34357 16.079 2.37951 15.9922 2.41164 15.9215C2.476 15.7797 2.56293 15.6202 2.65835 15.4547C2.84878 15.1243 3.13126 14.6703 3.48858 14.0961L3.50038 14.0771C4.26776 12.8439 4.99976 10.9127 4.99976 8C4.99976 6.14348 5.73726 4.36301 7.05001 3.05025Z" fill="currentColor"/>
</svg>
