<svg width="100%" height="100%" viewBox="0 0 24 24" fill="none" xmlns="http://www.w3.org/2000/svg">
<path fill-rule="evenodd" clip-rule="evenodd" d="M15.2805 5.72147C15.4222 5.34106 15.4998 4.92938 15.4998 4.5C15.4998 2.567 13.9328 1 11.9998 1C10.0668 1 8.49982 2.567 8.49982 4.5C8.49982 4.92938 8.57741 5.34107 8.71914 5.72148C8.13324 5.99626 7.58777 6.34658 7.10226 6.76736C5.77762 7.91537 4.99983 9.50571 4.99983 11.2C4.99983 13.3077 4.47957 14.7999 3.86711 15.8357L3.85696 15.8529C3.46317 16.5188 3.15555 17.0391 2.94926 17.4125C2.84614 17.5991 2.75541 17.7721 2.68945 17.9203C2.65673 17.9937 2.62065 18.0819 2.59253 18.1756C2.57157 18.2454 2.51998 18.4265 2.54144 18.6459C2.55321 18.7664 2.58024 19.0057 2.71958 19.25C2.85891 19.4942 3.05114 19.6393 3.14886 19.7108C3.30811 19.8272 3.46746 19.8772 3.54682 19.8991C3.64048 19.9251 3.73149 19.9404 3.80696 19.9505C3.95784 19.9707 4.13352 19.981 4.31663 19.9873C4.68168 20 5.1921 20 5.83526 20H8.12584C8.56988 21.7252 10.136 23 11.9998 23C13.8637 23 15.4298 21.7252 15.8738 20H18.1643C18.8075 20 19.318 20 19.683 19.9873C19.8661 19.981 20.0418 19.9707 20.1927 19.9505C20.2682 19.9404 20.3592 19.9251 20.4528 19.8991C20.5322 19.8772 20.6915 19.8272 20.8508 19.7108C20.9485 19.6393 21.1407 19.4942 21.2801 19.25C21.4194 19.0057 21.4464 18.7664 21.4582 18.6459C21.4797 18.4265 21.4281 18.2454 21.4071 18.1756C21.379 18.0819 21.3429 17.9937 21.3102 17.9203C21.2442 17.7721 21.1535 17.5991 21.0504 17.4125C20.8441 17.0391 20.5366 16.519 20.1428 15.853L20.1325 15.8357C19.5201 14.7999 18.9998 13.3077 18.9998 11.2C18.9998 9.50571 18.222 7.91537 16.8974 6.76736C16.4119 6.34658 15.8664 5.99625 15.2805 5.72147ZM11.9998 3C11.1714 3 10.4998 3.67157 10.4998 4.5C10.4998 4.72109 10.5473 4.93048 10.6329 5.11912C11.081 5.04027 11.5388 5 11.9998 5C12.4609 5 12.9187 5.04027 13.3668 5.11911C13.4524 4.93048 13.4998 4.72108 13.4998 4.5C13.4998 3.67157 12.8282 3 11.9998 3ZM10.2674 20C10.6132 20.5978 11.2595 21 11.9998 21C12.7401 21 13.3864 20.5978 13.7323 20H10.2674Z" fill="currentColor"/>
<path d="M5.07021 5.67396C5.55121 5.40256 5.72112 4.79262 5.44972 4.31162C5.17832 3.83062 4.56838 3.66071 4.08738 3.93211C2.50599 4.8244 1.52868 6.51715 1.54663 8.33282C1.55209 8.88507 2.00421 9.32834 2.55647 9.32288C3.10872 9.31742 3.55199 8.8653 3.54653 8.31305C3.53579 7.22602 4.12344 6.20817 5.07021 5.67396Z" fill="currentColor"/>
<path d="M18.5498 4.31174C18.8212 3.83074 19.4312 3.66083 19.9122 3.93223C21.4936 4.82452 22.4709 6.51727 22.4529 8.33293C22.4475 8.88519 21.9954 9.32846 21.4431 9.323C20.8908 9.31754 20.4476 8.86542 20.453 8.31317C20.4638 7.22614 19.8761 6.20829 18.9294 5.67408C18.4484 5.40268 18.2784 4.79274 18.5498 4.31174Z" fill="currentColor"/>
</svg>
