<svg width="100%" height="100%" viewBox="0 0 24 24" fill="none" xmlns="http://www.w3.org/2000/svg">
<path d="M7.75862 1H16.2412C17.0462 0.999988 17.7106 0.999979 18.2517 1.0442C18.8138 1.09012 19.3305 1.18868 19.8159 1.43598C20.5685 1.81947 21.1804 2.43139 21.5639 3.18404C21.637 3.32736 21.697 3.47342 21.7466 3.62257C21.8259 3.86132 21.8656 3.9807 21.83 4.12209C21.8023 4.23216 21.7096 4.36062 21.6139 4.42163C21.4909 4.5 21.3383 4.5 21.0331 4.5H2.96672C2.66151 4.5 2.50891 4.5 2.38596 4.42163C2.29025 4.36062 2.19757 4.23216 2.16985 4.12209C2.13425 3.9807 2.17391 3.86132 2.25325 3.62257C2.30281 3.47342 2.36287 3.32736 2.43589 3.18404C2.81938 2.43139 3.43131 1.81947 4.18396 1.43598C4.66929 1.18868 5.18599 1.09012 5.74809 1.0442C6.28928 0.999979 6.95366 0.999988 7.75862 1Z" fill="currentColor"/>
<path d="M2.79944 6.5C2.51959 6.5 2.37967 6.5 2.27273 6.55448C2.17868 6.60239 2.10216 6.67889 2.05422 6.77292C1.99972 6.87985 1.99968 7.01972 1.99961 7.29947C1.99935 8.26631 1.99969 9.23316 1.99984 10.2C1.99989 10.4801 1.99991 10.6201 2.05441 10.727C2.10236 10.8211 2.17884 10.8976 2.27292 10.9455C2.37987 11 2.51988 11 2.79992 11H21.1999C21.4799 11 21.62 11 21.7269 10.9455C21.821 10.8976 21.8975 10.8211 21.9454 10.727C21.9999 10.6201 21.9999 10.4801 22 10.2C22.0001 9.23316 22.0005 8.26632 22.0002 7.29948C22.0001 7.01973 22.0001 6.87985 21.9456 6.77292C21.8977 6.67889 21.8211 6.60239 21.7271 6.55448C21.6202 6.5 21.4802 6.5 21.2004 6.5H2.79944Z" fill="currentColor"/>
<path fill-rule="evenodd" clip-rule="evenodd" d="M21.9999 13.8C21.9999 13.52 21.9999 13.38 21.9454 13.273C21.8975 13.1789 21.821 13.1024 21.7269 13.0545C21.62 13 21.4799 13 21.1999 13H2.79992C2.51989 13 2.37988 13 2.27292 13.0545C2.17884 13.1024 2.10235 13.1789 2.05441 13.273C1.99992 13.38 1.99992 13.52 1.99992 13.8V14.2413C1.9999 15.0463 1.99989 15.7106 2.04411 16.2518C2.09004 16.8139 2.1886 17.3306 2.43589 17.816C2.78763 18.5063 3.33152 19.0782 3.99991 19.4641L3.99991 21.2231C3.99986 21.3423 3.99981 21.4845 4.01005 21.6098C4.02191 21.755 4.05235 21.963 4.1634 22.181C4.30721 22.4632 4.53669 22.6927 4.81893 22.8365C5.03687 22.9476 5.24487 22.978 5.39008 22.9899C5.51537 23.0001 5.65759 23.0001 5.77669 23H7.72305C7.84215 23.0001 7.98446 23.0001 8.10974 22.9899C8.25496 22.978 8.46295 22.9476 8.6809 22.8365C8.96314 22.6927 9.19261 22.4632 9.33642 22.181C9.44747 21.963 9.47792 21.755 9.48978 21.6098C9.50002 21.4845 9.49997 21.3423 9.49992 21.2231L9.49991 20H14.4999L14.4999 21.2231C14.4999 21.3422 14.4998 21.4845 14.51 21.6098C14.5219 21.755 14.5524 21.963 14.6634 22.181C14.8072 22.4632 15.0367 22.6927 15.3189 22.8365C15.5369 22.9476 15.7449 22.978 15.8901 22.9899C16.0154 23.0001 16.1576 23.0001 16.2767 23H18.2231C18.3422 23.0001 18.4845 23.0001 18.6097 22.9899C18.755 22.978 18.963 22.9476 19.1809 22.8365C19.4631 22.6927 19.6926 22.4632 19.8364 22.181C19.9475 21.963 19.9779 21.755 19.9898 21.6098C20 21.4845 20 21.3423 19.9999 21.2232L19.9999 19.4641C20.6683 19.0782 21.2122 18.5063 21.5639 17.816C21.8112 17.3306 21.9098 16.8139 21.9557 16.2518C21.9999 15.7106 21.9999 15.0463 21.9999 14.2413V13.8ZM5.49992 15.5C5.49992 14.9477 5.94763 14.5 6.49992 14.5H7.99992C8.5522 14.5 8.99992 14.9477 8.99992 15.5C8.99992 16.0523 8.5522 16.5 7.99992 16.5H6.49992C5.94763 16.5 5.49992 16.0523 5.49992 15.5ZM15.9999 14.5C15.4476 14.5 14.9999 14.9477 14.9999 15.5C14.9999 16.0523 15.4476 16.5 15.9999 16.5H17.4999C18.0522 16.5 18.4999 16.0523 18.4999 15.5C18.4999 14.9477 18.0522 14.5 17.4999 14.5H15.9999Z" fill="currentColor"/>
</svg>
