<svg width="100%" height="100%" viewBox="0 0 24 24" fill="none" xmlns="http://www.w3.org/2000/svg">
<path fill-rule="evenodd" clip-rule="evenodd" d="M3.50521 3.54978C6.19252 1.25369 9.65298 1.67214 11.9929 3.71703C14.3301 1.67136 17.7537 1.28258 20.4709 3.54101C23.4445 6.0125 23.8016 10.2276 21.5118 13.1741C20.7168 14.1971 19.2374 15.6828 17.7545 17.0969C16.255 18.5269 14.6963 19.9357 13.7042 20.8211L13.6823 20.8406C13.5197 20.9858 13.3571 21.1309 13.2072 21.2445C13.0387 21.3723 12.8318 21.5038 12.5679 21.583C12.1958 21.6946 11.7907 21.6946 11.4186 21.583C11.1547 21.5038 10.9478 21.3723 10.7793 21.2445C10.6295 21.1309 10.4669 20.9858 10.3043 20.8407L10.2823 20.8211C9.2902 19.9357 7.73154 18.5269 6.23203 17.0969C4.74915 15.6828 3.26977 14.1971 2.47471 13.1741C0.176093 10.2162 0.598423 6.0334 3.50521 3.54978ZM16.2072 9.20711C16.5978 8.81658 16.5978 8.18342 16.2072 7.79289C15.8167 7.40237 15.1835 7.40237 14.793 7.79289L11.0001 11.5858L9.70723 10.2929C9.3167 9.90237 8.68354 9.90237 8.29302 10.2929C7.90249 10.6834 7.90249 11.3166 8.29302 11.7071L10.293 13.7071C10.6835 14.0976 11.3167 14.0976 11.7072 13.7071L16.2072 9.20711Z" fill="currentColor"/>
</svg>
