<svg width="100%" height="100%" viewBox="0 0 24 24" fill="none" xmlns="http://www.w3.org/2000/svg">
<path fill-rule="evenodd" clip-rule="evenodd" d="M12.4569 1.2453C12.1563 1.17474 11.8434 1.17474 11.5428 1.2453C11.1947 1.32701 10.8911 1.52607 10.6494 1.68452L2.12692 7.22422C1.92115 7.35698 1.66229 7.52399 1.46513 7.75993C1.29452 7.96409 1.16637 8.20024 1.08817 8.45454C0.997797 8.74844 0.998844 9.0565 0.999676 9.30137V14.698C0.998844 14.9429 0.997797 15.251 1.08817 15.5449C1.16637 15.7992 1.29452 16.0353 1.46513 16.2395C1.66228 16.4754 1.92115 16.6424 2.12692 16.7752L10.6494 22.3149C10.8911 22.4733 11.1947 22.6724 11.5428 22.7541C11.8434 22.8246 12.1563 22.8246 12.4569 22.7541C12.8049 22.6724 13.1086 22.4733 13.3502 22.3149L21.8727 16.7752C22.0785 16.6424 22.3374 16.4754 22.5345 16.2395C22.7051 16.0353 22.8333 15.7992 22.9115 15.5449C23.0019 15.251 23.0008 14.9429 23 14.698V9.30138C23.0008 9.0565 23.0019 8.74844 22.9115 8.45454C22.8333 8.20024 22.7051 7.96409 22.5345 7.75993C22.3374 7.52399 22.0785 7.35697 21.8727 7.22422L13.3502 1.68452C13.1086 1.52607 12.8049 1.32701 12.4569 1.2453ZM2.99983 10.3425L3.00405 14.9547L10.9998 20.157V15.5326L2.99983 10.3425ZM12.9998 20.157L20.9959 14.9496L20.9998 10.3425L12.9998 15.5325V20.157Z" fill="currentColor"/>
</svg>
