<svg width="100%" height="100%" viewBox="0 0 24 24" fill="none" xmlns="http://www.w3.org/2000/svg">
<path fill-rule="evenodd" clip-rule="evenodd" d="M13.0002 2C13.0002 1.44772 12.5525 1 12.0002 1C11.448 1 11.0002 1.44772 11.0002 2V3.14494C9.5545 3.57521 8.50024 4.91449 8.50024 6.5C8.50024 7.4282 8.86156 8.27201 9.45122 8.89845L5.43025 15.8235C4.81805 15.3668 4.25486 14.8478 3.75 14.2758C3.38453 13.8617 2.75259 13.8223 2.33852 14.1878C1.92445 14.5532 1.88505 15.1852 2.25052 15.5992C2.89701 16.3317 3.62505 16.9909 4.42042 17.5626L2.13538 21.498C1.85805 21.9756 2.02042 22.5876 2.49803 22.8649C2.97564 23.1422 3.58763 22.9798 3.86495 22.5022L6.12967 18.6019C7.89306 19.4959 9.88797 20 12.0003 20C14.1125 20 16.1073 19.4959 17.8707 18.602L20.1354 22.5022C20.4127 22.9798 21.0247 23.1422 21.5023 22.8649C21.9799 22.5876 22.1423 21.9756 21.865 21.498L19.58 17.5627C20.3754 16.991 21.1035 16.3318 21.75 15.5992C22.1155 15.1852 22.0761 14.5532 21.662 14.1878C21.2479 13.8223 20.616 13.8617 20.2505 14.2758C19.7456 14.8478 19.1824 15.3669 18.5701 15.8235L14.5492 8.89855C15.1389 8.2721 15.5002 7.42825 15.5002 6.5C15.5002 4.91449 14.446 3.57521 13.0002 3.14494V2ZM12.0002 10C12.2825 10 12.557 9.96658 12.82 9.90348L16.8645 16.8691C15.3979 17.5934 13.7467 18 12.0003 18C10.2537 18 8.60253 17.5934 7.13585 16.869L11.1804 9.90345C11.4434 9.96657 11.7179 10 12.0002 10Z" fill="currentColor"/>
</svg>
