<svg width="100%" height="100%" viewBox="0 0 24 24" fill="none" xmlns="http://www.w3.org/2000/svg">
<path d="M8.05467 3.91074C8.55106 3.66863 8.7572 3.06996 8.5151 2.57357C8.27299 2.07718 7.67432 1.87105 7.17793 2.11315C5.09006 3.13147 3.37816 4.78464 2.28759 6.8357C1.19702 8.88676 0.783768 11.2304 1.10706 13.5308C1.18393 14.0777 1.68959 14.4587 2.2365 14.3819C2.78341 14.305 3.16446 13.7994 3.0876 13.2524C2.82309 11.3703 3.1612 9.45278 4.05348 7.77464C4.94577 6.0965 6.34641 4.74391 8.05467 3.91074Z" fill="currentColor"/>
<path d="M15.4848 2.57357C15.7269 2.07718 16.3256 1.87105 16.822 2.11315C18.9099 3.13147 20.6218 4.78464 21.7123 6.8357C22.8029 8.88676 23.2162 11.2304 22.8929 13.5308C22.816 14.0777 22.3103 14.4587 21.7634 14.3819C21.2165 14.305 20.8355 13.7994 20.9123 13.2524C21.1768 11.3703 20.8387 9.45278 19.9464 7.77464C19.0542 6.0965 17.6535 4.74391 15.9452 3.91074C15.4489 3.66863 15.2427 3.06996 15.4848 2.57357Z" fill="currentColor"/>
<path d="M5.31303 19.5026C5.63766 19.0558 6.26303 18.9568 6.70984 19.2814C8.24746 20.3985 10.0993 21.0002 11.9999 21.0002C13.9005 21.0002 15.7523 20.3985 17.29 19.2814C17.7368 18.9568 18.3621 19.0558 18.6868 19.5026C19.0114 19.9494 18.9123 20.5748 18.4655 20.8994C16.5862 22.2648 14.3229 23.0002 11.9999 23.0002C9.67693 23.0002 7.41359 22.2648 5.53426 20.8994C5.08746 20.5748 4.98841 19.9494 5.31303 19.5026Z" fill="currentColor"/>
<path d="M11.9999 5.5C8.41006 5.5 5.49991 8.41015 5.49991 12C5.49991 15.5899 8.41006 18.5 11.9999 18.5C15.5898 18.5 18.4999 15.5899 18.4999 12C18.4999 8.41015 15.5898 5.5 11.9999 5.5Z" fill="currentColor"/>
</svg>
