<svg width="100%" height="100%" viewBox="0 0 24 24" fill="none" xmlns="http://www.w3.org/2000/svg">
<path d="M11.0002 2.26195C11.0002 1.88058 10.5903 1.63961 10.2571 1.82502L3.68614 5.48078C3.34347 5.67142 3.34362 6.16435 3.68641 6.35478L10.2573 10.0054C10.5906 10.1905 11.0002 9.94952 11.0002 9.56828V2.26195Z" fill="currentColor"/>
<path d="M2.74331 8.11876C2.40997 7.93357 2.00034 8.1747 2.00049 8.55603L2.00318 15.6779C2.00333 16.0591 2.41281 16.2999 2.74601 16.1148L9.15432 12.5546C9.49722 12.3641 9.49722 11.871 9.15432 11.6805L2.74331 8.11876Z" fill="currentColor"/>
<path d="M3.89272 17.7657C3.54981 17.9562 3.54981 18.4493 3.89272 18.6398L10.2573 22.1757C10.5906 22.3609 11.0002 22.1199 11.0002 21.7387V14.6668C11.0002 14.2856 10.5906 14.0446 10.2573 14.2298L3.89272 17.7657Z" fill="currentColor"/>
<path d="M13.0002 21.7387C13.0002 22.1199 13.4097 22.3609 13.743 22.1757L20.1076 18.6398C20.4505 18.4493 20.4505 17.9562 20.1076 17.7657L13.743 14.2298C13.4097 14.0446 13.0002 14.2856 13.0002 14.6668V21.7387Z" fill="currentColor"/>
<path d="M21.2543 16.1148C21.5875 16.2999 21.997 16.0591 21.9972 15.6779L21.9998 8.55603C22 8.1747 21.5904 7.93357 21.257 8.11876L14.846 11.6805C14.5031 11.871 14.5031 12.3641 14.846 12.5546L21.2543 16.1148Z" fill="currentColor"/>
<path d="M20.3139 6.35478C20.6567 6.16435 20.6569 5.67142 20.3142 5.48077L13.7433 1.82502C13.41 1.6396 13.0002 1.88057 13.0002 2.26195V9.56828C13.0002 9.94952 13.4097 10.1905 13.743 10.0054L20.3139 6.35478Z" fill="currentColor"/>
</svg>
