<svg width="100%" height="100%" viewBox="0 0 24 24" fill="none" xmlns="http://www.w3.org/2000/svg">
<path d="M12.4028 1.18505C12.137 1.13038 11.8628 1.13038 11.597 1.18505C11.2897 1.24824 11.0151 1.40207 10.7967 1.52436L10.7372 1.55761L9.26424 2.37593C8.78146 2.64414 8.60751 3.25294 8.87572 3.73573C9.14394 4.21851 9.75274 4.39245 10.2355 4.12424L11.7085 3.30592C11.86 3.22173 11.9374 3.1792 11.9951 3.15136L11.9999 3.14907L12.0047 3.15136C12.0624 3.1792 12.1397 3.22173 12.2913 3.30592L13.7642 4.12424C14.247 4.39245 14.8558 4.21851 15.124 3.73573C15.3923 3.25294 15.2183 2.64414 14.7355 2.37593L13.2626 1.55761L13.203 1.52436C12.9847 1.40207 12.7101 1.24824 12.4028 1.18505Z" fill="currentColor"/>
<path d="M19.2355 4.87593C18.7527 4.60771 18.1439 4.78166 17.8757 5.26444C17.6075 5.74723 17.7815 6.35603 18.2642 6.62424L18.9407 7.00003L18.2643 7.37578C17.7815 7.64399 17.6076 8.2528 17.8758 8.73558C18.144 9.21836 18.7528 9.39231 19.2356 9.12409L19.9999 8.69948V9.50008C19.9999 10.0524 20.4476 10.5001 20.9999 10.5001C21.5522 10.5001 21.9999 10.0524 21.9999 9.50008V7.94153L22.0001 7.8694C22.0007 7.68662 22.0015 7.47126 21.9676 7.25222C22.0302 7.01207 22.0041 6.74838 21.8741 6.5143C21.7354 6.26459 21.5055 6.09751 21.2492 6.03149C21.0742 5.89557 20.8857 5.79173 20.7257 5.7036L20.6626 5.66872L19.2355 4.87593Z" fill="currentColor"/>
<path d="M5.73552 6.62424C6.21831 6.35603 6.39225 5.74723 6.12404 5.26444C5.85582 4.78166 5.24702 4.60772 4.76424 4.87593L3.33721 5.66872L3.27407 5.7036C3.11404 5.79174 2.92549 5.89559 2.75055 6.03153C2.49424 6.09758 2.26447 6.26465 2.12578 6.5143C1.99579 6.74829 1.96966 7.01188 2.03221 7.25195C1.99825 7.47108 1.99904 7.68655 1.9997 7.8694L1.99988 7.94153V9.50009C1.99988 10.0524 2.4476 10.5001 2.99988 10.5001C3.55217 10.5001 3.99988 10.0524 3.99988 9.50009V8.69942L4.7643 9.12409C5.24708 9.39231 5.85588 9.21836 6.1241 8.73558C6.39231 8.2528 6.21836 7.64399 5.73558 7.37578L5.05917 7L5.73552 6.62424Z" fill="currentColor"/>
<path d="M3.99988 14.5001C3.99988 13.9478 3.55217 13.5001 2.99988 13.5001C2.4476 13.5001 1.99988 13.9478 1.99988 14.5001V16.0586L1.9997 16.1308C1.99874 16.3946 1.99753 16.7264 2.10085 17.0391C2.19018 17.3095 2.3362 17.5576 2.52915 17.767C2.75231 18.0092 3.04291 18.1692 3.27403 18.2966L3.33721 18.3314L4.76424 19.1242C5.24702 19.3925 5.85582 19.2185 6.12404 18.7357C6.39225 18.2529 6.21831 17.6441 5.73552 17.3759L4.3085 16.5831C4.14854 16.4943 4.06688 16.4484 4.00958 16.4119L4.00474 16.4088L4.00438 16.4031C4.0003 16.3353 3.99988 16.2416 3.99988 16.0586V14.5001Z" fill="currentColor"/>
<path d="M21.9999 14.5001C21.9999 13.9478 21.5522 13.5001 20.9999 13.5001C20.4476 13.5001 19.9999 13.9478 19.9999 14.5001V16.0586C19.9999 16.2416 19.9995 16.3353 19.9954 16.4031L19.995 16.4088L19.9902 16.4119C19.9329 16.4484 19.8512 16.4943 19.6913 16.5831L18.2642 17.3759C17.7815 17.6441 17.6075 18.2529 17.8757 18.7357C18.1439 19.2185 18.7527 19.3925 19.2355 19.1242L20.6626 18.3314L20.7257 18.2966C20.9568 18.1693 21.2474 18.0092 21.4706 17.767C21.6636 17.5576 21.8096 17.3095 21.8989 17.0391C22.0022 16.7264 22.001 16.3946 22.0001 16.1308L21.9999 16.0586V14.5001Z" fill="currentColor"/>
<path d="M10.2355 19.8759C9.75274 19.6077 9.14394 19.7817 8.87572 20.2644C8.60751 20.7472 8.78146 21.356 9.26424 21.6242L10.7372 22.4426L10.7967 22.4758C10.9471 22.56 11.1242 22.6592 11.3203 22.7335C11.4987 22.8988 11.7375 22.9999 11.9999 22.9999C12.2624 22.9999 12.5013 22.8988 12.6797 22.7334C12.8757 22.6592 13.0527 22.56 13.203 22.4758L13.2626 22.4426L14.7355 21.6242C15.2183 21.356 15.3923 20.7472 15.124 20.2644C14.8558 19.7817 14.247 19.6077 13.7642 19.8759L12.9999 20.3005V19.4999C12.9999 18.9477 12.5522 18.4999 11.9999 18.4999C11.4477 18.4999 10.9999 18.9477 10.9999 19.4999V20.3006L10.2355 19.8759Z" fill="currentColor"/>
<path d="M10.2356 9.87578C9.7528 9.60757 9.14399 9.78151 8.87578 10.2643C8.60757 10.7471 8.78151 11.3559 9.2643 11.6241L10.9999 12.5883V14.4999C10.9999 15.0522 11.4477 15.4999 11.9999 15.4999C12.5522 15.4999 12.9999 15.0522 12.9999 14.4999V12.5883L14.7356 11.6241C15.2184 11.3559 15.3923 10.7471 15.1241 10.2643C14.8559 9.78151 14.2471 9.60757 13.7643 9.87578L11.9999 10.856L10.2356 9.87578Z" fill="currentColor"/>
</svg>
