<svg width="100%" height="100%" viewBox="0 0 24 24" fill="none" xmlns="http://www.w3.org/2000/svg">
<path d="M4.86944 2.72392C5.29808 2.37565 5.92788 2.4408 6.27615 2.86944L12 9.91422L17.7239 2.86944C18.0722 2.4408 18.702 2.37565 19.1306 2.72392C19.5593 3.07218 19.6244 3.70199 19.2761 4.13062L14.101 10.5H17.9999C18.5522 10.5 18.9999 10.9477 18.9999 11.5C18.9999 12.0523 18.5522 12.5 17.9999 12.5H12.9999V14.5H16.9999C17.5522 14.5 17.9999 14.9477 17.9999 15.5C17.9999 16.0523 17.5522 16.5 16.9999 16.5H12.9999V20.5C12.9999 21.0523 12.5522 21.5 11.9999 21.5C11.4476 21.5 10.9999 21.0523 10.9999 20.5V16.5H6.99988C6.44759 16.5 5.99988 16.0523 5.99988 15.5C5.99988 14.9477 6.44759 14.5 6.99988 14.5H10.9999V12.5H5.99988C5.44759 12.5 4.99988 12.0523 4.99988 11.5C4.99988 10.9477 5.44759 10.5 5.99988 10.5H9.89904L4.72392 4.13062C4.37565 3.70199 4.4408 3.07218 4.86944 2.72392Z" fill="currentColor"/>
</svg>
