<svg width="100%" height="100%" viewBox="0 0 24 24" fill="none" xmlns="http://www.w3.org/2000/svg">
<path d="M12.6126 2H11.3873L9.38728 8H14.6126L12.6126 2Z" fill="currentColor"/>
<path d="M14.6125 10H9.38743L11.9999 17.8375L14.6125 10Z" fill="currentColor"/>
<path d="M7.2791 8L9.2791 2H7.23414C6.78897 2 6.3668 2.19773 6.08181 2.53972L2.21499 7.17991C1.9436 7.50557 2.17518 8 2.5991 8H7.2791Z" fill="currentColor"/>
<path d="M2.21499 10.8201C1.94361 10.4944 2.17518 10 2.5991 10H7.27924L10.7909 20.535C10.8675 20.7649 10.6155 20.9198 10.4662 20.729C10.4144 20.6628 10.3629 20.5976 10.3108 20.535L2.21499 10.8201Z" fill="currentColor"/>
<path d="M16.7206 10H21.4008C21.8247 10 22.0563 10.4944 21.7849 10.8201L13.6891 20.535C13.637 20.5976 13.5855 20.6628 13.5337 20.729C13.3844 20.9198 13.1324 20.7648 13.209 20.535L16.7206 10Z" fill="currentColor"/>
<path d="M21.7849 7.17991C22.0563 7.50557 21.8247 8 21.4008 8H16.7208L14.7208 2H16.7658C17.2109 2 17.6331 2.19773 17.9181 2.53972L21.7849 7.17991Z" fill="currentColor"/>
</svg>
