<svg width="100%" height="100%" viewBox="0 0 24 24" fill="none" xmlns="http://www.w3.org/2000/svg">
<path fill-rule="evenodd" clip-rule="evenodd" d="M2.00021 12C2.00021 11.4478 2.44793 11 3.00021 11H3.01021C3.5625 11 4.01021 11.4478 4.01021 12C4.01021 12.5523 3.5625 13 3.01021 13H3.00021C2.44793 13 2.00021 12.5523 2.00021 12Z" fill="currentColor"/>
<path fill-rule="evenodd" clip-rule="evenodd" d="M6.50021 12C6.50021 11.4478 6.94793 11 7.50021 11H7.51021C8.0625 11 8.51021 11.4478 8.51021 12C8.51021 12.5523 8.0625 13 7.51021 13H7.50021C6.94793 13 6.50021 12.5523 6.50021 12Z" fill="currentColor"/>
<path fill-rule="evenodd" clip-rule="evenodd" d="M15.5002 12C15.5002 11.4478 15.9479 11 16.5002 11H16.5102C17.0625 11 17.5102 11.4478 17.5102 12C17.5102 12.5523 17.0625 13 16.5102 13H16.5002C15.9479 13 15.5002 12.5523 15.5002 12Z" fill="currentColor"/>
<path fill-rule="evenodd" clip-rule="evenodd" d="M11.0002 12C11.0002 11.4478 11.4479 11 12.0002 11H12.0102C12.5625 11 13.0102 11.4478 13.0102 12C13.0102 12.5523 12.5625 13 12.0102 13H12.0002C11.4479 13 11.0002 12.5523 11.0002 12Z" fill="currentColor"/>
<path fill-rule="evenodd" clip-rule="evenodd" d="M20.0002 12C20.0002 11.4478 20.4479 11 21.0002 11H21.0102C21.5625 11 22.0102 11.4478 22.0102 12C22.0102 12.5523 21.5625 13 21.0102 13H21.0002C20.4479 13 20.0002 12.5523 20.0002 12Z" fill="currentColor"/>
<path fill-rule="evenodd" clip-rule="evenodd" d="M19.7344 1.9999C19.9693 1.99919 20.2571 1.99831 20.5179 2.06819C21.208 2.25313 21.7471 2.79222 21.9321 3.48241C22.0019 3.7432 22.0011 4.03101 22.0004 4.26583C21.9988 4.76824 22.0292 5.28676 21.898 5.7765C21.6206 6.81178 20.8119 7.62042 19.7767 7.89782C19.3911 8.00112 18.9531 8.00066 18.4454 8.00012C14.1486 7.99557 9.8518 7.99557 5.55504 8.00012C5.04731 8.00066 4.60928 8.00112 4.22376 7.89782C3.18848 7.62042 2.37984 6.81178 2.10244 5.7765C1.97121 5.28676 2.00161 4.76824 2.00007 4.26583C1.99936 4.03101 1.99848 3.7432 2.06836 3.48241C2.2533 2.79222 2.79239 2.25313 3.48258 2.06819C3.74337 1.99831 4.03118 1.99919 4.266 1.99991C9.42197 2.01561 14.5785 2.01561 19.7344 1.9999Z" fill="currentColor"/>
<path fill-rule="evenodd" clip-rule="evenodd" d="M19.7344 22.0001C19.9692 22.0009 20.2571 22.0017 20.5178 21.9319C21.208 21.7469 21.7471 21.2078 21.9321 20.5176C22.0019 20.2568 22.0011 19.969 22.0003 19.7342C21.9988 19.2318 22.0292 18.7133 21.898 18.2235C21.6206 17.1883 20.8119 16.3796 19.7767 16.1022C19.3911 15.9989 18.9531 15.9994 18.4454 15.9999C14.1486 16.0045 9.85179 16.0045 5.55503 15.9999C5.0473 15.9994 4.60927 15.9989 4.22375 16.1022C3.18847 16.3796 2.37983 17.1883 2.10243 18.2235C1.9712 18.7133 2.0016 19.2318 2.00006 19.7342C1.99935 19.969 1.99847 20.2568 2.06835 20.5176C2.25329 21.2078 2.79238 21.7469 3.48257 21.9319C3.74336 22.0017 4.03117 22.0009 4.26599 22.0001C9.42196 21.9844 14.5784 21.9844 19.7344 22.0001Z" fill="currentColor"/>
</svg>
