<svg width="100%" height="100%" viewBox="0 0 24 24" fill="none" xmlns="http://www.w3.org/2000/svg">
<path fill-rule="evenodd" clip-rule="evenodd" d="M21.6748 17.2619C22.0824 17.6345 22.1108 18.2671 21.7382 18.6747L20.7381 19.7687C20.0285 20.5448 19.0459 21 18.0002 21C16.9549 21 15.9727 20.5452 15.2631 19.7696C14.9112 19.3863 14.4549 19.1901 14.0003 19.1901C13.5454 19.1901 13.0889 19.3864 12.7369 19.7701C12.3635 20.177 11.731 20.2043 11.324 19.8309C10.9171 19.4575 10.8899 18.8249 11.2632 18.418C11.9736 17.6438 12.9555 17.1901 14.0003 17.1901C15.045 17.1901 16.027 17.6438 16.7373 18.418L16.7385 18.4192C17.0897 18.8034 17.5458 19 18.0002 19C18.4546 19 18.9107 18.8034 19.2619 18.4193V18.4193L20.262 17.3253C20.6346 16.9177 21.2672 16.8893 21.6748 17.2619Z" fill="currentColor"/>
<path fill-rule="evenodd" clip-rule="evenodd" d="M15.793 2.79287C17.012 1.57393 18.9883 1.57392 20.2072 2.79287C21.4262 4.01183 21.4262 5.98814 20.2072 7.20709L7.64449 19.7698C7.6247 19.7896 7.60508 19.8093 7.58562 19.8288C7.29817 20.1168 7.04474 20.3707 6.7392 20.5579C6.47078 20.7224 6.17815 20.8436 5.87204 20.9171C5.52359 21.0007 5.16484 21.0004 4.75794 21C4.7304 21 4.70264 21 4.67464 21H3.0001C2.44782 21 2.0001 20.5523 2.0001 20V18.3255C2.0001 18.2975 2.00008 18.2697 2.00005 18.2422C1.99967 17.8353 1.99934 17.4765 2.08299 17.1281C2.15648 16.822 2.2777 16.5293 2.44218 16.2609C2.62942 15.9554 2.88333 15.7019 3.17132 15.4145C3.19081 15.395 3.21046 15.3754 3.23026 15.3556L15.793 2.79287Z" fill="currentColor"/>
</svg>
