<svg width="100%" height="100%" viewBox="0 0 24 24" fill="none" xmlns="http://www.w3.org/2000/svg">
<path fill-rule="evenodd" clip-rule="evenodd" d="M11.0001 20C11.0001 19.4477 11.4478 19 12.0001 19H21.0001C21.5524 19 22.0001 19.4477 22.0001 20C22.0001 20.5523 21.5524 21 21.0001 21H12.0001C11.4478 21 11.0001 20.5523 11.0001 20Z" fill="currentColor"/>
<path fill-rule="evenodd" clip-rule="evenodd" d="M15.793 2.79287C17.012 1.57393 18.9883 1.57392 20.2072 2.79287C21.4262 4.01183 21.4262 5.98814 20.2072 7.20709L7.64449 19.7698C7.6247 19.7896 7.60508 19.8093 7.58562 19.8288C7.29817 20.1168 7.04474 20.3707 6.7392 20.5579C6.47078 20.7224 6.17815 20.8436 5.87204 20.9171C5.52359 21.0007 5.16484 21.0004 4.75794 21C4.7304 21 4.70264 21 4.67464 21H3.0001C2.44782 21 2.0001 20.5523 2.0001 20V18.3255C2.0001 18.2975 2.00008 18.2697 2.00005 18.2422C1.99967 17.8353 1.99934 17.4765 2.08299 17.1281C2.15648 16.822 2.2777 16.5293 2.44218 16.2609C2.62942 15.9554 2.88333 15.7019 3.17132 15.4145C3.19081 15.395 3.21046 15.3754 3.23026 15.3556L15.793 2.79287Z" fill="currentColor"/>
</svg>
