<svg width="100%" height="100%" viewBox="0 0 24 24" fill="none" xmlns="http://www.w3.org/2000/svg">
<path fill-rule="evenodd" clip-rule="evenodd" d="M9.92537 4.22821C10.5486 4.20488 11.147 4.47362 11.5436 4.95492C11.8627 5.34215 11.9363 5.81929 11.9676 6.1674C12.0002 6.52981 12.0002 6.99146 12.0002 7.51783V16.4821C12.0002 17.0085 12.0002 17.4701 11.9676 17.8325C11.9363 18.1806 11.8627 18.6578 11.5436 19.045C11.147 19.5263 10.5486 19.795 9.92537 19.7717C9.42395 19.753 9.01847 19.4909 8.73748 19.2831C8.44494 19.0667 8.09991 18.7599 7.7065 18.4102L2.6555 13.9204C2.44505 13.7334 2.24272 13.5536 2.08584 13.3882C1.91555 13.2087 1.72823 12.9756 1.61831 12.6625C1.46773 12.2337 1.46773 11.7663 1.61831 11.3374C1.72823 11.0243 1.91555 10.7912 2.08584 10.6117C2.24272 10.4463 2.44504 10.2665 2.65548 10.0795C2.66402 10.0719 2.67258 10.0643 2.68114 10.0567L7.70652 5.5897C8.09992 5.23998 8.44495 4.93325 8.73748 4.71685C9.01847 4.50899 9.42395 4.24698 9.92537 4.22821Z" fill="currentColor"/>
<path fill-rule="evenodd" clip-rule="evenodd" d="M20.9254 4.22821C21.5486 4.20488 22.147 4.47362 22.5436 4.95492C22.8627 5.34215 22.9363 5.81929 22.9676 6.1674C23.0002 6.52981 23.0002 6.99146 23.0002 7.51783V16.4821C23.0002 17.0085 23.0002 17.4701 22.9676 17.8325C22.9363 18.1806 22.8627 18.6578 22.5436 19.045C22.147 19.5263 21.5486 19.795 20.9254 19.7717C20.4239 19.753 20.0185 19.4909 19.7375 19.2831C19.4449 19.0667 19.0999 18.7599 18.7065 18.4102L13.6555 13.9204C13.4451 13.7334 13.2427 13.5536 13.0858 13.3882C12.9156 13.2087 12.7282 12.9756 12.6183 12.6625C12.4677 12.2337 12.4677 11.7663 12.6183 11.3374C12.7282 11.0243 12.9156 10.7912 13.0858 10.6117C13.2427 10.4463 13.445 10.2665 13.6555 10.0795C13.664 10.0719 13.6726 10.0643 13.6811 10.0567L18.7065 5.5897C19.0999 5.23998 19.445 4.93325 19.7375 4.71685C20.0185 4.50899 20.4239 4.24698 20.9254 4.22821Z" fill="currentColor"/>
</svg>
