<svg width="100%" height="100%" viewBox="0 0 24 24" fill="none" xmlns="http://www.w3.org/2000/svg">
<path fill-rule="evenodd" clip-rule="evenodd" d="M3.56833 2C3.57895 2 3.58959 2.00001 3.60023 2.00001L20.4321 2C20.6845 1.99997 20.9303 1.99994 21.1385 2.01695C21.3671 2.03563 21.6368 2.07969 21.9082 2.21799C22.2845 2.40974 22.5905 2.7157 22.7822 3.09202C22.9205 3.36345 22.9646 3.63318 22.9833 3.86178C23.0003 4.06993 23.0003 4.31571 23.0002 4.56809L23.0002 5.2694C23.0002 5.28764 23.0003 5.30639 23.0003 5.32559C23.0009 5.53391 23.0017 5.79616 22.9345 6.05176C22.8763 6.27325 22.7805 6.4831 22.6512 6.67216C22.5021 6.89031 22.3034 7.06149 22.1456 7.19746C22.131 7.21 22.1168 7.22224 22.1031 7.23419L15.7073 12.7772C15.5985 12.8714 15.5442 12.9189 15.5063 12.9552L15.5033 12.958L15.5031 12.9621C15.5005 13.0145 15.5002 13.0867 15.5002 13.2306V18.4584C15.5002 18.4693 15.5004 18.4821 15.5005 18.4964C15.502 18.6339 15.505 18.9193 15.4056 19.1858C15.322 19.4099 15.186 19.6108 15.009 19.7716C14.7985 19.9629 14.5324 20.0661 14.4042 20.1158C14.3908 20.121 14.3789 20.1256 14.3687 20.1296L10.9408 21.5008C10.7819 21.5644 10.6063 21.6347 10.4514 21.681C10.2847 21.7307 10.0109 21.7957 9.69505 21.7301C9.30803 21.6497 8.96839 21.4198 8.74999 21.0903C8.57176 20.8214 8.53045 20.543 8.51473 20.3698C8.50012 20.2088 8.50017 20.0196 8.50022 19.8484L8.50023 13.2306C8.50023 13.0867 8.49995 13.0145 8.49735 12.9621L8.49714 12.958L8.49421 12.9552C8.4563 12.9189 8.40191 12.8714 8.29319 12.7772L1.89741 7.23419C1.88362 7.22224 1.86942 7.21 1.85487 7.19747C1.69705 7.06149 1.49837 6.89032 1.34921 6.67216C1.21996 6.4831 1.12414 6.27325 1.06592 6.05176C0.998746 5.79617 0.999511 5.53391 1.00012 5.3256C1.00018 5.30639 1.00023 5.28764 1.00023 5.2694V4.60001C1.00023 4.58936 1.00023 4.57873 1.00023 4.56811C1.0002 4.31572 1.00017 4.06993 1.01718 3.86178C1.03585 3.63318 1.07992 3.36345 1.21822 3.09202C1.40996 2.7157 1.71592 2.40974 2.09225 2.21799C2.36367 2.07969 2.63341 2.03563 2.862 2.01695C3.07016 1.99994 3.31595 1.99997 3.56833 2Z" fill="currentColor"/>
</svg>
