<svg width="100%" height="100%" viewBox="0 0 24 24" fill="none" xmlns="http://www.w3.org/2000/svg">
<path fill-rule="evenodd" clip-rule="evenodd" d="M4.53366 2C4.54864 2 4.56368 2 4.57877 2L19.4668 2C19.9953 1.99998 20.4585 1.99995 20.822 2.03263C21.1707 2.06399 21.6493 2.1376 22.037 2.45778C22.5187 2.85544 22.7869 3.45528 22.7621 4.07936C22.7421 4.58184 22.4779 4.98756 22.2687 5.26837C22.0507 5.56102 21.7418 5.90621 21.3894 6.30003L15.6531 12.7112C15.5723 12.8015 15.5323 12.8465 15.5045 12.8804L15.5025 12.8829L15.5023 12.8862C15.5004 12.9299 15.5002 12.9901 15.5002 13.1113V18.4584C15.5002 18.4693 15.5004 18.4821 15.5005 18.4964C15.502 18.6339 15.505 18.9193 15.4056 19.1858C15.322 19.4099 15.186 19.6108 15.009 19.7716C14.7985 19.9629 14.5324 20.0661 14.4042 20.1158C14.3908 20.121 14.3789 20.1256 14.3687 20.1296L10.9408 21.5008C10.7819 21.5644 10.6063 21.6347 10.4514 21.681C10.2847 21.7307 10.0109 21.7957 9.69505 21.7301C9.30803 21.6497 8.9684 21.4197 8.74999 21.0903C8.57177 20.8214 8.53046 20.543 8.51474 20.3698C8.50012 20.2088 8.50018 20.0196 8.50023 19.8484L8.50024 13.1113C8.50024 12.9901 8.50003 12.9299 8.49816 12.8862L8.49802 12.8829L8.49596 12.8804C8.46817 12.8465 8.42817 12.8015 8.34738 12.7112L2.64114 6.33367C2.63108 6.32242 2.62105 6.31121 2.61105 6.30004C2.25865 5.90622 1.94976 5.56103 1.73176 5.26837C1.52259 4.98756 1.25835 4.58184 1.23839 4.07936C1.21361 3.45528 1.4818 2.85544 1.96342 2.45778C2.3512 2.1376 2.82975 2.06399 3.17849 2.03263C3.54196 1.99995 4.00518 1.99998 4.53366 2Z" fill="currentColor"/>
</svg>
