<svg width="100%" height="100%" viewBox="0 0 24 24" fill="none" xmlns="http://www.w3.org/2000/svg">
<path fill-rule="evenodd" clip-rule="evenodd" d="M13.5933 4H10.4071C9.1303 3.99999 8.113 3.99999 7.28841 4.0653C6.4426 4.1323 5.71885 4.27242 5.04682 4.59692C3.9584 5.12248 3.05408 5.96451 2.45231 7.01271C2.08076 7.65992 1.88943 8.37184 1.76234 9.21073C1.63844 10.0286 1.56597 11.0433 1.47501 12.3169L1.22598 15.8033C1.06399 18.071 2.86008 20 5.13365 20C6.29632 20 7.39892 19.4836 8.14325 18.5904L8.51841 18.1402C8.88381 17.7017 8.99363 17.5752 9.10863 17.4773C9.38168 17.2448 9.71223 17.09 10.0657 17.0291C10.2145 17.0034 10.382 17 10.9528 17H13.0476C13.6184 17 13.7859 17.0034 13.9347 17.0291C14.2881 17.09 14.6187 17.2448 14.8917 17.4773C15.0067 17.5752 15.1166 17.7017 15.482 18.1402L15.8571 18.5904C16.6015 19.4836 17.7041 20 18.8667 20C21.1403 20 22.9364 18.071 22.7744 15.8033L22.5254 12.3168C22.4344 11.0433 22.3619 10.0286 22.238 9.21073C22.1109 8.37184 21.9196 7.65992 21.5481 7.01271C20.9463 5.96451 20.042 5.12248 18.9536 4.59692C18.2815 4.27242 17.5578 4.1323 16.712 4.0653C15.8874 3.99999 14.8701 3.99999 13.5933 4ZM9.00024 9C9.00024 8.44772 8.55253 8 8.00024 8C7.44796 8 7.00024 8.44772 7.00024 9V10H6.00024C5.44796 10 5.00024 10.4477 5.00024 11C5.00024 11.5523 5.44796 12 6.00024 12H7.00024V13C7.00024 13.5523 7.44796 14 8.00024 14C8.55253 14 9.00024 13.5523 9.00024 13V12H10.0002C10.5525 12 11.0002 11.5523 11.0002 11C11.0002 10.4477 10.5525 10 10.0002 10H9.00024V9ZM14.0002 12C14.0002 11.4477 14.448 11 15.0002 11H15.0102C15.5625 11 16.0102 11.4477 16.0102 12C16.0102 12.5523 15.5625 13 15.0102 13H15.0002C14.448 13 14.0002 12.5523 14.0002 12ZM17.0002 10C17.0002 9.44772 17.448 9 18.0002 9H18.0102C18.5625 9 19.0102 9.44772 19.0102 10C19.0102 10.5523 18.5625 11 18.0102 11H18.0002C17.448 11 17.0002 10.5523 17.0002 10Z" fill="currentColor"/>
</svg>
