<svg width="100%" height="100%" viewBox="0 0 24 24" fill="none" xmlns="http://www.w3.org/2000/svg">
<path fill-rule="evenodd" clip-rule="evenodd" d="M12.4028 1.18492C12.137 1.13025 11.8628 1.13025 11.597 1.18492C11.2897 1.24812 11.0151 1.40195 10.7967 1.52424L10.7372 1.55749L3.33721 5.6686L3.27407 5.70347C3.04294 5.83078 2.75232 5.99085 2.52915 6.23303C2.3362 6.44241 2.19018 6.69057 2.10085 6.96092C1.99753 7.27363 1.99874 7.60541 1.9997 7.86928L1.99988 7.94141V16.0585L1.9997 16.1306C1.99874 16.3945 1.99753 16.7263 2.10085 17.039C2.19018 17.3094 2.3362 17.5575 2.52915 17.7669C2.75231 18.0091 3.04291 18.1691 3.27404 18.2964L3.33721 18.3313L10.7372 22.4424L10.7967 22.4757C11.0151 22.598 11.2897 22.7518 11.597 22.815C11.8628 22.8697 12.137 22.8697 12.4028 22.815C12.7101 22.7518 12.9847 22.598 13.203 22.4757L13.2626 22.4424L20.6626 18.3313L20.7257 18.2965C20.9568 18.1691 21.2474 18.0091 21.4706 17.7669C21.6636 17.5575 21.8096 17.3094 21.8989 17.039C22.0022 16.7263 22.001 16.3945 22.0001 16.1306L21.9999 16.0585V7.94141L22.0001 7.86928C22.001 7.60541 22.0022 7.27363 21.8989 6.96092C21.8096 6.69057 21.6636 6.44241 21.4706 6.23303C21.2474 5.99085 20.9568 5.83078 20.7257 5.70347L20.6626 5.6686L13.2626 1.55749L13.203 1.52424C12.9847 1.40195 12.7101 1.24812 12.4028 1.18492ZM8.07723 8.65501C9.32975 7.58482 10.9968 7.8992 11.9965 9.06791C12.9961 7.8992 14.6416 7.59608 15.9157 8.65501C17.1897 9.71393 17.3445 11.5145 16.3609 12.7802C15.7309 13.5909 14.1174 15.0942 13.0388 16.0704C12.6803 16.3947 12.5011 16.5569 12.2864 16.622C12.1019 16.6779 11.891 16.6779 11.7065 16.622C11.4918 16.5569 11.3126 16.3947 10.9541 16.0704C9.87546 15.0942 8.26199 13.5909 7.63198 12.7802C6.64836 11.5145 6.8247 9.72519 8.07723 8.65501Z" fill="currentColor"/>
</svg>
