<svg width="100%" height="100%" viewBox="0 0 24 24" fill="none" xmlns="http://www.w3.org/2000/svg">
<path fill-rule="evenodd" clip-rule="evenodd" d="M12.4028 1.18492C12.137 1.13025 11.8628 1.13025 11.597 1.18492C11.2897 1.24812 11.0151 1.40195 10.7967 1.52424L10.7372 1.55749L3.33721 5.6686L3.27407 5.70347C3.04294 5.83078 2.75232 5.99085 2.52915 6.23303C2.3362 6.44241 2.19018 6.69057 2.10085 6.96092C1.99753 7.27363 1.99874 7.60541 1.9997 7.86928L1.99988 7.94141V16.0585L1.9997 16.1306C1.99874 16.3945 1.99753 16.7263 2.10085 17.039C2.19018 17.3094 2.3362 17.5575 2.52915 17.7669C2.75231 18.0091 3.04291 18.1691 3.27404 18.2964L3.33721 18.3313L10.7372 22.4424L10.7967 22.4757C11.0151 22.598 11.2897 22.7518 11.597 22.815C11.8628 22.8697 12.137 22.8697 12.4028 22.815C12.7101 22.7518 12.9847 22.598 13.203 22.4757L13.2626 22.4424L20.6626 18.3313L20.7257 18.2965C20.9568 18.1691 21.2474 18.0091 21.4706 17.7669C21.6636 17.5575 21.8096 17.3094 21.8989 17.039C22.0022 16.7263 22.001 16.3945 22.0001 16.1306L21.9999 16.0585V7.94141L22.0001 7.86928C22.001 7.60541 22.0022 7.27363 21.8989 6.96092C21.8096 6.69057 21.6636 6.44241 21.4706 6.23303C21.2474 5.99085 20.9568 5.83078 20.7257 5.70347L20.6626 5.6686L13.2626 1.55749L13.203 1.52424C12.9847 1.40195 12.7101 1.24812 12.4028 1.18492ZM10.9065 8.27123C11.3137 8.03191 11.7925 7.94443 12.258 8.02428C12.7235 8.10413 13.1458 8.34615 13.4499 8.70749C13.7541 9.06883 13.9206 9.52615 13.9199 9.99847L13.9199 9.99996C13.9199 10.4691 13.5548 10.9582 12.8652 11.4179C12.5508 11.6275 12.2293 11.7889 11.9825 11.8986C11.8605 11.9529 11.7602 11.9929 11.6928 12.0186C11.6629 12.03 11.6328 12.041 11.6026 12.0516C11.0793 12.2267 10.7967 12.7926 10.9712 13.3162C11.1458 13.8401 11.7122 14.1233 12.2361 13.9486L12.4048 13.8876C12.5014 13.8508 12.6355 13.7971 12.7948 13.7263C13.1104 13.586 13.5389 13.3724 13.9746 13.082C14.7848 12.5419 15.9194 11.5312 15.9199 10.0009C15.9211 9.05644 15.5882 8.14201 14.98 7.41949C14.3716 6.69682 13.5271 6.21277 12.5961 6.05307C11.6651 5.89337 10.7075 6.06833 9.89314 6.54696C9.07874 7.02559 8.46001 7.77701 8.14654 8.66812C7.96327 9.18911 8.23704 9.76002 8.75803 9.9433C9.27902 10.1266 9.84993 9.85279 10.0332 9.33181C10.1899 8.88625 10.4993 8.51054 10.9065 8.27123ZM11.9999 16C11.4476 16 10.9999 16.4477 10.9999 17C10.9999 17.5522 11.4476 18 11.9999 18H12.0099C12.5622 18 13.0099 17.5522 13.0099 17C13.0099 16.4477 12.5622 16 12.0099 16H11.9999Z" fill="currentColor"/>
</svg>
