<svg width="100%" height="100%" viewBox="0 0 24 24" fill="none" xmlns="http://www.w3.org/2000/svg">
<path d="M7.94153 1.99988L7.8694 1.9997C7.60553 1.99874 7.27375 1.99753 6.96105 2.10085C6.69069 2.19017 6.44253 2.3362 6.23315 2.52915C5.99097 2.75232 5.8309 3.04294 5.7036 3.27407L5.66872 3.33721L1.55761 10.7372L1.52436 10.7967C1.40207 11.0151 1.24824 11.2897 1.18505 11.597C1.13038 11.8628 1.13038 12.137 1.18505 12.4028C1.24824 12.7101 1.40207 12.9847 1.52436 13.203L1.55761 13.2626L5.66872 20.6626L5.70359 20.7257C5.8309 20.9568 5.99097 21.2474 6.23315 21.4706C6.44253 21.6636 6.69069 21.8096 6.96104 21.8989C7.27375 22.0022 7.60553 22.001 7.8694 22.0001L7.94153 21.9999H16.0586L16.1308 22.0001C16.3946 22.001 16.7264 22.0022 17.0391 21.8989C17.3095 21.8096 17.5576 21.6636 17.767 21.4706C18.0092 21.2474 18.1693 20.9568 18.2966 20.7257L18.3314 20.6625L22.4426 13.2626L22.4758 13.203C22.5981 12.9847 22.7519 12.7101 22.8151 12.4028C22.8698 12.137 22.8698 11.8628 22.8151 11.597C22.7519 11.2897 22.5981 11.0151 22.4758 10.7967L22.4426 10.7372L18.3314 3.33721L18.2966 3.27407C18.1693 3.04295 18.0092 2.75231 17.767 2.52915C17.5576 2.3362 17.3095 2.19018 17.0391 2.10085C16.7264 1.99753 16.3946 1.99874 16.1308 1.9997L16.0586 1.99988L7.94153 1.99988Z" fill="currentColor"/>
</svg>
