<svg width="100%" height="100%" viewBox="0 0 24 24" fill="none" xmlns="http://www.w3.org/2000/svg">
<path fill-rule="evenodd" clip-rule="evenodd" d="M12.5228 1.33636C12.1805 1.24368 11.8197 1.24368 11.4774 1.33636C11.0801 1.44395 10.7455 1.7066 10.4785 1.91623L10.4039 1.97465L3.54388 7.31012C3.16725 7.6024 2.83544 7.85991 2.58818 8.19421C2.37119 8.48759 2.20954 8.8181 2.11118 9.1695C1.9991 9.56992 1.99955 9.98993 2.00007 10.4667L2.00014 17.8385C2.00012 18.3657 2.00011 18.8204 2.03071 19.195C2.06301 19.5904 2.13433 19.9836 2.32712 20.362C2.61474 20.9264 3.07368 21.3854 3.63817 21.673C4.01655 21.8658 4.40977 21.9371 4.80511 21.9694C5.17968 22 5.63443 22 6.16157 22H17.8387C18.3658 22 18.8206 22 19.1952 21.9694C19.5905 21.9371 19.9837 21.8658 20.3621 21.673C20.9266 21.3854 21.3855 20.9264 21.6732 20.362C21.866 19.9836 21.9373 19.5904 21.9696 19.195C22.0002 18.8204 22.0002 18.3657 22.0001 17.8386L22.0002 10.4667C22.0007 9.98993 22.0012 9.56992 21.8891 9.1695C21.7907 8.8181 21.6291 8.48759 21.4121 8.19421C21.1648 7.8599 20.833 7.6024 20.4564 7.31011L13.5964 1.97465L13.5218 1.91623C13.2547 1.7066 12.9202 1.44395 12.5228 1.33636ZM8.00015 16C7.44787 16 7.00015 16.4477 7.00015 17C7.00015 17.5523 7.44787 18 8.00015 18H16.0002C16.5524 18 17.0002 17.5523 17.0002 17C17.0002 16.4477 16.5524 16 16.0002 16H8.00015Z" fill="currentColor"/>
</svg>
