<svg width="100%" height="100%" viewBox="0 0 24 24" fill="none" xmlns="http://www.w3.org/2000/svg">
<path fill-rule="evenodd" clip-rule="evenodd" d="M11.4774 1.33636C11.8197 1.24368 12.1805 1.24368 12.5228 1.33636C12.9202 1.44395 13.2547 1.7066 13.5218 1.91623C13.5472 1.93625 13.5721 1.95578 13.5964 1.97465L20.3787 7.24977C20.4048 7.27007 20.4307 7.29017 20.4564 7.31011C20.833 7.6024 21.1648 7.8599 21.4121 8.19421C21.6291 8.48759 21.7907 8.8181 21.8891 9.1695C22.0012 9.56992 22.0007 9.98993 22.0002 10.4667C22.0002 10.4992 22.0001 10.532 22.0001 10.5651V17.8386C22.0002 18.3657 22.0002 18.8204 21.9696 19.195C21.9373 19.5904 21.866 19.9836 21.6732 20.362C21.3855 20.9264 20.9266 21.3854 20.3621 21.673C19.9837 21.8658 19.5905 21.9371 19.1952 21.9694C18.8206 22 18.3658 22 17.8387 22H6.16157C5.63443 22 5.17968 22 4.80511 21.9694C4.40977 21.9371 4.01655 21.8658 3.63817 21.673C3.07368 21.3854 2.61474 20.9264 2.32712 20.362C2.13433 19.9836 2.06301 19.5904 2.03071 19.195C2.00011 18.8204 2.00012 18.3657 2.00014 17.8385L2.00014 10.5651C2.00014 10.532 2.0001 10.4992 2.00007 10.4667C1.99955 9.98993 1.9991 9.56992 2.11118 9.1695C2.20954 8.8181 2.37119 8.48759 2.58818 8.19421C2.83544 7.85991 3.16725 7.6024 3.54388 7.31012C3.56958 7.29018 3.59549 7.27007 3.62159 7.24977L10.4039 1.97465C10.4282 1.95578 10.453 1.93625 10.4785 1.91623C10.7455 1.7066 11.0801 1.44395 11.4774 1.33636Z" fill="currentColor"/>
</svg>
