<svg width="100%" height="100%" viewBox="0 0 24 24" fill="none" xmlns="http://www.w3.org/2000/svg">
<path d="M18.0001 2C15.791 2 14.0001 3.79086 14.0001 6C14.0001 8.20914 15.791 10 18.0001 10C20.2093 10 22.0001 8.20914 22.0001 6C22.0001 3.79086 20.2093 2 18.0001 2Z" fill="currentColor"/>
<path d="M17.7663 11.9553C17.2758 11.7519 16.7245 11.7519 16.234 11.9553C15.8629 12.1092 15.6092 12.3766 15.4263 12.6034C15.2655 12.8028 15.0935 13.0575 14.909 13.3338L12.1155 9.29872C11.9138 9.00738 11.7259 8.73585 11.5515 8.52702C11.3684 8.30773 11.1168 8.05182 10.7533 7.90407C10.2704 7.70776 9.72989 7.70776 9.24697 7.90407C8.8835 8.05182 8.63189 8.30773 8.44876 8.52702C8.27436 8.73586 8.08643 9.00737 7.88476 9.29872L1.89138 17.9558C1.63113 18.3317 1.39781 18.6687 1.23628 18.9546C1.07538 19.2394 0.889044 19.6326 0.910942 20.0947C0.938859 20.6837 1.2253 21.2304 1.69371 21.5887C2.06115 21.8697 2.49056 21.9403 2.8163 21.9701C3.1433 22.0001 3.55313 22 4.01027 22L19.0001 22C19.0037 22 19.0073 22 19.0109 22L20.0538 22C20.5022 22 20.9054 22 21.2278 21.9705C21.5504 21.9409 21.9736 21.8708 22.3382 21.595C22.8046 21.2422 23.0932 20.7029 23.1281 20.1192C23.1553 19.6628 22.9789 19.2718 22.8245 18.9869C22.6703 18.7023 22.4466 18.3668 22.1978 17.9937L19.1413 13.409C18.938 13.1038 18.7492 12.8207 18.574 12.6034C18.3911 12.3766 18.1374 12.1092 17.7663 11.9553Z" fill="currentColor"/>
</svg>
