<svg width="100%" height="100%" viewBox="0 0 24 24" fill="none" xmlns="http://www.w3.org/2000/svg">
<path fill-rule="evenodd" clip-rule="evenodd" d="M5.43875 7C3.96386 7 2.81684 7.65911 2.06512 8.64282C1.33456 9.59885 1 10.824 1 12C1 13.176 1.33456 14.4012 2.06512 15.3572C2.81684 16.3409 3.96386 17 5.43875 17C8.30812 17 10.3425 15.2064 11.9999 13.4658C13.6573 15.2064 15.6916 17 18.561 17C20.0359 17 21.1829 16.3409 21.9346 15.3572C22.6652 14.4012 22.9998 13.176 22.9998 12C22.9998 10.824 22.6652 9.59885 21.9346 8.64282C21.1829 7.65911 20.0359 7 18.561 7C15.6916 7 13.6573 8.7936 11.9999 10.5343C10.3425 8.7936 8.30816 7 5.43875 7ZM5.43875 15C4.62114 15 4.04879 14.6591 3.65425 14.1428C3.23857 13.5988 3 12.824 3 12C3 11.176 3.23857 10.4012 3.65425 9.85718C4.04879 9.34089 4.62114 9 5.43875 9C7.47809 9 8.98648 10.2728 10.6308 12C8.98642 13.7272 7.47805 15 5.43875 15ZM18.561 15C19.3786 15 19.951 14.6591 20.3455 14.1428C20.7612 13.5988 20.9998 12.824 20.9998 12C20.9998 11.176 20.7612 10.4012 20.3455 9.85718C19.951 9.34089 19.3786 9 18.561 9C16.5217 9 15.0133 10.2728 13.369 12C15.0133 13.7272 16.5217 15 18.561 15Z" fill="currentColor"/>
</svg>
