<svg width="100%" height="100%" viewBox="0 0 24 24" fill="none" xmlns="http://www.w3.org/2000/svg">
<path fill-rule="evenodd" clip-rule="evenodd" d="M11.597 1.18505C11.8628 1.13038 12.137 1.13038 12.4028 1.18505C12.7101 1.24824 12.9847 1.40207 13.203 1.52436L13.2626 1.55761L20.6626 5.66872L20.7257 5.70359C20.9568 5.8309 21.2474 5.99097 21.4706 6.23315C21.6636 6.44253 21.8096 6.69069 21.8989 6.96105C22.0022 7.27375 22.001 7.60553 22.0001 7.8694L21.9999 7.94153V16.0586L22.0001 16.1308C22.001 16.3946 22.0022 16.7264 21.8989 17.0391C21.8096 17.3095 21.6636 17.5576 21.4706 17.767C21.2475 18.0092 20.9569 18.1692 20.7257 18.2966L20.6626 18.3314L13.2626 22.4426L13.203 22.4758C12.9847 22.5981 12.7101 22.7519 12.4028 22.8151C12.137 22.8698 11.8628 22.8698 11.597 22.8151C11.2897 22.7519 11.0151 22.5981 10.7967 22.4758L10.7372 22.4426L3.33721 18.3314L3.27407 18.2966C3.04295 18.1693 2.75231 18.0092 2.52915 17.767C2.3362 17.5576 2.19018 17.3095 2.10085 17.0391C1.99753 16.7264 1.99874 16.3946 1.9997 16.1308L1.99988 16.0586V7.94153L1.9997 7.8694C1.99874 7.60553 1.99753 7.27375 2.10085 6.96105C2.19018 6.69069 2.3362 6.44253 2.52915 6.23315C2.75232 5.99097 3.04294 5.8309 3.27407 5.70359L3.33721 5.66872L10.7372 1.55761L10.7967 1.52436C11.0151 1.40207 11.2897 1.24824 11.597 1.18505ZM11.9999 11C12.5522 11 12.9999 11.4477 12.9999 12V16C12.9999 16.5523 12.5522 17 11.9999 17C11.4476 17 10.9999 16.5523 10.9999 16V12C10.9999 11.4477 11.4476 11 11.9999 11ZM11.9999 7C11.4476 7 10.9999 7.44772 10.9999 8C10.9999 8.55228 11.4476 9 11.9999 9H12.0099C12.5622 9 13.0099 8.55228 13.0099 8C13.0099 7.44772 12.5622 7 12.0099 7H11.9999Z" fill="currentColor"/>
</svg>
