<svg width="100%" height="100%" viewBox="0 0 24 24" fill="none" xmlns="http://www.w3.org/2000/svg">
<path d="M6.16161 3H17.8387C18.3658 2.99998 18.8206 2.99997 19.1952 3.03057C19.5905 3.06287 19.9837 3.13419 20.3621 3.32698C20.9266 3.6146 21.3855 4.07355 21.6732 4.63803C21.866 5.01641 21.9373 5.40963 21.9696 5.80498C22.0002 6.17954 22.0002 6.6343 22.0002 7.16144V13.4C22.0002 13.9601 22.0002 14.2401 21.8912 14.454C21.7953 14.6422 21.6423 14.7951 21.4541 14.891C21.2402 15 20.9602 15 20.4001 15H3.60015C3.0401 15 2.76007 15 2.54616 14.891C2.358 14.7951 2.20502 14.6422 2.10914 14.454C2.00015 14.2401 2.00015 13.9601 2.00015 13.4L2.00015 7.16146C2.00013 6.63431 2.00012 6.17955 2.03072 5.80498C2.06302 5.40963 2.13434 5.01641 2.32713 4.63803C2.61475 4.07355 3.07369 3.6146 3.63818 3.32698C4.01656 3.13419 4.40978 3.06287 4.80512 3.03057C5.17968 2.99997 5.63449 2.99998 6.16161 3Z" fill="currentColor"/>
<path d="M2.41634 17C1.93828 17 1.69925 17 1.46735 17.1338C1.29681 17.2321 1.09514 17.4721 1.02762 17.657C0.935805 17.9085 0.966497 18.0841 1.02788 18.4352C1.04886 18.5552 1.07382 18.6698 1.10241 18.7765C1.37982 19.8118 2.18846 20.6204 3.22373 20.8978C3.60926 21.0011 4.04729 21.0007 4.55501 21.0001H19.4454C19.9531 21.0007 20.3911 21.0011 20.7766 20.8978C21.8119 20.6204 22.6206 19.8118 22.898 18.7765C22.9265 18.6702 22.9513 18.5559 22.9722 18.4361C23.0336 18.0842 23.0643 17.9082 22.9724 17.6568C22.9048 17.4718 22.7033 17.2321 22.5327 17.1337C22.3008 17 22.0615 17 21.5828 17H2.41634Z" fill="currentColor"/>
</svg>
