<svg width="100%" height="100%" viewBox="0 0 24 24" fill="none" xmlns="http://www.w3.org/2000/svg">
<path d="M5.74838 2.0442C5.91307 2.03074 5.99542 2.02401 6.09246 2.03504C6.36582 2.06612 6.64981 2.2372 6.80507 2.46433C6.86018 2.54496 6.89896 2.63545 6.97653 2.81643L10.7245 11.5617L3.18645 15.7206C2.79601 15.9361 2.6008 16.0438 2.44108 16.0248C2.30172 16.0082 2.17572 15.9338 2.09389 15.8198C2.0001 15.6892 2.00008 15.4662 2.00005 15.0203C1.99988 12.5998 2.0002 10.1792 2.0002 7.75869C2.00019 6.95373 2.00018 6.28936 2.0444 5.74818C2.09032 5.18608 2.18888 4.66938 2.43618 4.18404C2.81967 3.43139 3.43159 2.81947 4.18424 2.43598C4.66958 2.18868 5.18628 2.09012 5.74838 2.0442Z" fill="currentColor"/>
<path d="M3.04263 18.0842C2.70682 18.2695 2.53891 18.3621 2.40711 18.5462C2.31344 18.6771 2.22504 18.94 2.22062 19.1008C2.2144 19.3272 2.26493 19.441 2.366 19.6686C2.38795 19.7181 2.41131 19.7672 2.43618 19.816C2.81967 20.5686 3.43159 21.1805 4.18424 21.564C4.66958 21.8113 5.18628 21.9099 5.74838 21.9558C6.28957 22 6.95392 22 7.75888 22H13.9848C14.3899 22 14.5925 22 14.7191 21.9147C14.8298 21.8402 14.9061 21.7245 14.931 21.5934C14.9595 21.4434 14.8797 21.2572 14.7201 20.8849L11.5162 13.4091L3.04263 18.0842Z" fill="currentColor"/>
<path d="M18.252 21.9558C18.0875 21.9692 18.0053 21.976 17.9084 21.965C17.6349 21.9339 17.3507 21.7628 17.1954 21.5355C17.1404 21.4549 17.1017 21.3645 17.0242 21.1838L9.28048 3.11514C9.12091 2.7428 9.04112 2.55663 9.06963 2.40664C9.09455 2.27554 9.17084 2.15983 9.28153 2.08528C9.40816 2 9.61071 2 10.0158 2H16.2415C17.0465 1.99999 17.7108 1.99998 18.252 2.0442C18.8141 2.09012 19.3308 2.18868 19.8162 2.43598C20.5688 2.81947 21.1807 3.43139 21.5642 4.18404C21.8115 4.66938 21.9101 5.18608 21.956 5.74818C22.0002 6.28937 22.0002 6.95372 22.0002 7.75868V16.2413C22.0002 17.0463 22.0002 17.7106 21.956 18.2518C21.9101 18.8139 21.8115 19.3306 21.5642 19.816C21.1807 20.5686 20.5688 21.1805 19.8162 21.564C19.3308 21.8113 18.8141 21.9099 18.252 21.9558Z" fill="currentColor"/>
</svg>
