<svg width="100%" height="100%" viewBox="0 0 24 24" fill="none" xmlns="http://www.w3.org/2000/svg">
<path fill-rule="evenodd" clip-rule="evenodd" d="M12.5005 2C7.25383 2 3.00053 6.25329 3.00053 11.5C3.00053 12.56 3.17452 13.5814 3.49629 14.536C3.55288 14.7039 3.58619 14.8033 3.60785 14.8766L3.61493 14.9012L3.61118 14.909C3.58548 14.962 3.54728 15.0332 3.47582 15.1655L1.82394 18.223C1.72156 18.4124 1.61473 18.6101 1.54127 18.7819C1.46825 18.9527 1.34996 19.2661 1.40816 19.6376C1.47639 20.073 1.73267 20.4564 2.10895 20.6859C2.42996 20.8818 2.76475 20.8923 2.95049 20.8901C3.13736 20.8879 3.36079 20.8648 3.57495 20.8426L8.72992 20.3097C8.81248 20.3012 8.85564 20.2968 8.88726 20.2944L8.89133 20.2941L8.9037 20.2984C8.94255 20.3124 8.99524 20.3326 9.08619 20.3677C10.1471 20.7764 11.2989 21 12.5005 21C17.7472 21 22.0005 16.7467 22.0005 11.5C22.0005 6.25329 17.7472 2 12.5005 2ZM13.9932 9C13.9932 8.17157 14.6647 7.5 15.4932 7.5C16.3216 7.5 16.9932 8.17157 16.9932 9C16.9932 9.82843 16.3216 10.5 15.4932 10.5C14.6647 10.5 13.9932 9.82843 13.9932 9ZM7.89317 13.2001C8.33361 12.8697 8.95785 12.9577 9.29003 13.3959C9.35168 13.4746 9.41951 13.5486 9.4886 13.6207C9.6359 13.7744 9.85724 13.9829 10.1438 14.1913C10.7209 14.611 11.5187 15.0001 12.4932 15.0001C13.4676 15.0001 14.2654 14.611 14.8425 14.1913C15.1291 13.9829 15.3504 13.7744 15.4977 13.6207C15.5668 13.5486 15.6347 13.4745 15.6963 13.3959C16.0285 12.9577 16.6527 12.8697 17.0932 13.2001C17.535 13.5314 17.6245 14.1582 17.2932 14.6001C17.2957 14.5968 17.2898 14.6043 17.2795 14.6171C17.2552 14.6478 17.2064 14.7091 17.1898 14.7289C17.1312 14.7987 17.0482 14.8934 16.9417 15.0045C16.7296 15.2258 16.4197 15.5172 16.0188 15.8088C15.2209 16.3891 14.0187 17.0001 12.4932 17.0001C10.9676 17.0001 9.76544 16.3891 8.9675 15.8088C8.5666 15.5172 8.2567 15.2258 8.04462 15.0045C7.93817 14.8934 7.85518 14.7987 7.79653 14.7289C7.76718 14.6939 7.74382 14.665 7.72658 14.6432C7.38115 14.1969 7.42758 13.5493 7.89317 13.2001ZM9.49316 7.5C8.66474 7.5 7.99316 8.17157 7.99316 9C7.99316 9.82843 8.66474 10.5 9.49316 10.5C10.3216 10.5 10.9932 9.82843 10.9932 9C10.9932 8.17157 10.3216 7.5 9.49316 7.5Z" fill="currentColor"/>
</svg>
