<svg width="100%" height="100%" viewBox="0 0 24 24" fill="none" xmlns="http://www.w3.org/2000/svg">
<path fill-rule="evenodd" clip-rule="evenodd" d="M12.5005 2C7.25383 2 3.00053 6.25329 3.00053 11.5C3.00053 12.56 3.17452 13.5814 3.49629 14.536C3.55288 14.7039 3.58619 14.8033 3.60785 14.8766L3.61493 14.9012L3.61118 14.909C3.58548 14.962 3.54728 15.0332 3.47582 15.1655L1.82394 18.223C1.72156 18.4124 1.61473 18.6101 1.54127 18.7819C1.46825 18.9527 1.34996 19.2661 1.40816 19.6376C1.47639 20.073 1.73267 20.4564 2.10895 20.6859C2.42996 20.8818 2.76475 20.8923 2.95049 20.8901C3.13736 20.8879 3.36079 20.8648 3.57495 20.8426L8.72992 20.3097C8.81248 20.3012 8.85564 20.2968 8.88726 20.2944L8.89133 20.2941L8.9037 20.2984C8.94255 20.3124 8.99524 20.3326 9.08619 20.3677C10.1471 20.7764 11.2989 21 12.5005 21C17.7472 21 22.0005 16.7467 22.0005 11.5C22.0005 6.25329 17.7472 2 12.5005 2ZM8.00049 8.5C7.4482 8.5 7.00049 8.94772 7.00049 9.5C7.00049 10.0523 7.4482 10.5 8.00049 10.5H12.0005C12.5528 10.5 13.0005 10.0523 13.0005 9.5C13.0005 8.94772 12.5528 8.5 12.0005 8.5H8.00049ZM8.00049 12C7.4482 12 7.00049 12.4477 7.00049 13C7.00049 13.5523 7.4482 14 8.00049 14H15.0005C15.5528 14 16.0005 13.5523 16.0005 13C16.0005 12.4477 15.5528 12 15.0005 12H8.00049Z" fill="currentColor"/>
</svg>
