<svg width="100%" height="100%" viewBox="0 0 24 24" fill="none" xmlns="http://www.w3.org/2000/svg">
<path fill-rule="evenodd" clip-rule="evenodd" d="M12.5005 2C7.25383 2 3.00053 6.25329 3.00053 11.5C3.00053 12.56 3.17452 13.5814 3.49629 14.536C3.55288 14.7039 3.58619 14.8033 3.60785 14.8766L3.61493 14.9012L3.61118 14.909C3.58548 14.962 3.54728 15.0332 3.47582 15.1655L1.82394 18.223C1.72156 18.4124 1.61473 18.6101 1.54127 18.7819C1.46825 18.9527 1.34996 19.2661 1.40816 19.6376C1.47639 20.073 1.73267 20.4564 2.10895 20.6859C2.42996 20.8818 2.76475 20.8923 2.95049 20.8901C3.13736 20.8879 3.36079 20.8648 3.57495 20.8426L8.72992 20.3097C8.81248 20.3012 8.85564 20.2968 8.88726 20.2944L8.89133 20.2941L8.9037 20.2984C8.94255 20.3124 8.99524 20.3326 9.08619 20.3677C10.1471 20.7764 11.2989 21 12.5005 21C17.7472 21 22.0005 16.7467 22.0005 11.5C22.0005 6.25329 17.7472 2 12.5005 2ZM12.5005 7.5C13.0528 7.5 13.5005 7.94772 13.5005 8.5V10.5H15.5005C16.0528 10.5 16.5005 10.9477 16.5005 11.5C16.5005 12.0523 16.0528 12.5 15.5005 12.5H13.5005V14.5C13.5005 15.0523 13.0528 15.5 12.5005 15.5C11.9482 15.5 11.5005 15.0523 11.5005 14.5V12.5H9.50049C8.9482 12.5 8.50049 12.0523 8.50049 11.5C8.50049 10.9477 8.9482 10.5 9.50049 10.5H11.5005V8.5C11.5005 7.94772 11.9482 7.5 12.5005 7.5Z" fill="currentColor"/>
</svg>
