<svg width="100%" height="100%" viewBox="0 0 24 24" fill="none" xmlns="http://www.w3.org/2000/svg">
<path fill-rule="evenodd" clip-rule="evenodd" d="M2.99972 5.5C2.99972 3.01472 5.01443 1 7.49972 1C9.83566 1 11.7559 2.77987 11.9782 5.05742C12.3137 5.01947 12.6546 5 12.9997 5C17.9703 5 21.9997 9.02944 21.9997 14C21.9997 17.7786 19.6714 21.011 16.3749 22.3454C15.863 22.5526 15.28 22.3056 15.0728 21.7937C14.8655 21.2818 15.1126 20.6988 15.6245 20.4915C18.1917 19.4524 19.9997 16.9361 19.9997 14C19.9997 10.134 16.8657 7 12.9997 7C12.6598 7 12.3259 7.02416 11.9997 7.07076V12.7639C12.4745 13.1887 12.8125 13.7627 12.9422 14.4148C13.0732 15.0737 13.0737 15.9242 12.9422 16.5854C12.7054 17.7754 11.7751 18.7057 10.5851 18.9424C10.2922 19.0007 9.96439 19.0004 9.58369 19.0001H5.41592C5.03522 19.0004 4.70739 19.0007 4.41453 18.9424C3.22446 18.7057 2.29417 17.7754 2.05745 16.5854C1.92639 15.9265 1.92593 15.076 2.05745 14.4148C2.18714 13.7628 2.525 13.1888 2.99972 12.7641V5.5Z" fill="currentColor"/>
<path d="M2.99972 21C2.44743 21 1.99972 21.4477 1.99972 22C1.99972 22.5523 2.44743 23 2.99972 23H11.9997C12.552 23 12.9997 22.5523 12.9997 22C12.9997 21.4477 12.552 21 11.9997 21H2.99972Z" fill="currentColor"/>
</svg>
