<svg width="100%" height="100%" viewBox="0 0 24 24" fill="none" xmlns="http://www.w3.org/2000/svg">
<path fill-rule="evenodd" clip-rule="evenodd" d="M5.63604 1.22185C6.02656 1.61237 6.02656 2.24554 5.63604 2.63606C2.24017 6.03193 2.12535 11.4665 5.29152 15.0001H11.0002V9.00009C11.0002 8.44781 11.4479 8.00009 12.0002 8.00009C12.5525 8.00009 13.0002 8.44781 13.0002 9.00009V15.0001H18.7089C21.8751 11.4665 21.7603 6.03193 18.3644 2.63606C17.9739 2.24554 17.9739 1.61237 18.3644 1.22185C18.7549 0.831324 19.3881 0.831324 19.7786 1.22185C23.582 5.02523 24.018 10.9208 21.0864 15.2039C21.1071 15.2117 21.1277 15.2199 21.1483 15.2285C21.8834 15.5329 22.4674 16.117 22.7719 16.852C22.9069 17.178 22.9564 17.5079 22.9789 17.8377C23.0002 18.151 23.0002 18.5295 23.0002 18.9681V19.0321C23.0002 19.4707 23.0002 19.8492 22.9789 20.1625C22.9564 20.4923 22.9069 20.8222 22.7719 21.1481C22.4674 21.8832 21.8834 22.4673 21.1483 22.7717C20.8223 22.9067 20.4924 22.9562 20.1626 22.9787C19.8494 23.0001 19.4709 23.0001 19.0323 23.0001H4.96823C4.52962 23.0001 4.15107 23.0001 3.83784 22.9787C3.50801 22.9562 3.1781 22.9067 2.85217 22.7717C2.11709 22.4673 1.53307 21.8832 1.22858 21.1481C1.09358 20.8222 1.04408 20.4923 1.02157 20.1625C1.0002 19.8492 1.00021 19.4707 1.00022 19.0321L1.00022 18.9681C1.00021 18.5295 1.0002 18.151 1.02157 17.8377C1.04408 17.5079 1.09358 17.178 1.22858 16.852C1.53307 16.117 2.11709 15.5329 2.85217 15.2285C2.87277 15.2199 2.89338 15.2117 2.91401 15.2039C-0.0175115 10.9208 0.41844 5.02523 4.22182 1.22185C4.61235 0.831324 5.24551 0.831324 5.63604 1.22185Z" fill="currentColor"/>
<path d="M8.46469 5.46452C8.85521 5.074 8.85521 4.44083 8.46469 4.05031C8.07416 3.65979 7.441 3.65979 7.05047 4.05031C4.3168 6.78398 4.3168 11.2161 7.05047 13.9498C7.441 14.3403 8.07416 14.3403 8.46469 13.9498C8.85521 13.5593 8.85521 12.9261 8.46469 12.5356C6.51207 10.583 6.51206 7.41715 8.46469 5.46452Z" fill="currentColor"/>
<path d="M16.95 4.05031C16.5595 3.65979 15.9263 3.65979 15.5358 4.05031C15.1453 4.44083 15.1453 5.074 15.5358 5.46452C17.4884 7.41715 17.4884 10.583 15.5358 12.5356C15.1453 12.9261 15.1453 13.5593 15.5358 13.9498C15.9263 14.3403 16.5595 14.3403 16.95 13.9498C19.6837 11.2161 19.6837 6.78398 16.95 4.05031Z" fill="currentColor"/>
</svg>
