<svg width="100%" height="100%" viewBox="0 0 24 24" fill="none" xmlns="http://www.w3.org/2000/svg">
<path d="M5.10282 1.69119C5.51959 2.05358 5.56367 2.68521 5.20128 3.10197C3.1861 5.41956 2.55296 8.52555 3.30785 11.3406C3.4509 11.874 3.13443 12.4224 2.601 12.5654C2.06756 12.7085 1.51916 12.392 1.37611 11.8586C0.455092 8.4241 1.22507 4.62682 3.69204 1.78966C4.05443 1.37289 4.68605 1.32881 5.10282 1.69119Z" fill="currentColor"/>
<path d="M8.07322 5.90402C8.4158 5.47082 8.34234 4.84194 7.90914 4.49936C7.47594 4.15678 6.84706 4.23024 6.50448 4.66344C5.10076 6.43849 4.68088 8.73279 5.23896 10.8166C5.38184 11.35 5.93014 11.6667 6.46363 11.5238C6.99711 11.3809 7.31376 10.8326 7.17088 10.2992C6.77108 8.8064 7.07383 7.16778 8.07322 5.90402Z" fill="currentColor"/>
<path d="M16.0913 4.49936C15.6581 4.84194 15.5847 5.47082 15.9273 5.90402C16.9267 7.16778 17.2294 8.8064 16.8296 10.2992C16.6867 10.8326 17.0034 11.3809 17.5369 11.5238C18.0703 11.6667 18.6186 11.35 18.7615 10.8166C19.3196 8.73279 18.8997 6.43849 17.496 4.66344C17.1534 4.23024 16.5245 4.15678 16.0913 4.49936Z" fill="currentColor"/>
<path d="M20.3049 1.78966C19.9425 1.37289 19.3109 1.32881 18.8941 1.69119C18.4774 2.05358 18.4333 2.68521 18.7957 3.10197C20.8109 5.41956 21.444 8.52555 20.6891 11.3406C20.5461 11.874 20.8625 12.4224 21.396 12.5654C21.9294 12.7085 22.4778 12.392 22.6209 11.8586C23.5419 8.4241 22.7719 4.62682 20.3049 1.78966Z" fill="currentColor"/>
<path fill-rule="evenodd" clip-rule="evenodd" d="M13.0002 9C13.0002 8.44772 12.5525 8 12.0002 8C11.448 8 11.0002 8.44772 11.0002 9V14H5.1617C4.63455 14 4.17979 14 3.80522 14.0306C3.40987 14.0629 3.01665 14.1342 2.63827 14.327C2.07379 14.6146 1.61485 15.0735 1.32723 15.638C1.13443 16.0164 1.06312 16.4096 1.03082 16.805C1.00021 17.1795 1.00023 17.6343 1.00025 18.1615V18.8385C1.00023 19.3657 1.00021 19.8205 1.03082 20.195C1.06312 20.5904 1.13443 20.9836 1.32723 21.362C1.61485 21.9265 2.07379 22.3854 2.63827 22.673C3.01665 22.8658 3.40987 22.9371 3.80522 22.9694C4.17975 23 4.63458 23 5.16166 23H18.8389C19.366 23 19.8207 23 20.1953 22.9694C20.5906 22.9371 20.9838 22.8658 21.3622 22.673C21.9267 22.3854 22.3856 21.9265 22.6733 21.362C22.8661 20.9836 22.9374 20.5904 22.9697 20.195C23.0003 19.8205 23.0003 19.3657 23.0002 18.8386V18.1614C23.0003 17.6343 23.0003 17.1795 22.9697 16.805C22.9374 16.4096 22.8661 16.0164 22.6733 15.638C22.3856 15.0735 21.9267 14.6146 21.3622 14.327C20.9838 14.1342 20.5906 14.0629 20.1953 14.0306C19.8207 14 19.3659 14 18.8388 14H13.0002V9ZM5.50024 17.5C4.94796 17.5 4.50024 17.9477 4.50024 18.5C4.50024 19.0523 4.94796 19.5 5.50024 19.5H9.50024C10.0525 19.5 10.5002 19.0523 10.5002 18.5C10.5002 17.9477 10.0525 17.5 9.50024 17.5H5.50024Z" fill="currentColor"/>
</svg>
