<svg width="100%" height="100%" viewBox="0 0 24 24" fill="none" xmlns="http://www.w3.org/2000/svg">
<path fill-rule="evenodd" clip-rule="evenodd" d="M19.9999 14C17.7907 14 15.9999 15.7909 15.9999 18C15.9999 20.2091 17.7907 22 19.9999 22C20.6098 22 21.1878 21.8635 21.705 21.6194L22.2928 22.2071C22.6833 22.5976 23.3165 22.5976 23.707 22.2071C24.0975 21.8166 24.0975 21.1834 23.707 20.7929L23.2484 20.3344C23.7213 19.6774 23.9999 18.8712 23.9999 18C23.9999 15.7909 22.209 14 19.9999 14ZM17.9999 18C17.9999 16.8954 18.8953 16 19.9999 16C21.1044 16 21.9999 16.8954 21.9999 18C21.9999 19.1046 21.1044 20 19.9999 20C18.8953 20 17.9999 19.1046 17.9999 18Z" fill="currentColor"/>
<path d="M11.597 1.18505C11.8628 1.13038 12.137 1.13038 12.4028 1.18505C12.7101 1.24824 12.9847 1.40207 13.203 1.52436L13.2626 1.55761C15.0255 2.53701 18.0078 4.19466 19.6892 5.12926C20.0974 5.35619 20.3015 5.46965 20.3697 5.61961C20.4292 5.75034 20.4296 5.90033 20.3708 6.03136C20.3033 6.18166 20.0996 6.29625 19.6922 6.52544L17.3631 7.83555L8.40026 2.85619L10.7372 1.55761L10.7967 1.52436C11.0151 1.40207 11.2897 1.24824 11.597 1.18505Z" fill="currentColor"/>
<path d="M6.34156 4.00039L15.3168 8.98661L12.3921 10.6318C12.249 10.7122 12.1775 10.7525 12.1016 10.7683C12.0345 10.7822 11.9652 10.7822 11.8981 10.7683C11.8222 10.7525 11.7507 10.7122 11.6076 10.6318L4.30757 6.52545C3.90012 6.29627 3.6964 6.18167 3.62895 6.03137C3.57015 5.90034 3.57053 5.75035 3.62999 5.61962C3.69821 5.46967 3.90233 5.3562 4.31057 5.12928L6.34156 4.00039Z" fill="currentColor"/>
<path d="M21.9958 8.89013C21.9954 8.4418 21.9952 8.21764 21.9007 8.08675C21.8182 7.97256 21.6914 7.89845 21.5514 7.88267C21.3909 7.86457 21.1952 7.97469 20.8036 8.19493L13.4077 12.3552C13.2592 12.4387 13.185 12.4805 13.1309 12.5395C13.0831 12.5918 13.047 12.6536 13.0249 12.7209C12.9999 12.7969 12.9999 12.8821 12.9999 13.0524V21.2277C12.9999 21.6749 12.9999 21.8985 13.0939 22.0293C13.1759 22.1434 13.3022 22.2177 13.4418 22.234C13.6018 22.2527 13.7966 22.1445 14.1864 21.9281C14.2245 21.907 14.2633 21.8854 14.3028 21.8635C14.5708 21.7146 14.7048 21.6402 14.7712 21.5445C14.8354 21.4519 14.8607 21.3702 14.8603 21.2575C14.8598 21.141 14.7818 20.9844 14.6257 20.671C14.2252 19.8666 13.9999 18.9596 13.9999 18C13.9999 14.6863 16.6862 12 19.9999 12C20.3065 12 20.6077 12.023 20.9019 12.0674C21.3366 12.1329 21.5539 12.1657 21.6772 12.1183C21.7976 12.0721 21.8693 12.0103 21.9329 11.8981C21.998 11.7832 21.9979 11.5919 21.9976 11.2091C21.997 10.3397 21.9963 9.52869 21.9958 8.89013Z" fill="currentColor"/>
<path d="M9.81339 21.9281C10.2031 22.1445 10.398 22.2527 10.558 22.234C10.6975 22.2177 10.8238 22.1434 10.9059 22.0293C10.9999 21.8985 10.9999 21.6749 10.9999 21.2277V13.0525C10.9999 12.8821 10.9999 12.797 10.9749 12.7209C10.9528 12.6536 10.9166 12.5918 10.8688 12.5396C10.8148 12.4805 10.7405 12.4387 10.5921 12.3552L3.19611 8.19496C2.80458 7.97472 2.60881 7.8646 2.44837 7.88269C2.3084 7.89848 2.18156 7.97259 2.09908 8.08677C2.00454 8.21766 2.00436 8.44183 2.00398 8.89017C2.00242 10.7563 1.99988 14.0956 1.99988 16.0586L1.9997 16.1308C1.99874 16.3946 1.99753 16.7264 2.10085 17.0391C2.19018 17.3095 2.3362 17.5576 2.52915 17.767C2.75231 18.0092 3.04291 18.1692 3.27404 18.2966L3.33721 18.3314C5.1184 19.321 8.14703 21.0028 9.81339 21.9281Z" fill="currentColor"/>
</svg>
