<svg width="100%" height="100%" viewBox="0 0 24 24" fill="none" xmlns="http://www.w3.org/2000/svg">
<path d="M18.207 15.2929C17.8165 14.9024 17.1833 14.9024 16.7928 15.2929C16.4022 15.6834 16.4022 16.3166 16.7928 16.7071L18.5857 18.5L16.7928 20.2929C16.4022 20.6834 16.4022 21.3166 16.7928 21.7071C17.1833 22.0976 17.8165 22.0976 18.207 21.7071L19.9999 19.9142L21.7928 21.7071C22.1833 22.0976 22.8165 22.0976 23.207 21.7071C23.5975 21.3166 23.5975 20.6834 23.207 20.2929L21.4141 18.5L23.207 16.7071C23.5975 16.3166 23.5975 15.6834 23.207 15.2929C22.8165 14.9024 22.1833 14.9024 21.7928 15.2929L19.9999 17.0858L18.207 15.2929Z" fill="currentColor"/>
<path d="M11.597 1.18505C11.8628 1.13038 12.137 1.13038 12.4028 1.18505C12.7101 1.24824 12.9847 1.40207 13.203 1.52436L13.2626 1.55761C15.0255 2.53701 18.0078 4.19466 19.6892 5.12926C20.0974 5.35619 20.3015 5.46965 20.3697 5.61961C20.4292 5.75034 20.4296 5.90033 20.3708 6.03136C20.3033 6.18166 20.0996 6.29625 19.6922 6.52544L17.3631 7.83555L8.40026 2.85619L10.7372 1.55761L10.7967 1.52436C11.0151 1.40207 11.2897 1.24824 11.597 1.18505Z" fill="currentColor"/>
<path d="M6.34156 4.00039L15.3168 8.98661L12.3921 10.6318C12.249 10.7122 12.1775 10.7525 12.1016 10.7683C12.0345 10.7822 11.9652 10.7822 11.8981 10.7683C11.8222 10.7525 11.7507 10.7122 11.6076 10.6318L4.30757 6.52545C3.90012 6.29627 3.6964 6.18167 3.62895 6.03137C3.57015 5.90034 3.57053 5.75035 3.62999 5.61962C3.69821 5.46967 3.90233 5.3562 4.31057 5.12928L6.34156 4.00039Z" fill="currentColor"/>
<path d="M21.9958 8.89013C21.9954 8.4418 21.9952 8.21764 21.9007 8.08675C21.8182 7.97256 21.6914 7.89845 21.5514 7.88267C21.3909 7.86457 21.1952 7.97469 20.8036 8.19493L13.4077 12.3552C13.2592 12.4387 13.185 12.4805 13.1309 12.5395C13.0831 12.5918 13.047 12.6536 13.0249 12.7209C12.9999 12.7969 12.9999 12.8821 12.9999 13.0524V21.2277C12.9999 21.6749 12.9999 21.8985 13.0939 22.0293C13.1759 22.1434 13.3022 22.2177 13.4418 22.234C13.6018 22.2527 13.7966 22.1445 14.1864 21.9281C14.2572 21.8888 14.2925 21.8692 14.3154 21.8528C14.4608 21.7492 14.5203 21.6374 14.5251 21.4589C14.5258 21.4308 14.5209 21.3735 14.511 21.2588C14.4377 20.4072 14.7269 19.5304 15.3786 18.8787L15.7572 18.5L15.3786 18.1213C14.207 16.9497 14.207 15.0503 15.3786 13.8787C16.5501 12.7071 18.4496 12.7071 19.6212 13.8787L19.9999 14.2574L20.3786 13.8787C20.6657 13.5916 20.9965 13.3748 21.3496 13.2284C21.6316 13.1115 21.7725 13.0531 21.8381 12.9925C21.9073 12.9285 21.9352 12.8867 21.9677 12.7982C21.9986 12.7144 21.9985 12.598 21.9984 12.365C21.9975 11.0765 21.9965 9.80592 21.9958 8.89013Z" fill="currentColor"/>
<path d="M9.81339 21.9281C10.2031 22.1445 10.398 22.2527 10.558 22.234C10.6975 22.2177 10.8238 22.1434 10.9059 22.0293C10.9999 21.8985 10.9999 21.6749 10.9999 21.2277V13.0525C10.9999 12.8821 10.9999 12.797 10.9749 12.7209C10.9528 12.6536 10.9166 12.5918 10.8688 12.5396C10.8148 12.4805 10.7405 12.4387 10.5921 12.3552L3.19611 8.19496C2.80458 7.97472 2.60881 7.8646 2.44837 7.88269C2.3084 7.89848 2.18156 7.97259 2.09908 8.08677C2.00454 8.21766 2.00436 8.44183 2.00398 8.89017C2.00242 10.7563 1.99988 14.0956 1.99988 16.0586L1.9997 16.1308C1.99874 16.3946 1.99753 16.7264 2.10085 17.0391C2.19018 17.3095 2.3362 17.5576 2.52915 17.767C2.75231 18.0092 3.04291 18.1692 3.27404 18.2966L3.33721 18.3314C5.1184 19.321 8.14703 21.0028 9.81339 21.9281Z" fill="currentColor"/>
</svg>
