<svg width="100%" height="100%" viewBox="0 0 24 24" fill="none" xmlns="http://www.w3.org/2000/svg">
<path fill-rule="evenodd" clip-rule="evenodd" d="M8.7068 1.29289C8.31628 0.902369 7.68312 0.902369 7.29259 1.29289C6.90207 1.68342 6.90207 2.31658 7.29259 2.70711L7.58548 3L2.52808 8.0574C2.15532 8.43014 1.83374 8.7517 1.59052 9.0382C1.3338 9.34059 1.10618 9.66907 0.974955 10.0729C0.779182 10.6755 0.779182 11.3245 0.974955 11.9271C1.10618 12.3309 1.3338 12.6594 1.59051 12.9618C1.83373 13.2483 2.1553 13.5698 2.52806 13.9426L6.05708 17.4716C6.4298 17.8443 6.75141 18.166 7.0379 18.4092C7.34029 18.6659 7.66877 18.8935 8.07265 19.0247C8.67518 19.2205 9.32422 19.2205 9.92675 19.0247C10.3306 18.8935 10.6591 18.6659 10.9615 18.4092C11.248 18.166 11.5695 17.8444 11.9423 17.4716L16.598 12.8159C16.7765 12.6375 16.9503 12.4637 17.0855 12.3045C17.2339 12.1296 17.3935 11.9078 17.4876 11.618C17.6181 11.2163 17.6181 10.7837 17.4876 10.382C17.3935 10.0922 17.2339 9.87036 17.0855 9.69551C16.9503 9.5363 16.7765 9.36252 16.598 9.18408L8.7068 1.29289ZM8.9997 4.41421L3.96955 9.44436C3.74657 9.66734 3.56697 9.84727 3.41989 10L14.5855 10L8.9997 4.41421Z" fill="currentColor"/>
<path d="M19.9998 12C20.2506 12 20.501 12.0938 20.6938 12.2799C20.7256 12.3102 20.757 12.341 20.7882 12.3718C20.8483 12.4311 20.9325 12.5156 21.033 12.6201C21.2329 12.828 21.5022 13.1201 21.7741 13.4529C22.043 13.782 22.332 14.172 22.5586 14.5745C22.7702 14.9502 22.9998 15.4607 22.9998 15.9999C22.9998 17.6567 21.6566 18.9999 19.9998 18.9999C18.3429 18.9999 16.9998 17.6567 16.9998 15.9999C16.9998 15.4607 17.2294 14.9502 17.4409 14.5745C17.6675 14.172 17.9565 13.782 18.2254 13.4529C18.4973 13.1201 18.7666 12.828 18.9665 12.6201C19.067 12.5156 19.1513 12.4311 19.2113 12.3718C19.2425 12.341 19.2739 12.3102 19.3057 12.2799C19.4208 12.1688 19.5565 12.0906 19.7005 12.0456C19.7978 12.0152 19.8988 12 19.9998 12Z" fill="currentColor"/>
<path d="M1.99976 21C1.44747 21 0.999756 21.4477 0.999756 22C0.999756 22.5523 1.44747 23 1.99976 23L13.9998 23C14.552 23 14.9998 22.5523 14.9998 22C14.9998 21.4477 14.552 21 13.9998 21L1.99976 21Z" fill="currentColor"/>
</svg>
