<svg width="100%" height="100%" viewBox="0 0 24 24" fill="none" xmlns="http://www.w3.org/2000/svg">
<path fill-rule="evenodd" clip-rule="evenodd" d="M11.2066 1.29289C10.8161 0.902369 10.1829 0.902369 9.79241 1.29289C9.40188 1.68342 9.40188 2.31658 9.79241 2.70711L10.0852 2.99994L4.15734 8.92784C3.58814 9.49703 3.11836 9.96679 2.76694 10.3807C2.40195 10.8107 2.10628 11.2457 1.93796 11.7638C1.67693 12.5672 1.67693 13.4325 1.93796 14.2359C2.10628 14.754 2.40195 15.189 2.76694 15.619C3.11836 16.0329 3.58816 16.5027 4.15738 17.0719L7.42755 20.3421C7.99669 20.9112 8.46652 21.3811 8.88044 21.7325C9.31037 22.0974 9.74543 22.3931 10.2635 22.5614C11.0669 22.8225 11.9322 22.8225 12.7356 22.5614C13.2537 22.3931 13.6887 22.0974 14.1187 21.7325C14.5326 21.3811 15.0023 20.9113 15.5714 20.3422L21.0978 14.8158C21.2763 14.6374 21.4501 14.4636 21.5853 14.3043C21.7337 14.1295 21.8933 13.9076 21.9874 13.6179C22.118 13.2162 22.118 12.7835 21.9874 12.3818C21.8933 12.0921 21.7337 11.8702 21.5853 11.6954C21.4501 11.5361 21.2763 11.3624 21.0978 11.1839L12.2067 2.29274C12.2028 2.28887 12.1989 2.28504 12.195 2.28124L11.2066 1.29289ZM11.4995 4.41406L5.60077 10.3128C4.99507 10.9185 4.58388 11.3308 4.29162 11.6751C4.1857 11.7999 4.1036 11.9065 4.03946 11.9998H19.0853L11.4995 4.41406Z" fill="currentColor"/>
</svg>
