<svg width="100%" height="100%" viewBox="0 0 24 24" fill="none" xmlns="http://www.w3.org/2000/svg">
<path d="M0.980702 4.51916C0.719699 3.63254 0.589197 3.18923 0.690706 3.00623C0.778207 2.84849 0.943888 2.75011 1.12427 2.74879C1.33352 2.74725 1.66029 3.07402 2.31382 3.72755L9.06807 10.4818C9.02388 10.647 9.00033 10.8207 9.00033 10.9998C9.00033 12.1044 9.89576 12.9998 11.0003 12.9998C12.1049 12.9998 13.0003 12.1044 13.0003 10.9998C13.0003 9.89527 12.1049 8.99984 11.0003 8.99984C10.8212 8.99984 10.6475 9.0234 10.4823 9.06758L3.72804 2.31334C3.0745 1.6598 2.74774 1.33304 2.74928 1.12378C2.7506 0.9434 2.84898 0.777718 3.00672 0.690218C3.18972 0.588709 3.63302 0.719211 4.51964 0.980213L15.8179 4.30619C16.0945 4.37183 16.4422 4.45431 16.7374 4.6468C16.9924 4.81305 17.206 5.03532 17.3621 5.29665C17.5428 5.59921 17.6115 5.94983 17.6662 6.22888L18.7073 11.4355C19.0113 11.3904 19.3233 11.4159 19.6185 11.5118C19.9082 11.6059 20.1301 11.7655 20.3049 11.9139C20.4641 12.0491 20.6379 12.2229 20.8164 12.4014L21.5987 13.1837C21.7772 13.3622 21.951 13.536 22.0862 13.6952C22.2346 13.87 22.3942 14.0919 22.4883 14.3817C22.6188 14.7833 22.6188 15.216 22.4883 15.6177C22.3942 15.9074 22.2346 16.1293 22.0862 16.3042C21.951 16.4634 21.7772 16.6372 21.5987 16.8156L16.8163 21.598C16.6379 21.7765 16.4641 21.9503 16.3049 22.0854C16.1301 22.2339 15.9082 22.3935 15.6185 22.4876C15.2168 22.6181 14.7841 22.6181 14.3824 22.4876C14.0927 22.3935 13.8708 22.2339 13.6959 22.0854C13.5367 21.9503 13.363 21.7765 13.1845 21.598L12.4021 20.8156C12.2237 20.6373 12.0498 20.4633 11.9147 20.3042C11.7662 20.1293 11.6067 19.9074 11.5125 19.6177C11.4166 19.3226 11.3912 19.0108 11.4362 18.7068L6.22937 17.6657C5.95032 17.611 5.5997 17.5423 5.29714 17.3616C5.03581 17.2055 4.81354 16.9919 4.64728 16.7369C4.4548 16.4417 4.37232 16.0941 4.30668 15.8174L0.980702 4.51916Z" fill="currentColor"/>
</svg>
