<svg width="100%" height="100%" viewBox="0 0 24 24" fill="none" xmlns="http://www.w3.org/2000/svg">
<path fill-rule="evenodd" clip-rule="evenodd" d="M11.9998 4C9.48194 4 7.20707 5.03263 5.57247 6.70004C5.18585 7.09443 4.55271 7.10072 4.15833 6.7141C3.76394 6.32748 3.75765 5.69434 4.14427 5.29996C6.13953 3.26464 8.92288 2 11.9998 2C15.0767 2 17.8601 3.26464 19.8553 5.29996C20.242 5.69434 20.2357 6.32748 19.8413 6.7141C19.4469 7.10072 18.8138 7.09443 18.4271 6.70004C16.7925 5.03263 14.5177 4 11.9998 4Z" fill="currentColor"/>
<path fill-rule="evenodd" clip-rule="evenodd" d="M11.9998 8C10.519 8 9.18966 8.6424 8.2727 9.66691C7.90437 10.0784 7.27217 10.1135 6.86065 9.74513C6.44912 9.37681 6.4141 8.74461 6.78243 8.33309C8.06275 6.9026 9.92651 6 11.9998 6C14.073 6 15.9368 6.9026 17.2171 8.33309C17.5854 8.74461 17.5504 9.37681 17.1389 9.74513C16.7274 10.1135 16.0952 10.0784 15.7269 9.66691C14.8099 8.6424 13.4805 8 11.9998 8Z" fill="currentColor"/>
<path fill-rule="evenodd" clip-rule="evenodd" d="M11.9997 12C15.117 12 19.0701 12.7294 21.5552 14.7931C22.2115 15.3381 22.7758 16.2991 22.9321 17.1378C23.0708 17.8825 23.0909 18.8302 22.9431 19.5802C22.7077 20.7744 21.7741 21.708 20.5799 21.9434C19.9913 22.0594 19.3139 22.0447 18.7137 21.9855C17.29 21.8449 16.1636 20.7185 16.023 19.2948C16.0084 19.1462 16.0084 18.9822 16.0085 18.7914C16.0085 18.7493 16.0205 18.6899 15.9777 18.6748C14.7341 18.238 13.3958 18 11.9997 18C10.6037 18 9.26532 18.238 8.02173 18.6748C7.97905 18.6898 7.99092 18.7483 7.99094 18.7914C7.99102 18.9822 7.99108 19.1462 7.97641 19.2948C7.83583 20.7185 6.70946 21.8449 5.28572 21.9855C4.69465 22.0438 4.00239 22.0583 3.41954 21.9434C2.22536 21.708 1.29176 20.7744 1.05637 19.5802C0.908536 18.8302 0.928661 17.8825 1.06739 17.1378C1.22363 16.2991 1.78794 15.3381 2.44426 14.7931C4.92499 12.733 8.88548 12 11.9997 12Z" fill="currentColor"/>
</svg>
