<svg width="100%" height="100%" viewBox="0 0 24 24" fill="none" xmlns="http://www.w3.org/2000/svg">
<path d="M21.7066 3.70711C22.0971 3.31658 22.0971 2.68342 21.7066 2.29289C21.3161 1.90237 20.6829 1.90237 20.2924 2.29289L2.2924 20.2929C1.90188 20.6834 1.90188 21.3166 2.2924 21.7071C2.68293 22.0976 3.31609 22.0976 3.70662 21.7071L8.01512 17.3986C10.3242 19.5006 13.103 21.0414 16.1118 21.8965C16.6308 22.044 17.0332 22.1584 17.5851 22.1601C18.2159 22.1619 19.0061 21.9564 19.5561 21.6475C20.5155 21.1086 21.7176 19.9681 22.2123 18.9901C22.6429 18.1388 22.6429 17.1334 22.2123 16.282C21.7896 15.4464 20.8112 14.4878 20.0285 13.9789C19.0341 13.3324 17.7523 13.3324 16.7579 13.9789C16.4915 14.1521 16.245 14.3991 15.9588 14.6857C15.9457 14.6989 15.9332 14.7121 15.9212 14.7249C15.8484 14.8025 15.7893 14.8655 15.6694 14.808C14.5881 14.2888 13.5605 13.6183 12.6181 12.7956L21.7066 3.70711Z" fill="currentColor"/>
<path d="M10.0117 9.74516C9.74194 9.31449 9.49864 8.87214 9.28176 8.42041C9.22485 8.3019 9.29231 8.23777 9.3697 8.16419C9.38105 8.1534 9.39261 8.14241 9.40402 8.13102C9.69068 7.84485 9.93761 7.59834 10.1109 7.33189C10.7573 6.33755 10.7573 5.05568 10.1109 4.06134C9.60193 3.2786 8.64337 2.30019 7.80771 1.87752C6.95637 1.44691 5.95097 1.44691 5.09963 1.87752C4.11431 2.37589 2.97354 3.58795 2.44226 4.53372C2.13333 5.08366 1.92782 5.8739 1.9297 6.50467C1.93134 7.05657 2.04573 7.45904 2.19324 7.97805C2.85276 10.2984 3.91999 12.482 5.33799 14.4189L10.0117 9.74516Z" fill="currentColor"/>
</svg>
