<svg width="100%" height="100%" viewBox="0 0 24 24" fill="none" xmlns="http://www.w3.org/2000/svg">
<path fill-rule="evenodd" clip-rule="evenodd" d="M13.0682 5.80847C13.1739 5.26641 13.6991 4.91271 14.2412 5.01847C15.4132 5.24715 16.4904 5.82038 17.3348 6.66479C18.1792 7.50921 18.7525 8.58639 18.9812 9.75847C19.0869 10.3005 18.7332 10.8257 18.1912 10.9315C17.6491 11.0372 17.1239 10.6835 17.0182 10.1415C16.8657 9.36007 16.4836 8.64195 15.9206 8.07901C15.3577 7.51607 14.6396 7.13391 13.8582 6.98146C13.3161 6.8757 12.9624 6.35054 13.0682 5.80847Z" fill="currentColor"/>
<path fill-rule="evenodd" clip-rule="evenodd" d="M13.0558 1.88955C13.1168 1.34065 13.6112 0.945101 14.1601 1.00608C16.4148 1.25656 18.5174 2.26627 20.1226 3.86942C21.7277 5.47257 22.7401 7.57387 22.9934 9.8283C23.0551 10.3771 22.6602 10.872 22.1113 10.9337C21.5625 10.9954 21.0676 10.6005 21.0059 10.0516C20.8033 8.24808 19.9934 6.56704 18.7092 5.28453C17.4251 4.00201 15.743 3.19424 13.9392 2.99385C13.3903 2.93287 12.9948 2.43846 13.0558 1.88955Z" fill="currentColor"/>
<path fill-rule="evenodd" clip-rule="evenodd" d="M6.33755 17.7521C3.90364 15.3182 2.13382 12.2872 1.19324 8.97801C1.04573 8.459 0.931344 8.05653 0.9297 7.50464C0.927823 6.87386 1.13333 6.08363 1.44226 5.53368C1.97354 4.58791 3.11431 3.37586 4.09963 2.87748C4.95097 2.44688 5.95637 2.44688 6.80771 2.87748C7.64337 3.30015 8.60193 4.27856 9.11085 5.06131C9.75734 6.05564 9.75734 7.33751 9.11085 8.33185C8.93761 8.5983 8.69068 8.84481 8.40402 9.13099C8.31476 9.2201 8.21651 9.28448 8.28176 9.42037C8.92958 10.7697 9.81307 12.0352 10.9337 13.1559C12.0544 14.2766 13.32 15.1601 14.6693 15.8079C14.809 15.875 14.8662 15.7783 14.9587 15.6856C15.2449 15.399 15.4914 15.1521 15.7578 14.9788C16.7522 14.3323 18.034 14.3323 19.0284 14.9788C19.8111 15.4877 20.7895 16.4463 21.2122 17.282C21.6428 18.1333 21.6428 19.1387 21.2122 19.99C20.7175 20.968 19.5154 22.1085 18.556 22.6474C18.0061 22.9563 17.2158 23.1619 16.585 23.16C16.0331 23.1583 15.6307 23.0439 15.1117 22.8964C11.8024 21.9559 8.77144 20.186 6.33755 17.7521Z" fill="currentColor"/>
</svg>
