<svg width="100%" height="100%" viewBox="0 0 24 24" fill="none" xmlns="http://www.w3.org/2000/svg">
<path fill-rule="evenodd" clip-rule="evenodd" d="M19.9995 2C20.5518 2 20.9995 2.44772 20.9995 3V10C20.9995 10.5523 20.5518 11 19.9995 11C19.4472 11 18.9995 10.5523 18.9995 10V3C18.9995 2.44772 19.4472 2 19.9995 2Z" fill="currentColor"/>
<path fill-rule="evenodd" clip-rule="evenodd" d="M14.9995 2C15.5518 2 15.9995 2.44772 15.9995 3V10C15.9995 10.5523 15.5518 11 14.9995 11C14.4472 11 13.9995 10.5523 13.9995 10V3C13.9995 2.44772 14.4472 2 14.9995 2Z" fill="currentColor"/>
<path fill-rule="evenodd" clip-rule="evenodd" d="M6.33755 17.7522C3.90364 15.3182 2.13382 12.2873 1.19324 8.97805C1.04573 8.45904 0.931344 8.05657 0.9297 7.50467C0.927823 6.8739 1.13333 6.08366 1.44226 5.53372C1.97354 4.58795 3.11431 3.37589 4.09963 2.87752C4.95097 2.44691 5.95637 2.44691 6.80771 2.87752C7.64337 3.30019 8.60193 4.2786 9.11085 5.06134C9.75734 6.05568 9.75734 7.33755 9.11085 8.33189C8.93761 8.59834 8.69068 8.84485 8.40402 9.13102C8.31476 9.22013 8.21651 9.28452 8.28176 9.42041C8.92958 10.7697 9.81307 12.0353 10.9337 13.156C12.0544 14.2766 13.32 15.1601 14.6693 15.808C14.809 15.875 14.8662 15.7783 14.9587 15.6857C15.2449 15.399 15.4914 15.1521 15.7578 14.9789C16.7522 14.3324 18.034 14.3324 19.0284 14.9789C19.8111 15.4878 20.7895 16.4463 21.2122 17.282C21.6428 18.1333 21.6428 19.1387 21.2122 19.9901C20.7175 20.968 19.5154 22.1085 18.556 22.6475C18.0061 22.9564 17.2158 23.1619 16.585 23.16C16.0331 23.1584 15.6307 23.044 15.1117 22.8965C11.8024 21.956 8.77144 20.186 6.33755 17.7522Z" fill="currentColor"/>
</svg>
