<svg width="100%" height="100%" viewBox="0 0 24 24" fill="none" xmlns="http://www.w3.org/2000/svg">
<path d="M21.7066 3.70711L17.4137 8L19.9995 8C20.5518 8 20.9995 8.44771 20.9995 9C20.9995 9.55228 20.5518 10 19.9995 10L14.9995 10C14.7343 10 14.4799 9.89464 14.2924 9.70711C14.1049 9.51957 13.9995 9.26522 13.9995 9V4C13.9995 3.44772 14.4472 3 14.9995 3C15.5518 3 15.9995 3.44772 15.9995 4V6.58579L20.2924 2.29289C20.6829 1.90237 21.3161 1.90237 21.7066 2.29289C22.0971 2.68342 22.0971 3.31658 21.7066 3.70711Z" fill="currentColor"/>
<path d="M1.19324 8.97805C2.13382 12.2873 3.90364 15.3182 6.33755 17.7522C8.77144 20.186 11.8024 21.956 15.1117 22.8965C15.6307 23.044 16.0332 23.1584 16.585 23.16C17.2158 23.1619 18.0061 22.9564 18.556 22.6475C19.5154 22.1085 20.7175 20.968 21.2122 19.9901C21.6428 19.1387 21.6428 18.1333 21.2122 17.282C20.7895 16.4463 19.8111 15.4878 19.0284 14.9789C18.034 14.3324 16.7522 14.3324 15.7578 14.9789C15.4914 15.1521 15.2449 15.399 14.9587 15.6857C14.9456 15.6988 14.9332 15.7121 14.9211 15.7249C14.8483 15.8025 14.7892 15.8655 14.6693 15.808C13.32 15.1601 12.0544 14.2766 10.9337 13.156C9.81307 12.0353 8.92958 10.7697 8.28176 9.42041C8.22485 9.3019 8.29231 9.23777 8.3697 9.16419C8.38105 9.1534 8.39261 9.14241 8.40402 9.13102C8.69068 8.84485 8.93761 8.59834 9.11085 8.33189C9.75734 7.33755 9.75734 6.05568 9.11085 5.06134C8.60193 4.2786 7.64337 3.30019 6.80771 2.87752C5.95637 2.44691 4.95097 2.44691 4.09963 2.87752C3.11431 3.37589 1.97354 4.58795 1.44226 5.53372C1.13333 6.08366 0.927823 6.8739 0.9297 7.50467C0.931344 8.05657 1.04573 8.45904 1.19324 8.97805Z" fill="currentColor"/>
</svg>
