<svg width="100%" height="100%" viewBox="0 0 24 24" fill="none" xmlns="http://www.w3.org/2000/svg">
<path fill-rule="evenodd" clip-rule="evenodd" d="M16.3837 2.41026C16.1279 2.1545 15.8904 1.91688 15.6781 1.73997C15.4561 1.55487 15.1581 1.34476 14.7682 1.26571C14.2516 1.16099 13.7146 1.26441 13.2739 1.55348C12.9412 1.77171 12.7426 2.07745 12.6051 2.33178C12.4738 2.57484 12.3415 2.88371 12.199 3.21614L11.1144 5.74692C11.0901 5.80374 11.0781 5.83143 11.069 5.85143L11.0684 5.85279L11.0674 5.85387C11.0522 5.86976 11.0309 5.89112 10.9872 5.93483L9.42629 7.49572C9.358 7.56401 9.32426 7.59756 9.29893 7.62119L9.29713 7.62286L9.29474 7.62343C9.26103 7.6314 9.2144 7.64086 9.1197 7.6598L5.41283 8.40118C4.97315 8.48908 4.57776 8.56813 4.2674 8.66033C3.9568 8.7526 3.55558 8.90434 3.25214 9.24632C2.86401 9.68374 2.68677 10.2691 2.76707 10.8484C2.82986 11.3012 3.07953 11.65 3.28677 11.8991C3.49387 12.148 3.77899 12.4331 4.09607 12.7501L6.96237 15.6164L2.01262 20.5662C1.6221 20.9567 1.6221 21.5898 2.01262 21.9804C2.40314 22.3709 3.03631 22.3709 3.42683 21.9804L8.37659 17.0306L11.243 19.897C11.56 20.2141 11.8451 20.4992 12.094 20.7063C12.343 20.9136 12.6919 21.1632 13.1447 21.226C13.724 21.3063 14.3093 21.1291 14.7468 20.7409C15.0887 20.4375 15.2405 20.0363 15.3327 19.7257C15.4249 19.4153 15.504 19.0199 15.5919 18.5802L16.3333 14.8734C16.3522 14.7787 16.3617 14.7321 16.3696 14.6983L16.3702 14.6959L16.3719 14.6941C16.3955 14.6688 16.4291 14.6351 16.4974 14.5668L18.0582 13.0059C18.102 12.9622 18.1233 12.9409 18.1392 12.9257L18.1403 12.9247L18.1416 12.9241C18.1616 12.915 18.1893 12.903 18.2462 12.8787L20.7769 11.7941C21.1094 11.6516 21.4182 11.5193 21.6613 11.3879C21.9156 11.2505 22.2214 11.0519 22.4396 10.7192C22.7287 10.2785 22.8321 9.74147 22.7274 9.22493C22.6483 8.83496 22.4382 8.53699 22.2531 8.31494C22.0762 8.10272 21.8386 7.86514 21.5828 7.60943L16.3837 2.41026Z" fill="currentColor"/>
</svg>
