<svg width="100%" height="100%" viewBox="0 0 24 24" fill="none" xmlns="http://www.w3.org/2000/svg">
<path fill-rule="evenodd" clip-rule="evenodd" d="M17.0263 2.1174C18.3796 0.71959 20.6156 0.701508 21.9914 2.07725C23.3294 3.4153 23.3543 5.5769 22.0475 6.94543L19.0499 10.0905L20.8614 17.9583C20.9184 18.2014 20.9901 18.5072 20.9661 18.8194C20.9453 19.0894 20.8699 19.3524 20.7444 19.5924C20.3763 20.2964 19.5885 20.9399 18.9922 21.4362C18.7595 21.6299 18.4422 21.8543 18.0279 21.9276C17.4862 22.0234 16.9289 21.8919 16.4873 21.5639C16.1495 21.3131 15.9661 20.9704 15.8446 20.6931C15.7266 20.4239 15.6125 20.0816 15.4882 19.7087L13.9771 15.1754L11.7759 17.3766C11.6691 17.4834 11.6155 17.5374 11.5785 17.5785L11.5756 17.5817C11.581 17.6771 11.5933 17.7722 11.6039 17.8671C11.6673 18.4378 11.7291 19.0087 11.7942 19.5792C11.819 19.7964 11.8503 20.0698 11.8067 20.3429C11.769 20.5795 11.689 20.8074 11.5707 21.0158C11.4341 21.2563 11.2389 21.4502 11.0838 21.6043C10.7802 21.9062 10.4764 22.2239 10.2151 22.4432C10.0161 22.6103 9.75678 22.7937 9.41709 22.8822C8.956 23.0024 8.46715 22.954 8.03858 22.7457C7.72285 22.5923 7.50456 22.3616 7.34212 22.1587C6.54971 21.1691 5.93582 20.0319 5.20729 18.9954C4.17095 18.2667 3.03364 17.653 2.04402 16.8606C1.84115 16.6982 1.61043 16.4799 1.457 16.1642C1.24874 15.7356 1.20034 15.2467 1.3205 14.7857C1.40903 14.446 1.59246 14.1867 1.75953 13.9876C1.9788 13.7263 2.29655 13.4226 2.59838 13.1189C2.75249 12.9639 2.94648 12.7687 3.18698 12.6321C3.3953 12.5137 3.62319 12.4338 3.8598 12.3961C4.13293 12.3525 4.40633 12.3837 4.62353 12.4085C5.19404 12.4737 5.76495 12.5355 6.33566 12.5989C6.48583 12.6156 6.56149 12.6237 6.61668 12.6269L6.62103 12.6272C6.69211 12.5634 6.75867 12.4943 6.82618 12.4268L9.02738 10.2256L4.49405 8.7145C4.12109 8.59022 3.77885 8.47617 3.5096 8.35818C3.23229 8.23665 2.88966 8.05328 2.63883 7.71548C2.31087 7.2738 2.17931 6.71653 2.27513 6.17481C2.34841 5.7605 2.57286 5.44325 2.76654 5.21055C3.26117 4.61626 3.90948 3.82479 4.61031 3.45838C4.85033 3.33289 5.11334 3.25746 5.38338 3.23667C5.69553 3.21263 6.00134 3.28432 6.24446 3.34131L14.082 5.14611L17.0263 2.1174Z" fill="currentColor"/>
</svg>
