<svg width="100%" height="100%" viewBox="0 0 24 24" fill="none" xmlns="http://www.w3.org/2000/svg">
<path fill-rule="evenodd" clip-rule="evenodd" d="M13.0001 3C13.0001 2.44772 12.5523 2 12.0001 2C11.4478 2 11.0001 2.44772 11.0001 3V7.15302L5.85398 8.0107C5.79181 8.01988 5.73107 8.03483 5.67245 8.05516C5.54502 8.09916 5.4307 8.16758 5.33401 8.25405C5.25472 8.32484 5.18612 8.4088 5.1318 8.50386L1.52691 14.8124C1.39571 15.0416 1.27992 15.244 1.19596 15.4648C1.12208 15.659 1.06859 15.8605 1.03635 16.0658C0.999717 16.2991 0.99986 16.5323 1.00002 16.7964L1.00004 17C1.00004 17.0029 1.00006 17.0059 1.00008 17.0088C1.00482 19.7662 3.24158 22 6.00007 22C8.7615 22 11.0001 19.7614 11.0001 17L11.0001 16.7769C11.0001 16.7674 11.0001 16.7577 11.0001 16.748C11.0001 16.5035 10.9981 16.2847 10.9637 16.0658C10.9315 15.8605 10.878 15.659 10.8041 15.4648C10.7202 15.244 10.6044 15.0416 10.4732 14.8124L7.58066 9.75051L16.0867 8.33284L13.5269 12.8124C13.3957 13.0416 13.2799 13.244 13.196 13.4648C13.1221 13.659 13.0686 13.8605 13.0364 14.0658C12.9997 14.2991 12.9999 14.5322 13 14.7964L13 15C13 15.0029 13.0001 15.0059 13.0001 15.0088C13.0048 17.7662 15.2416 20 18.0001 20C20.7615 20 23.0001 17.7614 23.0001 15L23.0001 14.7769C23.0001 14.7646 23.0001 14.752 23.0001 14.7392C23.0001 14.4983 22.9977 14.2821 22.9637 14.0658C22.9315 13.8605 22.878 13.659 22.8041 13.4648C22.7202 13.244 22.6044 13.0416 22.4732 12.8124L18.878 6.52078C18.8417 6.45438 18.7983 6.39292 18.7489 6.33724C18.562 6.12602 18.2917 6.00098 18.0034 6.00001L18 6C17.938 6 17.8769 6.00574 17.8172 6.01684L13.0001 6.81969V3ZM20.2769 13L18 9.01556L15.7232 13H20.2769ZM8.27687 15L6.00004 11.0156L3.72322 15H8.27687Z" fill="currentColor"/>
</svg>
