<svg width="100%" height="100%" viewBox="0 0 24 24" fill="none" xmlns="http://www.w3.org/2000/svg">
<path d="M22.1265 12.6649C22.3337 12.2459 22.3337 11.7543 22.1265 11.3353C21.9441 10.9663 21.6239 10.7729 21.4581 10.6795C21.2796 10.5791 21.0508 10.4761 20.8226 10.3735L4.03882 2.82085C3.80539 2.71576 3.57267 2.61099 3.37636 2.54299C3.19613 2.48056 2.83325 2.36649 2.43149 2.47828C1.97747 2.60461 1.60922 2.93697 1.43715 3.3757C1.28489 3.76393 1.36127 4.13656 1.40495 4.32223C1.45254 4.52448 1.53299 4.76673 1.61368 5.0097L3.23816 9.90402C3.36896 10.2981 3.43436 10.4951 3.55597 10.6408C3.66336 10.7695 3.80137 10.8691 3.9573 10.9305C4.13388 11 4.34149 11 4.7567 11H12.0004C12.5527 11 13.0004 11.4477 13.0004 12C13.0004 12.5523 12.5527 13 12.0004 13H4.77561C4.36144 13 4.15436 13 3.9781 13.0692C3.82244 13.1304 3.68461 13.2296 3.57721 13.3578C3.45559 13.503 3.38985 13.6993 3.25837 14.0921L1.62082 18.9836C1.53925 19.2272 1.45801 19.4697 1.4098 19.6722C1.36562 19.8578 1.28796 20.2311 1.43981 20.6203C1.61129 21.0599 1.97958 21.3931 2.43402 21.52C2.83644 21.6323 3.20014 21.5178 3.38043 21.4553C3.57713 21.3872 3.81042 21.2822 4.04462 21.1767L20.8226 13.6267C21.0507 13.524 21.2796 13.4211 21.4581 13.3206C21.624 13.2273 21.9441 13.0338 22.1265 12.6649Z" fill="currentColor"/>
</svg>
