<svg width="100%" height="100%" viewBox="0 0 24 24" fill="none" xmlns="http://www.w3.org/2000/svg">
<path d="M12.7039 1.87495C12.2852 1.66711 11.7936 1.66632 11.3743 1.87281C11.005 2.05464 10.8111 2.37448 10.7175 2.54014C10.6167 2.71851 10.5134 2.94719 10.4104 3.17518L2.8259 19.9577C2.72021 20.1914 2.6149 20.4243 2.54649 20.6208C2.48375 20.8009 2.36885 21.1642 2.48032 21.5665C2.60623 22.021 2.93855 22.3898 3.37751 22.5622C3.76612 22.7148 4.13929 22.6383 4.32499 22.5946C4.52748 22.5469 4.77006 22.4664 5.01351 22.3855L9.90426 20.7622C10.2983 20.6314 10.4954 20.566 10.6411 20.4444C10.7697 20.337 10.8693 20.199 10.9307 20.0431C11.0002 19.8665 11.0002 19.6589 11.0002 19.2437V12C11.0002 11.4477 11.448 11 12.0002 11C12.5525 11 13.0002 11.4477 13.0002 12V19.2248C13.0002 19.639 13.0002 19.8461 13.0695 20.0223C13.1306 20.178 13.2298 20.3158 13.358 20.4232C13.5032 20.5448 13.6996 20.6106 14.0923 20.7421L18.9875 22.3808C19.2305 22.4622 19.4728 22.5434 19.675 22.5915C19.8606 22.6357 20.2334 22.7131 20.6222 22.5617C21.0615 22.3905 21.3948 22.0228 21.5221 21.5688C21.6347 21.167 21.5211 20.8036 21.4589 20.6233C21.3911 20.4267 21.2866 20.1935 21.1818 19.9596L13.6636 3.18043C13.5613 2.9521 13.4587 2.72308 13.3585 2.54438C13.2655 2.37842 13.0725 2.05796 12.7039 1.87495Z" fill="currentColor"/>
</svg>
