<svg width="100%" height="100%" viewBox="0 0 24 24" fill="none" xmlns="http://www.w3.org/2000/svg">
<path d="M11.293 2.29289C11.6835 1.90237 12.3167 1.90237 12.7072 2.29289L16.7072 6.29289C17.0978 6.68342 17.0978 7.31658 16.7072 7.70711C16.3167 8.09763 15.6835 8.09763 15.293 7.70711L13.0001 5.41421L13.0001 15C13.0001 15.5523 12.5524 16 12.0001 16C11.4478 16 11.0001 15.5523 11.0001 15L11.0001 5.41421L8.70723 7.70711C8.3167 8.09763 7.68354 8.09763 7.29302 7.70711C6.90249 7.31658 6.90249 6.68342 7.29302 6.29289L11.293 2.29289Z" fill="currentColor"/>
<path d="M6.86252 10L7.0001 10.0001C7.55238 10.0001 8.0001 10.4478 8.0001 11.0001C8.0001 11.5524 7.55238 12.0001 7.0001 12.0001C6.00574 12.0001 5.70474 12.0087 5.48246 12.0682C4.79227 12.2532 4.25318 12.7923 4.06824 13.4825C4.00869 13.7047 4.0001 14.0057 4.0001 15.0001V16.2001C4.0001 17.0567 4.00087 17.639 4.03765 18.0891C4.07347 18.5275 4.13839 18.7517 4.21808 18.9081C4.40983 19.2844 4.71579 19.5904 5.09211 19.7821C5.24852 19.8618 5.47272 19.9267 5.91113 19.9625C6.36122 19.9993 6.94352 20.0001 7.8001 20.0001H16.2001C17.0567 20.0001 17.639 19.9993 18.0891 19.9625C18.5275 19.9267 18.7517 19.8618 18.9081 19.7821C19.2844 19.5904 19.5904 19.2844 19.7821 18.9081C19.8618 18.7517 19.9267 18.5275 19.9625 18.0891C19.9993 17.639 20.0001 17.0567 20.0001 16.2001V15.0001C20.0001 14.0057 19.9915 13.7047 19.9319 13.4825C19.747 12.7923 19.2079 12.2532 18.5177 12.0682C18.2955 12.0087 17.9944 12.0001 17.0001 12.0001C16.4478 12.0001 16.0001 11.5524 16.0001 11.0001C16.0001 10.4478 16.4478 10.0001 17.0001 10.0001L17.1377 10C17.9331 9.99962 18.5237 9.9993 19.0354 10.1364C20.4157 10.5063 21.4939 11.5845 21.8638 12.9648C22.0009 13.4765 22.0006 14.0671 22.0001 14.8625L22.0001 16.2414C22.0001 17.0464 22.0001 17.7107 21.9559 18.2519C21.91 18.814 21.8114 19.3307 21.5641 19.8161C21.1806 20.5687 20.5687 21.1806 19.8161 21.5641C19.3307 21.8114 18.814 21.91 18.2519 21.9559C17.7107 22.0001 17.0464 22.0001 16.2414 22.0001H7.75882C6.95384 22.0001 6.28947 22.0001 5.74827 21.9559C5.18617 21.91 4.66947 21.8114 4.18414 21.5641C3.43149 21.1806 2.81956 20.5687 2.43607 19.8161C2.18878 19.3307 2.09022 18.814 2.04429 18.2519C2.00007 17.7107 2.00008 17.0464 2.0001 16.2414L2.00005 14.8625C1.99962 14.0671 1.9993 13.4765 2.13639 12.9648C2.50626 11.5845 3.58445 10.5063 4.96482 10.1364C5.47647 9.9993 6.06713 9.99962 6.86252 10Z" fill="currentColor"/>
</svg>
