<svg width="100%" height="100%" viewBox="0 0 24 24" fill="none" xmlns="http://www.w3.org/2000/svg">
<path d="M11.293 2.29289C11.6835 1.90237 12.3167 1.90237 12.7072 2.29289L16.7072 6.29289C17.0978 6.68342 17.0978 7.31658 16.7072 7.70711C16.3167 8.09763 15.6835 8.09763 15.293 7.70711L13.0001 5.41421L13.0001 15C13.0001 15.5523 12.5524 16 12.0001 16C11.4478 16 11.0001 15.5523 11.0001 15L11.0001 5.41421L8.70723 7.70711C8.3167 8.09763 7.68354 8.09763 7.29302 7.70711C6.90249 7.31658 6.90249 6.68342 7.29302 6.29289L11.293 2.29289Z" fill="currentColor"/>
<path d="M9.00012 11.6C9.00012 11.04 9.00012 10.76 8.89113 10.5461C8.79526 10.3579 8.64227 10.2049 8.45411 10.109C8.2402 10 7.96017 10 7.40012 10H6.86252C6.06713 9.99962 5.47647 9.9993 4.96482 10.1364C3.58445 10.5063 2.50626 11.5845 2.13639 12.9648C1.9993 13.4765 1.99962 14.0671 2.00005 14.8625L2.0001 16.2414C2.00008 17.0464 2.00007 17.7107 2.04429 18.2519C2.09022 18.814 2.18878 19.3307 2.43607 19.8161C2.81956 20.5687 3.43149 21.1806 4.18414 21.5641C4.66947 21.8114 5.18617 21.91 5.74827 21.9559C6.28947 22.0001 6.95384 22.0001 7.75882 22.0001H16.2414C17.0464 22.0001 17.7107 22.0001 18.2519 21.9559C18.814 21.91 19.3307 21.8114 19.8161 21.5641C20.5687 21.1806 21.1806 20.5687 21.5641 19.8161C21.8114 19.3307 21.91 18.814 21.9559 18.2519C22.0001 17.7107 22.0001 17.0464 22.0001 16.2414L22.0001 14.8625C22.0006 14.0671 22.0009 13.4765 21.8638 12.9648C21.4939 11.5845 20.4157 10.5063 19.0354 10.1364C18.5237 9.9993 17.9331 9.99962 17.1377 10H16.6001C16.0401 10 15.76 10 15.5461 10.109C15.358 10.2049 15.205 10.3579 15.1091 10.5461C15.0001 10.76 15.0001 11.04 15.0001 11.6V15C15.0001 16.6569 13.657 18 12.0001 18C10.3433 18 9.00012 16.6569 9.00012 15V11.6Z" fill="currentColor"/>
</svg>
