<svg width="100%" height="100%" viewBox="0 0 24 24" fill="none" xmlns="http://www.w3.org/2000/svg">
<path d="M11.0002 2.46158C11.0002 2.07372 11.0002 1.87979 10.9188 1.75515C10.8475 1.64612 10.7365 1.56919 10.6094 1.54075C10.4641 1.50824 10.2825 1.57633 9.91936 1.71251L5.59491 3.33407C4.97712 3.56472 4.43457 3.76728 4.01675 4.1355C3.65124 4.45762 3.36968 4.86391 3.19641 5.31926C2.99834 5.83977 2.99918 6.41889 3.00013 7.07833L3.00026 12.0002C3.00026 14.8268 4.53756 17.1834 6.19932 18.9146C7.27833 20.0387 8.51574 21.0554 9.8396 21.9053C10.1933 22.1323 10.3701 22.2459 10.5361 22.2339C10.6759 22.2239 10.8166 22.147 10.9006 22.0348C11.0002 21.9016 11.0002 21.6826 11.0002 21.2446L11.0002 2.46158Z" fill="currentColor"/>
<path d="M13.0002 21.2447C13.0002 21.6826 13.0002 21.9016 13.0999 22.0348C13.1839 22.147 13.3246 22.2239 13.4644 22.234C13.6304 22.2459 13.8072 22.1324 14.1609 21.9053C15.4848 21.0554 16.7222 20.0387 17.8012 18.9146C19.463 17.1834 21.0003 14.8268 21.0003 12.0002L21.0004 7.07833C21.0014 6.41888 21.0022 5.83977 20.8041 5.31926C20.6309 4.86391 20.3493 4.45762 19.9838 4.1355C19.566 3.76728 19.0234 3.56472 18.4056 3.33407L14.0811 1.71249C13.718 1.57632 13.5364 1.50823 13.3911 1.54074C13.264 1.56918 13.153 1.6461 13.0817 1.75514C13.0002 1.87978 13.0002 2.07371 13.0002 2.46156L13.0002 21.2447Z" fill="currentColor"/>
</svg>
