<svg width="100%" height="100%" viewBox="0 0 24 24" fill="none" xmlns="http://www.w3.org/2000/svg">
<path fill-rule="evenodd" clip-rule="evenodd" d="M11.7142 1.08867C11.9039 1.06126 12.0966 1.06126 12.2863 1.08867C12.5049 1.12027 12.7084 1.19712 12.8699 1.25815L12.9132 1.27446L18.4056 3.33398C19.0234 3.56463 19.566 3.76719 19.9838 4.13541C20.3493 4.45753 20.6309 4.86383 20.8041 5.31917C21.0022 5.83968 21.0014 6.4188 21.0004 7.07824L21.0003 12.0001C21.0003 14.8267 19.463 17.1833 17.8012 18.9145C16.1283 20.6573 14.2143 21.8883 13.2022 22.4787L13.1612 22.5028C12.9765 22.6112 12.7368 22.752 12.4196 22.82C12.1602 22.8756 11.8404 22.8756 11.5809 22.82C11.2638 22.752 11.0241 22.6112 10.8394 22.5028L10.7984 22.4787C9.78626 21.8883 7.87222 20.6573 6.19932 18.9145C4.53756 17.1833 3.00026 14.8267 3.00026 12.0001L3.00013 7.07825C2.99918 6.4188 2.99834 5.83968 3.19641 5.31917C3.36968 4.86383 3.65124 4.45753 4.01675 4.13541C4.43457 3.76719 4.97712 3.56463 5.59491 3.33398L11.0873 1.27446L11.1306 1.25815C11.2922 1.19712 11.4956 1.12027 11.7142 1.08867ZM13.0002 6C13.0002 5.44772 12.5525 5 12.0002 5C11.448 5 11.0002 5.44772 11.0002 6V6.5C9.34339 6.5 8.00024 7.84315 8.00024 9.5C8.00024 11.1569 9.34339 12.5 11.0002 12.5H13.0002C13.5525 12.5 14.0002 12.9477 14.0002 13.5C14.0002 14.0523 13.5525 14.5 13.0002 14.5H10.8669C10.5349 14.5 10.2448 14.3136 10.0985 14.0351C9.84176 13.5461 9.23722 13.3579 8.74826 13.6147C8.2593 13.8714 8.07108 14.476 8.32786 14.9649C8.806 15.8754 9.7627 16.5 10.8669 16.5H11.0002V17C11.0002 17.5523 11.448 18 12.0002 18C12.5525 18 13.0002 17.5523 13.0002 17V16.5C14.6571 16.5 16.0002 15.1569 16.0002 13.5C16.0002 11.8431 14.6571 10.5 13.0002 10.5H11.0002C10.448 10.5 10.0002 10.0523 10.0002 9.5C10.0002 8.94772 10.448 8.5 11.0002 8.5H13.1336C13.4656 8.5 13.7557 8.6864 13.9019 8.96494C14.1587 9.4539 14.7633 9.64212 15.2522 9.38534C15.7412 9.12856 15.9294 8.52402 15.6726 8.03506C15.1945 7.12459 14.2378 6.5 13.1336 6.5H13.0002V6Z" fill="currentColor"/>
</svg>
