<svg width="100%" height="100%" viewBox="0 0 24 24" fill="none" xmlns="http://www.w3.org/2000/svg">
<path fill-rule="evenodd" clip-rule="evenodd" d="M11.7142 1.08843C11.9039 1.06102 12.0966 1.06102 12.2863 1.08843C12.5049 1.12002 12.7084 1.19688 12.8699 1.2579L12.9132 1.27422L18.4056 3.33374C19.0234 3.56439 19.566 3.76694 19.9838 4.13517C20.3493 4.45729 20.6309 4.86358 20.8041 5.31893C21.0022 5.83944 21.0014 6.41855 21.0004 7.07799L21.0003 11.9999C21.0003 14.8265 19.463 17.1831 17.8012 18.9143C16.1283 20.6571 14.2143 21.888 13.2022 22.4785L13.1612 22.5025C12.9765 22.611 12.7368 22.7517 12.4196 22.8198C12.1602 22.8754 11.8404 22.8754 11.5809 22.8198C11.2638 22.7518 11.0241 22.611 10.8394 22.5025L10.7984 22.4785C9.78626 21.888 7.87222 20.6571 6.19932 18.9143C4.53756 17.1831 3.00026 14.8265 3.00026 11.9999L3.00013 7.078C2.99918 6.41856 2.99834 5.83944 3.19641 5.31893C3.36968 4.86358 3.65124 4.45729 4.01675 4.13517C4.43457 3.76695 4.97712 3.56439 5.59491 3.33374L11.0873 1.27422L11.1306 1.2579C11.2922 1.19688 11.4956 1.12002 11.7142 1.08843ZM13.7074 8.20711C14.0979 7.81658 14.0979 7.18342 13.7074 6.79289C13.3168 6.40237 12.6837 6.40237 12.2931 6.79289L9.29315 9.79289C9.06585 10.0202 8.96168 10.3429 9.01317 10.6602C9.06466 10.9775 9.26553 11.2507 9.55304 11.3944L12.3121 12.774L10.2931 14.7929C9.90263 15.1834 9.90263 15.8166 10.2931 16.2071C10.6837 16.5976 11.3168 16.5976 11.7074 16.2071L14.7074 13.2071C14.9347 12.9798 15.0388 12.6571 14.9873 12.3398C14.9359 12.0225 14.735 11.7493 14.4475 11.6056L11.6884 10.226L13.7074 8.20711Z" fill="currentColor"/>
</svg>
