<svg width="100%" height="100%" viewBox="0 0 24 24" fill="none" xmlns="http://www.w3.org/2000/svg">
<path fill-rule="evenodd" clip-rule="evenodd" d="M11.7142 1.08843C11.9039 1.06102 12.0966 1.06102 12.2863 1.08843C12.5049 1.12002 12.7084 1.19688 12.8699 1.2579L12.9132 1.27422L18.4056 3.33374C19.0234 3.56439 19.566 3.76694 19.9838 4.13517C20.3493 4.45729 20.6309 4.86358 20.8041 5.31893C21.0022 5.83944 21.0014 6.41855 21.0004 7.07799L21.0003 11.9999C21.0003 14.8265 19.463 17.1831 17.8012 18.9143C16.1283 20.6571 14.2143 21.888 13.2022 22.4785L13.1612 22.5025C12.9765 22.611 12.7368 22.7517 12.4196 22.8198C12.1602 22.8754 11.8404 22.8754 11.5809 22.8198C11.2638 22.7518 11.0241 22.611 10.8394 22.5025L10.7984 22.4785C9.78626 21.888 7.87222 20.6571 6.19932 18.9143C4.53756 17.1831 3.00026 14.8265 3.00026 11.9999L3.00013 7.078C2.99918 6.41856 2.99834 5.83944 3.19641 5.31893C3.36968 4.86358 3.65124 4.45729 4.01675 4.13517C4.43457 3.76695 4.97712 3.56439 5.59491 3.33374L11.0873 1.27422L11.1306 1.2579C11.2922 1.19688 11.4956 1.12002 11.7142 1.08843ZM16.2074 9.70711C16.5979 9.31658 16.5979 8.68342 16.2074 8.29289C15.8168 7.90237 15.1837 7.90237 14.7931 8.29289L11.0002 12.0858L9.70735 10.7929C9.31683 10.4024 8.68366 10.4024 8.29314 10.7929C7.90261 11.1834 7.90261 11.8166 8.29314 12.2071L10.2931 14.2071C10.6837 14.5976 11.3168 14.5976 11.7074 14.2071L16.2074 9.70711Z" fill="currentColor"/>
</svg>
