<svg width="100%" height="100%" viewBox="0 0 24 24" fill="none" xmlns="http://www.w3.org/2000/svg">
<path fill-rule="evenodd" clip-rule="evenodd" d="M11.7142 1.08843C11.9039 1.06102 12.0966 1.06102 12.2863 1.08843C12.5049 1.12002 12.7084 1.19688 12.8699 1.2579L12.9132 1.27422L18.4056 3.33374C19.0234 3.56439 19.566 3.76694 19.9838 4.13517C20.3493 4.45729 20.6309 4.86358 20.8041 5.31893C21.0022 5.83944 21.0014 6.41855 21.0004 7.07799L21.0003 11.9999C21.0003 14.8265 19.463 17.1831 17.8012 18.9143C16.1283 20.6571 14.2143 21.888 13.2022 22.4785L13.1612 22.5025C12.9765 22.611 12.7368 22.7517 12.4196 22.8198C12.1602 22.8754 11.8404 22.8754 11.5809 22.8198C11.2638 22.7518 11.0241 22.611 10.8394 22.5025L10.7984 22.4785C9.78626 21.888 7.87222 20.6571 6.19932 18.9143C4.53756 17.1831 3.00026 14.8265 3.00026 11.9999L3.00013 7.078C2.99918 6.41856 2.99834 5.83944 3.19641 5.31893C3.36968 4.86358 3.65124 4.45729 4.01675 4.13517C4.43457 3.76695 4.97712 3.56439 5.59491 3.33374L11.0873 1.27422L11.1306 1.2579C11.2922 1.19688 11.4956 1.12002 11.7142 1.08843ZM12.0002 7.5C12.5525 7.5 13.0002 7.94772 13.0002 8.5V10.5H15.0002C15.5525 10.5 16.0002 10.9477 16.0002 11.5C16.0002 12.0523 15.5525 12.5 15.0002 12.5H13.0002V14.5C13.0002 15.0523 12.5525 15.5 12.0002 15.5C11.448 15.5 11.0002 15.0523 11.0002 14.5V12.5H9.00024C8.44796 12.5 8.00024 12.0523 8.00024 11.5C8.00024 10.9477 8.44796 10.5 9.00024 10.5H11.0002V8.5C11.0002 7.94772 11.448 7.5 12.0002 7.5Z" fill="currentColor"/>
</svg>
