<svg width="100%" height="100%" viewBox="0 0 24 24" fill="none" xmlns="http://www.w3.org/2000/svg">
<path d="M4 12H10V15H4V12Z" fill="currentColor"/>
<path d="M5 7H9V10H5V7Z" fill="currentColor"/>
<path d="M6.5 2H7.5L8 7H6L6.5 2Z" fill="currentColor"/>
<path d="M3 10H11V12H3V10Z" fill="currentColor"/>
<rect x="12" y="12" width="2" height="2" fill="currentColor"/>
<rect x="12" y="9" width="2" height="2" fill="currentColor"/>
<rect x="15" y="12" width="2" height="2" fill="currentColor"/>
<rect x="15" y="9" width="2" height="2" fill="currentColor"/>
<rect x="18" y="9" width="2" height="2" fill="currentColor"/>
<path d="M2.58615 20H21.3208L20.9975 21.2425C20.8817 21.6877 20.4654 22 19.9878 22H1.7609C1.29726 22 1.06508 21.4614 1.39291 21.1464L2.58615 20Z" fill="currentColor"/>
<path fill-rule="evenodd" clip-rule="evenodd" d="M2.04184 15C1.3055 15 0.801999 15.7145 1.07547 16.3714L2.58615 20H21.3208L22.9458 15.3162C23.1704 14.6687 22.6688 14 21.9584 14H18L17 15H2.04184ZM18.9878 18C19.54 18 19.9878 17.5523 19.9878 17C19.9878 16.4477 19.54 16 18.9878 16C18.4355 16 17.9878 16.4477 17.9878 17C17.9878 17.5523 18.4355 18 18.9878 18Z" fill="currentColor"/>
</svg>
