<svg width="100%" height="100%" viewBox="0 0 24 24" fill="none" xmlns="http://www.w3.org/2000/svg">
<path fill-rule="evenodd" clip-rule="evenodd" d="M7.09799 5.00942C7.55762 2.72249 9.57759 1 11.9999 1C14.4222 1 16.4421 2.72249 16.9018 5.00942C17.1241 5.01516 17.3298 5.02441 17.5196 5.03929C18.0422 5.08026 18.5234 5.16814 18.9833 5.38646C19.7003 5.72681 20.2998 6.27278 20.7056 6.95489C20.9659 7.39242 21.0983 7.86331 21.1879 8.37979C21.2739 8.8754 21.331 9.48449 21.3999 10.2197L22.0076 16.7019C22.0894 17.575 22.1567 18.2926 22.162 18.8779C22.1675 19.4835 22.11 20.0451 21.8806 20.579C21.527 21.4022 20.9072 22.0828 20.1207 22.5117C19.6105 22.7899 19.0567 22.8996 18.4533 22.9507C17.87 23 17.1492 23 16.2723 23H7.7275C6.85061 23 6.12975 23 5.54652 22.9507C4.9431 22.8996 4.38928 22.7899 3.87911 22.5117C3.09258 22.0828 2.47281 21.4022 2.11915 20.579C1.88975 20.0451 1.83228 19.4835 1.83775 18.8779C1.84304 18.2926 1.91033 17.575 1.9922 16.7019L2.5999 10.2197C2.66882 9.48449 2.72591 8.8754 2.81186 8.37979C2.90142 7.86331 3.03384 7.39242 3.29413 6.95488C3.69993 6.27278 4.29947 5.72681 5.01648 5.38646C5.47639 5.16814 5.95759 5.08026 6.48018 5.03929C6.67002 5.02441 6.87566 5.01516 7.09799 5.00942ZM9.17058 5C9.58242 3.83481 10.6937 3 11.9999 3C13.3061 3 14.4173 3.83481 14.8292 5L9.17058 5Z" fill="currentColor"/>
</svg>
