<svg width="100%" height="100%" viewBox="0 0 24 24" fill="none" xmlns="http://www.w3.org/2000/svg">
<path d="M5.63604 2.22185C6.02656 2.61237 6.02656 3.24554 5.63604 3.63606C2.12132 7.15078 2.12132 12.8493 5.63604 16.364C6.02656 16.7545 6.02656 17.3877 5.63604 17.7782C5.24551 18.1687 4.61235 18.1687 4.22183 17.7782C-0.0739419 13.4824 -0.0739419 6.51762 4.22183 2.22185C4.61235 1.83132 5.24551 1.83132 5.63604 2.22185Z" fill="currentColor"/>
<path d="M8.46469 6.46452C8.85521 6.074 8.85521 5.44083 8.46469 5.05031C8.07416 4.65979 7.441 4.65979 7.05047 5.05031C4.3168 7.78398 4.3168 12.2161 7.05047 14.9498C7.441 15.3403 8.07416 15.3403 8.46469 14.9498C8.85521 14.5593 8.85521 13.9261 8.46469 13.5356C6.51207 11.583 6.51207 8.41715 8.46469 6.46452Z" fill="currentColor"/>
<path d="M16.95 5.05031C16.5595 4.65979 15.9263 4.65979 15.5358 5.05031C15.1453 5.44083 15.1453 6.074 15.5358 6.46452C17.4884 8.41715 17.4884 11.583 15.5358 13.5356C15.1453 13.9261 15.1453 14.5593 15.5358 14.9498C15.9263 15.3403 16.5595 15.3403 16.95 14.9498C19.6837 12.2161 19.6837 7.78398 16.95 5.05031Z" fill="currentColor"/>
<path d="M19.7786 2.22185C19.3881 1.83132 18.7549 1.83132 18.3644 2.22185C17.9739 2.61237 17.9739 3.24554 18.3644 3.63606C21.8791 7.15078 21.8791 12.8493 18.3644 16.364C17.9739 16.7545 17.9739 17.3877 18.3644 17.7782C18.7549 18.1687 19.3881 18.1687 19.7786 17.7782C24.0744 13.4824 24.0744 6.51762 19.7786 2.22185Z" fill="currentColor"/>
<path fill-rule="evenodd" clip-rule="evenodd" d="M13.0002 12.8294C14.1654 12.4176 15.0002 11.3063 15.0002 10.0001C15.0002 8.34324 13.6571 7.00009 12.0002 7.00009C10.3434 7.00009 9.00022 8.34324 9.00022 10.0001C9.00022 11.3063 9.83503 12.4176 11.0002 12.8294V21.0001C11.0002 21.5524 11.4479 22.0001 12.0002 22.0001C12.5525 22.0001 13.0002 21.5524 13.0002 21.0001V12.8294Z" fill="currentColor"/>
</svg>
