<svg width="100%" height="100%" viewBox="0 0 24 24" fill="none" xmlns="http://www.w3.org/2000/svg">
<path fill-rule="evenodd" clip-rule="evenodd" d="M8.52293 0.999947L8.47189 0.999855C8.28198 0.999348 8.04285 0.998709 7.80751 1.05521C7.60344 1.1042 7.40835 1.18501 7.22941 1.29467C7.02305 1.42112 6.85441 1.59067 6.72048 1.72531L6.68445 1.76147C5.04354 3.40239 3.40263 5.04329 1.76171 6.68421L1.72556 6.72024C1.59091 6.85416 1.42137 7.02281 1.29491 7.22916C1.18525 7.40811 1.10444 7.6032 1.05545 7.80727C0.998953 8.0426 0.999592 8.28174 1.0001 8.47165L1.00019 8.52269V15.4772L1.0001 15.5282C0.999592 15.7182 0.998953 15.9573 1.05545 16.1926C1.10444 16.3967 1.18525 16.5918 1.29491 16.7707C1.42137 16.9771 1.59092 17.1457 1.72556 17.2797L1.76171 17.3157L6.68446 22.2384L6.72049 22.2746C6.85442 22.4092 7.02306 22.5788 7.22941 22.7052C7.40835 22.8149 7.60344 22.8957 7.80751 22.9447C8.04285 23.0012 8.28199 23.0005 8.4719 23L8.52293 22.9999H15.4774L15.5285 23C15.7184 23.0005 15.9575 23.0012 16.1929 22.9447C16.3969 22.8957 16.592 22.8149 16.771 22.7052C16.9773 22.5788 17.146 22.4092 17.2799 22.2746L17.3159 22.2384L22.2387 17.3157L22.2748 17.2797C22.4095 17.1457 22.579 16.9771 22.7055 16.7707C22.8151 16.5918 22.8959 16.3967 22.9449 16.1926C23.0014 15.9573 23.0008 15.7181 23.0003 15.5282L23.0002 15.4772V8.52269L23.0003 8.47166C23.0008 8.28174 23.0014 8.0426 22.9449 7.80727C22.8959 7.6032 22.8151 7.40811 22.7055 7.22916C22.579 7.02282 22.4095 6.85417 22.2748 6.72025L22.2387 6.68421L17.3159 1.76147L17.2799 1.72531C17.146 1.59067 16.9773 1.42112 16.771 1.29467C16.592 1.18501 16.3969 1.1042 16.1929 1.05521C15.9575 0.998709 15.7184 0.999348 15.5285 0.999855L15.4774 0.999947H8.52293ZM19.0702 17.6557L20.8245 15.9015C20.9171 15.8088 20.9632 15.7624 20.9952 15.7273L20.9976 15.7247L20.9978 15.7211C21 15.6736 21.0002 15.6082 21.0002 15.4772V8.52269C21.0002 8.39169 21 8.32631 20.9978 8.27882L20.9976 8.27523L20.9952 8.27257C20.9632 8.23746 20.9171 8.19106 20.8245 8.09842L15.9017 3.17568C15.8091 3.08305 15.7627 3.03699 15.7276 3.00494L15.7249 3.00253L15.7213 3.00236C15.6738 3.00019 15.6084 2.99995 15.4774 2.99995H8.52293C8.39193 2.99995 8.32655 3.00019 8.27906 3.00236L8.27547 3.00253L8.27282 3.00494C7.60375 3.6155 6.3444 4.92995 6.3444 4.92995L19.0702 17.6557ZM4.93019 6.34416L17.656 19.0699L15.9017 20.8242C15.8091 20.9168 15.7627 20.9629 15.7276 20.995L15.7249 20.9974L15.7213 20.9975C15.6738 20.9997 15.6084 20.9999 15.4774 20.9999H8.52293C8.39193 20.9999 8.32655 20.9997 8.27906 20.9975L8.27547 20.9974L8.27282 20.995C8.2377 20.9629 8.1913 20.9168 8.09867 20.8242L3.17593 15.9015C3.0833 15.8088 3.03723 15.7624 3.00519 15.7273L3.00277 15.7247L3.0026 15.7211C3.00043 15.6736 3.00019 15.6082 3.00019 15.4772V8.52269C3.00019 8.39169 3.00043 8.32631 3.0026 8.27882L3.00277 8.27523L3.00519 8.27257C3.03723 8.23746 3.0833 8.19106 3.17593 8.09842L4.93019 6.34416Z" fill="currentColor"/>
</svg>
