<svg width="100%" height="100%" viewBox="0 0 24 24" fill="none" xmlns="http://www.w3.org/2000/svg">
<path d="M5.00012 2.00006C5.00012 1.44778 5.44784 1.00006 6.00012 1.00006L10.1138 1.00003C10.7488 0.999729 11.2286 0.999501 11.6913 1.11058C12.0994 1.20857 12.4896 1.37019 12.8475 1.5895C13.2532 1.83813 13.5923 2.17756 14.0411 2.62678L21.7072 10.293C22.0978 10.6835 22.0978 11.3166 21.7072 11.7072C21.3167 12.0977 20.6835 12.0977 20.293 11.7072L12.6989 4.11306C12.1464 3.56054 11.9808 3.40408 11.8025 3.29478C11.6235 3.18513 11.4284 3.10432 11.2244 3.05532C11.021 3.00649 10.7933 3.00006 10.0119 3.00006L6.00012 3.00006C5.44784 3.00006 5.00012 2.55235 5.00012 2.00006Z" fill="currentColor"/>
<path d="M3.63813 4.82712C3.07364 5.11474 2.6147 5.57368 2.32708 6.13817C2.13429 6.51655 2.06297 6.90977 2.03067 7.30511C2.00007 7.67969 2.00008 8.13445 2.0001 8.6616L2.00005 10.758C1.99967 11.1649 1.99934 11.5236 2.08299 11.8721C2.15648 12.1782 2.2777 12.4708 2.44218 12.7392C2.62942 13.0447 2.88332 13.2982 3.17131 13.5856L11.0575 21.4718C11.4302 21.8445 11.7518 22.1661 12.0383 22.4093C12.3407 22.666 12.6692 22.8937 13.0731 23.0249C13.6756 23.2207 14.3246 23.2207 14.9272 23.0249C15.331 22.8937 15.6595 22.666 15.9619 22.4093C16.2484 22.1661 16.5699 21.8445 16.9427 21.4718L19.4717 18.9427C19.8445 18.57 20.1661 18.2484 20.4093 17.9619C20.666 17.6595 20.8936 17.3311 21.0248 16.9272C21.2206 16.3247 21.2206 15.6756 21.0248 15.0731C20.8936 14.6692 20.666 14.3407 20.4093 14.0383C20.1661 13.7518 19.8445 13.4303 19.4717 13.0576L12.0856 5.67135C11.7981 5.38336 11.5447 5.12946 11.2392 4.94222C10.9708 4.77774 10.6781 4.65652 10.372 4.58303C10.0236 4.49938 9.66482 4.49971 9.25793 4.50009L6.16156 4.50014C5.63442 4.50012 5.17964 4.50011 4.80507 4.53071C4.40973 4.56301 4.01651 4.63433 3.63813 4.82712Z" fill="currentColor"/>
</svg>
