<svg width="100%" height="100%" viewBox="0 0 24 24" fill="none" xmlns="http://www.w3.org/2000/svg">
<path fill-rule="evenodd" clip-rule="evenodd" d="M1.44218 4.76103C1.62942 4.45549 1.88333 4.20206 2.17131 3.91461L3.91461 2.17131C4.20206 1.88333 4.45549 1.62942 4.76103 1.44218C5.02945 1.27769 5.32208 1.15648 5.62819 1.08299C5.97664 0.999338 6.33539 0.999672 6.74228 1.00005L9.75793 1.00005C10.1648 0.999673 10.5236 0.99934 10.872 1.08299C11.1781 1.15648 11.4708 1.2777 11.7392 1.44218C12.0447 1.62942 12.2981 1.88333 12.5856 2.17131L20.3423 9.92807C20.9115 10.4973 21.3813 10.967 21.7327 11.381C22.0977 11.8109 22.3934 12.246 22.5617 12.764C22.8227 13.5674 22.8227 14.4328 22.5617 15.2362C22.3934 15.7542 22.0977 16.1893 21.7327 16.6192C21.3813 17.0331 20.9115 17.5029 20.3423 18.0721L18.0721 20.3423C17.5029 20.9115 17.0331 21.3813 16.6192 21.7327C16.1893 22.0977 15.7542 22.3934 15.2362 22.5617C14.4328 22.8227 13.5674 22.8227 12.764 22.5617C12.246 22.3934 11.8109 22.0977 11.381 21.7327C10.967 21.3813 10.4973 20.9115 9.92808 20.3423L2.17131 12.5856C1.88332 12.2981 1.62942 12.0447 1.44218 11.7392C1.27769 11.4708 1.15648 11.1781 1.08299 10.872C0.999338 10.5236 0.999672 10.1648 1.00005 9.75793L1.00005 6.74228C0.999672 6.33538 0.999338 5.97664 1.08299 5.62819C1.15648 5.32208 1.2777 5.02945 1.44218 4.76103ZM8.00012 6C6.89555 6 6.00012 6.89543 6.00012 8C6.00012 9.10457 6.89555 10 8.00012 10C9.10469 10 10.0001 9.10457 10.0001 8C10.0001 6.89543 9.10469 6 8.00012 6Z" fill="currentColor"/>
</svg>
