<svg width="100%" height="100%" viewBox="0 0 24 24" fill="none" xmlns="http://www.w3.org/2000/svg">
<path fill-rule="evenodd" clip-rule="evenodd" d="M20.1208 1.67588C20.2641 1.64975 20.4729 1.62533 20.7122 1.67618C21.022 1.74204 21.3031 1.9043 21.515 2.13971C21.6787 2.32149 21.7619 2.51451 21.811 2.65171C21.8533 2.77009 21.8901 2.9075 21.9208 3.02256L23.3305 8.2833C23.3613 8.39835 23.3982 8.53574 23.4207 8.65944C23.4469 8.80278 23.4713 9.01156 23.4204 9.25083C23.3546 9.56067 23.1923 9.84172 22.9569 10.0537C22.7751 10.2173 22.5821 10.3006 22.4449 10.3496C22.3265 10.3919 22.1891 10.4287 22.0741 10.4595L22.0145 10.4755C21.5053 10.6119 21.066 10.7296 20.6963 10.797C20.306 10.8681 19.9077 10.901 19.4924 10.8127C19.1274 10.7352 18.7824 10.5907 18.4738 10.3889L14.4496 11.4671C14.7965 11.9566 15.0004 12.5545 15.0004 13.2C15.0004 13.8636 14.7849 14.4769 14.4201 14.9737L18.8267 21.4366C19.1378 21.8929 19.0201 22.515 18.5638 22.8261C18.1075 23.1372 17.4854 23.0196 17.1742 22.5632L12.7681 16.1009C12.523 16.1656 12.2657 16.2 12.0004 16.2C11.7351 16.2 11.4778 16.1656 11.2328 16.1009L6.82668 22.5632C6.51556 23.0196 5.89343 23.1372 5.43712 22.8261C4.98081 22.515 4.86311 21.8929 5.17423 21.4366L9.58069 14.9738C9.21586 14.477 9.00036 13.8637 9.00036 13.2C9.00036 13.1069 9.0046 13.0148 9.0129 12.9239L6.89513 13.4914C6.78008 13.5222 6.64269 13.5591 6.51899 13.5817C6.37565 13.6078 6.16686 13.6322 5.9276 13.5813C5.61776 13.5155 5.33671 13.3532 5.12475 13.1178C5.07851 13.0665 5.03868 13.0142 5.00424 12.9626L3.73857 13.3017C3.62353 13.3326 3.48612 13.3694 3.36243 13.392C3.21909 13.4181 3.01031 13.4425 2.77105 13.3917C2.4612 13.3258 2.18016 13.1636 1.9682 12.9282C1.80453 12.7464 1.72129 12.5534 1.67224 12.4162C1.62992 12.2978 1.59315 12.1603 1.56236 12.0453L1.18804 10.6483C1.15717 10.5332 1.1203 10.3958 1.09775 10.2721C1.07163 10.1288 1.0472 9.92 1.09806 9.68074C1.16392 9.3709 1.32618 9.08985 1.56158 8.87789C1.74336 8.71422 1.93639 8.63098 2.07358 8.58194C2.19198 8.53961 2.3294 8.50285 2.44447 8.47206L3.71026 8.1329C3.71428 8.07107 3.72263 8.00602 3.73697 7.93856C3.80283 7.62871 3.96509 7.34767 4.2005 7.13571C4.38228 6.97203 4.5753 6.88879 4.7125 6.83975C4.8309 6.79742 4.96832 6.76066 5.08339 6.72987L16.6621 3.62736C16.8284 3.29832 17.055 3.00074 17.3322 2.75109C17.6478 2.46693 18.0092 2.29627 18.3827 2.16275C18.7366 2.03624 19.1759 1.91855 19.6851 1.78214L19.7446 1.76617C19.8597 1.73529 19.9971 1.69842 20.1208 1.67588ZM20.0468 3.75584C19.5976 3.87665 19.2913 3.96188 19.0559 4.04603C18.7993 4.13778 18.7118 4.20024 18.6705 4.23738C18.5136 4.37868 18.4054 4.56604 18.3615 4.77261C18.35 4.82689 18.3396 4.93393 18.3885 5.20208C18.4395 5.48175 18.5351 5.84154 18.6843 6.39845L18.8396 6.97801C18.9888 7.53491 19.0859 7.8943 19.1816 8.16199C19.2734 8.41865 19.3358 8.50619 19.373 8.54743C19.5143 8.70437 19.7016 8.81254 19.9082 8.85645C19.9625 8.86798 20.0695 8.87831 20.3377 8.82944C20.5836 8.78462 20.8915 8.70529 21.3408 8.58533L20.0468 3.75584Z" fill="currentColor"/>
</svg>
