<svg width="100" height="15" viewBox="0 0 100 15" fill="none" xmlns="http://www.w3.org/2000/svg">
<path d="M4.20099 14.5227C3.59446 14.5227 3.07244 14.4432 2.63494 14.2841C2.20076 14.125 1.84612 13.9145 1.57102 13.6527C1.29593 13.3909 1.09044 13.1042 0.954545 12.7926L2.23224 12.2656C2.32173 12.4115 2.44105 12.5656 2.5902 12.728C2.74266 12.8937 2.94815 13.0346 3.20668 13.1506C3.46851 13.2666 3.80492 13.3246 4.21591 13.3246C4.77936 13.3246 5.24503 13.187 5.61293 12.9119C5.98082 12.6402 6.16477 12.206 6.16477 11.6094V10.108H6.07031C5.98082 10.2704 5.85156 10.451 5.68253 10.6499C5.51681 10.8487 5.28812 11.0211 4.99645 11.1669C4.70478 11.3127 4.32528 11.3857 3.85795 11.3857C3.25473 11.3857 2.71117 11.2448 2.22727 10.9631C1.74669 10.678 1.36553 10.2588 1.08381 9.70526C0.805398 9.14844 0.666193 8.46401 0.666193 7.65199C0.666193 6.83996 0.803741 6.14394 1.07884 5.56392C1.35724 4.9839 1.7384 4.53977 2.2223 4.23153C2.7062 3.91998 3.25473 3.7642 3.8679 3.7642C4.34186 3.7642 4.72467 3.84375 5.01634 4.00284C5.308 4.15862 5.53504 4.34091 5.69744 4.54972C5.86316 4.75852 5.99077 4.94247 6.08026 5.10156H6.18963V3.86364H7.64631V11.669C7.64631 12.3253 7.49385 12.8639 7.18892 13.2848C6.884 13.7057 6.47135 14.0173 5.95099 14.2195C5.43395 14.4216 4.85062 14.5227 4.20099 14.5227ZM4.18608 10.1527C4.61364 10.1527 4.97491 10.0533 5.26989 9.8544C5.56818 9.65223 5.79356 9.36387 5.94602 8.98935C6.1018 8.61151 6.17969 8.15909 6.17969 7.6321C6.17969 7.11837 6.10346 6.66596 5.95099 6.27486C5.79853 5.88376 5.57481 5.57884 5.27983 5.36009C4.98485 5.13802 4.62027 5.02699 4.18608 5.02699C3.73864 5.02699 3.36577 5.14299 3.06747 5.375C2.76918 5.60369 2.5438 5.91525 2.39134 6.30966C2.24219 6.70407 2.16761 7.14489 2.16761 7.6321C2.16761 8.13258 2.24384 8.57173 2.39631 8.94957C2.54877 9.32741 2.77415 9.6224 3.07244 9.83452C3.37405 10.0466 3.74527 10.1527 4.18608 10.1527ZM9.63991 11.5V3.86364H11.0767V5.0767H11.1562C11.2955 4.66572 11.5407 4.34257 11.892 4.10724C12.2467 3.86861 12.6477 3.74929 13.0952 3.74929C13.188 3.74929 13.2973 3.7526 13.4233 3.75923C13.5526 3.76586 13.6536 3.77415 13.7266 3.78409V5.20597C13.6669 5.18939 13.5608 5.17116 13.4084 5.15128C13.2559 5.12808 13.1035 5.11648 12.951 5.11648C12.5997 5.11648 12.2865 5.19105 12.0114 5.3402C11.7396 5.48603 11.5241 5.68987 11.3651 5.9517C11.206 6.21023 11.1264 6.50521 11.1264 6.83665V11.5H9.63991ZM15.013 11.5V3.86364H16.4995V11.5H15.013ZM15.7637 2.68537C15.5051 2.68537 15.2831 2.59919 15.0975 2.42685C14.9152 2.25118 14.824 2.04238 14.824 1.80043C14.824 1.55516 14.9152 1.34635 15.0975 1.17401C15.2831 0.998342 15.5051 0.910511 15.7637 0.910511C16.0222 0.910511 16.2426 0.998342 16.4249 1.17401C16.6105 1.34635 16.7033 1.55516 16.7033 1.80043C16.7033 2.04238 16.6105 2.25118 16.4249 2.42685C16.2426 2.59919 16.0222 2.68537 15.7637 2.68537ZM21.358 11.6491C20.7415 11.6491 20.1913 11.4917 19.7074 11.1768C19.2268 10.8587 18.849 10.4062 18.5739 9.8196C18.3021 9.22964 18.1662 8.52202 18.1662 7.69673C18.1662 6.87145 18.3037 6.16548 18.5788 5.57884C18.8572 4.99219 19.2384 4.54309 19.7223 4.23153C20.2062 3.91998 20.7547 3.7642 21.3679 3.7642C21.8419 3.7642 22.223 3.84375 22.5114 4.00284C22.803 4.15862 23.0284 4.34091 23.1875 4.54972C23.3499 4.75852 23.4759 4.94247 23.5653 5.10156H23.6548V1.31818H25.1413V11.5H23.6896V10.3118H23.5653C23.4759 10.4742 23.3466 10.6598 23.1776 10.8686C23.0118 11.0774 22.7831 11.2597 22.4915 11.4155C22.1998 11.5713 21.822 11.6491 21.358 11.6491ZM21.6861 10.3814C22.1136 10.3814 22.4749 10.2687 22.7699 10.0433C23.0682 9.81463 23.2936 9.49811 23.446 9.09375C23.6018 8.68939 23.6797 8.21875 23.6797 7.68182C23.6797 7.15151 23.6035 6.6875 23.451 6.28977C23.2985 5.89205 23.0748 5.58215 22.7798 5.36009C22.4848 5.13802 22.1203 5.02699 21.6861 5.02699C21.2386 5.02699 20.8658 5.14299 20.5675 5.375C20.2692 5.60701 20.0438 5.92353 19.8913 6.32457C19.7422 6.72562 19.6676 7.17803 19.6676 7.68182C19.6676 8.19223 19.7438 8.65128 19.8963 9.05895C20.0488 9.46662 20.2741 9.78977 20.5724 10.0284C20.8741 10.2637 21.2453 10.3814 21.6861 10.3814ZM31.7623 6.55327V7.84091H27.248V6.55327H31.7623ZM36.6021 11.6491C35.9856 11.6491 35.4354 11.4917 34.9515 11.1768C34.4709 10.8587 34.0931 10.4062 33.818 9.8196C33.5462 9.22964 33.4103 8.52202 33.4103 7.69673C33.4103 6.87145 33.5479 6.16548 33.823 5.57884C34.1014 4.99219 34.4825 4.54309 34.9664 4.23153C35.4503 3.91998 35.9989 3.7642 36.612 3.7642C37.086 3.7642 37.4672 3.84375 37.7555 4.00284C38.0472 4.15862 38.2725 4.34091 38.4316 4.54972C38.594 4.75852 38.72 4.94247 38.8095 5.10156H38.899V1.31818H40.3855V11.5H38.9338V10.3118H38.8095C38.72 10.4742 38.5907 10.6598 38.4217 10.8686C38.256 11.0774 38.0273 11.2597 37.7356 11.4155C37.444 11.5713 37.0661 11.6491 36.6021 11.6491ZM36.9302 10.3814C37.3578 10.3814 37.719 10.2687 38.014 10.0433C38.3123 9.81463 38.5377 9.49811 38.6902 9.09375C38.8459 8.68939 38.9238 8.21875 38.9238 7.68182C38.9238 7.15151 38.8476 6.6875 38.6951 6.28977C38.5427 5.89205 38.319 5.58215 38.024 5.36009C37.729 5.13802 37.3644 5.02699 36.9302 5.02699C36.4828 5.02699 36.1099 5.14299 35.8116 5.375C35.5133 5.60701 35.2879 5.92353 35.1355 6.32457C34.9863 6.72562 34.9118 7.17803 34.9118 7.68182C34.9118 8.19223 34.988 8.65128 35.1404 9.05895C35.2929 9.46662 35.5183 9.78977 35.8166 10.0284C36.1182 10.2637 36.4894 10.3814 36.9302 10.3814ZM45.7237 11.6541C45.0078 11.6541 44.383 11.4901 43.8494 11.1619C43.3158 10.8338 42.9015 10.3748 42.6065 9.7848C42.3116 9.19484 42.1641 8.50544 42.1641 7.71662C42.1641 6.92448 42.3116 6.23177 42.6065 5.63849C42.9015 5.04522 43.3158 4.58452 43.8494 4.25639C44.383 3.92827 45.0078 3.7642 45.7237 3.7642C46.4396 3.7642 47.0644 3.92827 47.598 4.25639C48.1316 4.58452 48.5459 5.04522 48.8409 5.63849C49.1359 6.23177 49.2834 6.92448 49.2834 7.71662C49.2834 8.50544 49.1359 9.19484 48.8409 9.7848C48.5459 10.3748 48.1316 10.8338 47.598 11.1619C47.0644 11.4901 46.4396 11.6541 45.7237 11.6541ZM45.7287 10.4062C46.1927 10.4062 46.5772 10.2836 46.8821 10.0384C47.187 9.79309 47.4124 9.46662 47.5582 9.05895C47.7074 8.65128 47.782 8.20218 47.782 7.71165C47.782 7.22443 47.7074 6.77699 47.5582 6.36932C47.4124 5.95833 47.187 5.62855 46.8821 5.37997C46.5772 5.13139 46.1927 5.0071 45.7287 5.0071C45.2614 5.0071 44.8736 5.13139 44.5653 5.37997C44.2604 5.62855 44.0334 5.95833 43.8842 6.36932C43.7384 6.77699 43.6655 7.22443 43.6655 7.71165C43.6655 8.20218 43.7384 8.65128 43.8842 9.05895C44.0334 9.46662 44.2604 9.79309 44.5653 10.0384C44.8736 10.2836 45.2614 10.4062 45.7287 10.4062ZM54.5073 3.86364V5.05682H50.3361V3.86364H54.5073ZM51.4547 2.03409H52.9412V9.25781C52.9412 9.54616 52.9843 9.76326 53.0705 9.90909C53.1567 10.0516 53.2677 10.1494 53.4036 10.2024C53.5428 10.2521 53.6936 10.277 53.856 10.277C53.9753 10.277 54.0797 10.2687 54.1692 10.2521C54.2587 10.2356 54.3283 10.2223 54.378 10.2124L54.6465 11.4403C54.5603 11.4735 54.4377 11.5066 54.2786 11.5398C54.1195 11.5762 53.9206 11.5961 53.682 11.5994C53.2909 11.6061 52.9263 11.5365 52.5882 11.3906C52.2502 11.2448 51.9767 11.0194 51.7679 10.7145C51.5591 10.4096 51.4547 10.0268 51.4547 9.56605V2.03409ZM61.7509 5.72798L60.4036 5.96662C60.3472 5.79427 60.2578 5.63021 60.1351 5.47443C60.0158 5.31865 59.8534 5.19105 59.6479 5.09162C59.4424 4.99219 59.1855 4.94247 58.8773 4.94247C58.4564 4.94247 58.1051 5.03693 57.8233 5.22585C57.5416 5.41146 57.4007 5.65175 57.4007 5.94673C57.4007 6.20194 57.4952 6.40743 57.6841 6.56321C57.873 6.71899 58.178 6.84659 58.5989 6.94602L59.812 7.22443C60.5146 7.38684 61.0383 7.63707 61.383 7.97514C61.7277 8.31321 61.9 8.75237 61.9 9.29261C61.9 9.75 61.7675 10.1577 61.5023 10.5156C61.2405 10.8703 60.8742 11.1487 60.4036 11.3509C59.9363 11.553 59.3944 11.6541 58.7779 11.6541C57.9228 11.6541 57.2251 11.4718 56.6848 11.1072C56.1446 10.7393 55.8132 10.2173 55.6905 9.54119L57.1273 9.32244C57.2168 9.69697 57.4007 9.98035 57.6792 10.1726C57.9576 10.3615 58.3205 10.456 58.7679 10.456C59.2551 10.456 59.6446 10.3549 59.9363 10.1527C60.2279 9.94721 60.3738 9.69697 60.3738 9.40199C60.3738 9.16335 60.2843 8.96283 60.1053 8.80043C59.9296 8.63802 59.6595 8.51539 59.2949 8.43253L58.0023 8.14915C57.2897 7.98674 56.7627 7.72822 56.4213 7.37358C56.0833 7.01894 55.9142 6.56984 55.9142 6.02628C55.9142 5.57552 56.0402 5.18111 56.2921 4.84304C56.544 4.50497 56.892 4.24148 57.3361 4.05256C57.7802 3.86032 58.289 3.7642 58.8624 3.7642C59.6877 3.7642 60.3373 3.94318 60.8113 4.30114C61.2852 4.65578 61.5984 5.13139 61.7509 5.72798ZM68.0337 6.55327V7.84091H63.5195V6.55327H68.0337ZM70.0149 11.5V3.86364H71.4517V5.0767H71.5312C71.6705 4.66572 71.9157 4.34257 72.267 4.10724C72.6217 3.86861 73.0227 3.74929 73.4702 3.74929C73.563 3.74929 73.6723 3.7526 73.7983 3.75923C73.9276 3.76586 74.0286 3.77415 74.1016 3.78409V5.20597C74.0419 5.18939 73.9358 5.17116 73.7834 5.15128C73.6309 5.12808 73.4785 5.11648 73.326 5.11648C72.9747 5.11648 72.6615 5.19105 72.3864 5.3402C72.1146 5.48603 71.8991 5.68987 71.7401 5.9517C71.581 6.21023 71.5014 6.50521 71.5014 6.83665V11.5H70.0149ZM75.388 11.5V3.86364H76.8745V11.5H75.388ZM76.1387 2.68537C75.8801 2.68537 75.6581 2.59919 75.4725 2.42685C75.2902 2.25118 75.199 2.04238 75.199 1.80043C75.199 1.55516 75.2902 1.34635 75.4725 1.17401C75.6581 0.998342 75.8801 0.910511 76.1387 0.910511C76.3972 0.910511 76.6176 0.998342 76.7999 1.17401C76.9855 1.34635 77.0783 1.55516 77.0783 1.80043C77.0783 2.04238 76.9855 2.25118 76.7999 2.42685C76.6176 2.59919 76.3972 2.68537 76.1387 2.68537ZM82.076 14.5227C81.4695 14.5227 80.9474 14.4432 80.5099 14.2841C80.0758 14.125 79.7211 13.9145 79.446 13.6527C79.1709 13.3909 78.9654 13.1042 78.8295 12.7926L80.1072 12.2656C80.1967 12.4115 80.3161 12.5656 80.4652 12.728C80.6177 12.8937 80.8232 13.0346 81.0817 13.1506C81.3435 13.2666 81.6799 13.3246 82.0909 13.3246C82.6544 13.3246 83.12 13.187 83.4879 12.9119C83.8558 12.6402 84.0398 12.206 84.0398 11.6094V10.108H83.9453C83.8558 10.2704 83.7266 10.451 83.5575 10.6499C83.3918 10.8487 83.1631 11.0211 82.8714 11.1669C82.5798 11.3127 82.2003 11.3857 81.733 11.3857C81.1297 11.3857 80.5862 11.2448 80.1023 10.9631C79.6217 10.678 79.2405 10.2588 78.9588 9.70526C78.6804 9.14844 78.5412 8.46401 78.5412 7.65199C78.5412 6.83996 78.6787 6.14394 78.9538 5.56392C79.2322 4.9839 79.6134 4.53977 80.0973 4.23153C80.5812 3.91998 81.1297 3.7642 81.7429 3.7642C82.2169 3.7642 82.5997 3.84375 82.8913 4.00284C83.183 4.15862 83.41 4.34091 83.5724 4.54972C83.7382 4.75852 83.8658 4.94247 83.9553 5.10156H84.0646V3.86364H85.5213V11.669C85.5213 12.3253 85.3688 12.8639 85.0639 13.2848C84.759 13.7057 84.3464 14.0173 83.826 14.2195C83.3089 14.4216 82.7256 14.5227 82.076 14.5227ZM82.0611 10.1527C82.4886 10.1527 82.8499 10.0533 83.1449 9.8544C83.4432 9.65223 83.6686 9.36387 83.821 8.98935C83.9768 8.61151 84.0547 8.15909 84.0547 7.6321C84.0547 7.11837 83.9785 6.66596 83.826 6.27486C83.6735 5.88376 83.4498 5.57884 83.1548 5.36009C82.8598 5.13802 82.4953 5.02699 82.0611 5.02699C81.6136 5.02699 81.2408 5.14299 80.9425 5.375C80.6442 5.60369 80.4188 5.91525 80.2663 6.30966C80.1172 6.70407 80.0426 7.14489 80.0426 7.6321C80.0426 8.13258 80.1188 8.57173 80.2713 8.94957C80.4238 9.32741 80.6491 9.6224 80.9474 9.83452C81.2491 10.0466 81.6203 10.1527 82.0611 10.1527ZM89.0014 6.96591V11.5H87.5149V1.31818H88.9815V5.10653H89.076C89.255 4.69555 89.5284 4.36908 89.8963 4.12713C90.2642 3.88518 90.7448 3.7642 91.3381 3.7642C91.8617 3.7642 92.3191 3.87192 92.7102 4.08736C93.1046 4.30279 93.4096 4.62429 93.625 5.05185C93.8438 5.47609 93.9531 6.00639 93.9531 6.64276V11.5H92.4666V6.82173C92.4666 6.2616 92.3224 5.82741 92.0341 5.51918C91.7457 5.20762 91.3447 5.05185 90.831 5.05185C90.4796 5.05185 90.1648 5.12642 89.8864 5.27557C89.6113 5.42472 89.3942 5.64347 89.2351 5.93182C89.0793 6.21686 89.0014 6.56155 89.0014 6.96591ZM99.5014 3.86364V5.05682H95.3303V3.86364H99.5014ZM96.4489 2.03409H97.9354V9.25781C97.9354 9.54616 97.9785 9.76326 98.0646 9.90909C98.1508 10.0516 98.2618 10.1494 98.3977 10.2024C98.5369 10.2521 98.6877 10.277 98.8501 10.277C98.9695 10.277 99.0739 10.2687 99.1634 10.2521C99.2528 10.2356 99.3224 10.2223 99.3722 10.2124L99.6406 11.4403C99.5545 11.4735 99.4318 11.5066 99.2727 11.5398C99.1136 11.5762 98.9148 11.5961 98.6761 11.5994C98.285 11.6061 97.9205 11.5365 97.5824 11.3906C97.2443 11.2448 96.9709 11.0194 96.7621 10.7145C96.5533 10.4096 96.4489 10.0268 96.4489 9.56605V2.03409Z" fill="currentColor"/>
</svg>
