<svg width="91" height="15" viewBox="0 0 91 15" fill="none" xmlns="http://www.w3.org/2000/svg">
<path d="M4.63352 3.86364V5.05682H0.318182V3.86364H4.63352ZM1.50142 11.5V2.97869C1.50142 2.50142 1.60582 2.10535 1.81463 1.79048C2.02344 1.4723 2.30019 1.23532 2.64489 1.07955C2.98958 0.920454 3.36411 0.840908 3.76847 0.840908C4.06676 0.840908 4.32197 0.865767 4.53409 0.915483C4.74621 0.961884 4.90365 1.00497 5.00639 1.04474L4.65838 2.24787C4.58878 2.22798 4.49929 2.20478 4.38991 2.17827C4.28054 2.14844 4.14796 2.13352 3.99219 2.13352C3.63092 2.13352 3.3724 2.22301 3.21662 2.40199C3.06416 2.58097 2.98793 2.83949 2.98793 3.17756V11.5H1.50142ZM7.65376 1.31818V11.5H6.16726V1.31818H7.65376ZM12.9448 11.6541C12.1924 11.6541 11.5444 11.4934 11.0009 11.1719C10.4606 10.8471 10.043 10.3913 9.74805 9.80469C9.45638 9.21473 9.31055 8.52367 9.31055 7.73153C9.31055 6.94934 9.45638 6.25994 9.74805 5.66335C10.043 5.06676 10.454 4.60109 10.981 4.26633C11.5113 3.93158 12.1311 3.7642 12.8404 3.7642C13.2712 3.7642 13.6889 3.83546 14.0932 3.97798C14.4976 4.1205 14.8605 4.34422 15.182 4.64915C15.5035 4.95407 15.757 5.35014 15.9426 5.83736C16.1283 6.32126 16.2211 6.90956 16.2211 7.60227V8.12926H10.1507V7.01562H14.7644C14.7644 6.62453 14.6848 6.27817 14.5257 5.97656C14.3667 5.67164 14.1429 5.43134 13.8546 5.25568C13.5695 5.08002 13.2348 4.99219 12.8503 4.99219C12.4327 4.99219 12.0681 5.09493 11.7566 5.30043C11.4483 5.5026 11.2097 5.76776 11.0407 6.09588C10.8749 6.42069 10.7921 6.77367 10.7921 7.15483V8.02486C10.7921 8.53527 10.8816 8.96946 11.0605 9.32741C11.2428 9.68537 11.4964 9.95881 11.8212 10.1477C12.146 10.3333 12.5255 10.4261 12.9597 10.4261C13.2414 10.4261 13.4983 10.3864 13.7303 10.3068C13.9623 10.224 14.1628 10.1013 14.3319 9.93892C14.5009 9.77652 14.6301 9.57599 14.7196 9.33736L16.1266 9.59091C16.0139 10.0052 15.8117 10.3681 15.5201 10.6797C15.2317 10.9879 14.8688 11.2282 14.4313 11.4006C13.9971 11.5696 13.5016 11.6541 12.9448 11.6541ZM18.8659 3.86364L20.5513 6.83665L22.2516 3.86364H23.8773L21.4959 7.68182L23.8972 11.5H22.2715L20.5513 8.64631L18.8361 11.5H17.2054L19.5819 7.68182L17.2353 3.86364H18.8659ZM29.5884 6.55327V7.84091H25.0742V6.55327H29.5884ZM33.7919 11.669C33.308 11.669 32.8705 11.5795 32.4794 11.4006C32.0883 11.2183 31.7784 10.9548 31.5497 10.6101C31.3243 10.2654 31.2116 9.8428 31.2116 9.34233C31.2116 8.91146 31.2945 8.55682 31.4602 8.27841C31.6259 8 31.8497 7.77959 32.1314 7.61719C32.4131 7.45478 32.728 7.33215 33.076 7.24929C33.424 7.16643 33.7786 7.10346 34.1399 7.06037C34.5973 7.00734 34.9685 6.96425 35.2536 6.93111C35.5386 6.89465 35.7457 6.83665 35.875 6.7571C36.0043 6.67756 36.0689 6.5483 36.0689 6.36932V6.33452C36.0689 5.90033 35.9463 5.56392 35.701 5.32528C35.459 5.08665 35.0978 4.96733 34.6172 4.96733C34.1167 4.96733 33.7223 5.07836 33.4339 5.30043C33.1489 5.51918 32.9517 5.76278 32.8423 6.03125L31.4453 5.71307C31.611 5.24905 31.853 4.87453 32.1712 4.58949C32.4927 4.30114 32.8622 4.09233 33.2798 3.96307C33.6974 3.83049 34.1366 3.7642 34.5973 3.7642C34.9022 3.7642 35.2254 3.80066 35.5668 3.87358C35.9115 3.94318 36.233 4.07244 36.5312 4.26136C36.8329 4.45028 37.0798 4.72041 37.272 5.07173C37.4643 5.41974 37.5604 5.87216 37.5604 6.42898V11.5H36.1087V10.456H36.049C35.9529 10.6482 35.8087 10.8371 35.6165 11.0227C35.4242 11.2083 35.1773 11.3625 34.8757 11.4851C34.5741 11.6077 34.2128 11.669 33.7919 11.669ZM34.1151 10.4759C34.526 10.4759 34.8774 10.3946 35.169 10.2322C35.464 10.0698 35.6877 9.85772 35.8402 9.59588C35.996 9.33073 36.0739 9.04735 36.0739 8.74574V7.76136C36.0208 7.81439 35.9181 7.86411 35.7656 7.91051C35.6165 7.9536 35.4458 7.99171 35.2536 8.02486C35.0613 8.05469 34.8741 8.08286 34.6918 8.10938C34.5095 8.13258 34.357 8.15246 34.2344 8.16903C33.946 8.20549 33.6825 8.26681 33.4439 8.35298C33.2086 8.43916 33.0196 8.56345 32.8771 8.72585C32.7379 8.88494 32.6683 9.09706 32.6683 9.36222C32.6683 9.73011 32.8042 10.0085 33.076 10.1974C33.3478 10.383 33.6941 10.4759 34.1151 10.4759ZM41.0268 1.31818V11.5H39.5403V1.31818H41.0268ZM43.0266 11.5V3.86364H44.5131V11.5H43.0266ZM43.7773 2.68537C43.5188 2.68537 43.2968 2.59919 43.1112 2.42685C42.9289 2.25118 42.8377 2.04238 42.8377 1.80043C42.8377 1.55516 42.9289 1.34635 43.1112 1.17401C43.2968 0.998342 43.5188 0.910511 43.7773 0.910511C44.0359 0.910511 44.2563 0.998342 44.4386 1.17401C44.6242 1.34635 44.717 1.55516 44.717 1.80043C44.717 2.04238 44.6242 2.25118 44.4386 2.42685C44.2563 2.59919 44.0359 2.68537 43.7773 2.68537ZM49.7147 14.5227C49.1081 14.5227 48.5861 14.4432 48.1486 14.2841C47.7144 14.125 47.3598 13.9145 47.0847 13.6527C46.8096 13.3909 46.6041 13.1042 46.4682 12.7926L47.7459 12.2656C47.8354 12.4115 47.9547 12.5656 48.1039 12.728C48.2563 12.8937 48.4618 13.0346 48.7203 13.1506C48.9822 13.2666 49.3186 13.3246 49.7296 13.3246C50.293 13.3246 50.7587 13.187 51.1266 12.9119C51.4945 12.6402 51.6784 12.206 51.6784 11.6094V10.108H51.584C51.4945 10.2704 51.3652 10.451 51.1962 10.6499C51.0305 10.8487 50.8018 11.0211 50.5101 11.1669C50.2185 11.3127 49.839 11.3857 49.3716 11.3857C48.7684 11.3857 48.2248 11.2448 47.7409 10.9631C47.2604 10.678 46.8792 10.2588 46.5975 9.70526C46.3191 9.14844 46.1799 8.46401 46.1799 7.65199C46.1799 6.83996 46.3174 6.14394 46.5925 5.56392C46.8709 4.9839 47.2521 4.53977 47.736 4.23153C48.2199 3.91998 48.7684 3.7642 49.3816 3.7642C49.8555 3.7642 50.2383 3.84375 50.53 4.00284C50.8217 4.15862 51.0487 4.34091 51.2111 4.54972C51.3768 4.75852 51.5044 4.94247 51.5939 5.10156H51.7033V3.86364H53.16V11.669C53.16 12.3253 53.0075 12.8639 52.7026 13.2848C52.3977 13.7057 51.985 14.0173 51.4647 14.2195C50.9476 14.4216 50.3643 14.5227 49.7147 14.5227ZM49.6998 10.1527C50.1273 10.1527 50.4886 10.0533 50.7836 9.8544C51.0819 9.65223 51.3072 9.36387 51.4597 8.98935C51.6155 8.61151 51.6934 8.15909 51.6934 7.6321C51.6934 7.11837 51.6171 6.66596 51.4647 6.27486C51.3122 5.88376 51.0885 5.57884 50.7935 5.36009C50.4985 5.13802 50.1339 5.02699 49.6998 5.02699C49.2523 5.02699 48.8794 5.14299 48.5811 5.375C48.2828 5.60369 48.0575 5.91525 47.905 6.30966C47.7559 6.70407 47.6813 7.14489 47.6813 7.6321C47.6813 8.13258 47.7575 8.57173 47.91 8.94957C48.0624 9.32741 48.2878 9.6224 48.5861 9.83452C48.8877 10.0466 49.2589 10.1527 49.6998 10.1527ZM56.6401 6.96591V11.5H55.1536V3.86364H56.5804V5.10653H56.6749C56.8506 4.70218 57.1257 4.37737 57.5002 4.1321C57.878 3.88684 58.3536 3.7642 58.927 3.7642C59.4474 3.7642 59.9031 3.87358 60.2942 4.09233C60.6853 4.30777 60.9886 4.62926 61.204 5.05682C61.4194 5.48437 61.5272 6.01302 61.5272 6.64276V11.5H60.0407V6.82173C60.0407 6.26823 59.8965 5.8357 59.6081 5.52415C59.3198 5.20928 58.9237 5.05185 58.4199 5.05185C58.0752 5.05185 57.7686 5.12642 57.5002 5.27557C57.235 5.42472 57.0246 5.64347 56.8688 5.93182C56.7163 6.21686 56.6401 6.56155 56.6401 6.96591ZM68.0201 6.55327V7.84091H63.5059V6.55327H68.0201ZM73.5659 3.86364V5.05682H69.3947V3.86364H73.5659ZM70.5133 2.03409H71.9998V9.25781C71.9998 9.54616 72.0429 9.76326 72.1291 9.90909C72.2153 10.0516 72.3263 10.1494 72.4622 10.2024C72.6014 10.2521 72.7522 10.277 72.9146 10.277C73.0339 10.277 73.1383 10.2687 73.2278 10.2521C73.3173 10.2356 73.3869 10.2223 73.4366 10.2124L73.7051 11.4403C73.6189 11.4735 73.4963 11.5066 73.3372 11.5398C73.1781 11.5762 72.9792 11.5961 72.7406 11.5994C72.3495 11.6061 71.9849 11.5365 71.6468 11.3906C71.3088 11.2448 71.0353 11.0194 70.8265 10.7145C70.6177 10.4096 70.5133 10.0268 70.5133 9.56605V2.03409ZM78.3448 11.6541C77.6289 11.6541 77.0041 11.4901 76.4705 11.1619C75.9369 10.8338 75.5226 10.3748 75.2276 9.7848C74.9326 9.19484 74.7852 8.50544 74.7852 7.71662C74.7852 6.92448 74.9326 6.23177 75.2276 5.63849C75.5226 5.04522 75.9369 4.58452 76.4705 4.25639C77.0041 3.92827 77.6289 3.7642 78.3448 3.7642C79.0607 3.7642 79.6855 3.92827 80.2191 4.25639C80.7527 4.58452 81.167 5.04522 81.462 5.63849C81.757 6.23177 81.9045 6.92448 81.9045 7.71662C81.9045 8.50544 81.757 9.19484 81.462 9.7848C81.167 10.3748 80.7527 10.8338 80.2191 11.1619C79.6855 11.4901 79.0607 11.6541 78.3448 11.6541ZM78.3498 10.4062C78.8138 10.4062 79.1983 10.2836 79.5032 10.0384C79.8081 9.79309 80.0335 9.46662 80.1793 9.05895C80.3285 8.65128 80.4031 8.20218 80.4031 7.71165C80.4031 7.22443 80.3285 6.77699 80.1793 6.36932C80.0335 5.95833 79.8081 5.62855 79.5032 5.37997C79.1983 5.13139 78.8138 5.0071 78.3498 5.0071C77.8825 5.0071 77.4947 5.13139 77.1864 5.37997C76.8815 5.62855 76.6545 5.95833 76.5053 6.36932C76.3595 6.77699 76.2866 7.22443 76.2866 7.71165C76.2866 8.20218 76.3595 8.65128 76.5053 9.05895C76.6545 9.46662 76.8815 9.79309 77.1864 10.0384C77.4947 10.2836 77.8825 10.4062 78.3498 10.4062ZM83.5637 14.3636V3.86364H85.0154V5.10156H85.1397C85.2259 4.94247 85.3502 4.75852 85.5126 4.54972C85.675 4.34091 85.9004 4.15862 86.1887 4.00284C86.4771 3.84375 86.8583 3.7642 87.3322 3.7642C87.9487 3.7642 88.4989 3.91998 88.9828 4.23153C89.4667 4.54309 89.8462 4.99219 90.1213 5.57884C90.3997 6.16548 90.5389 6.87145 90.5389 7.69673C90.5389 8.52202 90.4013 9.22964 90.1262 9.8196C89.8511 10.4062 89.4733 10.8587 88.9927 11.1768C88.5121 11.4917 87.9636 11.6491 87.3471 11.6491C86.8831 11.6491 86.5036 11.5713 86.2086 11.4155C85.917 11.2597 85.6883 11.0774 85.5225 10.8686C85.3568 10.6598 85.2292 10.4742 85.1397 10.3118H85.0502V14.3636H83.5637ZM85.0204 7.68182C85.0204 8.21875 85.0983 8.68939 85.2541 9.09375C85.4099 9.49811 85.6352 9.81463 85.9302 10.0433C86.2252 10.2687 86.5865 10.3814 87.014 10.3814C87.4582 10.3814 87.8294 10.2637 88.1277 10.0284C88.426 9.78977 88.6513 9.46662 88.8038 9.05895C88.9596 8.65128 89.0375 8.19223 89.0375 7.68182C89.0375 7.17803 88.9612 6.72562 88.8088 6.32457C88.6596 5.92353 88.4342 5.60701 88.1326 5.375C87.8343 5.14299 87.4615 5.02699 87.014 5.02699C86.5832 5.02699 86.2186 5.13802 85.9203 5.36009C85.6253 5.58215 85.4016 5.89205 85.2491 6.28977C85.0967 6.6875 85.0204 7.15151 85.0204 7.68182Z" fill="currentColor"/>
</svg>
