<svg width="106" height="15" viewBox="0 0 106 15" fill="none" xmlns="http://www.w3.org/2000/svg">
<path d="M4.20099 14.5227C3.59446 14.5227 3.07244 14.4432 2.63494 14.2841C2.20076 14.125 1.84612 13.9145 1.57102 13.6527C1.29593 13.3909 1.09044 13.1042 0.954545 12.7926L2.23224 12.2656C2.32173 12.4115 2.44105 12.5656 2.5902 12.728C2.74266 12.8937 2.94815 13.0346 3.20668 13.1506C3.46851 13.2666 3.80492 13.3246 4.21591 13.3246C4.77936 13.3246 5.24503 13.187 5.61293 12.9119C5.98082 12.6402 6.16477 12.206 6.16477 11.6094V10.108H6.07031C5.98082 10.2704 5.85156 10.451 5.68253 10.6499C5.51681 10.8487 5.28812 11.0211 4.99645 11.1669C4.70478 11.3127 4.32528 11.3857 3.85795 11.3857C3.25473 11.3857 2.71117 11.2448 2.22727 10.9631C1.74669 10.678 1.36553 10.2588 1.08381 9.70526C0.805398 9.14844 0.666193 8.46401 0.666193 7.65199C0.666193 6.83996 0.803741 6.14394 1.07884 5.56392C1.35724 4.9839 1.7384 4.53977 2.2223 4.23153C2.7062 3.91998 3.25473 3.7642 3.8679 3.7642C4.34186 3.7642 4.72467 3.84375 5.01634 4.00284C5.308 4.15862 5.53504 4.34091 5.69744 4.54972C5.86316 4.75852 5.99077 4.94247 6.08026 5.10156H6.18963V3.86364H7.64631V11.669C7.64631 12.3253 7.49385 12.8639 7.18892 13.2848C6.884 13.7057 6.47135 14.0173 5.95099 14.2195C5.43395 14.4216 4.85062 14.5227 4.20099 14.5227ZM4.18608 10.1527C4.61364 10.1527 4.97491 10.0533 5.26989 9.8544C5.56818 9.65223 5.79356 9.36387 5.94602 8.98935C6.1018 8.61151 6.17969 8.15909 6.17969 7.6321C6.17969 7.11837 6.10346 6.66596 5.95099 6.27486C5.79853 5.88376 5.57481 5.57884 5.27983 5.36009C4.98485 5.13802 4.62027 5.02699 4.18608 5.02699C3.73864 5.02699 3.36577 5.14299 3.06747 5.375C2.76918 5.60369 2.5438 5.91525 2.39134 6.30966C2.24219 6.70407 2.16761 7.14489 2.16761 7.6321C2.16761 8.13258 2.24384 8.57173 2.39631 8.94957C2.54877 9.32741 2.77415 9.6224 3.07244 9.83452C3.37405 10.0466 3.74527 10.1527 4.18608 10.1527ZM9.63991 11.5V3.86364H11.0767V5.0767H11.1562C11.2955 4.66572 11.5407 4.34257 11.892 4.10724C12.2467 3.86861 12.6477 3.74929 13.0952 3.74929C13.188 3.74929 13.2973 3.7526 13.4233 3.75923C13.5526 3.76586 13.6536 3.77415 13.7266 3.78409V5.20597C13.6669 5.18939 13.5608 5.17116 13.4084 5.15128C13.2559 5.12808 13.1035 5.11648 12.951 5.11648C12.5997 5.11648 12.2865 5.19105 12.0114 5.3402C11.7396 5.48603 11.5241 5.68987 11.3651 5.9517C11.206 6.21023 11.1264 6.50521 11.1264 6.83665V11.5H9.63991ZM15.013 11.5V3.86364H16.4995V11.5H15.013ZM15.7637 2.68537C15.5051 2.68537 15.2831 2.59919 15.0975 2.42685C14.9152 2.25118 14.824 2.04238 14.824 1.80043C14.824 1.55516 14.9152 1.34635 15.0975 1.17401C15.2831 0.998342 15.5051 0.910511 15.7637 0.910511C16.0222 0.910511 16.2426 0.998342 16.4249 1.17401C16.6105 1.34635 16.7033 1.55516 16.7033 1.80043C16.7033 2.04238 16.6105 2.25118 16.4249 2.42685C16.2426 2.59919 16.0222 2.68537 15.7637 2.68537ZM21.358 11.6491C20.7415 11.6491 20.1913 11.4917 19.7074 11.1768C19.2268 10.8587 18.849 10.4062 18.5739 9.8196C18.3021 9.22964 18.1662 8.52202 18.1662 7.69673C18.1662 6.87145 18.3037 6.16548 18.5788 5.57884C18.8572 4.99219 19.2384 4.54309 19.7223 4.23153C20.2062 3.91998 20.7547 3.7642 21.3679 3.7642C21.8419 3.7642 22.223 3.84375 22.5114 4.00284C22.803 4.15862 23.0284 4.34091 23.1875 4.54972C23.3499 4.75852 23.4759 4.94247 23.5653 5.10156H23.6548V1.31818H25.1413V11.5H23.6896V10.3118H23.5653C23.4759 10.4742 23.3466 10.6598 23.1776 10.8686C23.0118 11.0774 22.7831 11.2597 22.4915 11.4155C22.1998 11.5713 21.822 11.6491 21.358 11.6491ZM21.6861 10.3814C22.1136 10.3814 22.4749 10.2687 22.7699 10.0433C23.0682 9.81463 23.2936 9.49811 23.446 9.09375C23.6018 8.68939 23.6797 8.21875 23.6797 7.68182C23.6797 7.15151 23.6035 6.6875 23.451 6.28977C23.2985 5.89205 23.0748 5.58215 22.7798 5.36009C22.4848 5.13802 22.1203 5.02699 21.6861 5.02699C21.2386 5.02699 20.8658 5.14299 20.5675 5.375C20.2692 5.60701 20.0438 5.92353 19.8913 6.32457C19.7422 6.72562 19.6676 7.17803 19.6676 7.68182C19.6676 8.19223 19.7438 8.65128 19.8963 9.05895C20.0488 9.46662 20.2741 9.78977 20.5724 10.0284C20.8741 10.2637 21.2453 10.3814 21.6861 10.3814ZM31.7623 6.55327V7.84091H27.248V6.55327H31.7623ZM36.6021 11.6491C35.9856 11.6491 35.4354 11.4917 34.9515 11.1768C34.4709 10.8587 34.0931 10.4062 33.818 9.8196C33.5462 9.22964 33.4103 8.52202 33.4103 7.69673C33.4103 6.87145 33.5479 6.16548 33.823 5.57884C34.1014 4.99219 34.4825 4.54309 34.9664 4.23153C35.4503 3.91998 35.9989 3.7642 36.612 3.7642C37.086 3.7642 37.4672 3.84375 37.7555 4.00284C38.0472 4.15862 38.2725 4.34091 38.4316 4.54972C38.594 4.75852 38.72 4.94247 38.8095 5.10156H38.899V1.31818H40.3855V11.5H38.9338V10.3118H38.8095C38.72 10.4742 38.5907 10.6598 38.4217 10.8686C38.256 11.0774 38.0273 11.2597 37.7356 11.4155C37.444 11.5713 37.0661 11.6491 36.6021 11.6491ZM36.9302 10.3814C37.3578 10.3814 37.719 10.2687 38.014 10.0433C38.3123 9.81463 38.5377 9.49811 38.6902 9.09375C38.8459 8.68939 38.9238 8.21875 38.9238 7.68182C38.9238 7.15151 38.8476 6.6875 38.6951 6.28977C38.5427 5.89205 38.319 5.58215 38.024 5.36009C37.729 5.13802 37.3644 5.02699 36.9302 5.02699C36.4828 5.02699 36.1099 5.14299 35.8116 5.375C35.5133 5.60701 35.2879 5.92353 35.1355 6.32457C34.9863 6.72562 34.9118 7.17803 34.9118 7.68182C34.9118 8.19223 34.988 8.65128 35.1404 9.05895C35.2929 9.46662 35.5183 9.78977 35.8166 10.0284C36.1182 10.2637 36.4894 10.3814 36.9302 10.3814ZM45.7237 11.6541C45.0078 11.6541 44.383 11.4901 43.8494 11.1619C43.3158 10.8338 42.9015 10.3748 42.6065 9.7848C42.3116 9.19484 42.1641 8.50544 42.1641 7.71662C42.1641 6.92448 42.3116 6.23177 42.6065 5.63849C42.9015 5.04522 43.3158 4.58452 43.8494 4.25639C44.383 3.92827 45.0078 3.7642 45.7237 3.7642C46.4396 3.7642 47.0644 3.92827 47.598 4.25639C48.1316 4.58452 48.5459 5.04522 48.8409 5.63849C49.1359 6.23177 49.2834 6.92448 49.2834 7.71662C49.2834 8.50544 49.1359 9.19484 48.8409 9.7848C48.5459 10.3748 48.1316 10.8338 47.598 11.1619C47.0644 11.4901 46.4396 11.6541 45.7237 11.6541ZM45.7287 10.4062C46.1927 10.4062 46.5772 10.2836 46.8821 10.0384C47.187 9.79309 47.4124 9.46662 47.5582 9.05895C47.7074 8.65128 47.782 8.20218 47.782 7.71165C47.782 7.22443 47.7074 6.77699 47.5582 6.36932C47.4124 5.95833 47.187 5.62855 46.8821 5.37997C46.5772 5.13139 46.1927 5.0071 45.7287 5.0071C45.2614 5.0071 44.8736 5.13139 44.5653 5.37997C44.2604 5.62855 44.0334 5.95833 43.8842 6.36932C43.7384 6.77699 43.6655 7.22443 43.6655 7.71165C43.6655 8.20218 43.7384 8.65128 43.8842 9.05895C44.0334 9.46662 44.2604 9.79309 44.5653 10.0384C44.8736 10.2836 45.2614 10.4062 45.7287 10.4062ZM54.5073 3.86364V5.05682H50.3361V3.86364H54.5073ZM51.4547 2.03409H52.9412V9.25781C52.9412 9.54616 52.9843 9.76326 53.0705 9.90909C53.1567 10.0516 53.2677 10.1494 53.4036 10.2024C53.5428 10.2521 53.6936 10.277 53.856 10.277C53.9753 10.277 54.0797 10.2687 54.1692 10.2521C54.2587 10.2356 54.3283 10.2223 54.378 10.2124L54.6465 11.4403C54.5603 11.4735 54.4377 11.5066 54.2786 11.5398C54.1195 11.5762 53.9206 11.5961 53.682 11.5994C53.2909 11.6061 52.9263 11.5365 52.5882 11.3906C52.2502 11.2448 51.9767 11.0194 51.7679 10.7145C51.5591 10.4096 51.4547 10.0268 51.4547 9.56605V2.03409ZM61.7509 5.72798L60.4036 5.96662C60.3472 5.79427 60.2578 5.63021 60.1351 5.47443C60.0158 5.31865 59.8534 5.19105 59.6479 5.09162C59.4424 4.99219 59.1855 4.94247 58.8773 4.94247C58.4564 4.94247 58.1051 5.03693 57.8233 5.22585C57.5416 5.41146 57.4007 5.65175 57.4007 5.94673C57.4007 6.20194 57.4952 6.40743 57.6841 6.56321C57.873 6.71899 58.178 6.84659 58.5989 6.94602L59.812 7.22443C60.5146 7.38684 61.0383 7.63707 61.383 7.97514C61.7277 8.31321 61.9 8.75237 61.9 9.29261C61.9 9.75 61.7675 10.1577 61.5023 10.5156C61.2405 10.8703 60.8742 11.1487 60.4036 11.3509C59.9363 11.553 59.3944 11.6541 58.7779 11.6541C57.9228 11.6541 57.2251 11.4718 56.6848 11.1072C56.1446 10.7393 55.8132 10.2173 55.6905 9.54119L57.1273 9.32244C57.2168 9.69697 57.4007 9.98035 57.6792 10.1726C57.9576 10.3615 58.3205 10.456 58.7679 10.456C59.2551 10.456 59.6446 10.3549 59.9363 10.1527C60.2279 9.94721 60.3738 9.69697 60.3738 9.40199C60.3738 9.16335 60.2843 8.96283 60.1053 8.80043C59.9296 8.63802 59.6595 8.51539 59.2949 8.43253L58.0023 8.14915C57.2897 7.98674 56.7627 7.72822 56.4213 7.37358C56.0833 7.01894 55.9142 6.56984 55.9142 6.02628C55.9142 5.57552 56.0402 5.18111 56.2921 4.84304C56.544 4.50497 56.892 4.24148 57.3361 4.05256C57.7802 3.86032 58.289 3.7642 58.8624 3.7642C59.6877 3.7642 60.3373 3.94318 60.8113 4.30114C61.2852 4.65578 61.5984 5.13139 61.7509 5.72798ZM68.0337 6.55327V7.84091H63.5195V6.55327H68.0337ZM70.1342 11.5V1.31818H71.6207V5.10156H71.7102C71.7964 4.94247 71.9207 4.75852 72.0831 4.54972C72.2455 4.34091 72.4709 4.15862 72.7592 4.00284C73.0476 3.84375 73.4287 3.7642 73.9027 3.7642C74.5192 3.7642 75.0694 3.91998 75.5533 4.23153C76.0372 4.54309 76.4167 4.99219 76.6918 5.57884C76.9702 6.16548 77.1094 6.87145 77.1094 7.69673C77.1094 8.52202 76.9718 9.22964 76.6967 9.8196C76.4216 10.4062 76.0438 10.8587 75.5632 11.1768C75.0826 11.4917 74.5341 11.6491 73.9176 11.6491C73.4536 11.6491 73.0741 11.5713 72.7791 11.4155C72.4875 11.2597 72.2588 11.0774 72.093 10.8686C71.9273 10.6598 71.7997 10.4742 71.7102 10.3118H71.5859V11.5H70.1342ZM71.5909 7.68182C71.5909 8.21875 71.6688 8.68939 71.8246 9.09375C71.9804 9.49811 72.2057 9.81463 72.5007 10.0433C72.7957 10.2687 73.157 10.3814 73.5845 10.3814C74.0286 10.3814 74.3999 10.2637 74.6982 10.0284C74.9964 9.78977 75.2218 9.46662 75.3743 9.05895C75.5301 8.65128 75.608 8.19223 75.608 7.68182C75.608 7.17803 75.5317 6.72562 75.3793 6.32457C75.2301 5.92353 75.0047 5.60701 74.7031 5.375C74.4048 5.14299 74.032 5.02699 73.5845 5.02699C73.1536 5.02699 72.7891 5.13802 72.4908 5.36009C72.1958 5.58215 71.9721 5.89205 71.8196 6.28977C71.6671 6.6875 71.5909 7.15151 71.5909 7.68182ZM80.2651 1.31818V11.5H78.7786V1.31818H80.2651ZM84.4872 11.669C84.0033 11.669 83.5658 11.5795 83.1747 11.4006C82.7836 11.2183 82.4737 10.9548 82.245 10.6101C82.0196 10.2654 81.907 9.8428 81.907 9.34233C81.907 8.91146 81.9898 8.55682 82.1555 8.27841C82.3213 8 82.545 7.77959 82.8267 7.61719C83.1084 7.45478 83.4233 7.33215 83.7713 7.24929C84.1193 7.16643 84.474 7.10346 84.8352 7.06037C85.2926 7.00734 85.6638 6.96425 85.9489 6.93111C86.2339 6.89465 86.4411 6.83665 86.5703 6.7571C86.6996 6.67756 86.7642 6.5483 86.7642 6.36932V6.33452C86.7642 5.90033 86.6416 5.56392 86.3963 5.32528C86.1544 5.08665 85.7931 4.96733 85.3125 4.96733C84.812 4.96733 84.4176 5.07836 84.1293 5.30043C83.8442 5.51918 83.647 5.76278 83.5376 6.03125L82.1406 5.71307C82.3063 5.24905 82.5483 4.87453 82.8665 4.58949C83.188 4.30114 83.5575 4.09233 83.9751 3.96307C84.3928 3.83049 84.8319 3.7642 85.2926 3.7642C85.5975 3.7642 85.9207 3.80066 86.2621 3.87358C86.6068 3.94318 86.9283 4.07244 87.2266 4.26136C87.5282 4.45028 87.7751 4.72041 87.9673 5.07173C88.1596 5.41974 88.2557 5.87216 88.2557 6.42898V11.5H86.804V10.456H86.7443C86.6482 10.6482 86.504 10.8371 86.3118 11.0227C86.1196 11.2083 85.8726 11.3625 85.571 11.4851C85.2694 11.6077 84.9081 11.669 84.4872 11.669ZM84.8104 10.4759C85.2214 10.4759 85.5727 10.3946 85.8643 10.2322C86.1593 10.0698 86.383 9.85772 86.5355 9.59588C86.6913 9.33073 86.7692 9.04735 86.7692 8.74574V7.76136C86.7161 7.81439 86.6134 7.86411 86.4609 7.91051C86.3118 7.9536 86.1411 7.99171 85.9489 8.02486C85.7566 8.05469 85.5694 8.08286 85.3871 8.10938C85.2048 8.13258 85.0523 8.15246 84.9297 8.16903C84.6413 8.20549 84.3778 8.26681 84.1392 8.35298C83.9039 8.43916 83.715 8.56345 83.5724 8.72585C83.4332 8.88494 83.3636 9.09706 83.3636 9.36222C83.3636 9.73011 83.4995 10.0085 83.7713 10.1974C84.0431 10.383 84.3894 10.4759 84.8104 10.4759ZM91.7221 6.96591V11.5H90.2356V3.86364H91.6625V5.10653H91.7569C91.9326 4.70218 92.2077 4.37737 92.5822 4.1321C92.96 3.88684 93.4357 3.7642 94.0091 3.7642C94.5294 3.7642 94.9851 3.87358 95.3762 4.09233C95.7673 4.30777 96.0706 4.62926 96.286 5.05682C96.5015 5.48437 96.6092 6.01302 96.6092 6.64276V11.5H95.1227V6.82173C95.1227 6.26823 94.9785 5.8357 94.6902 5.52415C94.4018 5.20928 94.0057 5.05185 93.502 5.05185C93.1573 5.05185 92.8507 5.12642 92.5822 5.27557C92.3171 5.42472 92.1066 5.64347 91.9508 5.93182C91.7984 6.21686 91.7221 6.56155 91.7221 6.96591ZM99.97 8.9098L99.96 7.09517H100.219L103.261 3.86364H105.041L101.571 7.54261H101.337L99.97 8.9098ZM98.6028 11.5V1.31818H100.089V11.5H98.6028ZM103.425 11.5L100.691 7.87074L101.715 6.83168L105.25 11.5H103.425Z" fill="currentColor"/>
</svg>
