<svg width="179" height="15" viewBox="0 0 179 15" fill="none" xmlns="http://www.w3.org/2000/svg">
<path d="M3.85795 11.6491C3.24148 11.6491 2.69129 11.4917 2.20739 11.1768C1.7268 10.8587 1.34896 10.4062 1.07386 9.8196C0.802083 9.22964 0.666193 8.52202 0.666193 7.69673C0.666193 6.87145 0.803741 6.16548 1.07884 5.57884C1.35724 4.99219 1.7384 4.54309 2.2223 4.23153C2.7062 3.91998 3.25473 3.7642 3.8679 3.7642C4.34186 3.7642 4.72301 3.84375 5.01136 4.00284C5.30303 4.15862 5.52841 4.34091 5.6875 4.54972C5.84991 4.75852 5.97585 4.94247 6.06534 5.10156H6.15483V1.31818H7.64134V11.5H6.18963V10.3118H6.06534C5.97585 10.4742 5.84659 10.6598 5.67756 10.8686C5.51184 11.0774 5.28314 11.2597 4.99148 11.4155C4.69981 11.5713 4.32197 11.6491 3.85795 11.6491ZM4.18608 10.3814C4.61364 10.3814 4.97491 10.2687 5.26989 10.0433C5.56818 9.81463 5.79356 9.49811 5.94602 9.09375C6.1018 8.68939 6.17969 8.21875 6.17969 7.68182C6.17969 7.15151 6.10346 6.6875 5.95099 6.28977C5.79853 5.89205 5.57481 5.58215 5.27983 5.36009C4.98485 5.13802 4.62027 5.02699 4.18608 5.02699C3.73864 5.02699 3.36577 5.14299 3.06747 5.375C2.76918 5.60701 2.5438 5.92353 2.39134 6.32457C2.24219 6.72562 2.16761 7.17803 2.16761 7.68182C2.16761 8.19223 2.24384 8.65128 2.39631 9.05895C2.54877 9.46662 2.77415 9.78977 3.07244 10.0284C3.37405 10.2637 3.74527 10.3814 4.18608 10.3814ZM9.76296 11.5V3.86364H11.2495V11.5H9.76296ZM10.5137 2.68537C10.2551 2.68537 10.0331 2.59919 9.84748 2.42685C9.66519 2.25118 9.57404 2.04238 9.57404 1.80043C9.57404 1.55516 9.66519 1.34635 9.84748 1.17401C10.0331 0.998342 10.2551 0.910511 10.5137 0.910511C10.7722 0.910511 10.9926 0.998342 11.1749 1.17401C11.3605 1.34635 11.4533 1.55516 11.4533 1.80043C11.4533 2.04238 11.3605 2.25118 11.1749 2.42685C10.9926 2.59919 10.7722 2.68537 10.5137 2.68537ZM18.9716 5.72798L17.6243 5.96662C17.5679 5.79427 17.4785 5.63021 17.3558 5.47443C17.2365 5.31865 17.0741 5.19105 16.8686 5.09162C16.6631 4.99219 16.4063 4.94247 16.098 4.94247C15.6771 4.94247 15.3258 5.03693 15.044 5.22585C14.7623 5.41146 14.6214 5.65175 14.6214 5.94673C14.6214 6.20194 14.7159 6.40743 14.9048 6.56321C15.0938 6.71899 15.3987 6.84659 15.8196 6.94602L17.0327 7.22443C17.7353 7.38684 18.259 7.63707 18.6037 7.97514C18.9484 8.31321 19.1207 8.75237 19.1207 9.29261C19.1207 9.75 18.9882 10.1577 18.723 10.5156C18.4612 10.8703 18.0949 11.1487 17.6243 11.3509C17.157 11.553 16.6151 11.6541 15.9986 11.6541C15.1435 11.6541 14.4458 11.4718 13.9055 11.1072C13.3653 10.7393 13.0339 10.2173 12.9112 9.54119L14.348 9.32244C14.4375 9.69697 14.6214 9.98035 14.8999 10.1726C15.1783 10.3615 15.5412 10.456 15.9886 10.456C16.4759 10.456 16.8653 10.3549 17.157 10.1527C17.4486 9.94721 17.5945 9.69697 17.5945 9.40199C17.5945 9.16335 17.505 8.96283 17.326 8.80043C17.1503 8.63802 16.8802 8.51539 16.5156 8.43253L15.223 8.14915C14.5104 7.98674 13.9834 7.72822 13.642 7.37358C13.304 7.01894 13.1349 6.56984 13.1349 6.02628C13.1349 5.57552 13.2609 5.18111 13.5128 4.84304C13.7647 4.50497 14.1127 4.24148 14.5568 4.05256C15.0009 3.86032 15.5097 3.7642 16.0831 3.7642C16.9084 3.7642 17.558 3.94318 18.032 4.30114C18.5059 4.65578 18.8191 5.13139 18.9716 5.72798ZM24.3198 3.86364V5.05682H20.1486V3.86364H24.3198ZM21.2672 2.03409H22.7537V9.25781C22.7537 9.54616 22.7968 9.76326 22.883 9.90909C22.9692 10.0516 23.0802 10.1494 23.2161 10.2024C23.3553 10.2521 23.5061 10.277 23.6685 10.277C23.7878 10.277 23.8922 10.2687 23.9817 10.2521C24.0712 10.2356 24.1408 10.2223 24.1905 10.2124L24.459 11.4403C24.3728 11.4735 24.2502 11.5066 24.0911 11.5398C23.932 11.5762 23.7331 11.5961 23.4945 11.5994C23.1034 11.6061 22.7388 11.5365 22.4007 11.3906C22.0627 11.2448 21.7892 11.0194 21.5804 10.7145C21.3716 10.4096 21.2672 10.0268 21.2672 9.56605V2.03409ZM25.9641 11.5V3.86364H27.4009V5.0767H27.4805C27.6197 4.66572 27.8649 4.34257 28.2163 4.10724C28.5709 3.86861 28.9719 3.74929 29.4194 3.74929C29.5122 3.74929 29.6216 3.7526 29.7475 3.75923C29.8768 3.76586 29.9779 3.77415 30.0508 3.78409V5.20597C29.9911 5.18939 29.8851 5.17116 29.7326 5.15128C29.5801 5.12808 29.4277 5.11648 29.2752 5.11648C28.9239 5.11648 28.6107 5.19105 28.3356 5.3402C28.0638 5.48603 27.8484 5.68987 27.6893 5.9517C27.5302 6.21023 27.4506 6.50521 27.4506 6.83665V11.5H25.9641ZM31.3372 11.5V3.86364H32.8237V11.5H31.3372ZM32.0879 2.68537C31.8294 2.68537 31.6073 2.59919 31.4217 2.42685C31.2394 2.25118 31.1483 2.04238 31.1483 1.80043C31.1483 1.55516 31.2394 1.34635 31.4217 1.17401C31.6073 0.998342 31.8294 0.910511 32.0879 0.910511C32.3464 0.910511 32.5668 0.998342 32.7491 1.17401C32.9347 1.34635 33.0275 1.55516 33.0275 1.80043C33.0275 2.04238 32.9347 2.25118 32.7491 2.42685C32.5668 2.59919 32.3464 2.68537 32.0879 2.68537ZM34.9428 11.5V1.31818H36.4293V5.10156H36.5188C36.605 4.94247 36.7293 4.75852 36.8917 4.54972C37.0541 4.34091 37.2795 4.15862 37.5678 4.00284C37.8562 3.84375 38.2373 3.7642 38.7113 3.7642C39.3278 3.7642 39.878 3.91998 40.3619 4.23153C40.8458 4.54309 41.2253 4.99219 41.5004 5.57884C41.7788 6.16548 41.918 6.87145 41.918 7.69673C41.918 8.52202 41.7804 9.22964 41.5053 9.8196C41.2302 10.4062 40.8524 10.8587 40.3718 11.1768C39.8912 11.4917 39.3427 11.6491 38.7262 11.6491C38.2622 11.6491 37.8827 11.5713 37.5877 11.4155C37.296 11.2597 37.0674 11.0774 36.9016 10.8686C36.7359 10.6598 36.6083 10.4742 36.5188 10.3118H36.3945V11.5H34.9428ZM36.3995 7.68182C36.3995 8.21875 36.4774 8.68939 36.6332 9.09375C36.7889 9.49811 37.0143 9.81463 37.3093 10.0433C37.6043 10.2687 37.9656 10.3814 38.3931 10.3814C38.8372 10.3814 39.2085 10.2637 39.5067 10.0284C39.805 9.78977 40.0304 9.46662 40.1829 9.05895C40.3387 8.65128 40.4165 8.19223 40.4165 7.68182C40.4165 7.17803 40.3403 6.72562 40.1879 6.32457C40.0387 5.92353 39.8133 5.60701 39.5117 5.375C39.2134 5.14299 38.8406 5.02699 38.3931 5.02699C37.9622 5.02699 37.5977 5.13802 37.2994 5.36009C37.0044 5.58215 36.7807 5.89205 36.6282 6.28977C36.4757 6.6875 36.3995 7.15151 36.3995 7.68182ZM48.4245 8.3331V3.86364H49.916V11.5H48.4544V10.1776H48.3748C48.1992 10.5852 47.9174 10.925 47.5297 11.1967C47.1452 11.4652 46.6663 11.5994 46.0929 11.5994C45.6023 11.5994 45.1681 11.4917 44.7903 11.2763C44.4158 11.0575 44.1208 10.7344 43.9054 10.3068C43.6932 9.87926 43.5872 9.35062 43.5872 8.72088V3.86364H45.0737V8.5419C45.0737 9.06226 45.2179 9.47656 45.5062 9.7848C45.7946 10.093 46.1691 10.2472 46.6298 10.2472C46.9082 10.2472 47.185 10.1776 47.46 10.0384C47.7385 9.89915 47.9688 9.68868 48.1511 9.40696C48.3367 9.12524 48.4279 8.76728 48.4245 8.3331ZM55.478 3.86364V5.05682H51.3068V3.86364H55.478ZM52.4254 2.03409H53.9119V9.25781C53.9119 9.54616 53.955 9.76326 54.0412 9.90909C54.1274 10.0516 54.2384 10.1494 54.3743 10.2024C54.5135 10.2521 54.6643 10.277 54.8267 10.277C54.946 10.277 55.0504 10.2687 55.1399 10.2521C55.2294 10.2356 55.299 10.2223 55.3487 10.2124L55.6172 11.4403C55.531 11.4735 55.4084 11.5066 55.2493 11.5398C55.0902 11.5762 54.8913 11.5961 54.6527 11.5994C54.2616 11.6061 53.897 11.5365 53.5589 11.3906C53.2209 11.2448 52.9474 11.0194 52.7386 10.7145C52.5298 10.4096 52.4254 10.0268 52.4254 9.56605V2.03409ZM60.3315 11.6541C59.5791 11.6541 58.9312 11.4934 58.3876 11.1719C57.8474 10.8471 57.4297 10.3913 57.1348 9.80469C56.8431 9.21473 56.6973 8.52367 56.6973 7.73153C56.6973 6.94934 56.8431 6.25994 57.1348 5.66335C57.4297 5.06676 57.8407 4.60109 58.3677 4.26633C58.898 3.93158 59.5178 3.7642 60.2271 3.7642C60.658 3.7642 61.0756 3.83546 61.4799 3.97798C61.8843 4.1205 62.2472 4.34422 62.5687 4.64915C62.8902 4.95407 63.1438 5.35014 63.3294 5.83736C63.515 6.32126 63.6078 6.90956 63.6078 7.60227V8.12926H57.5375V7.01562H62.1511C62.1511 6.62453 62.0716 6.27817 61.9125 5.97656C61.7534 5.67164 61.5297 5.43134 61.2413 5.25568C60.9563 5.08002 60.6215 4.99219 60.237 4.99219C59.8194 4.99219 59.4548 5.09493 59.1433 5.30043C58.835 5.5026 58.5964 5.76776 58.4274 6.09588C58.2617 6.42069 58.1788 6.77367 58.1788 7.15483V8.02486C58.1788 8.53527 58.2683 8.96946 58.4473 9.32741C58.6296 9.68537 58.8831 9.95881 59.2079 10.1477C59.5327 10.3333 59.9122 10.4261 60.3464 10.4261C60.6281 10.4261 60.885 10.3864 61.117 10.3068C61.349 10.224 61.5495 10.1013 61.7186 9.93892C61.8876 9.77652 62.0169 9.57599 62.1064 9.33736L63.5133 9.59091C63.4006 10.0052 63.1984 10.3681 62.9068 10.6797C62.6184 10.9879 62.2555 11.2282 61.818 11.4006C61.3838 11.5696 60.8883 11.6541 60.3315 11.6541ZM69.7564 6.55327V7.84091H65.2422V6.55327H69.7564ZM77.4599 5.72798L76.1126 5.96662C76.0562 5.79427 75.9667 5.63021 75.8441 5.47443C75.7248 5.31865 75.5624 5.19105 75.3569 5.09162C75.1514 4.99219 74.8945 4.94247 74.5863 4.94247C74.1654 4.94247 73.814 5.03693 73.5323 5.22585C73.2506 5.41146 73.1097 5.65175 73.1097 5.94673C73.1097 6.20194 73.2042 6.40743 73.3931 6.56321C73.582 6.71899 73.887 6.84659 74.3079 6.94602L75.521 7.22443C76.2236 7.38684 76.7473 7.63707 77.092 7.97514C77.4367 8.31321 77.609 8.75237 77.609 9.29261C77.609 9.75 77.4764 10.1577 77.2113 10.5156C76.9495 10.8703 76.5832 11.1487 76.1126 11.3509C75.6452 11.553 75.1033 11.6541 74.4869 11.6541C73.6317 11.6541 72.9341 11.4718 72.3938 11.1072C71.8536 10.7393 71.5221 10.2173 71.3995 9.54119L72.8363 9.32244C72.9258 9.69697 73.1097 9.98035 73.3881 10.1726C73.6665 10.3615 74.0295 10.456 74.4769 10.456C74.9641 10.456 75.3536 10.3549 75.6452 10.1527C75.9369 9.94721 76.0827 9.69697 76.0827 9.40199C76.0827 9.16335 75.9933 8.96283 75.8143 8.80043C75.6386 8.63802 75.3685 8.51539 75.0039 8.43253L73.7113 8.14915C72.9987 7.98674 72.4717 7.72822 72.1303 7.37358C71.7923 7.01894 71.6232 6.56984 71.6232 6.02628C71.6232 5.57552 71.7492 5.18111 72.0011 4.84304C72.253 4.50497 72.601 4.24148 73.0451 4.05256C73.4892 3.86032 73.998 3.7642 74.5714 3.7642C75.3967 3.7642 76.0463 3.94318 76.5202 4.30114C76.9942 4.65578 77.3074 5.13139 77.4599 5.72798ZM79.2434 14.3636V3.86364H80.6951V5.10156H80.8194C80.9056 4.94247 81.0299 4.75852 81.1923 4.54972C81.3547 4.34091 81.5801 4.15862 81.8684 4.00284C82.1568 3.84375 82.5379 3.7642 83.0119 3.7642C83.6284 3.7642 84.1786 3.91998 84.6625 4.23153C85.1464 4.54309 85.5259 4.99219 85.801 5.57884C86.0794 6.16548 86.2186 6.87145 86.2186 7.69673C86.2186 8.52202 86.081 9.22964 85.8059 9.8196C85.5308 10.4062 85.153 10.8587 84.6724 11.1768C84.1918 11.4917 83.6433 11.6491 83.0268 11.6491C82.5628 11.6491 82.1833 11.5713 81.8883 11.4155C81.5967 11.2597 81.368 11.0774 81.2022 10.8686C81.0365 10.6598 80.9089 10.4742 80.8194 10.3118H80.7299V14.3636H79.2434ZM80.7001 7.68182C80.7001 8.21875 80.778 8.68939 80.9338 9.09375C81.0895 9.49811 81.3149 9.81463 81.6099 10.0433C81.9049 10.2687 82.2662 10.3814 82.6937 10.3814C83.1378 10.3814 83.5091 10.2637 83.8074 10.0284C84.1056 9.78977 84.331 9.46662 84.4835 9.05895C84.6393 8.65128 84.7172 8.19223 84.7172 7.68182C84.7172 7.17803 84.6409 6.72562 84.4885 6.32457C84.3393 5.92353 84.1139 5.60701 83.8123 5.375C83.514 5.14299 83.1412 5.02699 82.6937 5.02699C82.2628 5.02699 81.8983 5.13802 81.6 5.36009C81.305 5.58215 81.0813 5.89205 80.9288 6.28977C80.7763 6.6875 80.7001 7.15151 80.7001 7.68182ZM90.1064 11.669C89.6225 11.669 89.185 11.5795 88.7939 11.4006C88.4028 11.2183 88.0929 10.9548 87.8642 10.6101C87.6388 10.2654 87.5261 9.8428 87.5261 9.34233C87.5261 8.91146 87.609 8.55682 87.7747 8.27841C87.9404 8 88.1641 7.77959 88.4458 7.61719C88.7276 7.45478 89.0424 7.33215 89.3904 7.24929C89.7385 7.16643 90.0931 7.10346 90.4544 7.06037C90.9118 7.00734 91.283 6.96425 91.568 6.93111C91.853 6.89465 92.0602 6.83665 92.1895 6.7571C92.3187 6.67756 92.3833 6.5483 92.3833 6.36932V6.33452C92.3833 5.90033 92.2607 5.56392 92.0154 5.32528C91.7735 5.08665 91.4122 4.96733 90.9316 4.96733C90.4312 4.96733 90.0368 5.07836 89.7484 5.30043C89.4634 5.51918 89.2662 5.76278 89.1568 6.03125L87.7598 5.71307C87.9255 5.24905 88.1674 4.87453 88.4856 4.58949C88.8071 4.30114 89.1767 4.09233 89.5943 3.96307C90.0119 3.83049 90.4511 3.7642 90.9118 3.7642C91.2167 3.7642 91.5398 3.80066 91.8812 3.87358C92.2259 3.94318 92.5474 4.07244 92.8457 4.26136C93.1473 4.45028 93.3942 4.72041 93.5865 5.07173C93.7787 5.41974 93.8748 5.87216 93.8748 6.42898V11.5H92.4231V10.456H92.3635C92.2673 10.6482 92.1232 10.8371 91.9309 11.0227C91.7387 11.2083 91.4918 11.3625 91.1902 11.4851C90.8886 11.6077 90.5273 11.669 90.1064 11.669ZM90.4295 10.4759C90.8405 10.4759 91.1918 10.3946 91.4835 10.2322C91.7785 10.0698 92.0022 9.85772 92.1547 9.59588C92.3104 9.33073 92.3883 9.04735 92.3883 8.74574V7.76136C92.3353 7.81439 92.2325 7.86411 92.0801 7.91051C91.9309 7.9536 91.7602 7.99171 91.568 8.02486C91.3758 8.05469 91.1885 8.08286 91.0062 8.10938C90.8239 8.13258 90.6715 8.15246 90.5488 8.16903C90.2605 8.20549 89.997 8.26681 89.7583 8.35298C89.523 8.43916 89.3341 8.56345 89.1916 8.72585C89.0524 8.88494 88.9828 9.09706 88.9828 9.36222C88.9828 9.73011 89.1187 10.0085 89.3904 10.1974C89.6622 10.383 90.0086 10.4759 90.4295 10.4759ZM99.0714 11.6541C98.3323 11.6541 97.6959 11.4867 97.1623 11.152C96.632 10.8139 96.2243 10.3482 95.9393 9.75497C95.6542 9.16169 95.5117 8.48224 95.5117 7.71662C95.5117 6.94105 95.6576 6.25663 95.9492 5.66335C96.2409 5.06676 96.6519 4.60109 97.1822 4.26633C97.7125 3.93158 98.3372 3.7642 99.0565 3.7642C99.6365 3.7642 100.154 3.87192 100.608 4.08736C101.062 4.29948 101.428 4.59777 101.706 4.98224C101.988 5.36671 102.155 5.81581 102.208 6.32955H100.762C100.682 5.97159 100.5 5.66335 100.215 5.40483C99.9331 5.14631 99.5553 5.01705 99.0813 5.01705C98.667 5.01705 98.3041 5.12642 97.9925 5.34517C97.6843 5.56061 97.444 5.86884 97.2717 6.26989C97.0993 6.66761 97.0131 7.13826 97.0131 7.68182C97.0131 8.23864 97.0977 8.71922 97.2667 9.12358C97.4357 9.52794 97.6744 9.84115 97.9826 10.0632C98.2942 10.2853 98.6604 10.3963 99.0813 10.3963C99.363 10.3963 99.6183 10.3449 99.8469 10.2422C100.079 10.1361 100.273 9.98532 100.429 9.78977C100.588 9.59422 100.699 9.3589 100.762 9.08381H102.208C102.155 9.57765 101.995 10.0185 101.726 10.4062C101.458 10.794 101.098 11.099 100.647 11.321C100.2 11.5431 99.6746 11.6541 99.0714 11.6541ZM103.798 11.5V3.86364H105.285V11.5H103.798ZM104.549 2.68537C104.29 2.68537 104.068 2.59919 103.883 2.42685C103.7 2.25118 103.609 2.04238 103.609 1.80043C103.609 1.55516 103.7 1.34635 103.883 1.17401C104.068 0.998342 104.29 0.910511 104.549 0.910511C104.807 0.910511 105.028 0.998342 105.21 1.17401C105.396 1.34635 105.488 1.55516 105.488 1.80043C105.488 2.04238 105.396 2.25118 105.21 2.42685C105.028 2.59919 104.807 2.68537 104.549 2.68537ZM108.771 6.96591V11.5H107.284V3.86364H108.711V5.10653H108.806C108.981 4.70218 109.257 4.37737 109.631 4.1321C110.009 3.88684 110.484 3.7642 111.058 3.7642C111.578 3.7642 112.034 3.87358 112.425 4.09233C112.816 4.30777 113.119 4.62926 113.335 5.05682C113.55 5.48437 113.658 6.01302 113.658 6.64276V11.5H112.172V6.82173C112.172 6.26823 112.027 5.8357 111.739 5.52415C111.451 5.20928 111.055 5.05185 110.551 5.05185C110.206 5.05185 109.9 5.12642 109.631 5.27557C109.366 5.42472 109.155 5.64347 109 5.93182C108.847 6.21686 108.771 6.56155 108.771 6.96591ZM118.853 14.5227C118.247 14.5227 117.725 14.4432 117.287 14.2841C116.853 14.125 116.498 13.9145 116.223 13.6527C115.948 13.3909 115.743 13.1042 115.607 12.7926L116.885 12.2656C116.974 12.4115 117.093 12.5656 117.243 12.728C117.395 12.8937 117.6 13.0346 117.859 13.1506C118.121 13.2666 118.457 13.3246 118.868 13.3246C119.432 13.3246 119.897 13.187 120.265 12.9119C120.633 12.6402 120.817 12.206 120.817 11.6094V10.108H120.723C120.633 10.2704 120.504 10.451 120.335 10.6499C120.169 10.8487 119.94 11.0211 119.649 11.1669C119.357 11.3127 118.978 11.3857 118.51 11.3857C117.907 11.3857 117.364 11.2448 116.88 10.9631C116.399 10.678 116.018 10.2588 115.736 9.70526C115.458 9.14844 115.319 8.46401 115.319 7.65199C115.319 6.83996 115.456 6.14394 115.731 5.56392C116.01 4.9839 116.391 4.53977 116.875 4.23153C117.359 3.91998 117.907 3.7642 118.52 3.7642C118.994 3.7642 119.377 3.84375 119.669 4.00284C119.96 4.15862 120.187 4.34091 120.35 4.54972C120.516 4.75852 120.643 4.94247 120.733 5.10156H120.842V3.86364H122.299V11.669C122.299 12.3253 122.146 12.8639 121.841 13.2848C121.536 13.7057 121.124 14.0173 120.603 14.2195C120.086 14.4216 119.503 14.5227 118.853 14.5227ZM118.838 10.1527C119.266 10.1527 119.627 10.0533 119.922 9.8544C120.221 9.65223 120.446 9.36387 120.598 8.98935C120.754 8.61151 120.832 8.15909 120.832 7.6321C120.832 7.11837 120.756 6.66596 120.603 6.27486C120.451 5.88376 120.227 5.57884 119.932 5.36009C119.637 5.13802 119.273 5.02699 118.838 5.02699C118.391 5.02699 118.018 5.14299 117.72 5.375C117.422 5.60369 117.196 5.91525 117.044 6.30966C116.895 6.70407 116.82 7.14489 116.82 7.6321C116.82 8.13258 116.896 8.57173 117.049 8.94957C117.201 9.32741 117.426 9.6224 117.725 9.83452C118.026 10.0466 118.398 10.1527 118.838 10.1527ZM128.792 6.55327V7.84091H124.277V6.55327H128.792ZM137.305 3.86364L134.536 11.5H132.945L130.171 3.86364H131.767L133.701 9.74006H133.781L135.71 3.86364H137.305ZM141.734 11.6541C140.981 11.6541 140.334 11.4934 139.79 11.1719C139.25 10.8471 138.832 10.3913 138.537 9.80469C138.245 9.21473 138.1 8.52367 138.1 7.73153C138.1 6.94934 138.245 6.25994 138.537 5.66335C138.832 5.06676 139.243 4.60109 139.77 4.26633C140.3 3.93158 140.92 3.7642 141.629 3.7642C142.06 3.7642 142.478 3.83546 142.882 3.97798C143.287 4.1205 143.65 4.34422 143.971 4.64915C144.293 4.95407 144.546 5.35014 144.732 5.83736C144.917 6.32126 145.01 6.90956 145.01 7.60227V8.12926H138.94V7.01562H143.553C143.553 6.62453 143.474 6.27817 143.315 5.97656C143.156 5.67164 142.932 5.43134 142.644 5.25568C142.359 5.08002 142.024 4.99219 141.639 4.99219C141.222 4.99219 140.857 5.09493 140.546 5.30043C140.237 5.5026 139.999 5.76776 139.83 6.09588C139.664 6.42069 139.581 6.77367 139.581 7.15483V8.02486C139.581 8.53527 139.671 8.96946 139.85 9.32741C140.032 9.68537 140.285 9.95881 140.61 10.1477C140.935 10.3333 141.315 10.4261 141.749 10.4261C142.03 10.4261 142.287 10.3864 142.519 10.3068C142.751 10.224 142.952 10.1013 143.121 9.93892C143.29 9.77652 143.419 9.57599 143.509 9.33736L144.916 9.59091C144.803 10.0052 144.601 10.3681 144.309 10.6797C144.021 10.9879 143.658 11.2282 143.22 11.4006C142.786 11.5696 142.291 11.6541 141.734 11.6541ZM146.659 11.5V3.86364H148.096V5.0767H148.176C148.315 4.66572 148.56 4.34257 148.912 4.10724C149.266 3.86861 149.667 3.74929 150.115 3.74929C150.208 3.74929 150.317 3.7526 150.443 3.75923C150.572 3.76586 150.673 3.77415 150.746 3.78409V5.20597C150.686 5.18939 150.58 5.17116 150.428 5.15128C150.275 5.12808 150.123 5.11648 149.971 5.11648C149.619 5.11648 149.306 5.19105 149.031 5.3402C148.759 5.48603 148.544 5.68987 148.385 5.9517C148.225 6.21023 148.146 6.50521 148.146 6.83665V11.5H146.659ZM156.048 3.86364V5.05682H151.877V3.86364H156.048ZM152.996 2.03409H154.482V9.25781C154.482 9.54616 154.525 9.76326 154.612 9.90909C154.698 10.0516 154.809 10.1494 154.945 10.2024C155.084 10.2521 155.235 10.277 155.397 10.277C155.516 10.277 155.621 10.2687 155.71 10.2521C155.8 10.2356 155.869 10.2223 155.919 10.2124L156.188 11.4403C156.101 11.4735 155.979 11.5066 155.82 11.5398C155.661 11.5762 155.462 11.5961 155.223 11.5994C154.832 11.6061 154.467 11.5365 154.129 11.3906C153.791 11.2448 153.518 11.0194 153.309 10.7145C153.1 10.4096 152.996 10.0268 152.996 9.56605V2.03409ZM157.693 11.5V3.86364H159.179V11.5H157.693ZM158.443 2.68537C158.185 2.68537 157.963 2.59919 157.777 2.42685C157.595 2.25118 157.504 2.04238 157.504 1.80043C157.504 1.55516 157.595 1.34635 157.777 1.17401C157.963 0.998342 158.185 0.910511 158.443 0.910511C158.702 0.910511 158.922 0.998342 159.105 1.17401C159.29 1.34635 159.383 1.55516 159.383 1.80043C159.383 2.04238 159.29 2.25118 159.105 2.42685C158.922 2.59919 158.702 2.68537 158.443 2.68537ZM164.396 11.6541C163.656 11.6541 163.02 11.4867 162.487 11.152C161.956 10.8139 161.549 10.3482 161.263 9.75497C160.978 9.16169 160.836 8.48224 160.836 7.71662C160.836 6.94105 160.982 6.25663 161.273 5.66335C161.565 5.06676 161.976 4.60109 162.506 4.26633C163.037 3.93158 163.661 3.7642 164.381 3.7642C164.961 3.7642 165.478 3.87192 165.932 4.08736C166.386 4.29948 166.752 4.59777 167.031 4.98224C167.312 5.36671 167.48 5.81581 167.533 6.32955H166.086C166.006 5.97159 165.824 5.66335 165.539 5.40483C165.257 5.14631 164.879 5.01705 164.406 5.01705C163.991 5.01705 163.628 5.12642 163.317 5.34517C163.009 5.56061 162.768 5.86884 162.596 6.26989C162.424 6.66761 162.337 7.13826 162.337 7.68182C162.337 8.23864 162.422 8.71922 162.591 9.12358C162.76 9.52794 162.999 9.84115 163.307 10.0632C163.618 10.2853 163.985 10.3963 164.406 10.3963C164.687 10.3963 164.942 10.3449 165.171 10.2422C165.403 10.1361 165.597 9.98532 165.753 9.78977C165.912 9.59422 166.023 9.3589 166.086 9.08381H167.533C167.48 9.57765 167.319 10.0185 167.05 10.4062C166.782 10.794 166.422 11.099 165.972 11.321C165.524 11.5431 164.999 11.6541 164.396 11.6541ZM171.345 11.669C170.861 11.669 170.423 11.5795 170.032 11.4006C169.641 11.2183 169.331 10.9548 169.102 10.6101C168.877 10.2654 168.764 9.8428 168.764 9.34233C168.764 8.91146 168.847 8.55682 169.013 8.27841C169.179 8 169.402 7.77959 169.684 7.61719C169.966 7.45478 170.281 7.33215 170.629 7.24929C170.977 7.16643 171.331 7.10346 171.693 7.06037C172.15 7.00734 172.521 6.96425 172.806 6.93111C173.091 6.89465 173.298 6.83665 173.428 6.7571C173.557 6.67756 173.622 6.5483 173.622 6.36932V6.33452C173.622 5.90033 173.499 5.56392 173.254 5.32528C173.012 5.08665 172.651 4.96733 172.17 4.96733C171.669 4.96733 171.275 5.07836 170.987 5.30043C170.702 5.51918 170.504 5.76278 170.395 6.03125L168.998 5.71307C169.164 5.24905 169.406 4.87453 169.724 4.58949C170.045 4.30114 170.415 4.09233 170.833 3.96307C171.25 3.83049 171.689 3.7642 172.15 3.7642C172.455 3.7642 172.778 3.80066 173.119 3.87358C173.464 3.94318 173.786 4.07244 174.084 4.26136C174.386 4.45028 174.633 4.72041 174.825 5.07173C175.017 5.41974 175.113 5.87216 175.113 6.42898V11.5H173.661V10.456H173.602C173.506 10.6482 173.361 10.8371 173.169 11.0227C172.977 11.2083 172.73 11.3625 172.428 11.4851C172.127 11.6077 171.766 11.669 171.345 11.669ZM171.668 10.4759C172.079 10.4759 172.43 10.3946 172.722 10.2322C173.017 10.0698 173.24 9.85772 173.393 9.59588C173.549 9.33073 173.627 9.04735 173.627 8.74574V7.76136C173.574 7.81439 173.471 7.86411 173.318 7.91051C173.169 7.9536 172.999 7.99171 172.806 8.02486C172.614 8.05469 172.427 8.08286 172.244 8.10938C172.062 8.13258 171.91 8.15246 171.787 8.16903C171.499 8.20549 171.235 8.26681 170.997 8.35298C170.761 8.43916 170.572 8.56345 170.43 8.72585C170.291 8.88494 170.221 9.09706 170.221 9.36222C170.221 9.73011 170.357 10.0085 170.629 10.1974C170.901 10.383 171.247 10.4759 171.668 10.4759ZM178.58 1.31818V11.5H177.093V1.31818H178.58Z" fill="currentColor"/>
</svg>
