<svg width="91" height="15" viewBox="0 0 91 15" fill="none" xmlns="http://www.w3.org/2000/svg">
<path d="M4.63352 3.86364V5.05682H0.318182V3.86364H4.63352ZM1.50142 11.5V2.97869C1.50142 2.50142 1.60582 2.10535 1.81463 1.79048C2.02344 1.4723 2.30019 1.23532 2.64489 1.07955C2.98958 0.920454 3.36411 0.840908 3.76847 0.840908C4.06676 0.840908 4.32197 0.865767 4.53409 0.915483C4.74621 0.961884 4.90365 1.00497 5.00639 1.04474L4.65838 2.24787C4.58878 2.22798 4.49929 2.20478 4.38991 2.17827C4.28054 2.14844 4.14796 2.13352 3.99219 2.13352C3.63092 2.13352 3.3724 2.22301 3.21662 2.40199C3.06416 2.58097 2.98793 2.83949 2.98793 3.17756V11.5H1.50142ZM7.65376 1.31818V11.5H6.16726V1.31818H7.65376ZM12.9448 11.6541C12.1924 11.6541 11.5444 11.4934 11.0009 11.1719C10.4606 10.8471 10.043 10.3913 9.74805 9.80469C9.45638 9.21473 9.31055 8.52367 9.31055 7.73153C9.31055 6.94934 9.45638 6.25994 9.74805 5.66335C10.043 5.06676 10.454 4.60109 10.981 4.26633C11.5113 3.93158 12.1311 3.7642 12.8404 3.7642C13.2712 3.7642 13.6889 3.83546 14.0932 3.97798C14.4976 4.1205 14.8605 4.34422 15.182 4.64915C15.5035 4.95407 15.757 5.35014 15.9426 5.83736C16.1283 6.32126 16.2211 6.90956 16.2211 7.60227V8.12926H10.1507V7.01562H14.7644C14.7644 6.62453 14.6848 6.27817 14.5257 5.97656C14.3667 5.67164 14.1429 5.43134 13.8546 5.25568C13.5695 5.08002 13.2348 4.99219 12.8503 4.99219C12.4327 4.99219 12.0681 5.09493 11.7566 5.30043C11.4483 5.5026 11.2097 5.76776 11.0407 6.09588C10.8749 6.42069 10.7921 6.77367 10.7921 7.15483V8.02486C10.7921 8.53527 10.8816 8.96946 11.0605 9.32741C11.2428 9.68537 11.4964 9.95881 11.8212 10.1477C12.146 10.3333 12.5255 10.4261 12.9597 10.4261C13.2414 10.4261 13.4983 10.3864 13.7303 10.3068C13.9623 10.224 14.1628 10.1013 14.3319 9.93892C14.5009 9.77652 14.6301 9.57599 14.7196 9.33736L16.1266 9.59091C16.0139 10.0052 15.8117 10.3681 15.5201 10.6797C15.2317 10.9879 14.8688 11.2282 14.4313 11.4006C13.9971 11.5696 13.5016 11.6541 12.9448 11.6541ZM18.8659 3.86364L20.5513 6.83665L22.2516 3.86364H23.8773L21.4959 7.68182L23.8972 11.5H22.2715L20.5513 8.64631L18.8361 11.5H17.2054L19.5819 7.68182L17.2353 3.86364H18.8659ZM29.5884 6.55327V7.84091H25.0742V6.55327H29.5884ZM33.7919 11.669C33.308 11.669 32.8705 11.5795 32.4794 11.4006C32.0883 11.2183 31.7784 10.9548 31.5497 10.6101C31.3243 10.2654 31.2116 9.8428 31.2116 9.34233C31.2116 8.91146 31.2945 8.55682 31.4602 8.27841C31.6259 8 31.8497 7.77959 32.1314 7.61719C32.4131 7.45478 32.728 7.33215 33.076 7.24929C33.424 7.16643 33.7786 7.10346 34.1399 7.06037C34.5973 7.00734 34.9685 6.96425 35.2536 6.93111C35.5386 6.89465 35.7457 6.83665 35.875 6.7571C36.0043 6.67756 36.0689 6.5483 36.0689 6.36932V6.33452C36.0689 5.90033 35.9463 5.56392 35.701 5.32528C35.459 5.08665 35.0978 4.96733 34.6172 4.96733C34.1167 4.96733 33.7223 5.07836 33.4339 5.30043C33.1489 5.51918 32.9517 5.76278 32.8423 6.03125L31.4453 5.71307C31.611 5.24905 31.853 4.87453 32.1712 4.58949C32.4927 4.30114 32.8622 4.09233 33.2798 3.96307C33.6974 3.83049 34.1366 3.7642 34.5973 3.7642C34.9022 3.7642 35.2254 3.80066 35.5668 3.87358C35.9115 3.94318 36.233 4.07244 36.5312 4.26136C36.8329 4.45028 37.0798 4.72041 37.272 5.07173C37.4643 5.41974 37.5604 5.87216 37.5604 6.42898V11.5H36.1087V10.456H36.049C35.9529 10.6482 35.8087 10.8371 35.6165 11.0227C35.4242 11.2083 35.1773 11.3625 34.8757 11.4851C34.5741 11.6077 34.2128 11.669 33.7919 11.669ZM34.1151 10.4759C34.526 10.4759 34.8774 10.3946 35.169 10.2322C35.464 10.0698 35.6877 9.85772 35.8402 9.59588C35.996 9.33073 36.0739 9.04735 36.0739 8.74574V7.76136C36.0208 7.81439 35.9181 7.86411 35.7656 7.91051C35.6165 7.9536 35.4458 7.99171 35.2536 8.02486C35.0613 8.05469 34.8741 8.08286 34.6918 8.10938C34.5095 8.13258 34.357 8.15246 34.2344 8.16903C33.946 8.20549 33.6825 8.26681 33.4439 8.35298C33.2086 8.43916 33.0196 8.56345 32.8771 8.72585C32.7379 8.88494 32.6683 9.09706 32.6683 9.36222C32.6683 9.73011 32.8042 10.0085 33.076 10.1974C33.3478 10.383 33.6941 10.4759 34.1151 10.4759ZM41.0268 1.31818V11.5H39.5403V1.31818H41.0268ZM43.0266 11.5V3.86364H44.5131V11.5H43.0266ZM43.7773 2.68537C43.5188 2.68537 43.2968 2.59919 43.1112 2.42685C42.9289 2.25118 42.8377 2.04238 42.8377 1.80043C42.8377 1.55516 42.9289 1.34635 43.1112 1.17401C43.2968 0.998342 43.5188 0.910511 43.7773 0.910511C44.0359 0.910511 44.2563 0.998342 44.4386 1.17401C44.6242 1.34635 44.717 1.55516 44.717 1.80043C44.717 2.04238 44.6242 2.25118 44.4386 2.42685C44.2563 2.59919 44.0359 2.68537 43.7773 2.68537ZM49.7147 14.5227C49.1081 14.5227 48.5861 14.4432 48.1486 14.2841C47.7144 14.125 47.3598 13.9145 47.0847 13.6527C46.8096 13.3909 46.6041 13.1042 46.4682 12.7926L47.7459 12.2656C47.8354 12.4115 47.9547 12.5656 48.1039 12.728C48.2563 12.8937 48.4618 13.0346 48.7203 13.1506C48.9822 13.2666 49.3186 13.3246 49.7296 13.3246C50.293 13.3246 50.7587 13.187 51.1266 12.9119C51.4945 12.6402 51.6784 12.206 51.6784 11.6094V10.108H51.584C51.4945 10.2704 51.3652 10.451 51.1962 10.6499C51.0305 10.8487 50.8018 11.0211 50.5101 11.1669C50.2185 11.3127 49.839 11.3857 49.3716 11.3857C48.7684 11.3857 48.2248 11.2448 47.7409 10.9631C47.2604 10.678 46.8792 10.2588 46.5975 9.70526C46.3191 9.14844 46.1799 8.46401 46.1799 7.65199C46.1799 6.83996 46.3174 6.14394 46.5925 5.56392C46.8709 4.9839 47.2521 4.53977 47.736 4.23153C48.2199 3.91998 48.7684 3.7642 49.3816 3.7642C49.8555 3.7642 50.2383 3.84375 50.53 4.00284C50.8217 4.15862 51.0487 4.34091 51.2111 4.54972C51.3768 4.75852 51.5044 4.94247 51.5939 5.10156H51.7033V3.86364H53.16V11.669C53.16 12.3253 53.0075 12.8639 52.7026 13.2848C52.3977 13.7057 51.985 14.0173 51.4647 14.2195C50.9476 14.4216 50.3643 14.5227 49.7147 14.5227ZM49.6998 10.1527C50.1273 10.1527 50.4886 10.0533 50.7836 9.8544C51.0819 9.65223 51.3072 9.36387 51.4597 8.98935C51.6155 8.61151 51.6934 8.15909 51.6934 7.6321C51.6934 7.11837 51.6171 6.66596 51.4647 6.27486C51.3122 5.88376 51.0885 5.57884 50.7935 5.36009C50.4985 5.13802 50.1339 5.02699 49.6998 5.02699C49.2523 5.02699 48.8794 5.14299 48.5811 5.375C48.2828 5.60369 48.0575 5.91525 47.905 6.30966C47.7559 6.70407 47.6813 7.14489 47.6813 7.6321C47.6813 8.13258 47.7575 8.57173 47.91 8.94957C48.0624 9.32741 48.2878 9.6224 48.5861 9.83452C48.8877 10.0466 49.2589 10.1527 49.6998 10.1527ZM56.6401 6.96591V11.5H55.1536V3.86364H56.5804V5.10653H56.6749C56.8506 4.70218 57.1257 4.37737 57.5002 4.1321C57.878 3.88684 58.3536 3.7642 58.927 3.7642C59.4474 3.7642 59.9031 3.87358 60.2942 4.09233C60.6853 4.30777 60.9886 4.62926 61.204 5.05682C61.4194 5.48437 61.5272 6.01302 61.5272 6.64276V11.5H60.0407V6.82173C60.0407 6.26823 59.8965 5.8357 59.6081 5.52415C59.3198 5.20928 58.9237 5.05185 58.4199 5.05185C58.0752 5.05185 57.7686 5.12642 57.5002 5.27557C57.235 5.42472 57.0246 5.64347 56.8688 5.93182C56.7163 6.21686 56.6401 6.56155 56.6401 6.96591ZM68.0201 6.55327V7.84091H63.5059V6.55327H68.0201ZM71.4877 1.31818V11.5H70.0012V1.31818H71.4877ZM76.7788 11.6541C76.0264 11.6541 75.3784 11.4934 74.8349 11.1719C74.2946 10.8471 73.877 10.3913 73.582 9.80469C73.2904 9.21473 73.1445 8.52367 73.1445 7.73153C73.1445 6.94934 73.2904 6.25994 73.582 5.66335C73.877 5.06676 74.288 4.60109 74.815 4.26633C75.3453 3.93158 75.9651 3.7642 76.6744 3.7642C77.1052 3.7642 77.5228 3.83546 77.9272 3.97798C78.3316 4.1205 78.6945 4.34422 79.016 4.64915C79.3375 4.95407 79.591 5.35014 79.7766 5.83736C79.9622 6.32126 80.055 6.90956 80.055 7.60227V8.12926H73.9847V7.01562H78.5984C78.5984 6.62453 78.5188 6.27817 78.3597 5.97656C78.2006 5.67164 77.9769 5.43134 77.6886 5.25568C77.4035 5.08002 77.0688 4.99219 76.6843 4.99219C76.2667 4.99219 75.9021 5.09493 75.5906 5.30043C75.2823 5.5026 75.0437 5.76776 74.8746 6.09588C74.7089 6.42069 74.6261 6.77367 74.6261 7.15483V8.02486C74.6261 8.53527 74.7156 8.96946 74.8945 9.32741C75.0768 9.68537 75.3304 9.95881 75.6552 10.1477C75.98 10.3333 76.3595 10.4261 76.7937 10.4261C77.0754 10.4261 77.3323 10.3864 77.5643 10.3068C77.7963 10.224 77.9968 10.1013 78.1658 9.93892C78.3349 9.77652 78.4641 9.57599 78.5536 9.33736L79.9606 9.59091C79.8479 10.0052 79.6457 10.3681 79.354 10.6797C79.0657 10.9879 78.7028 11.2282 78.2653 11.4006C77.8311 11.5696 77.3356 11.6541 76.7788 11.6541ZM85.3386 3.86364V5.05682H81.0233V3.86364H85.3386ZM82.2065 11.5V2.97869C82.2065 2.50142 82.3109 2.10535 82.5197 1.79048C82.7285 1.4723 83.0053 1.23532 83.35 1.07955C83.6947 0.920454 84.0692 0.840908 84.4735 0.840908C84.7718 0.840908 85.027 0.865767 85.2392 0.915483C85.4513 0.961884 85.6087 1.00497 85.7115 1.04474L85.3635 2.24787C85.2939 2.22798 85.2044 2.20478 85.095 2.17827C84.9856 2.14844 84.853 2.13352 84.6973 2.13352C84.336 2.13352 84.0775 2.22301 83.9217 2.40199C83.7692 2.58097 83.693 2.83949 83.693 3.17756V11.5H82.2065ZM90.437 3.86364V5.05682H86.2658V3.86364H90.437ZM87.3844 2.03409H88.8709V9.25781C88.8709 9.54616 88.914 9.76326 89.0002 9.90909C89.0864 10.0516 89.1974 10.1494 89.3333 10.2024C89.4725 10.2521 89.6233 10.277 89.7857 10.277C89.905 10.277 90.0094 10.2687 90.0989 10.2521C90.1884 10.2356 90.258 10.2223 90.3077 10.2124L90.5762 11.4403C90.49 11.4735 90.3674 11.5066 90.2083 11.5398C90.0492 11.5762 89.8503 11.5961 89.6117 11.5994C89.2206 11.6061 88.856 11.5365 88.5179 11.3906C88.1799 11.2448 87.9064 11.0194 87.6976 10.7145C87.4888 10.4096 87.3844 10.0268 87.3844 9.56605V2.03409Z" fill="currentColor"/>
</svg>
