<svg width="100" height="15" viewBox="0 0 100 15" fill="none" xmlns="http://www.w3.org/2000/svg">
<path d="M4.63352 3.86364V5.05682H0.318182V3.86364H4.63352ZM1.50142 11.5V2.97869C1.50142 2.50142 1.60582 2.10535 1.81463 1.79048C2.02344 1.4723 2.30019 1.23532 2.64489 1.07955C2.98958 0.920454 3.36411 0.840908 3.76847 0.840908C4.06676 0.840908 4.32197 0.865767 4.53409 0.915483C4.74621 0.961884 4.90365 1.00497 5.00639 1.04474L4.65838 2.24787C4.58878 2.22798 4.49929 2.20478 4.38991 2.17827C4.28054 2.14844 4.14796 2.13352 3.99219 2.13352C3.63092 2.13352 3.3724 2.22301 3.21662 2.40199C3.06416 2.58097 2.98793 2.83949 2.98793 3.17756V11.5H1.50142ZM7.65376 1.31818V11.5H6.16726V1.31818H7.65376ZM12.9448 11.6541C12.1924 11.6541 11.5444 11.4934 11.0009 11.1719C10.4606 10.8471 10.043 10.3913 9.74805 9.80469C9.45638 9.21473 9.31055 8.52367 9.31055 7.73153C9.31055 6.94934 9.45638 6.25994 9.74805 5.66335C10.043 5.06676 10.454 4.60109 10.981 4.26633C11.5113 3.93158 12.1311 3.7642 12.8404 3.7642C13.2712 3.7642 13.6889 3.83546 14.0932 3.97798C14.4976 4.1205 14.8605 4.34422 15.182 4.64915C15.5035 4.95407 15.757 5.35014 15.9426 5.83736C16.1283 6.32126 16.2211 6.90956 16.2211 7.60227V8.12926H10.1507V7.01562H14.7644C14.7644 6.62453 14.6848 6.27817 14.5257 5.97656C14.3667 5.67164 14.1429 5.43134 13.8546 5.25568C13.5695 5.08002 13.2348 4.99219 12.8503 4.99219C12.4327 4.99219 12.0681 5.09493 11.7566 5.30043C11.4483 5.5026 11.2097 5.76776 11.0407 6.09588C10.8749 6.42069 10.7921 6.77367 10.7921 7.15483V8.02486C10.7921 8.53527 10.8816 8.96946 11.0605 9.32741C11.2428 9.68537 11.4964 9.95881 11.8212 10.1477C12.146 10.3333 12.5255 10.4261 12.9597 10.4261C13.2414 10.4261 13.4983 10.3864 13.7303 10.3068C13.9623 10.224 14.1628 10.1013 14.3319 9.93892C14.5009 9.77652 14.6301 9.57599 14.7196 9.33736L16.1266 9.59091C16.0139 10.0052 15.8117 10.3681 15.5201 10.6797C15.2317 10.9879 14.8688 11.2282 14.4313 11.4006C13.9971 11.5696 13.5016 11.6541 12.9448 11.6541ZM18.8659 3.86364L20.5513 6.83665L22.2516 3.86364H23.8773L21.4959 7.68182L23.8972 11.5H22.2715L20.5513 8.64631L18.8361 11.5H17.2054L19.5819 7.68182L17.2353 3.86364H18.8659ZM29.5884 6.55327V7.84091H25.0742V6.55327H29.5884ZM33.7919 11.669C33.308 11.669 32.8705 11.5795 32.4794 11.4006C32.0883 11.2183 31.7784 10.9548 31.5497 10.6101C31.3243 10.2654 31.2116 9.8428 31.2116 9.34233C31.2116 8.91146 31.2945 8.55682 31.4602 8.27841C31.6259 8 31.8497 7.77959 32.1314 7.61719C32.4131 7.45478 32.728 7.33215 33.076 7.24929C33.424 7.16643 33.7786 7.10346 34.1399 7.06037C34.5973 7.00734 34.9685 6.96425 35.2536 6.93111C35.5386 6.89465 35.7457 6.83665 35.875 6.7571C36.0043 6.67756 36.0689 6.5483 36.0689 6.36932V6.33452C36.0689 5.90033 35.9463 5.56392 35.701 5.32528C35.459 5.08665 35.0978 4.96733 34.6172 4.96733C34.1167 4.96733 33.7223 5.07836 33.4339 5.30043C33.1489 5.51918 32.9517 5.76278 32.8423 6.03125L31.4453 5.71307C31.611 5.24905 31.853 4.87453 32.1712 4.58949C32.4927 4.30114 32.8622 4.09233 33.2798 3.96307C33.6974 3.83049 34.1366 3.7642 34.5973 3.7642C34.9022 3.7642 35.2254 3.80066 35.5668 3.87358C35.9115 3.94318 36.233 4.07244 36.5312 4.26136C36.8329 4.45028 37.0798 4.72041 37.272 5.07173C37.4643 5.41974 37.5604 5.87216 37.5604 6.42898V11.5H36.1087V10.456H36.049C35.9529 10.6482 35.8087 10.8371 35.6165 11.0227C35.4242 11.2083 35.1773 11.3625 34.8757 11.4851C34.5741 11.6077 34.2128 11.669 33.7919 11.669ZM34.1151 10.4759C34.526 10.4759 34.8774 10.3946 35.169 10.2322C35.464 10.0698 35.6877 9.85772 35.8402 9.59588C35.996 9.33073 36.0739 9.04735 36.0739 8.74574V7.76136C36.0208 7.81439 35.9181 7.86411 35.7656 7.91051C35.6165 7.9536 35.4458 7.99171 35.2536 8.02486C35.0613 8.05469 34.8741 8.08286 34.6918 8.10938C34.5095 8.13258 34.357 8.15246 34.2344 8.16903C33.946 8.20549 33.6825 8.26681 33.4439 8.35298C33.2086 8.43916 33.0196 8.56345 32.8771 8.72585C32.7379 8.88494 32.6683 9.09706 32.6683 9.36222C32.6683 9.73011 32.8042 10.0085 33.076 10.1974C33.3478 10.383 33.6941 10.4759 34.1151 10.4759ZM41.0268 1.31818V11.5H39.5403V1.31818H41.0268ZM43.0266 11.5V3.86364H44.5131V11.5H43.0266ZM43.7773 2.68537C43.5188 2.68537 43.2968 2.59919 43.1112 2.42685C42.9289 2.25118 42.8377 2.04238 42.8377 1.80043C42.8377 1.55516 42.9289 1.34635 43.1112 1.17401C43.2968 0.998342 43.5188 0.910511 43.7773 0.910511C44.0359 0.910511 44.2563 0.998342 44.4386 1.17401C44.6242 1.34635 44.717 1.55516 44.717 1.80043C44.717 2.04238 44.6242 2.25118 44.4386 2.42685C44.2563 2.59919 44.0359 2.68537 43.7773 2.68537ZM49.7147 14.5227C49.1081 14.5227 48.5861 14.4432 48.1486 14.2841C47.7144 14.125 47.3598 13.9145 47.0847 13.6527C46.8096 13.3909 46.6041 13.1042 46.4682 12.7926L47.7459 12.2656C47.8354 12.4115 47.9547 12.5656 48.1039 12.728C48.2563 12.8937 48.4618 13.0346 48.7203 13.1506C48.9822 13.2666 49.3186 13.3246 49.7296 13.3246C50.293 13.3246 50.7587 13.187 51.1266 12.9119C51.4945 12.6402 51.6784 12.206 51.6784 11.6094V10.108H51.584C51.4945 10.2704 51.3652 10.451 51.1962 10.6499C51.0305 10.8487 50.8018 11.0211 50.5101 11.1669C50.2185 11.3127 49.839 11.3857 49.3716 11.3857C48.7684 11.3857 48.2248 11.2448 47.7409 10.9631C47.2604 10.678 46.8792 10.2588 46.5975 9.70526C46.3191 9.14844 46.1799 8.46401 46.1799 7.65199C46.1799 6.83996 46.3174 6.14394 46.5925 5.56392C46.8709 4.9839 47.2521 4.53977 47.736 4.23153C48.2199 3.91998 48.7684 3.7642 49.3816 3.7642C49.8555 3.7642 50.2383 3.84375 50.53 4.00284C50.8217 4.15862 51.0487 4.34091 51.2111 4.54972C51.3768 4.75852 51.5044 4.94247 51.5939 5.10156H51.7033V3.86364H53.16V11.669C53.16 12.3253 53.0075 12.8639 52.7026 13.2848C52.3977 13.7057 51.985 14.0173 51.4647 14.2195C50.9476 14.4216 50.3643 14.5227 49.7147 14.5227ZM49.6998 10.1527C50.1273 10.1527 50.4886 10.0533 50.7836 9.8544C51.0819 9.65223 51.3072 9.36387 51.4597 8.98935C51.6155 8.61151 51.6934 8.15909 51.6934 7.6321C51.6934 7.11837 51.6171 6.66596 51.4647 6.27486C51.3122 5.88376 51.0885 5.57884 50.7935 5.36009C50.4985 5.13802 50.1339 5.02699 49.6998 5.02699C49.2523 5.02699 48.8794 5.14299 48.5811 5.375C48.2828 5.60369 48.0575 5.91525 47.905 6.30966C47.7559 6.70407 47.6813 7.14489 47.6813 7.6321C47.6813 8.13258 47.7575 8.57173 47.91 8.94957C48.0624 9.32741 48.2878 9.6224 48.5861 9.83452C48.8877 10.0466 49.2589 10.1527 49.6998 10.1527ZM56.6401 6.96591V11.5H55.1536V3.86364H56.5804V5.10653H56.6749C56.8506 4.70218 57.1257 4.37737 57.5002 4.1321C57.878 3.88684 58.3536 3.7642 58.927 3.7642C59.4474 3.7642 59.9031 3.87358 60.2942 4.09233C60.6853 4.30777 60.9886 4.62926 61.204 5.05682C61.4194 5.48437 61.5272 6.01302 61.5272 6.64276V11.5H60.0407V6.82173C60.0407 6.26823 59.8965 5.8357 59.6081 5.52415C59.3198 5.20928 58.9237 5.05185 58.4199 5.05185C58.0752 5.05185 57.7686 5.12642 57.5002 5.27557C57.235 5.42472 57.0246 5.64347 56.8688 5.93182C56.7163 6.21686 56.6401 6.56155 56.6401 6.96591ZM68.0201 6.55327V7.84091H63.5059V6.55327H68.0201ZM70.0012 11.5V3.86364H71.438V5.0767H71.5176C71.6568 4.66572 71.902 4.34257 72.2534 4.10724C72.608 3.86861 73.0091 3.74929 73.4565 3.74929C73.5493 3.74929 73.6587 3.7526 73.7846 3.75923C73.9139 3.76586 74.015 3.77415 74.0879 3.78409V5.20597C74.0282 5.18939 73.9222 5.17116 73.7697 5.15128C73.6172 5.12808 73.4648 5.11648 73.3123 5.11648C72.961 5.11648 72.6478 5.19105 72.3727 5.3402C72.1009 5.48603 71.8855 5.68987 71.7264 5.9517C71.5673 6.21023 71.4877 6.50521 71.4877 6.83665V11.5H70.0012ZM75.3743 11.5V3.86364H76.8608V11.5H75.3743ZM76.125 2.68537C75.8665 2.68537 75.6444 2.59919 75.4588 2.42685C75.2765 2.25118 75.1854 2.04238 75.1854 1.80043C75.1854 1.55516 75.2765 1.34635 75.4588 1.17401C75.6444 0.998342 75.8665 0.910511 76.125 0.910511C76.3835 0.910511 76.6039 0.998342 76.7862 1.17401C76.9718 1.34635 77.0646 1.55516 77.0646 1.80043C77.0646 2.04238 76.9718 2.25118 76.7862 2.42685C76.6039 2.59919 76.3835 2.68537 76.125 2.68537ZM82.0623 14.5227C81.4558 14.5227 80.9338 14.4432 80.4963 14.2841C80.0621 14.125 79.7074 13.9145 79.4324 13.6527C79.1573 13.3909 78.9518 13.1042 78.8159 12.7926L80.0936 12.2656C80.1831 12.4115 80.3024 12.5656 80.4515 12.728C80.604 12.8937 80.8095 13.0346 81.068 13.1506C81.3298 13.2666 81.6663 13.3246 82.0772 13.3246C82.6407 13.3246 83.1064 13.187 83.4743 12.9119C83.8422 12.6402 84.0261 12.206 84.0261 11.6094V10.108H83.9316C83.8422 10.2704 83.7129 10.451 83.5439 10.6499C83.3781 10.8487 83.1494 11.0211 82.8578 11.1669C82.5661 11.3127 82.1866 11.3857 81.7193 11.3857C81.1161 11.3857 80.5725 11.2448 80.0886 10.9631C79.608 10.678 79.2269 10.2588 78.9451 9.70526C78.6667 9.14844 78.5275 8.46401 78.5275 7.65199C78.5275 6.83996 78.6651 6.14394 78.9402 5.56392C79.2186 4.9839 79.5997 4.53977 80.0836 4.23153C80.5675 3.91998 81.1161 3.7642 81.7292 3.7642C82.2032 3.7642 82.586 3.84375 82.8777 4.00284C83.1693 4.15862 83.3964 4.34091 83.5588 4.54972C83.7245 4.75852 83.8521 4.94247 83.9416 5.10156H84.051V3.86364H85.5076V11.669C85.5076 12.3253 85.3552 12.8639 85.0502 13.2848C84.7453 13.7057 84.3327 14.0173 83.8123 14.2195C83.2953 14.4216 82.7119 14.5227 82.0623 14.5227ZM82.0474 10.1527C82.475 10.1527 82.8362 10.0533 83.1312 9.8544C83.4295 9.65223 83.6549 9.36387 83.8074 8.98935C83.9631 8.61151 84.041 8.15909 84.041 7.6321C84.041 7.11837 83.9648 6.66596 83.8123 6.27486C83.6599 5.88376 83.4361 5.57884 83.1412 5.36009C82.8462 5.13802 82.4816 5.02699 82.0474 5.02699C81.6 5.02699 81.2271 5.14299 80.9288 5.375C80.6305 5.60369 80.4051 5.91525 80.2527 6.30966C80.1035 6.70407 80.0289 7.14489 80.0289 7.6321C80.0289 8.13258 80.1052 8.57173 80.2576 8.94957C80.4101 9.32741 80.6355 9.6224 80.9338 9.83452C81.2354 10.0466 81.6066 10.1527 82.0474 10.1527ZM88.9877 6.96591V11.5H87.5012V1.31818H88.9679V5.10653H89.0623C89.2413 4.69555 89.5147 4.36908 89.8826 4.12713C90.2505 3.88518 90.7311 3.7642 91.3244 3.7642C91.8481 3.7642 92.3055 3.87192 92.6966 4.08736C93.091 4.30279 93.3959 4.62429 93.6113 5.05185C93.8301 5.47609 93.9395 6.00639 93.9395 6.64276V11.5H92.4529V6.82173C92.4529 6.2616 92.3088 5.82741 92.0204 5.51918C91.7321 5.20762 91.331 5.05185 90.8173 5.05185C90.466 5.05185 90.1511 5.12642 89.8727 5.27557C89.5976 5.42472 89.3805 5.64347 89.2214 5.93182C89.0656 6.21686 88.9877 6.56155 88.9877 6.96591ZM99.4877 3.86364V5.05682H95.3166V3.86364H99.4877ZM96.4352 2.03409H97.9217V9.25781C97.9217 9.54616 97.9648 9.76326 98.051 9.90909C98.1371 10.0516 98.2482 10.1494 98.3841 10.2024C98.5233 10.2521 98.6741 10.277 98.8365 10.277C98.9558 10.277 99.0602 10.2687 99.1497 10.2521C99.2392 10.2356 99.3088 10.2223 99.3585 10.2124L99.627 11.4403C99.5408 11.4735 99.4181 11.5066 99.2591 11.5398C99.1 11.5762 98.9011 11.5961 98.6625 11.5994C98.2714 11.6061 97.9068 11.5365 97.5687 11.3906C97.2306 11.2448 96.9572 11.0194 96.7484 10.7145C96.5396 10.4096 96.4352 10.0268 96.4352 9.56605V2.03409Z" fill="currentColor"/>
</svg>
