<svg width="50" height="15" viewBox="0 0 50 15" fill="none" xmlns="http://www.w3.org/2000/svg">
<path d="M4.20099 14.5227C3.59446 14.5227 3.07244 14.4432 2.63494 14.2841C2.20076 14.125 1.84612 13.9145 1.57102 13.6527C1.29593 13.3909 1.09044 13.1042 0.954545 12.7926L2.23224 12.2656C2.32173 12.4115 2.44105 12.5656 2.5902 12.728C2.74266 12.8937 2.94815 13.0346 3.20668 13.1506C3.46851 13.2666 3.80492 13.3246 4.21591 13.3246C4.77936 13.3246 5.24503 13.187 5.61293 12.9119C5.98082 12.6402 6.16477 12.206 6.16477 11.6094V10.108H6.07031C5.98082 10.2704 5.85156 10.451 5.68253 10.6499C5.51681 10.8487 5.28812 11.0211 4.99645 11.1669C4.70478 11.3127 4.32528 11.3857 3.85795 11.3857C3.25473 11.3857 2.71117 11.2448 2.22727 10.9631C1.74669 10.678 1.36553 10.2588 1.08381 9.70526C0.805398 9.14844 0.666193 8.46401 0.666193 7.65199C0.666193 6.83996 0.803741 6.14394 1.07884 5.56392C1.35724 4.9839 1.7384 4.53977 2.2223 4.23153C2.7062 3.91998 3.25473 3.7642 3.8679 3.7642C4.34186 3.7642 4.72467 3.84375 5.01634 4.00284C5.308 4.15862 5.53504 4.34091 5.69744 4.54972C5.86316 4.75852 5.99077 4.94247 6.08026 5.10156H6.18963V3.86364H7.64631V11.669C7.64631 12.3253 7.49385 12.8639 7.18892 13.2848C6.884 13.7057 6.47135 14.0173 5.95099 14.2195C5.43395 14.4216 4.85062 14.5227 4.20099 14.5227ZM4.18608 10.1527C4.61364 10.1527 4.97491 10.0533 5.26989 9.8544C5.56818 9.65223 5.79356 9.36387 5.94602 8.98935C6.1018 8.61151 6.17969 8.15909 6.17969 7.6321C6.17969 7.11837 6.10346 6.66596 5.95099 6.27486C5.79853 5.88376 5.57481 5.57884 5.27983 5.36009C4.98485 5.13802 4.62027 5.02699 4.18608 5.02699C3.73864 5.02699 3.36577 5.14299 3.06747 5.375C2.76918 5.60369 2.5438 5.91525 2.39134 6.30966C2.24219 6.70407 2.16761 7.14489 2.16761 7.6321C2.16761 8.13258 2.24384 8.57173 2.39631 8.94957C2.54877 9.32741 2.77415 9.6224 3.07244 9.83452C3.37405 10.0466 3.74527 10.1527 4.18608 10.1527ZM9.63991 11.5V3.86364H11.0767V5.0767H11.1562C11.2955 4.66572 11.5407 4.34257 11.892 4.10724C12.2467 3.86861 12.6477 3.74929 13.0952 3.74929C13.188 3.74929 13.2973 3.7526 13.4233 3.75923C13.5526 3.76586 13.6536 3.77415 13.7266 3.78409V5.20597C13.6669 5.18939 13.5608 5.17116 13.4084 5.15128C13.2559 5.12808 13.1035 5.11648 12.951 5.11648C12.5997 5.11648 12.2865 5.19105 12.0114 5.3402C11.7396 5.48603 11.5241 5.68987 11.3651 5.9517C11.206 6.21023 11.1264 6.50521 11.1264 6.83665V11.5H9.63991ZM15.013 11.5V3.86364H16.4995V11.5H15.013ZM15.7637 2.68537C15.5051 2.68537 15.2831 2.59919 15.0975 2.42685C14.9152 2.25118 14.824 2.04238 14.824 1.80043C14.824 1.55516 14.9152 1.34635 15.0975 1.17401C15.2831 0.998342 15.5051 0.910511 15.7637 0.910511C16.0222 0.910511 16.2426 0.998342 16.4249 1.17401C16.6105 1.34635 16.7033 1.55516 16.7033 1.80043C16.7033 2.04238 16.6105 2.25118 16.4249 2.42685C16.2426 2.59919 16.0222 2.68537 15.7637 2.68537ZM21.358 11.6491C20.7415 11.6491 20.1913 11.4917 19.7074 11.1768C19.2268 10.8587 18.849 10.4062 18.5739 9.8196C18.3021 9.22964 18.1662 8.52202 18.1662 7.69673C18.1662 6.87145 18.3037 6.16548 18.5788 5.57884C18.8572 4.99219 19.2384 4.54309 19.7223 4.23153C20.2062 3.91998 20.7547 3.7642 21.3679 3.7642C21.8419 3.7642 22.223 3.84375 22.5114 4.00284C22.803 4.15862 23.0284 4.34091 23.1875 4.54972C23.3499 4.75852 23.4759 4.94247 23.5653 5.10156H23.6548V1.31818H25.1413V11.5H23.6896V10.3118H23.5653C23.4759 10.4742 23.3466 10.6598 23.1776 10.8686C23.0118 11.0774 22.7831 11.2597 22.4915 11.4155C22.1998 11.5713 21.822 11.6491 21.358 11.6491ZM21.6861 10.3814C22.1136 10.3814 22.4749 10.2687 22.7699 10.0433C23.0682 9.81463 23.2936 9.49811 23.446 9.09375C23.6018 8.68939 23.6797 8.21875 23.6797 7.68182C23.6797 7.15151 23.6035 6.6875 23.451 6.28977C23.2985 5.89205 23.0748 5.58215 22.7798 5.36009C22.4848 5.13802 22.1203 5.02699 21.6861 5.02699C21.2386 5.02699 20.8658 5.14299 20.5675 5.375C20.2692 5.60701 20.0438 5.92353 19.8913 6.32457C19.7422 6.72562 19.6676 7.17803 19.6676 7.68182C19.6676 8.19223 19.7438 8.65128 19.8963 9.05895C20.0488 9.46662 20.2741 9.78977 20.5724 10.0284C20.8741 10.2637 21.2453 10.3814 21.6861 10.3814ZM31.7623 6.55327V7.84091H27.248V6.55327H31.7623ZM37.2683 11.669C36.4828 11.6657 35.8116 11.4586 35.2548 11.0476C34.698 10.6366 34.2721 10.0384 33.9771 9.25284C33.6821 8.46733 33.5346 7.52107 33.5346 6.41406C33.5346 5.31037 33.6821 4.36742 33.9771 3.58523C34.2754 2.80303 34.7029 2.20644 35.2598 1.79545C35.8199 1.38447 36.4894 1.17898 37.2683 1.17898C38.0472 1.17898 38.715 1.38613 39.2718 1.80043C39.8287 2.21141 40.2546 2.808 40.5495 3.5902C40.8478 4.36908 40.997 5.31037 40.997 6.41406C40.997 7.52438 40.8495 8.4723 40.5545 9.25781C40.2595 10.04 39.8336 10.6383 39.2768 11.0526C38.72 11.4635 38.0505 11.669 37.2683 11.669ZM37.2683 10.3416C37.9577 10.3416 38.4963 10.0052 38.8841 9.33239C39.2752 8.65956 39.4707 7.68679 39.4707 6.41406C39.4707 5.56889 39.3812 4.85464 39.2022 4.27131C39.0266 3.68466 38.773 3.24053 38.4416 2.93892C38.1135 2.634 37.7224 2.48153 37.2683 2.48153C36.5822 2.48153 36.0436 2.8196 35.6525 3.49574C35.2614 4.17187 35.0642 5.14465 35.0609 6.41406C35.0609 7.26255 35.1487 7.98011 35.3244 8.56676C35.5034 9.15009 35.7569 9.59257 36.085 9.89418C36.4132 10.1925 36.8076 10.3416 37.2683 10.3416ZM46.3054 11.6392C45.6226 11.6392 45.0128 11.5215 44.4759 11.2862C43.9422 11.0509 43.5196 10.7244 43.2081 10.3068C42.8999 9.88589 42.7341 9.39867 42.7109 8.84517H44.272C44.2919 9.14678 44.393 9.40862 44.5753 9.63068C44.7609 9.84943 45.0028 10.0185 45.3011 10.1378C45.5994 10.2571 45.9309 10.3168 46.2955 10.3168C46.6965 10.3168 47.0511 10.2472 47.3594 10.108C47.6709 9.96875 47.9145 9.77486 48.0902 9.52628C48.2659 9.27438 48.3537 8.98438 48.3537 8.65625C48.3537 8.31487 48.2659 8.01491 48.0902 7.75639C47.9179 7.49455 47.6643 7.28906 47.3295 7.13991C46.9981 6.99077 46.5971 6.91619 46.1264 6.91619H45.2663V5.66335H46.1264C46.5043 5.66335 46.8357 5.59541 47.1207 5.45952C47.4091 5.32363 47.6345 5.13471 47.7969 4.89276C47.9593 4.64749 48.0405 4.3608 48.0405 4.03267C48.0405 3.7178 47.9692 3.44437 47.8267 3.21236C47.6875 2.97704 47.4886 2.79309 47.2301 2.66051C46.9749 2.52794 46.6733 2.46165 46.3253 2.46165C45.9938 2.46165 45.6839 2.52296 45.3956 2.6456C45.1106 2.76491 44.8786 2.93726 44.6996 3.16264C44.5206 3.38471 44.4245 3.65151 44.4112 3.96307H42.9247C42.9413 3.41288 43.1037 2.92898 43.4119 2.51136C43.7235 2.09375 44.1345 1.76728 44.6449 1.53196C45.1553 1.29664 45.7221 1.17898 46.3452 1.17898C46.9981 1.17898 47.5616 1.30658 48.0355 1.56179C48.5128 1.81368 48.8807 2.15009 49.1392 2.57102C49.401 2.99195 49.5303 3.45265 49.527 3.95312C49.5303 4.5232 49.3712 5.0071 49.0497 5.40483C48.7315 5.80256 48.3073 6.06937 47.777 6.20526V6.2848C48.4531 6.38755 48.9768 6.65601 49.348 7.0902C49.7225 7.52438 49.9081 8.06297 49.9048 8.70597C49.9081 9.2661 49.7524 9.76823 49.4375 10.2124C49.1259 10.6565 48.7 11.0062 48.1598 11.2614C47.6196 11.5133 47.0014 11.6392 46.3054 11.6392Z" fill="currentColor"/>
</svg>
