<svg width="186" height="15" viewBox="0 0 186 15" fill="none" xmlns="http://www.w3.org/2000/svg">
<path d="M4.20099 14.5227C3.59446 14.5227 3.07244 14.4432 2.63494 14.2841C2.20076 14.125 1.84612 13.9145 1.57102 13.6527C1.29593 13.3909 1.09044 13.1042 0.954545 12.7926L2.23224 12.2656C2.32173 12.4115 2.44105 12.5656 2.5902 12.728C2.74266 12.8937 2.94815 13.0346 3.20668 13.1506C3.46851 13.2666 3.80492 13.3246 4.21591 13.3246C4.77936 13.3246 5.24503 13.187 5.61293 12.9119C5.98082 12.6402 6.16477 12.206 6.16477 11.6094V10.108H6.07031C5.98082 10.2704 5.85156 10.451 5.68253 10.6499C5.51681 10.8487 5.28812 11.0211 4.99645 11.1669C4.70478 11.3127 4.32528 11.3857 3.85795 11.3857C3.25473 11.3857 2.71117 11.2448 2.22727 10.9631C1.74669 10.678 1.36553 10.2588 1.08381 9.70526C0.805398 9.14844 0.666193 8.46401 0.666193 7.65199C0.666193 6.83996 0.803741 6.14394 1.07884 5.56392C1.35724 4.9839 1.7384 4.53977 2.2223 4.23153C2.7062 3.91998 3.25473 3.7642 3.8679 3.7642C4.34186 3.7642 4.72467 3.84375 5.01634 4.00284C5.308 4.15862 5.53504 4.34091 5.69744 4.54972C5.86316 4.75852 5.99077 4.94247 6.08026 5.10156H6.18963V3.86364H7.64631V11.669C7.64631 12.3253 7.49385 12.8639 7.18892 13.2848C6.884 13.7057 6.47135 14.0173 5.95099 14.2195C5.43395 14.4216 4.85062 14.5227 4.20099 14.5227ZM4.18608 10.1527C4.61364 10.1527 4.97491 10.0533 5.26989 9.8544C5.56818 9.65223 5.79356 9.36387 5.94602 8.98935C6.1018 8.61151 6.17969 8.15909 6.17969 7.6321C6.17969 7.11837 6.10346 6.66596 5.95099 6.27486C5.79853 5.88376 5.57481 5.57884 5.27983 5.36009C4.98485 5.13802 4.62027 5.02699 4.18608 5.02699C3.73864 5.02699 3.36577 5.14299 3.06747 5.375C2.76918 5.60369 2.5438 5.91525 2.39134 6.30966C2.24219 6.70407 2.16761 7.14489 2.16761 7.6321C2.16761 8.13258 2.24384 8.57173 2.39631 8.94957C2.54877 9.32741 2.77415 9.6224 3.07244 9.83452C3.37405 10.0466 3.74527 10.1527 4.18608 10.1527ZM9.63991 11.5V3.86364H11.0767V5.0767H11.1562C11.2955 4.66572 11.5407 4.34257 11.892 4.10724C12.2467 3.86861 12.6477 3.74929 13.0952 3.74929C13.188 3.74929 13.2973 3.7526 13.4233 3.75923C13.5526 3.76586 13.6536 3.77415 13.7266 3.78409V5.20597C13.6669 5.18939 13.5608 5.17116 13.4084 5.15128C13.2559 5.12808 13.1035 5.11648 12.951 5.11648C12.5997 5.11648 12.2865 5.19105 12.0114 5.3402C11.7396 5.48603 11.5241 5.68987 11.3651 5.9517C11.206 6.21023 11.1264 6.50521 11.1264 6.83665V11.5H9.63991ZM15.013 11.5V3.86364H16.4995V11.5H15.013ZM15.7637 2.68537C15.5051 2.68537 15.2831 2.59919 15.0975 2.42685C14.9152 2.25118 14.824 2.04238 14.824 1.80043C14.824 1.55516 14.9152 1.34635 15.0975 1.17401C15.2831 0.998342 15.5051 0.910511 15.7637 0.910511C16.0222 0.910511 16.2426 0.998342 16.4249 1.17401C16.6105 1.34635 16.7033 1.55516 16.7033 1.80043C16.7033 2.04238 16.6105 2.25118 16.4249 2.42685C16.2426 2.59919 16.0222 2.68537 15.7637 2.68537ZM21.358 11.6491C20.7415 11.6491 20.1913 11.4917 19.7074 11.1768C19.2268 10.8587 18.849 10.4062 18.5739 9.8196C18.3021 9.22964 18.1662 8.52202 18.1662 7.69673C18.1662 6.87145 18.3037 6.16548 18.5788 5.57884C18.8572 4.99219 19.2384 4.54309 19.7223 4.23153C20.2062 3.91998 20.7547 3.7642 21.3679 3.7642C21.8419 3.7642 22.223 3.84375 22.5114 4.00284C22.803 4.15862 23.0284 4.34091 23.1875 4.54972C23.3499 4.75852 23.4759 4.94247 23.5653 5.10156H23.6548V1.31818H25.1413V11.5H23.6896V10.3118H23.5653C23.4759 10.4742 23.3466 10.6598 23.1776 10.8686C23.0118 11.0774 22.7831 11.2597 22.4915 11.4155C22.1998 11.5713 21.822 11.6491 21.358 11.6491ZM21.6861 10.3814C22.1136 10.3814 22.4749 10.2687 22.7699 10.0433C23.0682 9.81463 23.2936 9.49811 23.446 9.09375C23.6018 8.68939 23.6797 8.21875 23.6797 7.68182C23.6797 7.15151 23.6035 6.6875 23.451 6.28977C23.2985 5.89205 23.0748 5.58215 22.7798 5.36009C22.4848 5.13802 22.1203 5.02699 21.6861 5.02699C21.2386 5.02699 20.8658 5.14299 20.5675 5.375C20.2692 5.60701 20.0438 5.92353 19.8913 6.32457C19.7422 6.72562 19.6676 7.17803 19.6676 7.68182C19.6676 8.19223 19.7438 8.65128 19.8963 9.05895C20.0488 9.46662 20.2741 9.78977 20.5724 10.0284C20.8741 10.2637 21.2453 10.3814 21.6861 10.3814ZM31.7623 6.55327V7.84091H27.248V6.55327H31.7623ZM36.6021 11.6491C35.9856 11.6491 35.4354 11.4917 34.9515 11.1768C34.4709 10.8587 34.0931 10.4062 33.818 9.8196C33.5462 9.22964 33.4103 8.52202 33.4103 7.69673C33.4103 6.87145 33.5479 6.16548 33.823 5.57884C34.1014 4.99219 34.4825 4.54309 34.9664 4.23153C35.4503 3.91998 35.9989 3.7642 36.612 3.7642C37.086 3.7642 37.4672 3.84375 37.7555 4.00284C38.0472 4.15862 38.2725 4.34091 38.4316 4.54972C38.594 4.75852 38.72 4.94247 38.8095 5.10156H38.899V1.31818H40.3855V11.5H38.9338V10.3118H38.8095C38.72 10.4742 38.5907 10.6598 38.4217 10.8686C38.256 11.0774 38.0273 11.2597 37.7356 11.4155C37.444 11.5713 37.0661 11.6491 36.6021 11.6491ZM36.9302 10.3814C37.3578 10.3814 37.719 10.2687 38.014 10.0433C38.3123 9.81463 38.5377 9.49811 38.6902 9.09375C38.8459 8.68939 38.9238 8.21875 38.9238 7.68182C38.9238 7.15151 38.8476 6.6875 38.6951 6.28977C38.5427 5.89205 38.319 5.58215 38.024 5.36009C37.729 5.13802 37.3644 5.02699 36.9302 5.02699C36.4828 5.02699 36.1099 5.14299 35.8116 5.375C35.5133 5.60701 35.2879 5.92353 35.1355 6.32457C34.9863 6.72562 34.9118 7.17803 34.9118 7.68182C34.9118 8.19223 34.988 8.65128 35.1404 9.05895C35.2929 9.46662 35.5183 9.78977 35.8166 10.0284C36.1182 10.2637 36.4894 10.3814 36.9302 10.3814ZM45.7237 11.6541C45.0078 11.6541 44.383 11.4901 43.8494 11.1619C43.3158 10.8338 42.9015 10.3748 42.6065 9.7848C42.3116 9.19484 42.1641 8.50544 42.1641 7.71662C42.1641 6.92448 42.3116 6.23177 42.6065 5.63849C42.9015 5.04522 43.3158 4.58452 43.8494 4.25639C44.383 3.92827 45.0078 3.7642 45.7237 3.7642C46.4396 3.7642 47.0644 3.92827 47.598 4.25639C48.1316 4.58452 48.5459 5.04522 48.8409 5.63849C49.1359 6.23177 49.2834 6.92448 49.2834 7.71662C49.2834 8.50544 49.1359 9.19484 48.8409 9.7848C48.5459 10.3748 48.1316 10.8338 47.598 11.1619C47.0644 11.4901 46.4396 11.6541 45.7237 11.6541ZM45.7287 10.4062C46.1927 10.4062 46.5772 10.2836 46.8821 10.0384C47.187 9.79309 47.4124 9.46662 47.5582 9.05895C47.7074 8.65128 47.782 8.20218 47.782 7.71165C47.782 7.22443 47.7074 6.77699 47.5582 6.36932C47.4124 5.95833 47.187 5.62855 46.8821 5.37997C46.5772 5.13139 46.1927 5.0071 45.7287 5.0071C45.2614 5.0071 44.8736 5.13139 44.5653 5.37997C44.2604 5.62855 44.0334 5.95833 43.8842 6.36932C43.7384 6.77699 43.6655 7.22443 43.6655 7.71165C43.6655 8.20218 43.7384 8.65128 43.8842 9.05895C44.0334 9.46662 44.2604 9.79309 44.5653 10.0384C44.8736 10.2836 45.2614 10.4062 45.7287 10.4062ZM54.5073 3.86364V5.05682H50.3361V3.86364H54.5073ZM51.4547 2.03409H52.9412V9.25781C52.9412 9.54616 52.9843 9.76326 53.0705 9.90909C53.1567 10.0516 53.2677 10.1494 53.4036 10.2024C53.5428 10.2521 53.6936 10.277 53.856 10.277C53.9753 10.277 54.0797 10.2687 54.1692 10.2521C54.2587 10.2356 54.3283 10.2223 54.378 10.2124L54.6465 11.4403C54.5603 11.4735 54.4377 11.5066 54.2786 11.5398C54.1195 11.5762 53.9206 11.5961 53.682 11.5994C53.2909 11.6061 52.9263 11.5365 52.5882 11.3906C52.2502 11.2448 51.9767 11.0194 51.7679 10.7145C51.5591 10.4096 51.4547 10.0268 51.4547 9.56605V2.03409ZM61.7509 5.72798L60.4036 5.96662C60.3472 5.79427 60.2578 5.63021 60.1351 5.47443C60.0158 5.31865 59.8534 5.19105 59.6479 5.09162C59.4424 4.99219 59.1855 4.94247 58.8773 4.94247C58.4564 4.94247 58.1051 5.03693 57.8233 5.22585C57.5416 5.41146 57.4007 5.65175 57.4007 5.94673C57.4007 6.20194 57.4952 6.40743 57.6841 6.56321C57.873 6.71899 58.178 6.84659 58.5989 6.94602L59.812 7.22443C60.5146 7.38684 61.0383 7.63707 61.383 7.97514C61.7277 8.31321 61.9 8.75237 61.9 9.29261C61.9 9.75 61.7675 10.1577 61.5023 10.5156C61.2405 10.8703 60.8742 11.1487 60.4036 11.3509C59.9363 11.553 59.3944 11.6541 58.7779 11.6541C57.9228 11.6541 57.2251 11.4718 56.6848 11.1072C56.1446 10.7393 55.8132 10.2173 55.6905 9.54119L57.1273 9.32244C57.2168 9.69697 57.4007 9.98035 57.6792 10.1726C57.9576 10.3615 58.3205 10.456 58.7679 10.456C59.2551 10.456 59.6446 10.3549 59.9363 10.1527C60.2279 9.94721 60.3738 9.69697 60.3738 9.40199C60.3738 9.16335 60.2843 8.96283 60.1053 8.80043C59.9296 8.63802 59.6595 8.51539 59.2949 8.43253L58.0023 8.14915C57.2897 7.98674 56.7627 7.72822 56.4213 7.37358C56.0833 7.01894 55.9142 6.56984 55.9142 6.02628C55.9142 5.57552 56.0402 5.18111 56.2921 4.84304C56.544 4.50497 56.892 4.24148 57.3361 4.05256C57.7802 3.86032 58.289 3.7642 58.8624 3.7642C59.6877 3.7642 60.3373 3.94318 60.8113 4.30114C61.2852 4.65578 61.5984 5.13139 61.7509 5.72798ZM68.0337 6.55327V7.84091H63.5195V6.55327H68.0337ZM71.5014 6.96591V11.5H70.0149V1.31818H71.4815V5.10653H71.576C71.755 4.69555 72.0284 4.36908 72.3963 4.12713C72.7642 3.88518 73.2448 3.7642 73.8381 3.7642C74.3617 3.7642 74.8191 3.87192 75.2102 4.08736C75.6046 4.30279 75.9096 4.62429 76.125 5.05185C76.3438 5.47609 76.4531 6.00639 76.4531 6.64276V11.5H74.9666V6.82173C74.9666 6.2616 74.8224 5.82741 74.5341 5.51918C74.2457 5.20762 73.8447 5.05185 73.331 5.05185C72.9796 5.05185 72.6648 5.12642 72.3864 5.27557C72.1113 5.42472 71.8942 5.64347 71.7351 5.93182C71.5793 6.21686 71.5014 6.56155 71.5014 6.96591ZM81.6534 11.6541C80.9375 11.6541 80.3127 11.4901 79.7791 11.1619C79.2455 10.8338 78.8312 10.3748 78.5362 9.7848C78.2412 9.19484 78.0938 8.50544 78.0938 7.71662C78.0938 6.92448 78.2412 6.23177 78.5362 5.63849C78.8312 5.04522 79.2455 4.58452 79.7791 4.25639C80.3127 3.92827 80.9375 3.7642 81.6534 3.7642C82.3693 3.7642 82.9941 3.92827 83.5277 4.25639C84.0613 4.58452 84.4756 5.04522 84.7706 5.63849C85.0656 6.23177 85.2131 6.92448 85.2131 7.71662C85.2131 8.50544 85.0656 9.19484 84.7706 9.7848C84.4756 10.3748 84.0613 10.8338 83.5277 11.1619C82.9941 11.4901 82.3693 11.6541 81.6534 11.6541ZM81.6584 10.4062C82.1224 10.4062 82.5069 10.2836 82.8118 10.0384C83.1167 9.79309 83.3421 9.46662 83.4879 9.05895C83.6371 8.65128 83.7116 8.20218 83.7116 7.71165C83.7116 7.22443 83.6371 6.77699 83.4879 6.36932C83.3421 5.95833 83.1167 5.62855 82.8118 5.37997C82.5069 5.13139 82.1224 5.0071 81.6584 5.0071C81.1911 5.0071 80.8033 5.13139 80.495 5.37997C80.1901 5.62855 79.9631 5.95833 79.8139 6.36932C79.6681 6.77699 79.5952 7.22443 79.5952 7.71165C79.5952 8.20218 79.6681 8.65128 79.8139 9.05895C79.9631 9.46662 80.1901 9.79309 80.495 10.0384C80.8033 10.2836 81.1911 10.4062 81.6584 10.4062ZM86.8723 11.5V3.86364H88.3091V5.0767H88.3887C88.5279 4.66572 88.7731 4.34257 89.1245 4.10724C89.4791 3.86861 89.8801 3.74929 90.3276 3.74929C90.4204 3.74929 90.5298 3.7526 90.6557 3.75923C90.785 3.76586 90.8861 3.77415 90.959 3.78409V5.20597C90.8993 5.18939 90.7933 5.17116 90.6408 5.15128C90.4883 5.12808 90.3359 5.11648 90.1834 5.11648C89.8321 5.11648 89.5189 5.19105 89.2438 5.3402C88.972 5.48603 88.7566 5.68987 88.5975 5.9517C88.4384 6.21023 88.3588 6.50521 88.3588 6.83665V11.5H86.8723ZM92.2454 11.5V3.86364H93.7319V11.5H92.2454ZM92.9961 2.68537C92.7376 2.68537 92.5155 2.59919 92.3299 2.42685C92.1476 2.25118 92.0565 2.04238 92.0565 1.80043C92.0565 1.55516 92.1476 1.34635 92.3299 1.17401C92.5155 0.998342 92.7376 0.910511 92.9961 0.910511C93.2546 0.910511 93.475 0.998342 93.6573 1.17401C93.8429 1.34635 93.9357 1.55516 93.9357 1.80043C93.9357 2.04238 93.8429 2.25118 93.6573 2.42685C93.475 2.59919 93.2546 2.68537 92.9961 2.68537ZM95.5726 11.5V10.4808L99.709 5.22585V5.15625H95.7069V3.86364H101.563V4.94744L97.5861 10.1378V10.2074H101.703V11.5H95.5726ZM106.454 11.6541C105.738 11.6541 105.114 11.4901 104.58 11.1619C104.046 10.8338 103.632 10.3748 103.337 9.7848C103.042 9.19484 102.895 8.50544 102.895 7.71662C102.895 6.92448 103.042 6.23177 103.337 5.63849C103.632 5.04522 104.046 4.58452 104.58 4.25639C105.114 3.92827 105.738 3.7642 106.454 3.7642C107.17 3.7642 107.795 3.92827 108.328 4.25639C108.862 4.58452 109.276 5.04522 109.571 5.63849C109.866 6.23177 110.014 6.92448 110.014 7.71662C110.014 8.50544 109.866 9.19484 109.571 9.7848C109.276 10.3748 108.862 10.8338 108.328 11.1619C107.795 11.4901 107.17 11.6541 106.454 11.6541ZM106.459 10.4062C106.923 10.4062 107.308 10.2836 107.613 10.0384C107.917 9.79309 108.143 9.46662 108.289 9.05895C108.438 8.65128 108.512 8.20218 108.512 7.71165C108.512 7.22443 108.438 6.77699 108.289 6.36932C108.143 5.95833 107.917 5.62855 107.613 5.37997C107.308 5.13139 106.923 5.0071 106.459 5.0071C105.992 5.0071 105.604 5.13139 105.296 5.37997C104.991 5.62855 104.764 5.95833 104.615 6.36932C104.469 6.77699 104.396 7.22443 104.396 7.71165C104.396 8.20218 104.469 8.65128 104.615 9.05895C104.764 9.46662 104.991 9.79309 105.296 10.0384C105.604 10.2836 105.992 10.4062 106.459 10.4062ZM113.16 6.96591V11.5H111.673V3.86364H113.1V5.10653H113.194C113.37 4.70218 113.645 4.37737 114.02 4.1321C114.398 3.88684 114.873 3.7642 115.447 3.7642C115.967 3.7642 116.423 3.87358 116.814 4.09233C117.205 4.30777 117.508 4.62926 117.724 5.05682C117.939 5.48437 118.047 6.01302 118.047 6.64276V11.5H116.56V6.82173C116.56 6.26823 116.416 5.8357 116.128 5.52415C115.839 5.20928 115.443 5.05185 114.939 5.05185C114.595 5.05185 114.288 5.12642 114.02 5.27557C113.755 5.42472 113.544 5.64347 113.388 5.93182C113.236 6.21686 113.16 6.56155 113.16 6.96591ZM123.605 3.86364V5.05682H119.434V3.86364H123.605ZM120.552 2.03409H122.039V9.25781C122.039 9.54616 122.082 9.76326 122.168 9.90909C122.254 10.0516 122.365 10.1494 122.501 10.2024C122.64 10.2521 122.791 10.277 122.954 10.277C123.073 10.277 123.177 10.2687 123.267 10.2521C123.356 10.2356 123.426 10.2223 123.476 10.2124L123.744 11.4403C123.658 11.4735 123.535 11.5066 123.376 11.5398C123.217 11.5762 123.018 11.5961 122.78 11.5994C122.389 11.6061 122.024 11.5365 121.686 11.3906C121.348 11.2448 121.074 11.0194 120.866 10.7145C120.657 10.4096 120.552 10.0268 120.552 9.56605V2.03409ZM127.472 11.669C126.988 11.669 126.55 11.5795 126.159 11.4006C125.768 11.2183 125.458 10.9548 125.229 10.6101C125.004 10.2654 124.891 9.8428 124.891 9.34233C124.891 8.91146 124.974 8.55682 125.14 8.27841C125.306 8 125.529 7.77959 125.811 7.61719C126.093 7.45478 126.408 7.33215 126.756 7.24929C127.104 7.16643 127.458 7.10346 127.82 7.06037C128.277 7.00734 128.648 6.96425 128.933 6.93111C129.218 6.89465 129.425 6.83665 129.555 6.7571C129.684 6.67756 129.749 6.5483 129.749 6.36932V6.33452C129.749 5.90033 129.626 5.56392 129.381 5.32528C129.139 5.08665 128.777 4.96733 128.297 4.96733C127.796 4.96733 127.402 5.07836 127.114 5.30043C126.829 5.51918 126.631 5.76278 126.522 6.03125L125.125 5.71307C125.291 5.24905 125.533 4.87453 125.851 4.58949C126.172 4.30114 126.542 4.09233 126.96 3.96307C127.377 3.83049 127.816 3.7642 128.277 3.7642C128.582 3.7642 128.905 3.80066 129.246 3.87358C129.591 3.94318 129.913 4.07244 130.211 4.26136C130.513 4.45028 130.759 4.72041 130.952 5.07173C131.144 5.41974 131.24 5.87216 131.24 6.42898V11.5H129.788V10.456H129.729C129.633 10.6482 129.488 10.8371 129.296 11.0227C129.104 11.2083 128.857 11.3625 128.555 11.4851C128.254 11.6077 127.893 11.669 127.472 11.669ZM127.795 10.4759C128.206 10.4759 128.557 10.3946 128.849 10.2322C129.144 10.0698 129.367 9.85772 129.52 9.59588C129.676 9.33073 129.754 9.04735 129.754 8.74574V7.76136C129.701 7.81439 129.598 7.86411 129.445 7.91051C129.296 7.9536 129.125 7.99171 128.933 8.02486C128.741 8.05469 128.554 8.08286 128.371 8.10938C128.189 8.13258 128.037 8.15246 127.914 8.16903C127.626 8.20549 127.362 8.26681 127.124 8.35298C126.888 8.43916 126.699 8.56345 126.557 8.72585C126.418 8.88494 126.348 9.09706 126.348 9.36222C126.348 9.73011 126.484 10.0085 126.756 10.1974C127.027 10.383 127.374 10.4759 127.795 10.4759ZM134.706 1.31818V11.5H133.22V1.31818H134.706ZM141.206 6.55327V7.84091H136.691V6.55327H141.206ZM146.403 11.6541C145.664 11.6541 145.028 11.4867 144.494 11.152C143.964 10.8139 143.556 10.3482 143.271 9.75497C142.986 9.16169 142.844 8.48224 142.844 7.71662C142.844 6.94105 142.99 6.25663 143.281 5.66335C143.573 5.06676 143.984 4.60109 144.514 4.26633C145.045 3.93158 145.669 3.7642 146.388 3.7642C146.969 3.7642 147.486 3.87192 147.94 4.08736C148.394 4.29948 148.76 4.59777 149.038 4.98224C149.32 5.36671 149.487 5.81581 149.54 6.32955H148.094C148.014 5.97159 147.832 5.66335 147.547 5.40483C147.265 5.14631 146.887 5.01705 146.413 5.01705C145.999 5.01705 145.636 5.12642 145.325 5.34517C145.016 5.56061 144.776 5.86884 144.604 6.26989C144.431 6.66761 144.345 7.13826 144.345 7.68182C144.345 8.23864 144.43 8.71922 144.599 9.12358C144.768 9.52794 145.006 9.84115 145.315 10.0632C145.626 10.2853 145.992 10.3963 146.413 10.3963C146.695 10.3963 146.95 10.3449 147.179 10.2422C147.411 10.1361 147.605 9.98532 147.761 9.78977C147.92 9.59422 148.031 9.3589 148.094 9.08381H149.54C149.487 9.57765 149.327 10.0185 149.058 10.4062C148.79 10.794 148.43 11.099 147.979 11.321C147.532 11.5431 147.007 11.6541 146.403 11.6541ZM154.421 11.6541C153.669 11.6541 153.021 11.4934 152.477 11.1719C151.937 10.8471 151.52 10.3913 151.225 9.80469C150.933 9.21473 150.787 8.52367 150.787 7.73153C150.787 6.94934 150.933 6.25994 151.225 5.66335C151.52 5.06676 151.931 4.60109 152.458 4.26633C152.988 3.93158 153.608 3.7642 154.317 3.7642C154.748 3.7642 155.165 3.83546 155.57 3.97798C155.974 4.1205 156.337 4.34422 156.659 4.64915C156.98 4.95407 157.234 5.35014 157.419 5.83736C157.605 6.32126 157.698 6.90956 157.698 7.60227V8.12926H151.627V7.01562H156.241C156.241 6.62453 156.161 6.27817 156.002 5.97656C155.843 5.67164 155.619 5.43134 155.331 5.25568C155.046 5.08002 154.711 4.99219 154.327 4.99219C153.909 4.99219 153.545 5.09493 153.233 5.30043C152.925 5.5026 152.686 5.76776 152.517 6.09588C152.352 6.42069 152.269 6.77367 152.269 7.15483V8.02486C152.269 8.53527 152.358 8.96946 152.537 9.32741C152.719 9.68537 152.973 9.95881 153.298 10.1477C153.623 10.3333 154.002 10.4261 154.436 10.4261C154.718 10.4261 154.975 10.3864 155.207 10.3068C155.439 10.224 155.639 10.1013 155.808 9.93892C155.977 9.77652 156.107 9.57599 156.196 9.33736L157.603 9.59091C157.49 10.0052 157.288 10.3681 156.997 10.6797C156.708 10.9879 156.345 11.2282 155.908 11.4006C155.474 11.5696 154.978 11.6541 154.421 11.6541ZM160.833 6.96591V11.5H159.347V3.86364H160.774V5.10653H160.868C161.044 4.70218 161.319 4.37737 161.694 4.1321C162.071 3.88684 162.547 3.7642 163.12 3.7642C163.641 3.7642 164.096 3.87358 164.488 4.09233C164.879 4.30777 165.182 4.62926 165.397 5.05682C165.613 5.48437 165.721 6.01302 165.721 6.64276V11.5H164.234V6.82173C164.234 6.26823 164.09 5.8357 163.801 5.52415C163.513 5.20928 163.117 5.05185 162.613 5.05185C162.269 5.05185 161.962 5.12642 161.694 5.27557C161.428 5.42472 161.218 5.64347 161.062 5.93182C160.91 6.21686 160.833 6.56155 160.833 6.96591ZM171.279 3.86364V5.05682H167.108V3.86364H171.279ZM168.226 2.03409H169.713V9.25781C169.713 9.54616 169.756 9.76326 169.842 9.90909C169.928 10.0516 170.039 10.1494 170.175 10.2024C170.314 10.2521 170.465 10.277 170.627 10.277C170.747 10.277 170.851 10.2687 170.941 10.2521C171.03 10.2356 171.1 10.2223 171.15 10.2124L171.418 11.4403C171.332 11.4735 171.209 11.5066 171.05 11.5398C170.891 11.5762 170.692 11.5961 170.453 11.5994C170.062 11.6061 169.698 11.5365 169.36 11.3906C169.022 11.2448 168.748 11.0194 168.539 10.7145C168.331 10.4096 168.226 10.0268 168.226 9.56605V2.03409ZM176.132 11.6541C175.38 11.6541 174.732 11.4934 174.188 11.1719C173.648 10.8471 173.231 10.3913 172.936 9.80469C172.644 9.21473 172.498 8.52367 172.498 7.73153C172.498 6.94934 172.644 6.25994 172.936 5.66335C173.231 5.06676 173.642 4.60109 174.169 4.26633C174.699 3.93158 175.319 3.7642 176.028 3.7642C176.459 3.7642 176.876 3.83546 177.281 3.97798C177.685 4.1205 178.048 4.34422 178.369 4.64915C178.691 4.95407 178.945 5.35014 179.13 5.83736C179.316 6.32126 179.409 6.90956 179.409 7.60227V8.12926H173.338V7.01562H177.952C177.952 6.62453 177.872 6.27817 177.713 5.97656C177.554 5.67164 177.33 5.43134 177.042 5.25568C176.757 5.08002 176.422 4.99219 176.038 4.99219C175.62 4.99219 175.256 5.09493 174.944 5.30043C174.636 5.5026 174.397 5.76776 174.228 6.09588C174.062 6.42069 173.98 6.77367 173.98 7.15483V8.02486C173.98 8.53527 174.069 8.96946 174.248 9.32741C174.43 9.68537 174.684 9.95881 175.009 10.1477C175.334 10.3333 175.713 10.4261 176.147 10.4261C176.429 10.4261 176.686 10.3864 176.918 10.3068C177.15 10.224 177.35 10.1013 177.519 9.93892C177.688 9.77652 177.818 9.57599 177.907 9.33736L179.314 9.59091C179.201 10.0052 178.999 10.3681 178.708 10.6797C178.419 10.9879 178.056 11.2282 177.619 11.4006C177.185 11.5696 176.689 11.6541 176.132 11.6541ZM181.058 11.5V3.86364H182.495V5.0767H182.574C182.713 4.66572 182.959 4.34257 183.31 4.10724C183.665 3.86861 184.066 3.74929 184.513 3.74929C184.606 3.74929 184.715 3.7526 184.841 3.75923C184.971 3.76586 185.072 3.77415 185.145 3.78409V5.20597C185.085 5.18939 184.979 5.17116 184.826 5.15128C184.674 5.12808 184.521 5.11648 184.369 5.11648C184.018 5.11648 183.704 5.19105 183.429 5.3402C183.158 5.48603 182.942 5.68987 182.783 5.9517C182.624 6.21023 182.544 6.50521 182.544 6.83665V11.5H181.058Z" fill="currentColor"/>
</svg>
