<svg width="105" height="15" viewBox="0 0 105 15" fill="none" xmlns="http://www.w3.org/2000/svg">
<path d="M4.20099 14.5227C3.59446 14.5227 3.07244 14.4432 2.63494 14.2841C2.20076 14.125 1.84612 13.9145 1.57102 13.6527C1.29593 13.3909 1.09044 13.1042 0.954545 12.7926L2.23224 12.2656C2.32173 12.4115 2.44105 12.5656 2.5902 12.728C2.74266 12.8937 2.94815 13.0346 3.20668 13.1506C3.46851 13.2666 3.80492 13.3246 4.21591 13.3246C4.77936 13.3246 5.24503 13.187 5.61293 12.9119C5.98082 12.6402 6.16477 12.206 6.16477 11.6094V10.108H6.07031C5.98082 10.2704 5.85156 10.451 5.68253 10.6499C5.51681 10.8487 5.28812 11.0211 4.99645 11.1669C4.70478 11.3127 4.32528 11.3857 3.85795 11.3857C3.25473 11.3857 2.71117 11.2448 2.22727 10.9631C1.74669 10.678 1.36553 10.2588 1.08381 9.70526C0.805398 9.14844 0.666193 8.46401 0.666193 7.65199C0.666193 6.83996 0.803741 6.14394 1.07884 5.56392C1.35724 4.9839 1.7384 4.53977 2.2223 4.23153C2.7062 3.91998 3.25473 3.7642 3.8679 3.7642C4.34186 3.7642 4.72467 3.84375 5.01634 4.00284C5.308 4.15862 5.53504 4.34091 5.69744 4.54972C5.86316 4.75852 5.99077 4.94247 6.08026 5.10156H6.18963V3.86364H7.64631V11.669C7.64631 12.3253 7.49385 12.8639 7.18892 13.2848C6.884 13.7057 6.47135 14.0173 5.95099 14.2195C5.43395 14.4216 4.85062 14.5227 4.20099 14.5227ZM4.18608 10.1527C4.61364 10.1527 4.97491 10.0533 5.26989 9.8544C5.56818 9.65223 5.79356 9.36387 5.94602 8.98935C6.1018 8.61151 6.17969 8.15909 6.17969 7.6321C6.17969 7.11837 6.10346 6.66596 5.95099 6.27486C5.79853 5.88376 5.57481 5.57884 5.27983 5.36009C4.98485 5.13802 4.62027 5.02699 4.18608 5.02699C3.73864 5.02699 3.36577 5.14299 3.06747 5.375C2.76918 5.60369 2.5438 5.91525 2.39134 6.30966C2.24219 6.70407 2.16761 7.14489 2.16761 7.6321C2.16761 8.13258 2.24384 8.57173 2.39631 8.94957C2.54877 9.32741 2.77415 9.6224 3.07244 9.83452C3.37405 10.0466 3.74527 10.1527 4.18608 10.1527ZM9.63991 11.5V3.86364H11.0767V5.0767H11.1562C11.2955 4.66572 11.5407 4.34257 11.892 4.10724C12.2467 3.86861 12.6477 3.74929 13.0952 3.74929C13.188 3.74929 13.2973 3.7526 13.4233 3.75923C13.5526 3.76586 13.6536 3.77415 13.7266 3.78409V5.20597C13.6669 5.18939 13.5608 5.17116 13.4084 5.15128C13.2559 5.12808 13.1035 5.11648 12.951 5.11648C12.5997 5.11648 12.2865 5.19105 12.0114 5.3402C11.7396 5.48603 11.5241 5.68987 11.3651 5.9517C11.206 6.21023 11.1264 6.50521 11.1264 6.83665V11.5H9.63991ZM15.013 11.5V3.86364H16.4995V11.5H15.013ZM15.7637 2.68537C15.5051 2.68537 15.2831 2.59919 15.0975 2.42685C14.9152 2.25118 14.824 2.04238 14.824 1.80043C14.824 1.55516 14.9152 1.34635 15.0975 1.17401C15.2831 0.998342 15.5051 0.910511 15.7637 0.910511C16.0222 0.910511 16.2426 0.998342 16.4249 1.17401C16.6105 1.34635 16.7033 1.55516 16.7033 1.80043C16.7033 2.04238 16.6105 2.25118 16.4249 2.42685C16.2426 2.59919 16.0222 2.68537 15.7637 2.68537ZM21.358 11.6491C20.7415 11.6491 20.1913 11.4917 19.7074 11.1768C19.2268 10.8587 18.849 10.4062 18.5739 9.8196C18.3021 9.22964 18.1662 8.52202 18.1662 7.69673C18.1662 6.87145 18.3037 6.16548 18.5788 5.57884C18.8572 4.99219 19.2384 4.54309 19.7223 4.23153C20.2062 3.91998 20.7547 3.7642 21.3679 3.7642C21.8419 3.7642 22.223 3.84375 22.5114 4.00284C22.803 4.15862 23.0284 4.34091 23.1875 4.54972C23.3499 4.75852 23.4759 4.94247 23.5653 5.10156H23.6548V1.31818H25.1413V11.5H23.6896V10.3118H23.5653C23.4759 10.4742 23.3466 10.6598 23.1776 10.8686C23.0118 11.0774 22.7831 11.2597 22.4915 11.4155C22.1998 11.5713 21.822 11.6491 21.358 11.6491ZM21.6861 10.3814C22.1136 10.3814 22.4749 10.2687 22.7699 10.0433C23.0682 9.81463 23.2936 9.49811 23.446 9.09375C23.6018 8.68939 23.6797 8.21875 23.6797 7.68182C23.6797 7.15151 23.6035 6.6875 23.451 6.28977C23.2985 5.89205 23.0748 5.58215 22.7798 5.36009C22.4848 5.13802 22.1203 5.02699 21.6861 5.02699C21.2386 5.02699 20.8658 5.14299 20.5675 5.375C20.2692 5.60701 20.0438 5.92353 19.8913 6.32457C19.7422 6.72562 19.6676 7.17803 19.6676 7.68182C19.6676 8.19223 19.7438 8.65128 19.8963 9.05895C20.0488 9.46662 20.2741 9.78977 20.5724 10.0284C20.8741 10.2637 21.2453 10.3814 21.6861 10.3814ZM31.7623 6.55327V7.84091H27.248V6.55327H31.7623ZM36.6021 11.6491C35.9856 11.6491 35.4354 11.4917 34.9515 11.1768C34.4709 10.8587 34.0931 10.4062 33.818 9.8196C33.5462 9.22964 33.4103 8.52202 33.4103 7.69673C33.4103 6.87145 33.5479 6.16548 33.823 5.57884C34.1014 4.99219 34.4825 4.54309 34.9664 4.23153C35.4503 3.91998 35.9989 3.7642 36.612 3.7642C37.086 3.7642 37.4672 3.84375 37.7555 4.00284C38.0472 4.15862 38.2725 4.34091 38.4316 4.54972C38.594 4.75852 38.72 4.94247 38.8095 5.10156H38.899V1.31818H40.3855V11.5H38.9338V10.3118H38.8095C38.72 10.4742 38.5907 10.6598 38.4217 10.8686C38.256 11.0774 38.0273 11.2597 37.7356 11.4155C37.444 11.5713 37.0661 11.6491 36.6021 11.6491ZM36.9302 10.3814C37.3578 10.3814 37.719 10.2687 38.014 10.0433C38.3123 9.81463 38.5377 9.49811 38.6902 9.09375C38.8459 8.68939 38.9238 8.21875 38.9238 7.68182C38.9238 7.15151 38.8476 6.6875 38.6951 6.28977C38.5427 5.89205 38.319 5.58215 38.024 5.36009C37.729 5.13802 37.3644 5.02699 36.9302 5.02699C36.4828 5.02699 36.1099 5.14299 35.8116 5.375C35.5133 5.60701 35.2879 5.92353 35.1355 6.32457C34.9863 6.72562 34.9118 7.17803 34.9118 7.68182C34.9118 8.19223 34.988 8.65128 35.1404 9.05895C35.2929 9.46662 35.5183 9.78977 35.8166 10.0284C36.1182 10.2637 36.4894 10.3814 36.9302 10.3814ZM45.7237 11.6541C45.0078 11.6541 44.383 11.4901 43.8494 11.1619C43.3158 10.8338 42.9015 10.3748 42.6065 9.7848C42.3116 9.19484 42.1641 8.50544 42.1641 7.71662C42.1641 6.92448 42.3116 6.23177 42.6065 5.63849C42.9015 5.04522 43.3158 4.58452 43.8494 4.25639C44.383 3.92827 45.0078 3.7642 45.7237 3.7642C46.4396 3.7642 47.0644 3.92827 47.598 4.25639C48.1316 4.58452 48.5459 5.04522 48.8409 5.63849C49.1359 6.23177 49.2834 6.92448 49.2834 7.71662C49.2834 8.50544 49.1359 9.19484 48.8409 9.7848C48.5459 10.3748 48.1316 10.8338 47.598 11.1619C47.0644 11.4901 46.4396 11.6541 45.7237 11.6541ZM45.7287 10.4062C46.1927 10.4062 46.5772 10.2836 46.8821 10.0384C47.187 9.79309 47.4124 9.46662 47.5582 9.05895C47.7074 8.65128 47.782 8.20218 47.782 7.71165C47.782 7.22443 47.7074 6.77699 47.5582 6.36932C47.4124 5.95833 47.187 5.62855 46.8821 5.37997C46.5772 5.13139 46.1927 5.0071 45.7287 5.0071C45.2614 5.0071 44.8736 5.13139 44.5653 5.37997C44.2604 5.62855 44.0334 5.95833 43.8842 6.36932C43.7384 6.77699 43.6655 7.22443 43.6655 7.71165C43.6655 8.20218 43.7384 8.65128 43.8842 9.05895C44.0334 9.46662 44.2604 9.79309 44.5653 10.0384C44.8736 10.2836 45.2614 10.4062 45.7287 10.4062ZM54.5073 3.86364V5.05682H50.3361V3.86364H54.5073ZM51.4547 2.03409H52.9412V9.25781C52.9412 9.54616 52.9843 9.76326 53.0705 9.90909C53.1567 10.0516 53.2677 10.1494 53.4036 10.2024C53.5428 10.2521 53.6936 10.277 53.856 10.277C53.9753 10.277 54.0797 10.2687 54.1692 10.2521C54.2587 10.2356 54.3283 10.2223 54.378 10.2124L54.6465 11.4403C54.5603 11.4735 54.4377 11.5066 54.2786 11.5398C54.1195 11.5762 53.9206 11.5961 53.682 11.5994C53.2909 11.6061 52.9263 11.5365 52.5882 11.3906C52.2502 11.2448 51.9767 11.0194 51.7679 10.7145C51.5591 10.4096 51.4547 10.0268 51.4547 9.56605V2.03409ZM61.7509 5.72798L60.4036 5.96662C60.3472 5.79427 60.2578 5.63021 60.1351 5.47443C60.0158 5.31865 59.8534 5.19105 59.6479 5.09162C59.4424 4.99219 59.1855 4.94247 58.8773 4.94247C58.4564 4.94247 58.1051 5.03693 57.8233 5.22585C57.5416 5.41146 57.4007 5.65175 57.4007 5.94673C57.4007 6.20194 57.4952 6.40743 57.6841 6.56321C57.873 6.71899 58.178 6.84659 58.5989 6.94602L59.812 7.22443C60.5146 7.38684 61.0383 7.63707 61.383 7.97514C61.7277 8.31321 61.9 8.75237 61.9 9.29261C61.9 9.75 61.7675 10.1577 61.5023 10.5156C61.2405 10.8703 60.8742 11.1487 60.4036 11.3509C59.9363 11.553 59.3944 11.6541 58.7779 11.6541C57.9228 11.6541 57.2251 11.4718 56.6848 11.1072C56.1446 10.7393 55.8132 10.2173 55.6905 9.54119L57.1273 9.32244C57.2168 9.69697 57.4007 9.98035 57.6792 10.1726C57.9576 10.3615 58.3205 10.456 58.7679 10.456C59.2551 10.456 59.6446 10.3549 59.9363 10.1527C60.2279 9.94721 60.3738 9.69697 60.3738 9.40199C60.3738 9.16335 60.2843 8.96283 60.1053 8.80043C59.9296 8.63802 59.6595 8.51539 59.2949 8.43253L58.0023 8.14915C57.2897 7.98674 56.7627 7.72822 56.4213 7.37358C56.0833 7.01894 55.9142 6.56984 55.9142 6.02628C55.9142 5.57552 56.0402 5.18111 56.2921 4.84304C56.544 4.50497 56.892 4.24148 57.3361 4.05256C57.7802 3.86032 58.289 3.7642 58.8624 3.7642C59.6877 3.7642 60.3373 3.94318 60.8113 4.30114C61.2852 4.65578 61.5984 5.13139 61.7509 5.72798ZM68.0337 6.55327V7.84091H63.5195V6.55327H68.0337ZM73.2315 11.6541C72.5156 11.6541 71.8909 11.4901 71.3572 11.1619C70.8236 10.8338 70.4093 10.3748 70.1143 9.7848C69.8194 9.19484 69.6719 8.50544 69.6719 7.71662C69.6719 6.92448 69.8194 6.23177 70.1143 5.63849C70.4093 5.04522 70.8236 4.58452 71.3572 4.25639C71.8909 3.92827 72.5156 3.7642 73.2315 3.7642C73.9474 3.7642 74.5722 3.92827 75.1058 4.25639C75.6394 4.58452 76.0537 5.04522 76.3487 5.63849C76.6437 6.23177 76.7912 6.92448 76.7912 7.71662C76.7912 8.50544 76.6437 9.19484 76.3487 9.7848C76.0537 10.3748 75.6394 10.8338 75.1058 11.1619C74.5722 11.4901 73.9474 11.6541 73.2315 11.6541ZM73.2365 10.4062C73.7005 10.4062 74.085 10.2836 74.3899 10.0384C74.6948 9.79309 74.9202 9.46662 75.0661 9.05895C75.2152 8.65128 75.2898 8.20218 75.2898 7.71165C75.2898 7.22443 75.2152 6.77699 75.0661 6.36932C74.9202 5.95833 74.6948 5.62855 74.3899 5.37997C74.085 5.13139 73.7005 5.0071 73.2365 5.0071C72.7692 5.0071 72.3814 5.13139 72.0732 5.37997C71.7682 5.62855 71.5412 5.95833 71.392 6.36932C71.2462 6.77699 71.1733 7.22443 71.1733 7.71165C71.1733 8.20218 71.2462 8.65128 71.392 9.05895C71.5412 9.46662 71.7682 9.79309 72.0732 10.0384C72.3814 10.2836 72.7692 10.4062 73.2365 10.4062ZM83.2878 8.3331V3.86364H84.7793V11.5H83.3176V10.1776H83.2381C83.0624 10.5852 82.7807 10.925 82.3929 11.1967C82.0085 11.4652 81.5295 11.5994 80.9561 11.5994C80.4656 11.5994 80.0314 11.4917 79.6536 11.2763C79.2791 11.0575 78.9841 10.7344 78.7686 10.3068C78.5565 9.87926 78.4505 9.35062 78.4505 8.72088V3.86364H79.937V8.5419C79.937 9.06226 80.0811 9.47656 80.3695 9.7848C80.6578 10.093 81.0324 10.2472 81.4931 10.2472C81.7715 10.2472 82.0482 10.1776 82.3233 10.0384C82.6017 9.89915 82.8321 9.68868 83.0144 9.40696C83.2 9.12524 83.2911 8.76728 83.2878 8.3331ZM90.3413 3.86364V5.05682H86.1701V3.86364H90.3413ZM87.2887 2.03409H88.7752V9.25781C88.7752 9.54616 88.8183 9.76326 88.9045 9.90909C88.9906 10.0516 89.1017 10.1494 89.2376 10.2024C89.3768 10.2521 89.5276 10.277 89.69 10.277C89.8093 10.277 89.9137 10.2687 90.0032 10.2521C90.0927 10.2356 90.1623 10.2223 90.212 10.2124L90.4805 11.4403C90.3943 11.4735 90.2717 11.5066 90.1126 11.5398C89.9535 11.5762 89.7546 11.5961 89.516 11.5994C89.1249 11.6061 88.7603 11.5365 88.4222 11.3906C88.0842 11.2448 87.8107 11.0194 87.6019 10.7145C87.3931 10.4096 87.2887 10.0268 87.2887 9.56605V2.03409ZM95.1948 11.6541C94.4424 11.6541 93.7944 11.4934 93.2509 11.1719C92.7106 10.8471 92.293 10.3913 91.998 9.80469C91.7064 9.21473 91.5605 8.52367 91.5605 7.73153C91.5605 6.94934 91.7064 6.25994 91.998 5.66335C92.293 5.06676 92.704 4.60109 93.231 4.26633C93.7613 3.93158 94.3811 3.7642 95.0904 3.7642C95.5212 3.7642 95.9389 3.83546 96.3432 3.97798C96.7476 4.1205 97.1105 4.34422 97.432 4.64915C97.7535 4.95407 98.007 5.35014 98.1926 5.83736C98.3783 6.32126 98.4711 6.90956 98.4711 7.60227V8.12926H92.4007V7.01562H97.0144C97.0144 6.62453 96.9348 6.27817 96.7757 5.97656C96.6167 5.67164 96.3929 5.43134 96.1046 5.25568C95.8195 5.08002 95.4848 4.99219 95.1003 4.99219C94.6827 4.99219 94.3181 5.09493 94.0066 5.30043C93.6983 5.5026 93.4597 5.76776 93.2907 6.09588C93.1249 6.42069 93.0421 6.77367 93.0421 7.15483V8.02486C93.0421 8.53527 93.1316 8.96946 93.3105 9.32741C93.4928 9.68537 93.7464 9.95881 94.0712 10.1477C94.396 10.3333 94.7755 10.4261 95.2097 10.4261C95.4914 10.4261 95.7483 10.3864 95.9803 10.3068C96.2123 10.224 96.4128 10.1013 96.5819 9.93892C96.7509 9.77652 96.8801 9.57599 96.9696 9.33736L98.3766 9.59091C98.2639 10.0052 98.0617 10.3681 97.7701 10.6797C97.4817 10.9879 97.1188 11.2282 96.6813 11.4006C96.2471 11.5696 95.7516 11.6541 95.1948 11.6541ZM100.12 11.5V3.86364H101.557V5.0767H101.637C101.776 4.66572 102.021 4.34257 102.373 4.10724C102.727 3.86861 103.128 3.74929 103.576 3.74929C103.668 3.74929 103.778 3.7526 103.904 3.75923C104.033 3.76586 104.134 3.77415 104.207 3.78409V5.20597C104.147 5.18939 104.041 5.17116 103.889 5.15128C103.736 5.12808 103.584 5.11648 103.431 5.11648C103.08 5.11648 102.767 5.19105 102.492 5.3402C102.22 5.48603 102.005 5.68987 101.846 5.9517C101.686 6.21023 101.607 6.50521 101.607 6.83665V11.5H100.12Z" fill="currentColor"/>
</svg>
