<svg width="117" height="15" viewBox="0 0 117 15" fill="none" xmlns="http://www.w3.org/2000/svg">
<path d="M4.63352 3.86364V5.05682H0.318182V3.86364H4.63352ZM1.50142 11.5V2.97869C1.50142 2.50142 1.60582 2.10535 1.81463 1.79048C2.02344 1.4723 2.30019 1.23532 2.64489 1.07955C2.98958 0.920454 3.36411 0.840908 3.76847 0.840908C4.06676 0.840908 4.32197 0.865767 4.53409 0.915483C4.74621 0.961884 4.90365 1.00497 5.00639 1.04474L4.65838 2.24787C4.58878 2.22798 4.49929 2.20478 4.38991 2.17827C4.28054 2.14844 4.14796 2.13352 3.99219 2.13352C3.63092 2.13352 3.3724 2.22301 3.21662 2.40199C3.06416 2.58097 2.98793 2.83949 2.98793 3.17756V11.5H1.50142ZM7.65376 1.31818V11.5H6.16726V1.31818H7.65376ZM12.9448 11.6541C12.1924 11.6541 11.5444 11.4934 11.0009 11.1719C10.4606 10.8471 10.043 10.3913 9.74805 9.80469C9.45638 9.21473 9.31055 8.52367 9.31055 7.73153C9.31055 6.94934 9.45638 6.25994 9.74805 5.66335C10.043 5.06676 10.454 4.60109 10.981 4.26633C11.5113 3.93158 12.1311 3.7642 12.8404 3.7642C13.2712 3.7642 13.6889 3.83546 14.0932 3.97798C14.4976 4.1205 14.8605 4.34422 15.182 4.64915C15.5035 4.95407 15.757 5.35014 15.9426 5.83736C16.1283 6.32126 16.2211 6.90956 16.2211 7.60227V8.12926H10.1507V7.01562H14.7644C14.7644 6.62453 14.6848 6.27817 14.5257 5.97656C14.3667 5.67164 14.1429 5.43134 13.8546 5.25568C13.5695 5.08002 13.2348 4.99219 12.8503 4.99219C12.4327 4.99219 12.0681 5.09493 11.7566 5.30043C11.4483 5.5026 11.2097 5.76776 11.0407 6.09588C10.8749 6.42069 10.7921 6.77367 10.7921 7.15483V8.02486C10.7921 8.53527 10.8816 8.96946 11.0605 9.32741C11.2428 9.68537 11.4964 9.95881 11.8212 10.1477C12.146 10.3333 12.5255 10.4261 12.9597 10.4261C13.2414 10.4261 13.4983 10.3864 13.7303 10.3068C13.9623 10.224 14.1628 10.1013 14.3319 9.93892C14.5009 9.77652 14.6301 9.57599 14.7196 9.33736L16.1266 9.59091C16.0139 10.0052 15.8117 10.3681 15.5201 10.6797C15.2317 10.9879 14.8688 11.2282 14.4313 11.4006C13.9971 11.5696 13.5016 11.6541 12.9448 11.6541ZM18.8659 3.86364L20.5513 6.83665L22.2516 3.86364H23.8773L21.4959 7.68182L23.8972 11.5H22.2715L20.5513 8.64631L18.8361 11.5H17.2054L19.5819 7.68182L17.2353 3.86364H18.8659ZM29.5884 6.55327V7.84091H25.0742V6.55327H29.5884ZM33.7919 11.669C33.308 11.669 32.8705 11.5795 32.4794 11.4006C32.0883 11.2183 31.7784 10.9548 31.5497 10.6101C31.3243 10.2654 31.2116 9.8428 31.2116 9.34233C31.2116 8.91146 31.2945 8.55682 31.4602 8.27841C31.6259 8 31.8497 7.77959 32.1314 7.61719C32.4131 7.45478 32.728 7.33215 33.076 7.24929C33.424 7.16643 33.7786 7.10346 34.1399 7.06037C34.5973 7.00734 34.9685 6.96425 35.2536 6.93111C35.5386 6.89465 35.7457 6.83665 35.875 6.7571C36.0043 6.67756 36.0689 6.5483 36.0689 6.36932V6.33452C36.0689 5.90033 35.9463 5.56392 35.701 5.32528C35.459 5.08665 35.0978 4.96733 34.6172 4.96733C34.1167 4.96733 33.7223 5.07836 33.4339 5.30043C33.1489 5.51918 32.9517 5.76278 32.8423 6.03125L31.4453 5.71307C31.611 5.24905 31.853 4.87453 32.1712 4.58949C32.4927 4.30114 32.8622 4.09233 33.2798 3.96307C33.6974 3.83049 34.1366 3.7642 34.5973 3.7642C34.9022 3.7642 35.2254 3.80066 35.5668 3.87358C35.9115 3.94318 36.233 4.07244 36.5312 4.26136C36.8329 4.45028 37.0798 4.72041 37.272 5.07173C37.4643 5.41974 37.5604 5.87216 37.5604 6.42898V11.5H36.1087V10.456H36.049C35.9529 10.6482 35.8087 10.8371 35.6165 11.0227C35.4242 11.2083 35.1773 11.3625 34.8757 11.4851C34.5741 11.6077 34.2128 11.669 33.7919 11.669ZM34.1151 10.4759C34.526 10.4759 34.8774 10.3946 35.169 10.2322C35.464 10.0698 35.6877 9.85772 35.8402 9.59588C35.996 9.33073 36.0739 9.04735 36.0739 8.74574V7.76136C36.0208 7.81439 35.9181 7.86411 35.7656 7.91051C35.6165 7.9536 35.4458 7.99171 35.2536 8.02486C35.0613 8.05469 34.8741 8.08286 34.6918 8.10938C34.5095 8.13258 34.357 8.15246 34.2344 8.16903C33.946 8.20549 33.6825 8.26681 33.4439 8.35298C33.2086 8.43916 33.0196 8.56345 32.8771 8.72585C32.7379 8.88494 32.6683 9.09706 32.6683 9.36222C32.6683 9.73011 32.8042 10.0085 33.076 10.1974C33.3478 10.383 33.6941 10.4759 34.1151 10.4759ZM41.0268 1.31818V11.5H39.5403V1.31818H41.0268ZM43.0266 11.5V3.86364H44.5131V11.5H43.0266ZM43.7773 2.68537C43.5188 2.68537 43.2968 2.59919 43.1112 2.42685C42.9289 2.25118 42.8377 2.04238 42.8377 1.80043C42.8377 1.55516 42.9289 1.34635 43.1112 1.17401C43.2968 0.998342 43.5188 0.910511 43.7773 0.910511C44.0359 0.910511 44.2563 0.998342 44.4386 1.17401C44.6242 1.34635 44.717 1.55516 44.717 1.80043C44.717 2.04238 44.6242 2.25118 44.4386 2.42685C44.2563 2.59919 44.0359 2.68537 43.7773 2.68537ZM49.7147 14.5227C49.1081 14.5227 48.5861 14.4432 48.1486 14.2841C47.7144 14.125 47.3598 13.9145 47.0847 13.6527C46.8096 13.3909 46.6041 13.1042 46.4682 12.7926L47.7459 12.2656C47.8354 12.4115 47.9547 12.5656 48.1039 12.728C48.2563 12.8937 48.4618 13.0346 48.7203 13.1506C48.9822 13.2666 49.3186 13.3246 49.7296 13.3246C50.293 13.3246 50.7587 13.187 51.1266 12.9119C51.4945 12.6402 51.6784 12.206 51.6784 11.6094V10.108H51.584C51.4945 10.2704 51.3652 10.451 51.1962 10.6499C51.0305 10.8487 50.8018 11.0211 50.5101 11.1669C50.2185 11.3127 49.839 11.3857 49.3716 11.3857C48.7684 11.3857 48.2248 11.2448 47.7409 10.9631C47.2604 10.678 46.8792 10.2588 46.5975 9.70526C46.3191 9.14844 46.1799 8.46401 46.1799 7.65199C46.1799 6.83996 46.3174 6.14394 46.5925 5.56392C46.8709 4.9839 47.2521 4.53977 47.736 4.23153C48.2199 3.91998 48.7684 3.7642 49.3816 3.7642C49.8555 3.7642 50.2383 3.84375 50.53 4.00284C50.8217 4.15862 51.0487 4.34091 51.2111 4.54972C51.3768 4.75852 51.5044 4.94247 51.5939 5.10156H51.7033V3.86364H53.16V11.669C53.16 12.3253 53.0075 12.8639 52.7026 13.2848C52.3977 13.7057 51.985 14.0173 51.4647 14.2195C50.9476 14.4216 50.3643 14.5227 49.7147 14.5227ZM49.6998 10.1527C50.1273 10.1527 50.4886 10.0533 50.7836 9.8544C51.0819 9.65223 51.3072 9.36387 51.4597 8.98935C51.6155 8.61151 51.6934 8.15909 51.6934 7.6321C51.6934 7.11837 51.6171 6.66596 51.4647 6.27486C51.3122 5.88376 51.0885 5.57884 50.7935 5.36009C50.4985 5.13802 50.1339 5.02699 49.6998 5.02699C49.2523 5.02699 48.8794 5.14299 48.5811 5.375C48.2828 5.60369 48.0575 5.91525 47.905 6.30966C47.7559 6.70407 47.6813 7.14489 47.6813 7.6321C47.6813 8.13258 47.7575 8.57173 47.91 8.94957C48.0624 9.32741 48.2878 9.6224 48.5861 9.83452C48.8877 10.0466 49.2589 10.1527 49.6998 10.1527ZM56.6401 6.96591V11.5H55.1536V3.86364H56.5804V5.10653H56.6749C56.8506 4.70218 57.1257 4.37737 57.5002 4.1321C57.878 3.88684 58.3536 3.7642 58.927 3.7642C59.4474 3.7642 59.9031 3.87358 60.2942 4.09233C60.6853 4.30777 60.9886 4.62926 61.204 5.05682C61.4194 5.48437 61.5272 6.01302 61.5272 6.64276V11.5H60.0407V6.82173C60.0407 6.26823 59.8965 5.8357 59.6081 5.52415C59.3198 5.20928 58.9237 5.05185 58.4199 5.05185C58.0752 5.05185 57.7686 5.12642 57.5002 5.27557C57.235 5.42472 57.0246 5.64347 56.8688 5.93182C56.7163 6.21686 56.6401 6.56155 56.6401 6.96591ZM68.0201 6.55327V7.84091H63.5059V6.55327H68.0201ZM70.1206 11.5V1.31818H71.6071V5.10156H71.6966C71.7827 4.94247 71.907 4.75852 72.0694 4.54972C72.2318 4.34091 72.4572 4.15862 72.7456 4.00284C73.0339 3.84375 73.4151 3.7642 73.889 3.7642C74.5055 3.7642 75.0557 3.91998 75.5396 4.23153C76.0235 4.54309 76.403 4.99219 76.6781 5.57884C76.9565 6.16548 77.0957 6.87145 77.0957 7.69673C77.0957 8.52202 76.9582 9.22964 76.6831 9.8196C76.408 10.4062 76.0301 10.8587 75.5495 11.1768C75.069 11.4917 74.5204 11.6491 73.9039 11.6491C73.4399 11.6491 73.0604 11.5713 72.7654 11.4155C72.4738 11.2597 72.2451 11.0774 72.0794 10.8686C71.9136 10.6598 71.786 10.4742 71.6966 10.3118H71.5723V11.5H70.1206ZM71.5772 7.68182C71.5772 8.21875 71.6551 8.68939 71.8109 9.09375C71.9667 9.49811 72.1921 9.81463 72.487 10.0433C72.782 10.2687 73.1433 10.3814 73.5708 10.3814C74.015 10.3814 74.3862 10.2637 74.6845 10.0284C74.9828 9.78977 75.2082 9.46662 75.3606 9.05895C75.5164 8.65128 75.5943 8.19223 75.5943 7.68182C75.5943 7.17803 75.5181 6.72562 75.3656 6.32457C75.2164 5.92353 74.9911 5.60701 74.6895 5.375C74.3912 5.14299 74.0183 5.02699 73.5708 5.02699C73.14 5.02699 72.7754 5.13802 72.4771 5.36009C72.1821 5.58215 71.9584 5.89205 71.8059 6.28977C71.6535 6.6875 71.5772 7.15151 71.5772 7.68182ZM81.9815 11.6541C81.2656 11.6541 80.6409 11.4901 80.1072 11.1619C79.5736 10.8338 79.1593 10.3748 78.8643 9.7848C78.5694 9.19484 78.4219 8.50544 78.4219 7.71662C78.4219 6.92448 78.5694 6.23177 78.8643 5.63849C79.1593 5.04522 79.5736 4.58452 80.1072 4.25639C80.6409 3.92827 81.2656 3.7642 81.9815 3.7642C82.6974 3.7642 83.3222 3.92827 83.8558 4.25639C84.3894 4.58452 84.8037 5.04522 85.0987 5.63849C85.3937 6.23177 85.5412 6.92448 85.5412 7.71662C85.5412 8.50544 85.3937 9.19484 85.0987 9.7848C84.8037 10.3748 84.3894 10.8338 83.8558 11.1619C83.3222 11.4901 82.6974 11.6541 81.9815 11.6541ZM81.9865 10.4062C82.4505 10.4062 82.835 10.2836 83.1399 10.0384C83.4448 9.79309 83.6702 9.46662 83.8161 9.05895C83.9652 8.65128 84.0398 8.20218 84.0398 7.71165C84.0398 7.22443 83.9652 6.77699 83.8161 6.36932C83.6702 5.95833 83.4448 5.62855 83.1399 5.37997C82.835 5.13139 82.4505 5.0071 81.9865 5.0071C81.5192 5.0071 81.1314 5.13139 80.8232 5.37997C80.5182 5.62855 80.2912 5.95833 80.142 6.36932C79.9962 6.77699 79.9233 7.22443 79.9233 7.71165C79.9233 8.20218 79.9962 8.65128 80.142 9.05895C80.2912 9.46662 80.5182 9.79309 80.8232 10.0384C81.1314 10.2836 81.5192 10.4062 81.9865 10.4062ZM90.7651 3.86364V5.05682H86.5939V3.86364H90.7651ZM87.7125 2.03409H89.199V9.25781C89.199 9.54616 89.2421 9.76326 89.3283 9.90909C89.4145 10.0516 89.5255 10.1494 89.6614 10.2024C89.8006 10.2521 89.9514 10.277 90.1138 10.277C90.2331 10.277 90.3375 10.2687 90.427 10.2521C90.5165 10.2356 90.5861 10.2223 90.6358 10.2124L90.9043 11.4403C90.8181 11.4735 90.6955 11.5066 90.5364 11.5398C90.3773 11.5762 90.1784 11.5961 89.9398 11.5994C89.5487 11.6061 89.1841 11.5365 88.8461 11.3906C88.508 11.2448 88.2346 11.0194 88.0257 10.7145C87.8169 10.4096 87.7125 10.0268 87.7125 9.56605V2.03409ZM95.9741 3.86364V5.05682H91.8029V3.86364H95.9741ZM92.9215 2.03409H94.408V9.25781C94.408 9.54616 94.4511 9.76326 94.5373 9.90909C94.6235 10.0516 94.7345 10.1494 94.8704 10.2024C95.0096 10.2521 95.1604 10.277 95.3228 10.277C95.4421 10.277 95.5465 10.2687 95.636 10.2521C95.7255 10.2356 95.7951 10.2223 95.8448 10.2124L96.1133 11.4403C96.0271 11.4735 95.9045 11.5066 95.7454 11.5398C95.5863 11.5762 95.3874 11.5961 95.1488 11.5994C94.7577 11.6061 94.3931 11.5365 94.055 11.3906C93.717 11.2448 93.4435 11.0194 93.2347 10.7145C93.0259 10.4096 92.9215 10.0268 92.9215 9.56605V2.03409ZM100.753 11.6541C100.037 11.6541 99.4123 11.4901 98.8787 11.1619C98.3451 10.8338 97.9308 10.3748 97.6358 9.7848C97.3408 9.19484 97.1934 8.50544 97.1934 7.71662C97.1934 6.92448 97.3408 6.23177 97.6358 5.63849C97.9308 5.04522 98.3451 4.58452 98.8787 4.25639C99.4123 3.92827 100.037 3.7642 100.753 3.7642C101.469 3.7642 102.094 3.92827 102.627 4.25639C103.161 4.58452 103.575 5.04522 103.87 5.63849C104.165 6.23177 104.313 6.92448 104.313 7.71662C104.313 8.50544 104.165 9.19484 103.87 9.7848C103.575 10.3748 103.161 10.8338 102.627 11.1619C102.094 11.4901 101.469 11.6541 100.753 11.6541ZM100.758 10.4062C101.222 10.4062 101.606 10.2836 101.911 10.0384C102.216 9.79309 102.442 9.46662 102.588 9.05895C102.737 8.65128 102.811 8.20218 102.811 7.71165C102.811 7.22443 102.737 6.77699 102.588 6.36932C102.442 5.95833 102.216 5.62855 101.911 5.37997C101.606 5.13139 101.222 5.0071 100.758 5.0071C100.291 5.0071 99.9029 5.13139 99.5946 5.37997C99.2897 5.62855 99.0627 5.95833 98.9135 6.36932C98.7677 6.77699 98.6948 7.22443 98.6948 7.71165C98.6948 8.20218 98.7677 8.65128 98.9135 9.05895C99.0627 9.46662 99.2897 9.79309 99.5946 10.0384C99.9029 10.2836 100.291 10.4062 100.758 10.4062ZM105.972 11.5V3.86364H107.399V5.10653H107.493C107.652 4.68561 107.913 4.35748 108.274 4.12216C108.635 3.88352 109.068 3.7642 109.571 3.7642C110.082 3.7642 110.509 3.88352 110.854 4.12216C111.202 4.3608 111.459 4.68892 111.625 5.10653H111.704C111.886 4.69886 112.176 4.37405 112.574 4.1321C112.972 3.88684 113.446 3.7642 113.996 3.7642C114.689 3.7642 115.254 3.9813 115.691 4.41548C116.132 4.84967 116.353 5.50426 116.353 6.37926V11.5H114.866V6.51847C114.866 6.00142 114.725 5.62689 114.444 5.39489C114.162 5.16288 113.825 5.04688 113.434 5.04688C112.95 5.04688 112.574 5.19602 112.306 5.49432C112.037 5.7893 111.903 6.1688 111.903 6.63281V11.5H110.422V6.42401C110.422 6.00971 110.292 5.67661 110.034 5.42472C109.775 5.17282 109.439 5.04688 109.025 5.04688C108.743 5.04688 108.483 5.12145 108.244 5.2706C108.009 5.41643 107.818 5.62026 107.672 5.8821C107.53 6.14394 107.458 6.44721 107.458 6.7919V11.5H105.972Z" fill="currentColor"/>
</svg>
