<svg width="46" height="12" viewBox="0 0 46 12" fill="none" xmlns="http://www.w3.org/2000/svg">
<path d="M3.85795 11.6491C3.24148 11.6491 2.69129 11.4917 2.20739 11.1768C1.7268 10.8587 1.34896 10.4062 1.07386 9.8196C0.802083 9.22964 0.666193 8.52202 0.666193 7.69673C0.666193 6.87145 0.803741 6.16548 1.07884 5.57884C1.35724 4.99219 1.7384 4.54309 2.2223 4.23153C2.7062 3.91998 3.25473 3.7642 3.8679 3.7642C4.34186 3.7642 4.72301 3.84375 5.01136 4.00284C5.30303 4.15862 5.52841 4.34091 5.6875 4.54972C5.84991 4.75852 5.97585 4.94247 6.06534 5.10156H6.15483V1.31818H7.64134V11.5H6.18963V10.3118H6.06534C5.97585 10.4742 5.84659 10.6598 5.67756 10.8686C5.51184 11.0774 5.28314 11.2597 4.99148 11.4155C4.69981 11.5713 4.32197 11.6491 3.85795 11.6491ZM4.18608 10.3814C4.61364 10.3814 4.97491 10.2687 5.26989 10.0433C5.56818 9.81463 5.79356 9.49811 5.94602 9.09375C6.1018 8.68939 6.17969 8.21875 6.17969 7.68182C6.17969 7.15151 6.10346 6.6875 5.95099 6.28977C5.79853 5.89205 5.57481 5.58215 5.27983 5.36009C4.98485 5.13802 4.62027 5.02699 4.18608 5.02699C3.73864 5.02699 3.36577 5.14299 3.06747 5.375C2.76918 5.60701 2.5438 5.92353 2.39134 6.32457C2.24219 6.72562 2.16761 7.17803 2.16761 7.68182C2.16761 8.19223 2.24384 8.65128 2.39631 9.05895C2.54877 9.46662 2.77415 9.78977 3.07244 10.0284C3.37405 10.2637 3.74527 10.3814 4.18608 10.3814ZM9.76296 11.5V3.86364H11.2495V11.5H9.76296ZM10.5137 2.68537C10.2551 2.68537 10.0331 2.59919 9.84748 2.42685C9.66519 2.25118 9.57404 2.04238 9.57404 1.80043C9.57404 1.55516 9.66519 1.34635 9.84748 1.17401C10.0331 0.998342 10.2551 0.910511 10.5137 0.910511C10.7722 0.910511 10.9926 0.998342 11.1749 1.17401C11.3605 1.34635 11.4533 1.55516 11.4533 1.80043C11.4533 2.04238 11.3605 2.25118 11.1749 2.42685C10.9926 2.59919 10.7722 2.68537 10.5137 2.68537ZM19.782 3.86364L17.0128 11.5H15.4219L12.6477 3.86364H14.2436L16.1776 9.74006H16.2571L18.1861 3.86364H19.782ZM21.179 11.5V3.86364H22.6655V11.5H21.179ZM21.9297 2.68537C21.6712 2.68537 21.4491 2.59919 21.2635 2.42685C21.0812 2.25118 20.9901 2.04238 20.9901 1.80043C20.9901 1.55516 21.0812 1.34635 21.2635 1.17401C21.4491 0.998342 21.6712 0.910511 21.9297 0.910511C22.1882 0.910511 22.4086 0.998342 22.5909 1.17401C22.7765 1.34635 22.8693 1.55516 22.8693 1.80043C22.8693 2.04238 22.7765 2.25118 22.5909 2.42685C22.4086 2.59919 22.1882 2.68537 21.9297 2.68537ZM27.524 11.6491C26.9075 11.6491 26.3573 11.4917 25.8734 11.1768C25.3928 10.8587 25.015 10.4062 24.7399 9.8196C24.4681 9.22964 24.3322 8.52202 24.3322 7.69673C24.3322 6.87145 24.4698 6.16548 24.7449 5.57884C25.0233 4.99219 25.4044 4.54309 25.8883 4.23153C26.3722 3.91998 26.9208 3.7642 27.5339 3.7642C28.0079 3.7642 28.389 3.84375 28.6774 4.00284C28.969 4.15862 29.1944 4.34091 29.3535 4.54972C29.5159 4.75852 29.6419 4.94247 29.7314 5.10156H29.8208V1.31818H31.3074V11.5H29.8556V10.3118H29.7314C29.6419 10.4742 29.5126 10.6598 29.3436 10.8686C29.1779 11.0774 28.9492 11.2597 28.6575 11.4155C28.3658 11.5713 27.988 11.6491 27.524 11.6491ZM27.8521 10.3814C28.2797 10.3814 28.6409 10.2687 28.9359 10.0433C29.2342 9.81463 29.4596 9.49811 29.612 9.09375C29.7678 8.68939 29.8457 8.21875 29.8457 7.68182C29.8457 7.15151 29.7695 6.6875 29.617 6.28977C29.4645 5.89205 29.2408 5.58215 28.9458 5.36009C28.6509 5.13802 28.2863 5.02699 27.8521 5.02699C27.4047 5.02699 27.0318 5.14299 26.7335 5.375C26.4352 5.60701 26.2098 5.92353 26.0574 6.32457C25.9082 6.72562 25.8336 7.17803 25.8336 7.68182C25.8336 8.19223 25.9099 8.65128 26.0623 9.05895C26.2148 9.46662 26.4402 9.78977 26.7385 10.0284C27.0401 10.2637 27.4113 10.3814 27.8521 10.3814ZM36.7202 11.6541C35.9678 11.6541 35.3198 11.4934 34.7763 11.1719C34.236 10.8471 33.8184 10.3913 33.5234 9.80469C33.2318 9.21473 33.0859 8.52367 33.0859 7.73153C33.0859 6.94934 33.2318 6.25994 33.5234 5.66335C33.8184 5.06676 34.2294 4.60109 34.7564 4.26633C35.2867 3.93158 35.9065 3.7642 36.6158 3.7642C37.0466 3.7642 37.4643 3.83546 37.8686 3.97798C38.273 4.1205 38.6359 4.34422 38.9574 4.64915C39.2789 4.95407 39.5324 5.35014 39.718 5.83736C39.9036 6.32126 39.9964 6.90956 39.9964 7.60227V8.12926H33.9261V7.01562H38.5398C38.5398 6.62453 38.4602 6.27817 38.3011 5.97656C38.142 5.67164 37.9183 5.43134 37.63 5.25568C37.3449 5.08002 37.0102 4.99219 36.6257 4.99219C36.2081 4.99219 35.8435 5.09493 35.532 5.30043C35.2237 5.5026 34.9851 5.76776 34.8161 6.09588C34.6503 6.42069 34.5675 6.77367 34.5675 7.15483V8.02486C34.5675 8.53527 34.657 8.96946 34.8359 9.32741C35.0182 9.68537 35.2718 9.95881 35.5966 10.1477C35.9214 10.3333 36.3009 10.4261 36.7351 10.4261C37.0168 10.4261 37.2737 10.3864 37.5057 10.3068C37.7377 10.224 37.9382 10.1013 38.1072 9.93892C38.2763 9.77652 38.4055 9.57599 38.495 9.33736L39.902 9.59091C39.7893 10.0052 39.5871 10.3681 39.2955 10.6797C39.0071 10.9879 38.6442 11.2282 38.2067 11.4006C37.7725 11.5696 37.277 11.6541 36.7202 11.6541ZM41.6458 11.5V3.86364H43.0826V5.0767H43.1621C43.3013 4.66572 43.5466 4.34257 43.8979 4.10724C44.2525 3.86861 44.6536 3.74929 45.101 3.74929C45.1938 3.74929 45.3032 3.7526 45.4292 3.75923C45.5584 3.76586 45.6595 3.77415 45.7324 3.78409V5.20597C45.6728 5.18939 45.5667 5.17116 45.4142 5.15128C45.2618 5.12808 45.1093 5.11648 44.9569 5.11648C44.6055 5.11648 44.2923 5.19105 44.0172 5.3402C43.7454 5.48603 43.53 5.68987 43.3709 5.9517C43.2118 6.21023 43.1323 6.50521 43.1323 6.83665V11.5H41.6458Z" fill="currentColor"/>
</svg>
