<svg width="100%" height="100%" viewBox="0 0 24 24" fill="none" xmlns="http://www.w3.org/2000/svg">
<path fill-rule="evenodd" clip-rule="evenodd" d="M9.00023 8C9.00023 4.13401 12.1342 1 16.0002 1C16.8238 1 17.6163 1.14267 18.3529 1.40547C18.6758 1.52068 18.9172 1.79329 18.9925 2.12778C19.0677 2.46226 18.9664 2.81199 18.724 3.05443L16.4804 5.32178C16.1622 5.64333 16.0031 5.80411 15.9282 5.98225C15.823 6.23209 15.8238 6.51392 15.9304 6.76316C16.0064 6.94087 16.1664 7.10075 16.4864 7.4205C16.807 7.74085 16.9673 7.90103 17.1453 7.97687C17.395 8.08324 17.6773 8.08353 17.9272 7.97766C18.1054 7.90219 18.266 7.74234 18.5873 7.42264L20.8913 5.1297C21.1305 4.89056 21.4743 4.7885 21.8052 4.85841C22.136 4.92832 22.4092 5.16073 22.5311 5.47616C22.8344 6.26046 23.0002 7.11205 23.0002 8C23.0002 11.866 19.8662 15 16.0002 15C15.4288 15 14.8721 14.9313 14.3385 14.8013C14.0854 14.7397 13.9254 14.7009 13.8084 14.6774C13.7868 14.673 13.7691 14.6698 13.7549 14.6673C13.7512 14.6706 13.7471 14.6742 13.7426 14.6783C13.6805 14.7344 13.599 14.8155 13.4552 14.9593L7.20733 21.2071C5.98838 22.4261 4.01207 22.4261 2.79312 21.2071C1.57417 19.9882 1.57417 18.0118 2.79312 16.7929L9.04094 10.5451C9.18475 10.4013 9.26585 10.3197 9.32196 10.2576C9.33759 10.2403 9.32869 10.2209 9.32284 10.1918C9.29933 10.0749 9.26055 9.91484 9.1989 9.66177C9.0689 9.1281 9.00023 8.57139 9.00023 8Z" fill="currentColor"/>
</svg>
