<svg width="100%" height="100%" viewBox="0 0 24 24" fill="none" xmlns="http://www.w3.org/2000/svg">
<path d="M8.00006 1C7.44778 1 7.00006 1.44772 7.00006 2C7.00006 2.55228 7.44778 3 8.00006 3H11.0001V4H8.75877C7.95381 3.99999 7.28943 3.99998 6.74824 4.0442C6.18614 4.09012 5.66944 4.18868 5.1841 4.43598C4.43145 4.81947 3.81953 5.43139 3.43604 6.18404C3.18875 6.66938 3.09018 7.18608 3.04426 7.74818C3.02654 7.96509 3.01537 8.18248 3.00846 8.40011C2.99124 8.9422 2.98263 9.21324 3.08903 9.43407C3.18069 9.62432 3.34021 9.78898 3.52745 9.88664C3.74478 10 4.02988 10 4.60006 10H19.4001C19.9703 10 20.2553 10 20.4727 9.88664C20.6599 9.78898 20.8194 9.62432 20.9111 9.43407C21.0175 9.21325 21.0089 8.9422 20.9917 8.40011C20.9848 8.18248 20.9736 7.96509 20.9559 7.74818C20.9099 7.18608 20.8114 6.66938 20.5641 6.18404C20.1806 5.43139 19.5687 4.81947 18.816 4.43598C18.3307 4.18868 17.814 4.09012 17.2519 4.0442C16.7107 3.99998 16.0463 3.99999 15.2414 4H13.0001V3H16.0001C16.5523 3 17.0001 2.55228 17.0001 2C17.0001 1.44772 16.5523 1 16.0001 1H8.00006Z" fill="currentColor"/>
<path d="M9.50006 21C8.94778 21 8.50006 21.4477 8.50006 22C8.50006 22.5523 8.94778 23 9.50006 23H14.5001C15.0523 23 15.5001 22.5523 15.5001 22C15.5001 21.4477 15.0523 21 14.5001 21H9.50006Z" fill="currentColor"/>
<path fill-rule="evenodd" clip-rule="evenodd" d="M16.3789 19.9939C16.0356 20 15.6573 20 15.2414 20H8.75875C8.34286 20 7.96445 20 7.62122 19.9939L6.39447 22.4474C6.14748 22.9414 5.5468 23.1416 5.05282 22.8946C4.55885 22.6477 4.35862 22.047 4.60561 21.553L5.52571 19.7128C5.41005 19.6704 5.29624 19.6212 5.1841 19.564C4.43145 19.1805 3.81953 18.5686 3.43604 17.816C3.18875 17.3306 3.09018 16.8139 3.04426 16.2518C3.00004 15.7106 3.00005 15.0463 3.00006 14.2413V13.6C3.00006 13.0399 3.00006 12.7599 3.10906 12.546C3.20493 12.3578 3.35791 12.2049 3.54607 12.109C3.75998 12 4.04001 12 4.60006 12H19.4001C19.9601 12 20.2401 12 20.4541 12.109C20.6422 12.2049 20.7952 12.3578 20.8911 12.546C21.0001 12.7599 21.0001 13.0399 21.0001 13.6V14.2413C21.0001 15.0463 21.0001 15.7106 20.9559 16.2518C20.9099 16.8139 20.8114 17.3306 20.5641 17.816C20.1806 18.5686 19.5687 19.1805 18.816 19.564C18.7039 19.6212 18.59 19.6704 18.4744 19.7128L19.3945 21.553C19.6415 22.047 19.4412 22.6477 18.9473 22.8946C18.4533 23.1416 17.8526 22.9414 17.6056 22.4474L16.3789 19.9939ZM8.50006 14C7.67164 14 7.00006 14.6716 7.00006 15.5C7.00006 16.3284 7.67164 17 8.50006 17C9.32849 17 10.0001 16.3284 10.0001 15.5C10.0001 14.6716 9.32849 14 8.50006 14ZM15.5001 14C14.6716 14 14.0001 14.6716 14.0001 15.5C14.0001 16.3284 14.6716 17 15.5001 17C16.3285 17 17.0001 16.3284 17.0001 15.5C17.0001 14.6716 16.3285 14 15.5001 14Z" fill="currentColor"/>
</svg>
