<svg width="100%" height="100%" viewBox="0 0 24 24" fill="none" xmlns="http://www.w3.org/2000/svg">
<path fill-rule="evenodd" clip-rule="evenodd" d="M8.57522 1.00001C8.20841 0.999908 7.93097 0.99983 7.65366 1.03865C7.40859 1.07296 7.16724 1.12994 6.9327 1.20885C6.66731 1.29814 6.41919 1.42229 6.09115 1.58642L5.05282 2.10559C4.55885 2.35258 4.35862 2.95326 4.60561 3.44723C4.8526 3.94121 5.45327 4.14144 5.94725 3.89445L6.93375 3.4012C7.33561 3.20027 7.45353 3.14378 7.57047 3.10443C7.68774 3.06498 7.80842 3.03649 7.93095 3.01934C8.02658 3.00595 8.12744 3.00169 8.38213 3.00046L9.3819 5H8.75877C7.95381 4.99999 7.28943 4.99998 6.74824 5.0442C6.18614 5.09012 5.66944 5.18868 5.1841 5.43598C4.43145 5.81947 3.81953 6.43139 3.43604 7.18404C3.18875 7.66938 3.09018 8.18608 3.04426 8.74818C3.02654 8.96509 3.01537 9.18248 3.00846 9.40011C2.99124 9.9422 2.98263 10.2132 3.08903 10.4341C3.18069 10.6243 3.34021 10.789 3.52745 10.8866C3.74478 11 4.02988 11 4.60006 11H19.4001C19.9703 11 20.2553 11 20.4727 10.8866C20.6599 10.789 20.8194 10.6243 20.9111 10.4341C21.0175 10.2132 21.0089 9.9422 20.9917 9.40011C20.9848 9.18248 20.9736 8.96509 20.9559 8.74818C20.9099 8.18608 20.8114 7.66938 20.5641 7.18404C20.1806 6.43139 19.5687 5.81947 18.816 5.43598C18.3307 5.18868 17.814 5.09012 17.2519 5.0442C16.7107 4.99998 16.0463 4.99999 15.2414 5H14.6182L15.618 3.00046C15.8726 3.00169 15.9735 3.00595 16.0691 3.01934C16.1917 3.03649 16.3123 3.06498 16.4296 3.10443C16.5466 3.14378 16.6645 3.20027 17.0663 3.4012L18.0528 3.89445C18.5468 4.14144 19.1475 3.94121 19.3945 3.44723C19.6415 2.95326 19.4412 2.35258 18.9473 2.10559L17.9089 1.58642C17.5809 1.42229 17.3328 1.29814 17.0674 1.20885C16.8328 1.12994 16.5915 1.07296 16.3464 1.03865C16.0691 0.99983 15.7917 0.999908 15.4249 1.00001H8.57522ZM12.3821 5L13.3821 3.00002H10.618L11.618 5H12.3821Z" fill="currentColor"/>
<path fill-rule="evenodd" clip-rule="evenodd" d="M16.3789 20.9939C16.0356 21 15.6573 21 15.2414 21H8.75875C8.34289 21 7.9645 21 7.62129 20.9939L6.89468 22.4474C6.64772 22.9414 6.04706 23.1416 5.55306 22.8947C5.05907 22.6477 4.85881 22.0471 5.10577 21.5531L5.52581 20.7128C5.41012 20.6704 5.29627 20.6212 5.1841 20.564C4.43145 20.1805 3.81953 19.5686 3.43604 18.816C3.18875 18.3306 3.09018 17.8139 3.04426 17.2518C3.00004 16.7106 3.00005 16.0463 3.00006 15.2413V14.6C3.00006 14.0399 3.00006 13.7599 3.10906 13.546C3.20493 13.3578 3.35791 13.2049 3.54607 13.109C3.75998 13 4.04001 13 4.60006 13H19.4001C19.9601 13 20.2401 13 20.4541 13.109C20.6422 13.2049 20.7952 13.3578 20.8911 13.546C21.0001 13.7599 21.0001 14.0399 21.0001 14.6V15.2413C21.0001 16.0463 21.0001 16.7106 20.9559 17.2518C20.9099 17.8139 20.8114 18.3306 20.5641 18.816C20.1806 19.5686 19.5687 20.1805 18.816 20.564C18.7039 20.6212 18.59 20.6704 18.4744 20.7128L18.8945 21.553C19.1415 22.047 18.9412 22.6477 18.4473 22.8946C17.9533 23.1416 17.3526 22.9414 17.1056 22.4474L16.3789 20.9939ZM8.50006 15C7.67164 15 7.00006 15.6716 7.00006 16.5C7.00006 17.3284 7.67164 18 8.50006 18C9.32849 18 10.0001 17.3284 10.0001 16.5C10.0001 15.6716 9.32849 15 8.50006 15ZM15.5001 15C14.6716 15 14.0001 15.6716 14.0001 16.5C14.0001 17.3284 14.6716 18 15.5001 18C16.3285 18 17.0001 17.3284 17.0001 16.5C17.0001 15.6716 16.3285 15 15.5001 15Z" fill="currentColor"/>
</svg>
