<svg width="100%" height="100%" viewBox="0 0 24 24" fill="none" xmlns="http://www.w3.org/2000/svg">
<path d="M9.00022 3C9.00022 2.44772 8.55251 2 8.00022 2C7.44794 2 7.00022 2.44772 7.00022 3V4H2.00022C1.44794 4 1.00022 4.44772 1.00022 5C1.00022 5.55228 1.44794 6 2.00022 6H10.2794C9.81399 7.9747 9.03183 9.79672 7.97629 11.413C7.08696 10.5782 6.33275 9.58445 5.92138 8.61081C5.70643 8.10207 5.11977 7.8639 4.61103 8.07884C4.10229 8.29379 3.86412 8.88045 4.07907 9.38919C4.6328 10.6998 5.62085 11.981 6.77503 13.0255C5.35264 14.7065 3.59089 16.0928 1.55519 17.1045C1.06061 17.3503 0.858922 17.9505 1.10471 18.445C1.35049 18.9396 1.95067 19.1413 2.44525 18.8955C4.76136 17.7445 6.75914 16.1609 8.3638 14.2438C8.77059 14.5038 9.18255 14.7289 9.59041 14.9122C10.0942 15.1385 10.6861 14.9136 10.9124 14.4098C11.1387 13.906 10.9138 13.3142 10.41 13.0878C10.1301 12.9621 9.84669 12.8103 9.56483 12.637C10.8735 10.6696 11.8156 8.42967 12.3285 6H14.0002C14.5525 6 15.0002 5.55228 15.0002 5C15.0002 4.44772 14.5525 4 14.0002 4H11.5167C11.5049 3.99979 11.4931 3.99979 11.4813 4H9.00022V3Z" fill="currentColor"/>
<path fill-rule="evenodd" clip-rule="evenodd" d="M17.1525 9.30806C16.7404 9.10906 16.26 9.10906 15.848 9.30806C15.4895 9.48117 15.2951 9.78278 15.1986 9.94509C15.0974 10.1152 14.9936 10.3322 14.8917 10.5455L12.0201 16.5497C12.0137 16.5625 12.0075 16.5754 12.0016 16.5885L10.0981 20.5685C9.85981 21.0667 10.0705 21.6638 10.5688 21.9021C11.067 22.1404 11.6641 21.9296 11.9024 21.4314L13.5435 17.9999H19.457L21.0981 21.4314C21.3364 21.9296 21.9335 22.1404 22.4317 21.9021C22.9299 21.6638 23.1407 21.0667 22.9024 20.5685L20.9989 16.5885C20.993 16.5754 20.9868 16.5625 20.9803 16.5497L18.1088 10.5455C18.0068 10.3323 17.903 10.1151 17.8019 9.94509C17.7053 9.78278 17.511 9.48117 17.1525 9.30806ZM16.5002 11.8177L18.5004 15.9999H14.5L16.5002 11.8177Z" fill="currentColor"/>
</svg>
