<svg width="100%" height="100%" viewBox="0 0 24 24" fill="none" xmlns="http://www.w3.org/2000/svg">
<path d="M12.8123 1.66837C12.295 1.43834 11.7044 1.43834 11.1871 1.66837C10.7876 1.84602 10.5281 2.15894 10.3475 2.41391C10.1699 2.6646 9.9798 2.99303 9.77072 3.35422L1.50357 17.6339C1.29366 17.9964 1.1029 18.3258 0.973562 18.6054C0.842112 18.8895 0.699508 19.2714 0.744957 19.7074C0.803767 20.2715 1.09931 20.7841 1.55802 21.1176C1.91252 21.3753 2.31451 21.4433 2.62627 21.4719C2.93302 21.5 3.31368 21.5 3.73257 21.5H20.2669C20.6857 21.5 21.0664 21.5 21.3732 21.4719C21.6849 21.4433 22.0869 21.3753 22.4414 21.1176C22.9001 20.7841 23.1957 20.2715 23.2545 19.7074C23.2999 19.2714 23.1573 18.8895 23.0259 18.6054C22.8965 18.3258 22.7058 17.9963 22.4959 17.6338L14.2287 3.35419C14.0196 2.99301 13.8295 2.6646 13.652 2.41391C13.4714 2.15894 13.2119 1.84602 12.8123 1.66837Z" fill="currentColor"/>
</svg>
