<svg width="100%" height="100%" viewBox="0 0 24 24" fill="none" xmlns="http://www.w3.org/2000/svg">
<path d="M19.707 14.2929C19.3165 13.9024 18.6833 13.9024 18.2928 14.2929C17.9022 14.6834 17.9022 15.3166 18.2928 15.7071L19.5857 17H15.9999C15.4476 17 14.9999 17.4477 14.9999 18C14.9999 18.5523 15.4476 19 15.9999 19H19.5857L18.2928 20.2929C17.9022 20.6834 17.9022 21.3166 18.2928 21.7071C18.6833 22.0976 19.3165 22.0976 19.707 21.7071L22.707 18.7071C22.8945 18.5196 22.9999 18.2652 22.9999 18C22.9999 17.7348 22.8945 17.4804 22.707 17.2929L19.707 14.2929Z" fill="currentColor"/>
<path fill-rule="evenodd" clip-rule="evenodd" d="M6.78594 14.5C8.26498 14.5003 9.74402 14.5006 11.2231 14.5C11.3422 14.4999 11.4844 14.4999 11.6098 14.5101C11.755 14.522 11.963 14.5524 12.1809 14.6635C12.4632 14.8073 12.6926 15.0368 12.8364 15.319C12.9475 15.537 12.9779 15.745 12.9898 15.8902C13 16.0155 13 16.1578 12.9999 16.2769C12.9995 17.5923 12.9995 18.9077 12.9999 20.2231C13 20.3423 13 20.4845 12.9898 20.6098C12.9779 20.7551 12.9475 20.963 12.8364 21.181C12.6926 21.4632 12.4632 21.6927 12.1809 21.8365C11.963 21.9476 11.755 21.978 11.6098 21.9899C11.4844 22.0001 11.3422 22.0001 11.2231 22C8.34568 21.999 5.46779 21.9847 2.59044 22.0001C2.51908 22.0005 2.37563 22.0012 2.23946 21.9772C1.61844 21.8677 1.13222 21.3815 1.02272 20.7605C0.998707 20.6243 0.999471 20.4809 0.999851 20.4095C1.003 19.8186 0.972816 19.2163 1.07589 18.6318C1.4409 16.5617 3.06163 14.941 5.13168 14.576C5.5641 14.4997 6.05926 14.4998 6.78594 14.5Z" fill="currentColor"/>
<path fill-rule="evenodd" clip-rule="evenodd" d="M4.49993 7.5C4.49993 4.46243 6.96236 2 9.99993 2C13.0375 2 15.4999 4.46243 15.4999 7.5C15.4999 10.5376 13.0375 13 9.99993 13C6.96236 13 4.49993 10.5376 4.49993 7.5Z" fill="currentColor"/>
</svg>
