<svg width="100%" height="100%" viewBox="0 0 24 24" fill="none" xmlns="http://www.w3.org/2000/svg">
<path fill-rule="evenodd" clip-rule="evenodd" d="M17.1063 15.388C17.3542 14.8945 17.9552 14.6954 18.4487 14.9433C20.0832 15.7644 21.4648 17.0715 22.4647 18.6822C22.6162 18.9262 22.8367 19.2521 22.9051 19.6937C22.9784 20.1665 22.8501 20.6186 22.6589 20.9624C22.4676 21.3061 22.1512 21.6536 21.7108 21.8407C21.2922 22.0186 20.8368 22 20.4998 22C19.9476 22 19.4998 21.5523 19.4998 21C19.4998 20.4477 19.9476 20 20.4998 20C20.715 20 20.8282 19.9994 20.9089 19.9939L20.911 19.9902C20.9302 19.9558 20.7849 19.7683 20.7655 19.737C19.9432 18.4124 18.8283 17.3722 17.551 16.7305C17.0574 16.4826 16.8583 15.8815 17.1063 15.388Z" fill="currentColor"/>
<path fill-rule="evenodd" clip-rule="evenodd" d="M15.1043 3.02273C15.3501 2.52815 15.9503 2.32646 16.4449 2.57225C18.2534 3.47103 19.4998 5.33904 19.4998 7.5C19.4998 9.66096 18.2534 11.529 16.4449 12.4278C15.9503 12.6735 15.3501 12.4719 15.1043 11.9773C14.8585 11.4827 15.0602 10.8825 15.5548 10.6367C16.7097 10.0628 17.4998 8.87276 17.4998 7.5C17.4998 6.12724 16.7097 4.9372 15.5548 4.36327C15.0602 4.11749 14.8585 3.51731 15.1043 3.02273Z" fill="currentColor"/>
<path fill-rule="evenodd" clip-rule="evenodd" d="M3.99985 7.5C3.99985 4.46243 6.46228 2 9.49985 2C12.5374 2 14.9998 4.46243 14.9998 7.5C14.9998 10.5376 12.5374 13 9.49985 13C6.46228 13 3.99985 10.5376 3.99985 7.5Z" fill="currentColor"/>
<path fill-rule="evenodd" clip-rule="evenodd" d="M9.49985 14C12.6961 14 15.5534 15.8041 17.297 18.4201C17.4506 18.6506 17.6144 18.8964 17.7289 19.13C17.8668 19.4111 17.9658 19.7341 17.9426 20.1198C17.9242 20.4275 17.8221 20.7129 17.7008 20.9395C17.5794 21.1661 17.3984 21.4093 17.1526 21.5952C16.8233 21.8442 16.4684 21.9315 16.1547 21.968C15.8785 22.0001 15.5513 22.0001 15.2218 22C11.4086 21.9993 7.59254 21.9993 3.77792 22C3.44837 22.0001 3.12123 22.0001 2.84499 21.968C2.53129 21.9315 2.1764 21.8442 1.84709 21.5952C1.60126 21.4093 1.42028 21.1661 1.29894 20.9395C1.1776 20.7129 1.07554 20.4275 1.05708 20.1198C1.03392 19.7341 1.13292 19.4111 1.27077 19.13C1.3853 18.8964 1.54911 18.6506 1.70272 18.4201C3.4463 15.8041 6.30361 14 9.49985 14Z" fill="currentColor"/>
</svg>
