<svg width="100%" height="100%" viewBox="0 0 24 24" fill="none" xmlns="http://www.w3.org/2000/svg">
<path d="M17.2069 3.29289C16.8163 2.90237 16.1832 2.90237 15.7926 3.29289C15.4021 3.68342 15.4021 4.31658 15.7926 4.70711L17.5855 6.5L15.7926 8.29289C15.4021 8.68342 15.4021 9.31658 15.7926 9.70711C16.1832 10.0976 16.8163 10.0976 17.2069 9.70711L18.9998 7.91421L20.7926 9.70711C21.1832 10.0976 21.8163 10.0976 22.2069 9.70711C22.5974 9.31658 22.5974 8.68342 22.2069 8.29289L20.414 6.5L22.2069 4.70711C22.5974 4.31658 22.5974 3.68342 22.2069 3.29289C21.8163 2.90237 21.1832 2.90237 20.7926 3.29289L18.9998 5.08579L17.2069 3.29289Z" fill="currentColor"/>
<path fill-rule="evenodd" clip-rule="evenodd" d="M6.7584 14H11.241C12.046 14 12.7103 14 13.2515 14.0442C13.8136 14.0901 14.3303 14.1887 14.8157 14.436C15.5683 14.8195 16.1802 15.4314 16.5637 16.184C16.811 16.6694 16.9096 17.1861 16.9555 17.7482C16.9997 18.2894 16.9997 18.9537 16.9997 19.7587C16.9997 20.0414 17.0126 20.3278 16.9896 20.6098C16.9777 20.755 16.9473 20.963 16.8362 21.181C16.6924 21.4632 16.4629 21.6927 16.1807 21.8365C15.9627 21.9476 15.7547 21.978 15.6095 21.9899C15.4842 22.0001 15.342 22.0001 15.2228 22C11.0741 21.9985 6.92532 21.9985 2.77656 22C2.65744 22.0001 2.51519 22.0001 2.38987 21.9899C2.24465 21.978 2.03666 21.9476 1.81871 21.8365C1.53647 21.6927 1.307 21.4632 1.16319 21.181C1.05214 20.963 1.0217 20.755 1.00983 20.6098C0.986791 20.3278 0.999697 20.0413 0.999697 19.7587C0.999684 18.9537 0.999674 18.2894 1.04389 17.7482C1.08982 17.1861 1.18838 16.6694 1.43567 16.184C1.81916 15.4314 2.43109 14.8195 3.18374 14.436C3.66907 14.1887 4.18577 14.0901 4.74787 14.0442C5.28907 14 5.95343 14 6.7584 14Z" fill="currentColor"/>
<path fill-rule="evenodd" clip-rule="evenodd" d="M4.4997 7.5C4.4997 5.01472 6.51442 3 8.9997 3C11.485 3 13.4997 5.01472 13.4997 7.5C13.4997 9.98528 11.485 12 8.9997 12C6.51442 12 4.4997 9.98528 4.4997 7.5Z" fill="currentColor"/>
</svg>
