<svg width="100%" height="100%" viewBox="0 0 24 24" fill="none" xmlns="http://www.w3.org/2000/svg">
<path fill-rule="evenodd" clip-rule="evenodd" d="M22.7073 3.29289C23.0978 3.68342 23.0978 4.31658 22.7073 4.70711L18.7073 8.70711C18.3168 9.09763 17.6836 9.09763 17.2931 8.70711L15.2931 6.70711C14.9026 6.31658 14.9026 5.68342 15.2931 5.29289C15.6836 4.90237 16.3168 4.90237 16.7073 5.29289L18.0002 6.58579L21.2931 3.29289C21.6836 2.90237 22.3168 2.90237 22.7073 3.29289Z" fill="currentColor"/>
<path fill-rule="evenodd" clip-rule="evenodd" d="M6.75889 14H11.2415C12.0465 14 12.7108 14 13.252 14.0442C13.8141 14.0901 14.3308 14.1887 14.8161 14.436C15.5688 14.8195 16.1807 15.4314 16.5642 16.184C16.8115 16.6694 16.9101 17.1861 16.956 17.7482C17.0002 18.2894 17.0002 18.9537 17.0002 19.7587C17.0002 20.0414 17.0131 20.3278 16.9901 20.6098C16.9782 20.755 16.9477 20.963 16.8367 21.181C16.6929 21.4632 16.4634 21.6927 16.1812 21.8365C15.9632 21.9476 15.7552 21.978 15.61 21.9899C15.4847 22.0001 15.3424 22.0001 15.2233 22C11.0746 21.9985 6.9258 21.9985 2.77705 22C2.65793 22.0001 2.51567 22.0001 2.39035 21.9899C2.24514 21.978 2.03715 21.9476 1.8192 21.8365C1.53696 21.6927 1.30749 21.4632 1.16368 21.181C1.05263 20.963 1.02218 20.755 1.01032 20.6098C0.987279 20.3278 1.00019 20.0413 1.00019 19.7587C1.00017 18.9537 1.00016 18.2894 1.04438 17.7482C1.0903 17.1861 1.18887 16.6694 1.43616 16.184C1.81965 15.4314 2.43158 14.8195 3.18422 14.436C3.66956 14.1887 4.18626 14.0901 4.74836 14.0442C5.28955 14 5.95392 14 6.75889 14Z" fill="currentColor"/>
<path fill-rule="evenodd" clip-rule="evenodd" d="M4.50019 7.5C4.50019 5.01472 6.5149 3 9.00019 3C11.4855 3 13.5002 5.01472 13.5002 7.5C13.5002 9.98528 11.4855 12 9.00019 12C6.5149 12 4.50019 9.98528 4.50019 7.5Z" fill="currentColor"/>
</svg>
