<svg width="100%" height="100%" viewBox="0 0 24 24" fill="none" xmlns="http://www.w3.org/2000/svg">
<path fill-rule="evenodd" clip-rule="evenodd" d="M18.0428 10.0429C19.1237 8.96201 20.8761 8.962 21.957 10.0429C23.0379 11.1237 23.0379 12.8763 21.957 13.9572C19.7972 16.117 17.6337 18.2732 15.4775 20.4366C15.3924 20.5221 15.2851 20.6297 15.1596 20.7219C15.0505 20.802 14.9335 20.8708 14.8105 20.9272C14.669 20.9922 14.5228 21.0337 14.4068 21.0667C13.3622 21.3632 12.3187 21.6632 11.2746 21.9615C10.9254 22.0613 10.5496 21.9639 10.2928 21.7071C10.036 21.4503 9.93858 21.0745 10.0384 20.7253C10.3367 19.6812 10.6367 18.6377 10.9332 17.5931C10.9662 17.4771 11.0077 17.3309 11.0726 17.1894C11.1291 17.0664 11.1979 16.9494 11.278 16.8403C11.3702 16.7148 11.4778 16.6075 11.5633 16.5224C13.7267 14.3662 15.883 12.2027 18.0428 10.0429Z" fill="currentColor"/>
<path fill-rule="evenodd" clip-rule="evenodd" d="M6.60976 14.5101C6.75498 14.522 6.96297 14.5524 7.18091 14.6635C7.46316 14.8073 7.69263 15.0368 7.83644 15.319C7.94749 15.537 7.97793 15.745 7.9898 15.8902C8.00003 16.0155 7.99998 16.1578 7.99993 16.2769C7.99945 17.5923 7.99945 18.9077 7.99993 20.2231C7.99998 20.3423 8.00003 20.4845 7.9898 20.6098C7.97793 20.7551 7.94749 20.963 7.83644 21.181C7.69263 21.4632 7.46316 21.6927 7.18091 21.8365C6.96297 21.9476 6.75498 21.978 6.60976 21.9899C6.48444 22.0001 6.34218 22.0001 6.22307 22C3.34568 21.999 5.46779 21.9847 2.59044 22.0001C2.51908 22.0005 2.37563 22.0012 2.23946 21.9772C1.61844 21.8677 1.13222 21.3815 1.02272 20.7605C0.998707 20.6243 0.999471 20.4809 0.999851 20.4095C1.003 19.8186 0.972816 19.2163 1.07589 18.6318C1.4409 16.5617 3.06163 14.941 5.13168 14.576C5.77853 14.4619 6.34171 14.4882 6.60976 14.5101Z" fill="currentColor"/>
<path fill-rule="evenodd" clip-rule="evenodd" d="M4.49993 7.5C4.49993 4.46243 6.96236 2 9.99993 2C13.0375 2 15.4999 4.46243 15.4999 7.5C15.4999 10.5376 13.0375 13 9.99993 13C6.96236 13 4.49993 10.5376 4.49993 7.5Z" fill="currentColor"/>
</svg>
