<svg width="100%" height="100%" viewBox="0 0 24 24" fill="none" xmlns="http://www.w3.org/2000/svg">
<path d="M5.16133 3L18.8384 3C19.3656 2.99999 19.8203 2.99997 20.1949 3.03057C20.5903 3.06288 20.9835 3.13419 21.3618 3.32699C21.9263 3.61461 22.3853 4.07355 22.6729 4.63803C22.8657 5.01641 22.937 5.40963 22.9693 5.80498C22.9719 5.83682 22.9743 5.86869 22.9765 5.90056C23.0128 6.42084 23.031 6.68098 22.928 6.91004C22.8414 7.10265 22.6745 7.28155 22.4884 7.38133C22.2671 7.5 21.978 7.5 21.3999 7.5H2.59987C2.02175 7.5 1.73269 7.5 1.51134 7.38133C1.32522 7.28155 1.15837 7.10265 1.07177 6.91004C0.96879 6.68098 0.986932 6.42084 1.02322 5.90056C1.02544 5.86868 1.02784 5.83682 1.03045 5.80498C1.06275 5.40963 1.13406 5.01641 1.32686 4.63803C1.61448 4.07355 2.07342 3.6146 2.63791 3.32698C3.01628 3.13419 3.4095 3.06287 3.80485 3.03057C4.1794 2.99997 4.63422 2.99998 5.16133 3Z" fill="currentColor"/>
<path d="M1.79987 9.5C1.51985 9.5 1.37983 9.5 1.27288 9.5545C1.1788 9.60243 1.10231 9.67892 1.05437 9.77301C0.999874 9.87996 0.999874 10.02 0.999874 10.3V10.7C0.999874 10.98 0.999874 11.12 1.05437 11.227C1.10231 11.3211 1.1788 11.3976 1.27288 11.4455C1.37984 11.5 1.51985 11.5 1.79988 11.5L5.62092 11.5C6.08932 11.4998 6.44354 11.4997 6.7935 11.5621C7.10259 11.6172 7.40412 11.7085 7.69186 11.8341C8.01763 11.9763 8.31225 12.1729 8.70188 12.4328L9.34534 12.8618C9.82344 13.1805 9.96459 13.2703 10.108 13.333C10.2519 13.3958 10.4027 13.4414 10.5572 13.469C10.7113 13.4964 10.8786 13.5 11.4532 13.5H12.5466C13.1212 13.5 13.2884 13.4964 13.4425 13.469C13.5971 13.4414 13.7478 13.3958 13.8917 13.333C14.0352 13.2703 14.1763 13.1805 14.6544 12.8618L15.2978 12.4328C15.6875 12.1729 15.9821 11.9763 16.3079 11.8341C16.5956 11.7085 16.8972 11.6172 17.2063 11.5621C17.5562 11.4997 17.9104 11.4998 18.3788 11.5L22.1999 11.5C22.4799 11.5 22.6199 11.5 22.7269 11.4455C22.821 11.3976 22.8974 11.3211 22.9454 11.227C22.9999 11.12 22.9999 10.98 22.9999 10.7V10.3C22.9999 10.02 22.9999 9.87996 22.9454 9.77301C22.8974 9.67892 22.821 9.60243 22.7269 9.5545C22.6199 9.5 22.4799 9.5 22.1999 9.5H1.79987Z" fill="currentColor"/>
<path d="M22.9999 15.1C22.9999 14.5399 22.9999 14.2599 22.8909 14.046C22.795 13.8578 22.642 13.7049 22.4539 13.609C22.24 13.5 21.9599 13.5 21.3999 13.5H18.4532C17.8786 13.5 17.7113 13.5036 17.5572 13.531C17.4027 13.5586 17.2519 13.6042 17.108 13.667C16.9646 13.7297 16.8234 13.8195 16.3453 14.1382L15.7019 14.5672C15.3123 14.8271 15.0176 15.0237 14.6919 15.1659C14.4041 15.2915 14.1026 15.3828 13.7935 15.4379C13.4435 15.5003 13.0894 15.5002 12.6209 15.5H11.3788C10.9104 15.5002 10.5562 15.5003 10.2063 15.4379C9.89716 15.3828 9.59563 15.2915 9.30789 15.1659C8.98211 15.0237 8.68748 14.8271 8.29783 14.5672L7.65441 14.1382C7.1763 13.8195 7.03515 13.7297 6.8917 13.667C6.74783 13.6042 6.59707 13.5586 6.44252 13.531C6.28843 13.5036 6.12116 13.5 5.54655 13.5H2.59987C2.03982 13.5 1.7598 13.5 1.54588 13.609C1.35772 13.7049 1.20474 13.8578 1.10887 14.046C0.999874 14.2599 0.999874 14.5399 0.999874 15.1V16.8385C0.999858 17.3657 0.999844 17.8205 1.03045 18.195C1.06275 18.5904 1.13406 18.9836 1.32686 19.362C1.61448 19.9265 2.07342 20.3854 2.6379 20.673C3.01628 20.8658 3.4095 20.9371 3.80485 20.9694C4.17941 21 4.63417 21 5.16131 21L18.8384 21C19.3656 21 19.8203 21 20.1949 20.9694C20.5903 20.9371 20.9835 20.8658 21.3618 20.673C21.9263 20.3854 22.3853 19.9265 22.6729 19.362C22.8657 18.9836 22.937 18.5904 22.9693 18.195C22.9999 17.8205 22.9999 17.3657 22.9999 16.8386V15.1Z" fill="currentColor"/>
</svg>
