<svg width="100%" height="100%" viewBox="0 0 24 24" fill="none" xmlns="http://www.w3.org/2000/svg">
<path fill-rule="evenodd" clip-rule="evenodd" d="M5.66998 5.50183C5.49769 5.50424 5.33623 5.50983 5.19182 5.5227C4.92025 5.54691 4.58765 5.60439 4.2721 5.79992C3.84811 6.06264 3.53759 6.47431 3.40146 6.95416C3.30014 7.31128 3.33624 7.64687 3.38757 7.91465C3.44392 8.20863 3.4721 8.35563 3.5578 8.50292C3.6696 8.69505 3.88119 8.86994 4.09093 8.94356C4.25173 9 4.43349 9 4.79703 9H19.2026C19.5661 9 19.7479 9 19.9087 8.94356C20.1184 8.86994 20.33 8.69505 20.4418 8.50292C20.5275 8.35562 20.5557 8.20863 20.612 7.91465C20.6634 7.64687 20.6995 7.31128 20.5981 6.95416C20.462 6.47431 20.1515 6.06264 19.7275 5.79992C19.4119 5.60439 19.0794 5.54691 18.8078 5.5227C18.6634 5.50983 18.5019 5.50425 18.3297 5.50183C18.4414 5.18262 18.4998 4.84404 18.4998 4.5C18.4998 3.71011 18.1918 2.94902 17.6379 2.38508C17.0835 1.82053 16.3276 1.5 15.5355 1.5C13.7408 1.5 12.6273 2.71846 11.9998 3.77224C11.3724 2.71846 10.2588 1.5 8.4641 1.5C7.67205 1.5 6.91616 1.82053 6.36169 2.38508C5.80783 2.94902 5.49982 3.71011 5.49982 4.5C5.49982 4.84404 5.55825 5.18262 5.66998 5.50183ZM7.78859 3.78649C7.97087 3.6009 8.21423 3.5 8.4641 3.5C9.27379 3.5 9.8975 4.07581 10.3834 4.97527C10.4784 5.15116 10.5617 5.32865 10.6341 5.5H8.4641C8.21423 5.5 7.97087 5.3991 7.78859 5.21351C7.60571 5.0273 7.49982 4.77097 7.49982 4.5C7.49982 4.22903 7.60571 3.9727 7.78859 3.78649ZM13.3656 5.5C13.438 5.32865 13.5213 5.15116 13.6163 4.97527C14.1021 4.07581 14.7259 3.5 15.5355 3.5C15.7854 3.5 16.0288 3.6009 16.2111 3.78649C16.3939 3.9727 16.4998 4.22903 16.4998 4.5C16.4998 4.77097 16.3939 5.0273 16.2111 5.21351C16.0288 5.3991 15.7854 5.5 15.5355 5.5H13.3656Z" fill="currentColor"/>
<path d="M21.2321 11.7768C21.0622 11.4935 20.9772 11.3519 20.8602 11.249C20.7567 11.158 20.6354 11.0893 20.5041 11.0474C20.3557 11 20.1905 11 19.8602 11H4.13953C3.80919 11 3.64402 11 3.49561 11.0474C3.36427 11.0893 3.24303 11.158 3.13949 11.249C3.02249 11.3519 2.93751 11.4935 2.76755 11.7768L2.21992 12.6895C1.8584 13.2913 1.58536 13.7458 1.43997 14.2481C1.31179 14.6909 1.26112 15.1525 1.29019 15.6125C1.32316 16.1344 1.4911 16.6373 1.71346 17.3032L2.01335 18.2031C2.35066 19.2176 2.60452 19.9811 3.09366 20.566C3.52324 21.0797 4.07492 21.4774 4.6981 21.7224C5.40767 22.0015 6.21231 22.0009 7.2814 22.0001L16.7183 22.0001C17.7874 22.0009 18.592 22.0015 19.3016 21.7225C19.9248 21.4774 20.4764 21.0797 20.906 20.566C21.3952 19.9811 21.649 19.2176 21.9863 18.2031L22.2862 17.3032C22.5086 16.6373 22.6765 16.1344 22.7095 15.6125C22.7386 15.1525 22.6879 14.6909 22.5597 14.2481C22.4143 13.7459 22.1413 13.2913 21.7798 12.6896L21.2321 11.7768Z" fill="currentColor"/>
</svg>
