<svg width="100%" height="100%" viewBox="0 0 24 24" fill="none" xmlns="http://www.w3.org/2000/svg">
<path fill-rule="evenodd" clip-rule="evenodd" d="M12.2195 12.9796C10.0503 13.6738 7.57953 14.4645 4.7287 13.6601C4.28592 13.5352 3.75679 13.3499 3.35301 13.2022C3.14793 13.1271 2.96904 13.0595 2.84124 13.0106C2.77727 12.9861 2.72591 12.9662 2.69026 12.9523L2.64891 12.9361L2.63351 12.9301C2.63351 12.9301 2.63334 12.93 2.99027 12.0251L2.63351 12.9301C2.11974 12.7275 1.86735 12.1466 2.06999 11.6329C2.27262 11.1191 2.85334 10.8669 3.3671 11.0695L3.0005 11.9991C3.36715 11.0695 3.3671 11.0695 3.3671 11.0695L3.37871 11.0741L3.41569 11.0885C3.4483 11.1012 3.49627 11.1198 3.55655 11.1428C3.67725 11.1891 3.84657 11.2531 4.04029 11.324C4.43411 11.4681 4.90497 11.6318 5.27179 11.7353C7.50375 12.365 9.44541 11.7671 11.6956 11.0473C11.724 11.0382 11.7525 11.0291 11.781 11.02C13.9502 10.3258 16.421 9.53506 19.2718 10.3394C19.7146 10.4643 20.2437 10.6496 20.6475 10.7974C20.8526 10.8724 21.0314 10.94 21.1592 10.989C21.2232 11.0135 21.2746 11.0334 21.3102 11.0473L21.3516 11.0634L21.367 11.0694C21.367 11.0694 21.3672 11.0695 21.0002 11.9998L21.367 11.0694C21.8807 11.2721 22.1331 11.8529 21.9305 12.3667C21.7279 12.8804 21.1471 13.1327 20.6333 12.93L20.6218 12.9255L20.5848 12.9111C20.5522 12.8984 20.5042 12.8798 20.4439 12.8567C20.3232 12.8105 20.1539 12.7465 19.9602 12.6756C19.5664 12.5315 19.0955 12.3678 18.7287 12.2643C16.4967 11.6345 14.5551 12.2324 12.3049 12.9522C12.2765 12.9613 12.248 12.9704 12.2195 12.9796Z" fill="currentColor"/>
<path fill-rule="evenodd" clip-rule="evenodd" d="M12.2195 18.9796C10.0503 19.6738 7.57953 20.4645 4.7287 19.6601C4.28592 19.5352 3.75679 19.3499 3.35301 19.2022C3.14793 19.1271 2.96904 19.0595 2.84124 19.0106C2.77727 18.9861 2.72591 18.9662 2.69026 18.9523L2.64891 18.9361L2.63351 18.9301C2.63351 18.9301 2.63334 18.93 2.99027 18.0251L2.63351 18.9301C2.11974 18.7275 1.86735 18.1466 2.06999 17.6329C2.27262 17.1191 2.85334 16.8669 3.3671 17.0695L3.0005 17.9991C3.36715 17.0695 3.3671 17.0695 3.3671 17.0695L3.37871 17.0741L3.41569 17.0885C3.4483 17.1012 3.49627 17.1198 3.55655 17.1429C3.67725 17.1891 3.84657 17.2531 4.04029 17.324C4.43411 17.4681 4.90497 17.6318 5.27179 17.7353C7.50375 18.365 9.44541 17.7671 11.6956 17.0473C11.724 17.0382 11.7525 17.0291 11.781 17.02C13.9502 16.3258 16.421 15.5351 19.2718 16.3394C19.7146 16.4643 20.2437 16.6496 20.6475 16.7974C20.8526 16.8724 21.0314 16.94 21.1592 16.989C21.2232 17.0135 21.2746 17.0334 21.3102 17.0473L21.3516 17.0634L21.367 17.0694C21.367 17.0694 21.3672 17.0695 21.0002 17.9998L21.367 17.0694C21.8807 17.2721 22.1331 17.8529 21.9305 18.3667C21.7279 18.8804 21.1471 19.1327 20.6333 18.93L20.6218 18.9255L20.5848 18.9111C20.5522 18.8984 20.5042 18.8798 20.4439 18.8567C20.3232 18.8105 20.1539 18.7465 19.9602 18.6756C19.5664 18.5315 19.0955 18.3678 18.7287 18.2643C16.4967 17.6345 14.5551 18.2324 12.3049 18.9522C12.2765 18.9613 12.248 18.9704 12.2195 18.9796Z" fill="currentColor"/>
<path fill-rule="evenodd" clip-rule="evenodd" d="M12.2195 6.97957C10.0503 7.67377 7.57953 8.46449 4.7287 7.66014C4.28592 7.53521 3.75679 7.34994 3.35301 7.20219C3.14793 7.12714 2.96904 7.05951 2.84124 7.01056C2.77727 6.98606 2.72591 6.96617 2.69026 6.9523L2.64891 6.93615L2.63351 6.9301C2.63351 6.9301 2.63334 6.93003 2.99027 6.02506L2.63351 6.9301C2.11974 6.72746 1.86735 6.14663 2.06999 5.63287C2.27262 5.11912 2.85334 4.8669 3.3671 5.0695L3.0005 5.99912C3.36715 5.06952 3.3671 5.0695 3.3671 5.0695L3.37871 5.07406L3.41569 5.08849C3.4483 5.10119 3.49627 5.11976 3.55655 5.14285C3.67725 5.18908 3.84657 5.2531 4.04029 5.32398C4.43411 5.46809 4.90497 5.63179 5.27179 5.73529C7.50375 6.36503 9.44541 5.76712 11.6956 5.04732C11.724 5.03823 11.7525 5.02911 11.781 5.01998C13.9502 4.32577 16.421 3.53506 19.2718 4.33941C19.7146 4.46434 20.2437 4.64961 20.6475 4.79736C20.8526 4.8724 21.0314 4.94004 21.1592 4.98899C21.2232 5.01349 21.2746 5.03338 21.3102 5.04725L21.3516 5.0634L21.367 5.06945C21.367 5.06945 21.3672 5.06952 21.0002 5.99977L21.367 5.06945C21.8807 5.27209 22.1331 5.85292 21.9305 6.36668C21.7279 6.88045 21.1471 7.13267 20.6333 6.93003L20.6218 6.92549L20.5848 6.91105C20.5522 6.89836 20.5042 6.87978 20.4439 6.8567C20.3232 6.81047 20.1539 6.74645 19.9602 6.67556C19.5664 6.53145 19.0955 6.36775 18.7287 6.26426C16.4967 5.63452 14.5551 6.23242 12.3049 6.95223C12.2765 6.96132 12.248 6.97044 12.2195 6.97957Z" fill="currentColor"/>
</svg>
